<svg id="Group_187008" data-name="Group 187008" xmlns="http://www.w3.org/2000/svg" xmlns:xlink="http://www.w3.org/1999/xlink" width="375.333" height="380.986" viewBox="0 0 375.333 380.986">
  <defs>
    <clipPath id="clip-path">
      <rect id="Rectangle_185" data-name="Rectangle 185" width="375.333" height="380.986" fill="none"/>
    </clipPath>
  </defs>
  <g id="Group_187007" data-name="Group 187007" clip-path="url(#clip-path)">
    <path id="Path_172682" data-name="Path 172682" d="M133.35,240.725l.008,0A122.127,122.127,0,0,1,186.522,157.1h-.008c26.315-17.751,59.64-24.188,90.718-18.251V18.9A18.975,18.975,0,0,0,258.33,0H163.819V75.609a25.2,25.2,0,0,1-50.406,0V0H18.9A18.958,18.958,0,0,0,0,18.9V258.33a18.941,18.941,0,0,0,18.9,18.9H133.278a117.183,117.183,0,0,1,.072-36.507" fill="#7f6bf6"/>
    <path id="Path_172683" data-name="Path 172683" d="M238.141,269.171c-.648-.73-1.288-1.737-2.47-1.458-6.156,1.187-4.791-7.076-8.923-9.391-5.26-3.013-13.03-6.447-18.558-2.107-2.406,2.592-2.476,2.525-4.111-.754-.983-1.687-1.559-3.845-2.929-5.226-1.729-1.025-9.237.058-10.545,1.651a6.556,6.556,0,0,1-6.455,2.613c-1.664-.5-5.451,1.157-4.855-1.849,1.044-4.156-4.266-4.814-4.478-8.5.037-.926.784-2.518-.72-2.768-1.428-.237-3.067-.637-4.462.552-4.687,6.637-4.881-.02-7.349-3.977a1.485,1.485,0,0,1-.2-1.286c4.61-7.16,18.473-4.78,24.643-.4a1.652,1.652,0,0,0,2.394-.257c14.2-10.919,6.206-19.635,16.541-30.022,8.282-10.5,20.208,3,17.607-11-.034-2.036.695-1.983,2.214-1.438,3.185,1.14,6.424,2.126,9.62,3.236.828.287,1.5.529,2.236-.225,2.542-2.6,5.13-5.154,7.7-7.726-4.1.89-4.943-2.113-6.109-4.663-1.534-2.718-4.781-10.434-8.729-8.091-10.732,8.547-24.65-3.126-27.952,10.25-1.538,4.277-3.7-3.162-6.22-2.286-5.372,1.019-3.009-4.082-3.557-7.075-.557-3.186,7.511-3.46,9.757-5.048,2.424-1.01,4.377-.942,5.9,1.4,1.23,1.892,2.745,1.828,4.71,1.071,5.984-2.3,12.039-4.424,18.641-3.679.11.012.242-.19.493-.4-2.846-5.154-4.9-13.819-12.513-12.788-1.936.546-4.529-.832-6.011.968-2.616,3.419-6.5,4.936-10.143,6.848-3.416,1.817-5.359-3.3-8.083-4.688a114.675,114.675,0,0,0-54.383,81.958c5.188,6.174,7.784,0,16.838,8.332,3.018,2.717,5.822,3.99,9.705,3.576,5.735-1.4,3.643,5.961,13.435,4.323,3.812-.961,3.626,3.994,1.582,5.583-4.129,3.094-4.869,8.153-6.319,12.806h73.731c-3.357-3.289-8.294-3.933-11.668-8.061" fill="#7f6bf6"/>
    <path id="Path_172684" data-name="Path 172684" d="M292.438,142.8a117.236,117.236,0,0,0-15.206-3.959V258.329a18.957,18.957,0,0,1-18.9,18.9h-8.521a10.821,10.821,0,0,1,2.667,4.256c1.7,3.128,1.522,5.87.074,8.965-1.029,5.814-3.888,10.1-9.924,11.726-4.787,1.719,3.289,9.529-7.668,12.644-2.81.611-3.174,2.763-2.81,5.287,1.163,6.5-.416,11.406-7.565,13.119-2.114.7-1.738,3.509-2.741,5.112-4.933,8.989-.449,15.547,5.833,21.843-5.514.325-11.489.886-13.4-5.05-2.381-6.915-4.535-13.889-8.066-20.354-1.185-2.171-.422-4.693-.453-7.048-.86-9.633-10.7-16.843-8.85-27.108.717-5.141-6.616,2.2-14.208-7.155-2.53-3-8.418-10.257-7.4-14.017.289-.722.541-1.466.776-2.22h-42.8c9.279,59.787,63.858,107.664,127.509,103.5,133.519-7.662,158.342-195.7,31.651-237.928m43.715,36.163c-3.543-2.307-11.413-4.739-11.623-10.438a113.43,113.43,0,0,1,11.623,10.438m-28.977,13.993c1.689-1.014,9.154.156,10.565,1.63.634.662,1.155,1.433,2.07,2.586.7-2.809.347-4.962.42-7.083,1.19-8.7,8.5-4.78,13.692-6.67,2.453-1.875,3.46-2.808,2.94-3.728a113.935,113.935,0,0,1,21.085,30.836c-4.227.556-1.384-3.46-3.566-5.562a81.783,81.783,0,0,1-6.243-6.206c-1.019-1.089-1.678-1.264-2.856-.1-3.165,3.131-2.987,2.8.7,6.539,4.308,4.736,7.555,4.657-.24,7.948-1.774.8-3.449,2.619-5.385-.011-1.171-1.591-2.767-2.66-2.577-5.112.291-3.78-2.593-6.52-3.927-9.784-.4-.973-1.1-.287-1.478.192-2.807,3.609-7.048,5-10.889,7.009-6.635,5.8-5.121,5.17-13.925,4.918-.815.035-1.055-.948-1.409-1.523-4.433-7.257-3.573-9.026,1.02-15.878m35.046,138.926c-.506-3.017.89-6.512-1.19-9.327-2.257-4.4-4.348-8.891-6.7-13.239-.875-1.617-.633-2.546.655-3.71,13.8-12.112,1.5-5.673,2.854-22.984A2.35,2.35,0,0,0,336.6,280.3c-6.543-4.178-15.086-5.613-21.848-.97-8.427,3.983-20.448.937-23.174-8.737-2.411-6.429-2.115-12.922-2.179-19.489.389-3.541,5.247-4.135,4.459-8.228.187-5.2-1.507-10.683,3.408-14.075a3.23,3.23,0,0,1,2.8-.741,19.216,19.216,0,0,0,12.816-2.989c4.016-2.546,8.975-.9,13.424-1.478a5.339,5.339,0,0,1,5,2.123c2.567,3.241,6.582,4.193,9.956,6.161,1.134.662,1.744-.172,2.276-.859,2.834-3.656,7.177-4.885,10.985-6.987,2.074-1.188,6.233,3.349,9.773,3.51a115.085,115.085,0,0,1-4.678,75.8,113.818,113.818,0,0,1-17.385,28.547" fill="#97f8b7"/>
    <path id="Path_172685" data-name="Path 172685" d="M182.4,264.426c2.044-1.589,2.23-6.543-1.582-5.583-9.792,1.639-7.7-5.719-13.435-4.322-3.883.413-6.687-.86-9.705-3.577-9.054-8.328-11.65-2.157-16.838-8.331a114.683,114.683,0,0,1,54.383-81.959c2.724,1.39,4.667,6.506,8.083,4.688,3.644-1.912,7.527-3.428,10.143-6.847,1.482-1.8,4.075-.423,6.011-.969,7.609-1.03,9.667,7.634,12.513,12.789-.251.211-.383.414-.493.4-6.6-.745-12.657,1.375-18.641,3.68-1.965.757-3.48.821-4.71-1.072-1.52-2.341-3.473-2.408-5.9-1.4-2.246,1.587-10.314,1.861-9.757,5.047.548,2.993-1.815,8.095,3.557,7.075,2.518-.876,4.682,6.564,6.22,2.287,3.3-13.377,17.22-1.7,27.952-10.251,3.948-2.342,7.195,5.374,8.729,8.092,1.166,2.55,2.009,5.552,6.109,4.663-2.571,2.571-5.159,5.126-7.7,7.725-.737.754-1.408.513-2.236.225-3.2-1.109-6.435-2.1-9.62-3.236-1.519-.544-2.248-.6-2.214,1.438,2.6,14-9.325.5-17.607,11-10.335,10.386-2.337,19.1-16.541,30.021a1.65,1.65,0,0,1-2.394.257c-6.17-4.38-20.033-6.76-24.643.4a1.484,1.484,0,0,0,.2,1.286c2.468,3.957,2.662,10.614,7.349,3.977,1.4-1.189,3.034-.789,4.463-.551,1.5.249.756,1.841.719,2.767.212,3.692,5.522,4.349,4.478,8.5-.6,3.007,3.191,1.345,4.855,1.849a6.556,6.556,0,0,0,6.455-2.613c1.308-1.593,8.816-2.675,10.545-1.65,1.37,1.381,1.946,3.539,2.929,5.226,1.635,3.279,1.705,3.345,4.111.753,5.528-4.339,13.3-.906,18.558,2.107,4.132,2.315,2.767,10.579,8.923,9.391,1.182-.279,1.822.728,2.47,1.458,3.374,4.128,8.311,4.772,11.668,8.061h8.521a18.957,18.957,0,0,0,18.9-18.9V138.847c-31.078-5.937-64.4.5-90.718,18.252h.009a122.125,122.125,0,0,0-53.165,83.631l-.008,0a117.183,117.183,0,0,0-.072,36.507h42.8c1.45-4.653,2.19-9.712,6.319-12.806" fill="#4f2fde"/>
  </g>
</svg>
