<svg width="36" height="36" viewBox="0 0 36 36" fill="none" xmlns="http://www.w3.org/2000/svg">
<path d="M8.5716 17.6629L12.2688 24.0688C9.26892 25.9372 7.24608 29.2286 7.14888 33H0C0 26.5142 3.42864 20.8342 8.5716 17.6629Z" fill="#93FFB7"/>
<path d="M26.4172 17.0858L22.7142 23.5086C21.2857 22.817 19.6913 22.4286 18 22.4286C16.303 22.4286 14.697 22.817 13.2685 23.5144L9.56556 17.097C12.0802 15.76 14.9486 15 18 15C21.0398 15 23.9087 15.7542 26.4172 17.0858Z" fill="#93FFB7"/>
<path d="M36 33H28.8515C28.7543 29.2229 26.7257 25.9199 23.7143 24.0572L27.4115 17.6572C32.5656 20.8226 36 26.5085 36 33Z" fill="#93FFB7"/>
<path d="M18.7122 29.1437C18.4322 29.1437 18.1637 29.178 17.9066 29.2408L14.0956 20.3447C13.9699 20.0533 13.6328 19.9219 13.3471 20.0476C13.0557 20.1733 12.9243 20.5104 13.0443 20.7961L16.8553 29.6922C15.9125 30.3035 15.284 31.3663 15.284 32.5718C15.284 34.463 16.821 36 18.7122 36C20.6034 36 22.1403 34.463 22.1403 32.5718C22.1403 30.6806 20.6034 29.1437 18.7122 29.1437Z" fill="#7F6BF6"/>
<path fill-rule="evenodd" clip-rule="evenodd" d="M15.1506 22.8065L14.0959 20.3446C13.9702 20.0532 13.6331 19.9218 13.3475 20.0475C13.0561 20.1732 12.9246 20.5103 13.0446 20.796L14.0603 23.1669C14.4149 23.0281 14.7788 22.9076 15.1506 22.8065Z" fill="#5B3DEB"/>
</svg>
