<?xml version="1.0" encoding="UTF-8"?>
<svg xmlns="http://www.w3.org/2000/svg" version="1.1" viewBox="0 0 36 21.5">
  <defs>
    <style>
      .cls-1 {
        fill: #93ffb7;
      }

      .cls-2 {
        fill: #7f6bf6;
      }

      .cls-3 {
        fill: #5b3deb;
        fill-rule: evenodd;
      }
    </style>
  </defs>
  <!-- Generator: Adobe Illustrator 28.7.2, SVG Export Plug-In . SVG Version: 1.2.0 Build 154)  -->
  <g>
    <g id="Layer_1">
      <path class="cls-1" d="M8.6,3.2l3.7,6.4c-3,1.9-5,5.2-5.1,8.9H0C0,12,3.4,6.3,8.6,3.2Z"/>
      <path class="cls-1" d="M26.4,2.6l-3.7,6.4c-1.4-.7-3-1.1-4.7-1.1s-3.3.4-4.7,1.1l-3.7-6.4C12.1,1.3,14.9.5,18,.5s5.9.8,8.4,2.1Z"/>
      <path class="cls-1" d="M36,18.5h-7.1c0-3.8-2.1-7.1-5.1-8.9l3.7-6.4c5.2,3.2,8.6,8.9,8.6,15.3Z"/>
      <path class="cls-2" d="M18.7,14.6c-.3,0-.5,0-.8,0l-3.8-8.9c-.1-.3-.5-.4-.7-.3-.3.1-.4.5-.3.7l3.8,8.9c-.9.6-1.6,1.7-1.6,2.9,0,1.9,1.5,3.4,3.4,3.4s3.4-1.5,3.4-3.4-1.5-3.4-3.4-3.4Z"/>
      <path class="cls-3" d="M15.2,8.3l-1.1-2.5c-.1-.3-.5-.4-.7-.3-.3.1-.4.5-.3.7l1,2.4c.4-.1.7-.3,1.1-.4Z"/>
    </g>
  </g>
</svg>