<svg width="30" height="36" viewBox="0 0 30 36" fill="none" xmlns="http://www.w3.org/2000/svg">
<g clip-path="url(#clip0_838_1366)">
<path d="M15.5302 14.4697C15.2369 14.1764 14.7629 14.1764 14.4697 14.4697L7.71969 21.2197C7.42644 21.5129 7.42644 21.9869 7.71969 22.2802L14.4697 29.0302C14.6159 29.1764 14.8079 29.2499 14.9999 29.2499C15.1919 29.2499 15.3839 29.1764 15.5302 29.0302L22.2802 22.2802C22.5734 21.9869 22.5734 21.5129 22.2802 21.2197L15.5302 14.4697ZM14.9999 27.4394L9.31044 21.7499L14.9999 16.0604L20.6894 21.7499L14.9999 27.4394Z" fill="#E3FF65"/>
<path d="M3.43944 18.7499L0.969693 21.2197C0.676443 21.5129 0.676443 21.9869 0.969693 22.2802L14.4697 35.7802C14.6159 35.9264 14.8079 35.9999 14.9999 35.9999C15.1919 35.9999 15.3839 35.9264 15.5302 35.7802L29.0302 22.2802C29.3234 21.9869 29.3234 21.5129 29.0302 21.2197L26.5604 18.7499L29.7802 15.5302C30.0734 15.2369 30.0734 14.7629 29.7802 14.4697L15.5302 0.219693C15.2369 -0.0735567 14.7629 -0.0735567 14.4697 0.219693L0.219693 14.4697C-0.0735566 14.7629 -0.0735566 15.2369 0.219693 15.5302L3.43944 18.7499ZM14.9999 34.1894L2.56044 21.7499L14.9999 9.31044L27.4394 21.7499L14.9999 34.1894ZM14.9999 1.81044L28.1894 14.9999L25.4999 17.6894L15.5302 7.71969C15.2369 7.42644 14.7629 7.42644 14.4697 7.71969L4.49994 17.6894L1.81044 14.9999L14.9999 1.81044Z" fill="#E3FF65"/>
<path d="M15 23.25C15.8284 23.25 16.5 22.5784 16.5 21.75C16.5 20.9216 15.8284 20.25 15 20.25C14.1716 20.25 13.5 20.9216 13.5 21.75C13.5 22.5784 14.1716 23.25 15 23.25Z" fill="#E3FF65"/>
</g>
<defs>
<clipPath id="clip0_838_1366">
<rect width="30" height="36" fill="white"/>
</clipPath>
</defs>
</svg>
