<svg width="31" height="30" viewBox="0 0 31 30" fill="none" xmlns="http://www.w3.org/2000/svg">
<circle cx="15.0845" cy="15" r="15" fill="#F2F2F0"/>
<circle cx="15.0845" cy="15" r="14.6" stroke="#747470" stroke-opacity="0.35" stroke-width="0.8"/>
<path d="M11.756 12.0873C11.7542 12.1776 11.7703 12.2667 11.8033 12.3495C11.8363 12.4324 11.8857 12.5074 11.9484 12.5702C12.0112 12.633 12.0862 12.6823 12.1691 12.7153C12.2519 12.7483 12.3411 12.7644 12.4313 12.7626L16.8769 12.692L10.5788 18.9901C10.4486 19.1203 10.3739 19.2952 10.371 19.4765C10.3681 19.6577 10.4373 19.8304 10.5635 19.9565C10.6896 20.0826 10.8623 20.1519 11.0435 20.149C11.2247 20.1461 11.3997 20.0714 11.5299 19.9412L17.8182 13.6529L17.7431 18.0744C17.7408 18.255 17.81 18.4268 17.9356 18.5524C18.0613 18.6781 18.2331 18.7473 18.4136 18.745C18.5942 18.7415 18.7683 18.6668 18.898 18.5372C19.0277 18.4075 19.1024 18.2333 19.1058 18.0528L19.2034 11.9062C19.2064 11.8252 19.1929 11.7449 19.1639 11.6701C19.1348 11.5954 19.0908 11.5278 19.0344 11.4714C18.9779 11.415 18.9103 11.3709 18.8356 11.3418C18.7609 11.3128 18.6805 11.2993 18.5995 11.3023L12.4531 11.3903C12.3629 11.3913 12.2732 11.4102 12.1892 11.4459C12.1053 11.4816 12.0287 11.5333 11.9639 11.5981C11.8991 11.6629 11.8473 11.7395 11.8117 11.8235C11.776 11.9075 11.7571 11.9971 11.756 12.0873Z" fill="#747470"/>
</svg>
