<?xml version="1.0" encoding="UTF-8"?> <svg xmlns="http://www.w3.org/2000/svg" width="22" height="22" viewBox="0 0 22 22"><g id="Group_33086" data-name="Group 33086" transform="translate(-41 -348)"><g id="_6324237_knowledge_learning_education_hat_student_icon" data-name="6324237_knowledge_learning_education_hat_student_icon" transform="translate(157.3 352)"><path id="Path_56725" data-name="Path 56725" d="M454,215.674,463.521,211l9.738,4.63-9.694,5.28Z" transform="translate(-570.3 -211)" fill="#73e6b9"></path><rect id="Rectangle_10290" data-name="Rectangle 10290" width="0.547" height="3.831" rx="0.274" transform="translate(-97.877 4.707)" fill="#73e6b9"></rect><circle id="Ellipse_2432" data-name="Ellipse 2432" cx="0.854" cy="0.854" r="0.854" transform="translate(-98.426 8.353)" fill="#73e6b9"></circle><path id="Path_56727" data-name="Path 56727" d="M871.173,460a.866.866,0,0,0,1.038,0q.043,2.056.086,4.112H871Z" transform="translate(-969.253 -449.224)" fill="#73e6b9"></path><path id="Path_56728" data-name="Path 56728" d="M948,532" transform="translate(-1042.921 -518.108)" fill="#73e6b9"></path><path id="Path_56729" data-name="Path 56729" d="M552,397l5.22,2.857,5.3-2.857v3.03a6.76,6.76,0,0,1-10.517,0Z" transform="translate(-664.058 -388.95)" fill="#73e6b9"></path></g><rect id="Rectangle_11962" data-name="Rectangle 11962" width="22" height="22" transform="translate(41 348)" fill="none"></rect></g></svg> 