<svg width="16" height="17" viewBox="0 0 16 17" fill="none" xmlns="http://www.w3.org/2000/svg">
<g clip-path="url(#clip0_827_998)">
<mask id="mask0_827_998" style="mask-type:luminance" maskUnits="userSpaceOnUse" x="0" y="3" width="16" height="11">
<path d="M16 3.29626H0V13.6926H16V3.29626Z" fill="white"/>
</mask>
<g mask="url(#mask0_827_998)">
<path fill-rule="evenodd" clip-rule="evenodd" d="M7.99977 11.2957L5.88977 9.1857C5.79891 9.09486 5.72684 8.987 5.67766 8.86829C5.62849 8.74959 5.60318 8.62236 5.60318 8.49387C5.60318 8.36538 5.62849 8.23815 5.67766 8.11945C5.72684 8.00074 5.79891 7.89289 5.88977 7.80204L7.99977 5.69237L5.88977 3.58237C5.79892 3.49151 5.69107 3.41943 5.57236 3.37026C5.45366 3.32109 5.32643 3.29578 5.19794 3.29578C5.06945 3.29578 4.94222 3.32109 4.82352 3.37026C4.70481 3.41943 4.59695 3.49151 4.50611 3.58237L0.286106 7.80237C0.195245 7.89322 0.12317 8.00108 0.0739957 8.11978C0.0248215 8.23849 -0.000488281 8.36572 -0.000488281 8.4942C-0.000488281 8.62269 0.0248215 8.74992 0.0739957 8.86863C0.12317 8.98733 0.195245 9.09519 0.286106 9.18604L4.50611 13.4057C4.59695 13.4966 4.70481 13.5686 4.82352 13.6178C4.94222 13.667 5.06945 13.6923 5.19794 13.6923C5.32643 13.6923 5.45366 13.667 5.57236 13.6178C5.69107 13.5686 5.79892 13.4966 5.88977 13.4057L7.99977 11.2957Z" fill="#ABFFC7"/>
<path fill-rule="evenodd" clip-rule="evenodd" d="M8.00011 5.69263L5.89011 7.80263C5.79925 7.89348 5.72717 8.00134 5.678 8.12004C5.62882 8.23875 5.60352 8.36597 5.60352 8.49446C5.60352 8.62295 5.62882 8.75018 5.678 8.86889C5.72717 8.98759 5.79925 9.09545 5.89011 9.18629L8.00011 11.2963L10.1101 9.18629C10.201 9.09545 10.273 8.98759 10.3222 8.86889C10.3714 8.75018 10.3967 8.62295 10.3967 8.49446C10.3967 8.36597 10.3714 8.23875 10.3222 8.12004C10.273 8.00134 10.201 7.89348 10.1101 7.80263L8.00011 5.69263Z" fill="#5B3DEB"/>
<path fill-rule="evenodd" clip-rule="evenodd" d="M8 5.69262L10.11 7.80262C10.2009 7.89346 10.2729 8.00132 10.3221 8.12003C10.3713 8.23873 10.3966 8.36596 10.3966 8.49445C10.3966 8.62294 10.3713 8.75017 10.3221 8.86887C10.2729 8.98758 10.2009 9.09543 10.11 9.18628L8 11.2963L10.11 13.4063C10.2009 13.4971 10.3087 13.5692 10.4274 13.6184C10.5461 13.6676 10.6734 13.6929 10.8018 13.6929C10.9303 13.6929 11.0576 13.6676 11.1763 13.6184C11.295 13.5692 11.4028 13.4971 11.4937 13.4063L15.715 9.18628C15.8059 9.09543 15.878 8.98758 15.9271 8.86887C15.9763 8.75017 16.0016 8.62294 16.0016 8.49445C16.0016 8.36596 15.9763 8.23873 15.9271 8.12003C15.878 8.00132 15.8059 7.89346 15.715 7.80262L11.4937 3.58261C11.4028 3.49175 11.295 3.41968 11.1763 3.3705C11.0576 3.32133 10.9303 3.29602 10.8018 3.29602C10.6734 3.29602 10.5461 3.32133 10.4274 3.3705C10.3087 3.41968 10.2009 3.49175 10.11 3.58261L8 5.69262Z" fill="#7F6BF6"/>
</g>
</g>
<defs>
<clipPath id="clip0_827_998">
<rect width="16" height="16" fill="white" transform="translate(0 0.629639)"/>
</clipPath>
</defs>
</svg>
