<?xml version="1.0" encoding="UTF-8"?> <svg xmlns="http://www.w3.org/2000/svg" xmlns:xlink="http://www.w3.org/1999/xlink" width="48" height="48" viewBox="0 0 48 48"><defs><clipPath id="clip-path"><rect id="Rectangle_61721" data-name="Rectangle 61721" width="48" height="31.189" fill="none"></rect></clipPath></defs><g id="Group_186266" data-name="Group 186266" transform="translate(-400 -170)"><g id="Group_186261" data-name="Group 186261" transform="translate(174 3)"><rect id="Rectangle_10306" data-name="Rectangle 10306" width="48" height="48" transform="translate(226 167)" fill="none"></rect></g><g id="Group_186262" data-name="Group 186262" transform="translate(400 178)" clip-path="url(#clip-path)"><path id="Path_172212" data-name="Path 172212" d="M24,24l-6.33-6.33a2.935,2.935,0,0,1,0-4.151L24,7.19,17.67.86a2.935,2.935,0,0,0-4.151,0L.859,13.52a2.935,2.935,0,0,0,0,4.151L13.519,30.33a2.935,2.935,0,0,0,4.151,0Z" transform="translate(0 -0.001)" fill="#abffc7" fill-rule="evenodd"></path><path id="Path_172213" data-name="Path 172213" d="M510.005,215.04l-6.33,6.33a2.935,2.935,0,0,0,0,4.151l6.33,6.33,6.33-6.33a2.935,2.935,0,0,0,0-4.151Z" transform="translate(-486.005 -207.851)" fill="#5b3deb" fill-rule="evenodd"></path><path id="Path_172214" data-name="Path 172214" d="M717.855,7.189l6.33,6.33a2.935,2.935,0,0,1,0,4.151L717.855,24l6.33,6.33a2.935,2.935,0,0,0,4.151,0L741,17.67a2.935,2.935,0,0,0,0-4.151L728.336.859a2.935,2.935,0,0,0-4.151,0Z" transform="translate(-693.855 0)" fill="#7f6bf6" fill-rule="evenodd"></path></g></g></svg> 