<?xml version="1.0" encoding="UTF-8"?> <svg xmlns="http://www.w3.org/2000/svg" xmlns:xlink="http://www.w3.org/1999/xlink" width="48" height="48" viewBox="0 0 48 48"><defs><clipPath id="clip-path"><rect id="Rectangle_61718" data-name="Rectangle 61718" width="33.217" height="42" fill="none"></rect></clipPath></defs><g id="Group_186297" data-name="Group 186297" transform="translate(-399 -97)"><g id="Group_186263" data-name="Group 186263" transform="translate(173 -70)"><rect id="Rectangle_10306" data-name="Rectangle 10306" width="48" height="48" transform="translate(226 167)" fill="none"></rect></g><g id="Group_186256" data-name="Group 186256" transform="translate(406 100)" clip-path="url(#clip-path)"><path id="Path_172203" data-name="Path 172203" d="M324.243,128.243h-4.758v13.418a2.119,2.119,0,0,1-1,1.8l-7.727,4.788a2.119,2.119,0,0,0-1,1.8v6.91l15.606-9.671a2.119,2.119,0,0,0,1-1.8V130.362a2.119,2.119,0,0,0-2.119-2.119" transform="translate(-293.145 -121.367)" fill="#abffc7" fill-rule="evenodd"></path><path id="Path_172204" data-name="Path 172204" d="M147.707,141.661V128.243H130.362a2.119,2.119,0,0,0-2.119,2.119v19.389a2.118,2.118,0,0,0,1,1.8l8.729,5.409v-6.91a2.119,2.119,0,0,1,1-1.8l7.727-4.788a2.119,2.119,0,0,0,1-1.8" transform="translate(-121.367 -121.367)" fill="#5b3deb" fill-rule="evenodd"></path><path id="Path_172205" data-name="Path 172205" d="M6.876,28.384V8.995A2.119,2.119,0,0,1,8.995,6.876H26.34V2.119A2.119,2.119,0,0,0,24.222,0H2.119A2.119,2.119,0,0,0,0,2.119V32.212a2.119,2.119,0,0,0,1,1.8l12.371,7.666a2.119,2.119,0,0,0,3.234-1.8V35.594l-8.73-5.409a2.119,2.119,0,0,1-1-1.8" fill="#7f6bf6" fill-rule="evenodd"></path></g></g></svg> 