<?xml version="1.0" encoding="UTF-8"?> <svg xmlns="http://www.w3.org/2000/svg" xmlns:xlink="http://www.w3.org/1999/xlink" width="48" height="48" viewBox="0 0 48 48"><defs><clipPath id="clip-path"><rect id="Rectangle_61664" data-name="Rectangle 61664" width="38" height="31.771" fill="none"></rect></clipPath></defs><g id="Group_186298" data-name="Group 186298" transform="translate(-84 -94)"><g id="Group_186265" data-name="Group 186265" transform="translate(6 -3)"><g id="Group_186259" data-name="Group 186259" transform="translate(121 136.885) rotate(180)"><g id="Group_186119" data-name="Group 186119" clip-path="url(#clip-path)"><path id="Path_172125" data-name="Path 172125" d="M9.5,4.861,19,10.346,9.5,15.831,0,21.316V.855A.854.854,0,0,1,1.28.116Z" transform="translate(0 0)" fill="#abffc7" fill-rule="evenodd"></path><path id="Path_172126" data-name="Path 172126" d="M19,314.478l9.5,5.485,9.5,5.485-9.5,5.485-7.836,4.524a3.329,3.329,0,0,1-3.329,0L9.5,330.933,0,325.448l9.5-5.485Z" transform="translate(0 -304.132)" fill="#7f6bf6" fill-rule="evenodd"></path><path id="Path_172127" data-name="Path 172127" d="M587.021,4.861l-9.5,5.485,9.5,5.485,9.5,5.485V.855a.854.854,0,0,0-1.28-.739Z" transform="translate(-558.521 0)" fill="#5a3ce8" fill-rule="evenodd"></path></g></g><g id="Group_186264" data-name="Group 186264" transform="translate(-148 -70)"><rect id="Rectangle_10306" data-name="Rectangle 10306" width="48" height="48" transform="translate(226 167)" fill="none"></rect></g></g></g></svg> 