<?xml version="1.0" encoding="UTF-8"?> <svg xmlns="http://www.w3.org/2000/svg" xmlns:xlink="http://www.w3.org/1999/xlink" width="48" height="48" viewBox="0 0 48 48"><defs><clipPath id="clip-path"><rect id="Rectangle_61720" data-name="Rectangle 61720" width="35" height="40.415" fill="none"></rect></clipPath></defs><g id="Group_186299" data-name="Group 186299" transform="translate(-81 -161)"><g id="Group_186268" data-name="Group 186268" transform="translate(0 -4)"><g id="Group_186258" data-name="Group 186258" transform="translate(88 169)" clip-path="url(#clip-path)"><path id="Path_172209" data-name="Path 172209" d="M17.847,60.007.347,49.9A2.417,2.417,0,0,0,0,51.071V68.944a2.419,2.419,0,0,0,.347,1.167Z" transform="translate(0 -39.8)" fill="#5b3deb"></path><path id="Path_172210" data-name="Path 172210" d="M35.877,9.22,20.4.283a2.617,2.617,0,0,0-2.368,0l-.706.408L2.55,9.22a2.416,2.416,0,0,0-.836.884l17.5,10.1,16.663-9.62a.722.722,0,0,0,0-1.367" transform="translate(-1.367)" fill="#7f6bf6"></path><path id="Path_172211" data-name="Path 172211" d="M35.877,109.426l-16.663-9.62-17.5,10.1a2.416,2.416,0,0,0,.836.883L18.03,119.73a2.618,2.618,0,0,0,2.368,0l15.479-8.937a.722.722,0,0,0,0-1.367" transform="translate(-1.367 -79.599)" fill="#93ffb7"></path></g><g id="Group_186267" data-name="Group 186267" transform="translate(-145 -2)"><rect id="Rectangle_10306" data-name="Rectangle 10306" width="48" height="48" transform="translate(226 167)" fill="none"></rect></g></g></g></svg> 