<?xml version="1.0" encoding="UTF-8"?> <svg xmlns="http://www.w3.org/2000/svg" xmlns:xlink="http://www.w3.org/1999/xlink" width="48" height="48" viewBox="0 0 48 48"><defs><clipPath id="clip-path"><rect id="Rectangle_61724" data-name="Rectangle 61724" width="36" height="36" fill="none"></rect></clipPath></defs><g id="Group_186272" data-name="Group 186272" transform="translate(-81 -165)"><g id="Group_186267" data-name="Group 186267" transform="translate(-145 -2)"><rect id="Rectangle_10306" data-name="Rectangle 10306" width="48" height="48" transform="translate(226 167)" fill="none"></rect></g><g id="Group_186278" data-name="Group 186278" transform="translate(87 171)" clip-path="url(#clip-path)"><path id="Path_172222" data-name="Path 172222" d="M1.459,273.761H20.693a1.459,1.459,0,0,1,1.459,1.459v19.237a1.459,1.459,0,0,1-1.459,1.459H1.459A1.459,1.459,0,0,1,0,294.457V275.22a1.459,1.459,0,0,1,1.459-1.459" transform="translate(0 -259.917)" fill="#93ffb7" fill-rule="evenodd"></path><path id="Path_172223" data-name="Path 172223" d="M275.031,0h19.616a1.27,1.27,0,0,1,1.27,1.27V34.73a1.27,1.27,0,0,1-1.27,1.27H275.031a1.27,1.27,0,0,1-1.27-1.27V1.27A1.27,1.27,0,0,1,275.031,0" transform="translate(-259.917)" fill="#7f6bf6" fill-rule="evenodd"></path><path id="Path_172224" data-name="Path 172224" d="M273.762,273.761v22.156h7.087a1.221,1.221,0,0,0,1.221-1.221V274.982a1.221,1.221,0,0,0-1.221-1.221Z" transform="translate(-259.918 -259.917)" fill="#5c3deb" fill-rule="evenodd"></path></g></g></svg> 