<?xml version="1.0" encoding="UTF-8"?> <svg xmlns="http://www.w3.org/2000/svg" xmlns:xlink="http://www.w3.org/1999/xlink" width="48" height="48" viewBox="0 0 48 48"><defs><clipPath id="clip-path"><rect id="Rectangle_61725" data-name="Rectangle 61725" width="34.97" height="42.211" fill="none"></rect></clipPath></defs><g id="Group_186279" data-name="Group 186279" transform="translate(-81 -165)"><g id="Group_186267" data-name="Group 186267" transform="translate(-145 -2)"><rect id="Rectangle_10306" data-name="Rectangle 10306" width="48" height="48" transform="translate(226 167)" fill="none"></rect></g><g id="Group_186283" data-name="Group 186283" transform="translate(87.515 167.415)" clip-path="url(#clip-path)"><path id="Path_172225" data-name="Path 172225" d="M7.286,11.595l10.2-5.889,10.2,5.889v9.533h0v1.122l5.409,3.122A17.492,17.492,0,0,0,29.848,5.119a17.754,17.754,0,0,0-1.635-1.442,17.484,17.484,0,0,0-1.762-1.206l-.226-.13a17.49,17.49,0,0,0-17.48,0l-.226.13-.011.006A17.509,17.509,0,0,0,1.279,24.065c.18.443.379.881.595,1.307l1.069-.617,4.343-2.507Z" transform="translate(0)" fill="#7f6bf6"></path><path id="Path_172226" data-name="Path 172226" d="M229.56,192.057l8.257,4.767v9.532l7.286-4.206v-9.532l-8.257-4.767Z" transform="translate(-219.846 -179.901)" fill="#93ffb7"></path><path id="Path_172227" data-name="Path 172227" d="M91.154,565.559l-9.23,5.327-9.23-5.326-5.408,3.121a17.593,17.593,0,0,0,2.275,2.794l12.364,12.364,12.364-12.364a17.56,17.56,0,0,0,2.273-2.794Z" transform="translate(-64.438 -541.628)" fill="#5c3deb"></path></g></g></svg> 