<?xml version="1.0" encoding="UTF-8"?> <svg xmlns="http://www.w3.org/2000/svg" width="48" height="48" viewBox="0 0 48 48"><g id="Group_186286" data-name="Group 186286" transform="translate(-81 -165)"><g id="Group_186267" data-name="Group 186267" transform="translate(-145 -2)"><rect id="Rectangle_10306" data-name="Rectangle 10306" width="48" height="48" transform="translate(226 167)" fill="none"></rect></g><g id="Group_186289" data-name="Group 186289" transform="translate(62.126 146.134)"><path id="Path_58616" data-name="Path 58616" d="M4.26,2.268H27.124a1.992,1.992,0,0,1,1.408,3.4L5.669,28.532a1.992,1.992,0,0,1-3.4-1.409V4.259A1.991,1.991,0,0,1,4.26,2.268" transform="translate(23.688 23.681)" fill="#7f6bf6"></path><path id="Path_58617" data-name="Path 58617" d="M35.659,10.8V33.667a1.991,1.991,0,0,1-1.991,1.991H10.8a1.992,1.992,0,0,1-1.408-3.4L32.26,9.394a1.991,1.991,0,0,1,3.4,1.409" transform="translate(23.857 23.85)" fill="#5c3deb"></path><path id="Path_58618" data-name="Path 58618" d="M13.921,9.184h12.57a1.991,1.991,0,0,1,1.991,1.991v12.57a1.992,1.992,0,0,1-3.4,1.408L12.513,12.584a1.992,1.992,0,0,1,1.409-3.4" transform="translate(23.938 23.86)" fill="#93ffb7"></path></g></g></svg> 