<?xml version="1.0" encoding="UTF-8"?> <svg xmlns="http://www.w3.org/2000/svg" width="20.666" height="20.666" viewBox="0 0 20.666 20.666"><g id="Group_223780" data-name="Group 223780" transform="translate(9289.75 11686)"><path id="_5279120_play_video_youtube_youtuble_logo_icon" data-name="5279120_play_video_youtube_youtuble logo_icon" d="M10.333,0A10.333,10.333,0,1,1,0,10.333,10.338,10.338,0,0,1,10.333,0Zm6.188,7.224a1.617,1.617,0,0,0-1.142-1.142,38.6,38.6,0,0,0-5.046-.27,38.6,38.6,0,0,0-5.046.27A1.618,1.618,0,0,0,4.145,7.224a16.813,16.813,0,0,0-.27,3.109,16.811,16.811,0,0,0,.27,3.109,1.618,1.618,0,0,0,1.142,1.142,38.612,38.612,0,0,0,5.046.27,38.612,38.612,0,0,0,5.046-.27,1.618,1.618,0,0,0,1.142-1.142,16.812,16.812,0,0,0,.27-3.109,16.813,16.813,0,0,0-.27-3.109ZM9.041,12.27V8.4L12.4,10.333,9.041,12.27Z" transform="translate(-9289.75 -11686)" fill="#7f6bf6" fill-rule="evenodd"></path></g></svg> 