<?xml version="1.0" encoding="UTF-8"?> <svg xmlns="http://www.w3.org/2000/svg" width="26" height="27" viewBox="0 0 26 27"><g id="_7676369_technology_fitbit_icon" data-name="7676369_technology_fitbit_icon" transform="translate(-0.5)"><circle id="Ellipse_2419" data-name="Ellipse 2419" cx="2.826" cy="2.826" r="2.826" transform="translate(20.848 10.739)" fill="#73e6b9"></circle><circle id="Ellipse_2420" data-name="Ellipse 2420" cx="2.5" cy="2.5" r="2.5" transform="translate(9.5 11)" fill="#73e6b9"></circle><circle id="Ellipse_2421" data-name="Ellipse 2421" cx="1.696" cy="1.696" r="1.696" transform="translate(5.022 11.87)" fill="#73e6b9"></circle><circle id="Ellipse_2422" data-name="Ellipse 2422" cx="1.696" cy="1.696" r="1.696" transform="translate(0.5 11.87)" fill="#73e6b9"></circle><ellipse id="Ellipse_2423" data-name="Ellipse 2423" cx="2.5" cy="2" rx="2.5" ry="2" transform="translate(9.5 17)" fill="#73e6b9"></ellipse><circle id="Ellipse_2424" data-name="Ellipse 2424" cx="1.696" cy="1.696" r="1.696" transform="translate(5.022 17.522)" fill="#73e6b9"></circle><ellipse id="Ellipse_2425" data-name="Ellipse 2425" cx="2.5" cy="2" rx="2.5" ry="2" transform="translate(9.5 6)" fill="#73e6b9"></ellipse><ellipse id="Ellipse_2426" data-name="Ellipse 2426" cx="2" cy="2.5" rx="2" ry="2.5" transform="translate(15.5 11)" fill="#73e6b9"></ellipse><circle id="Ellipse_2427" data-name="Ellipse 2427" cx="2" cy="2" r="2" transform="translate(15.5 17)" fill="#73e6b9"></circle><circle id="Ellipse_2428" data-name="Ellipse 2428" cx="2" cy="2" r="2" transform="translate(15.5 6)" fill="#73e6b9"></circle><circle id="Ellipse_2429" data-name="Ellipse 2429" cx="2.5" cy="2.5" r="2.5" transform="translate(9.5)" fill="#73e6b9"></circle><ellipse id="Ellipse_2430" data-name="Ellipse 2430" cx="2.5" cy="2" rx="2.5" ry="2" transform="translate(9.5 23)" fill="#73e6b9"></ellipse><circle id="Ellipse_2431" data-name="Ellipse 2431" cx="1.696" cy="1.696" r="1.696" transform="translate(5.022 6.217)" fill="#73e6b9"></circle></g></svg> 