<?xml version="1.0" encoding="UTF-8"?> <svg xmlns="http://www.w3.org/2000/svg" width="20.666" height="20.666" viewBox="0 0 20.666 20.666"><g id="Group_223779" data-name="Group 223779" transform="translate(9321.834 11686)"><path id="_5279112_camera_instagram_social_media_instagram_logo_icon" data-name="5279112_camera_instagram_social media_instagram logo_icon" d="M10.333,0A10.333,10.333,0,1,1,0,10.333,10.338,10.338,0,0,1,10.333,0Zm0,3.875c-1.754,0-1.974.007-2.663.039a4.741,4.741,0,0,0-1.568.3A3.3,3.3,0,0,0,4.214,6.1a4.741,4.741,0,0,0-.3,1.568c-.031.689-.039.909-.039,2.663s.007,1.974.039,2.663a4.741,4.741,0,0,0,.3,1.568A3.3,3.3,0,0,0,6.1,16.452a4.742,4.742,0,0,0,1.568.3c.689.031.909.039,2.663.039s1.974-.007,2.663-.039a4.741,4.741,0,0,0,1.568-.3,3.3,3.3,0,0,0,1.889-1.889,4.741,4.741,0,0,0,.3-1.568c.031-.689.039-.909.039-2.663s-.007-1.974-.039-2.663a4.741,4.741,0,0,0-.3-1.568,3.3,3.3,0,0,0-1.889-1.889A4.74,4.74,0,0,0,13,3.914C12.307,3.882,12.087,3.875,10.333,3.875Zm0,1.164c1.724,0,1.929.007,2.61.038a3.574,3.574,0,0,1,1.2.222,2.139,2.139,0,0,1,1.226,1.226,3.572,3.572,0,0,1,.222,1.2c.031.681.038.885.038,2.61s-.007,1.929-.038,2.61a3.572,3.572,0,0,1-.222,1.2,2.139,2.139,0,0,1-1.226,1.226,3.572,3.572,0,0,1-1.2.222c-.681.031-.885.038-2.61.038s-1.929-.007-2.61-.038a3.572,3.572,0,0,1-1.2-.222A2.139,2.139,0,0,1,5.3,14.142a3.573,3.573,0,0,1-.222-1.2c-.031-.681-.038-.885-.038-2.61s.007-1.929.038-2.61a3.573,3.573,0,0,1,.222-1.2A2.139,2.139,0,0,1,6.524,5.3a3.574,3.574,0,0,1,1.2-.222c.681-.031.885-.038,2.61-.038Zm0,1.978a3.316,3.316,0,1,0,3.316,3.316,3.316,3.316,0,0,0-3.316-3.316Zm0,5.469a2.153,2.153,0,1,1,2.153-2.153A2.153,2.153,0,0,1,10.333,12.486Zm4.222-5.6a.775.775,0,1,1-.775-.775A.775.775,0,0,1,14.555,6.886Z" transform="translate(-9321.834 -11686)" fill="#7f6bf6" fill-rule="evenodd"></path></g></svg> 