<?xml version="1.0" encoding="UTF-8"?> <svg xmlns="http://www.w3.org/2000/svg" width="22.826" height="25.581" viewBox="0 0 22.826 25.581"><g id="Product_delivery" transform="translate(-5.92 -3.433)"><path id="Path_56719" data-name="Path 56719" d="M8.669,3.681,5.976,7.45a.3.3,0,0,0,.244.474l7.611.007,3.19-4.5H9.152a.594.594,0,0,0-.483.248Z" transform="translate(0 0)" fill="#73e6b9"></path><path id="Path_56720" data-name="Path 56720" d="M43.618,7.475l-2.71-3.793a.594.594,0,0,0-.483-.248H32.56l3.18,4.508,7.633.007a.3.3,0,0,0,.244-.474Z" transform="translate(-14.928)" fill="#73e6b9"></path><path id="Path_56721" data-name="Path 56721" d="M35.311,12.018l-2.1-2.979v9.175h7.579a.769.769,0,0,0,.769-.769V12.275L35.8,12.27a.594.594,0,0,1-.484-.251Z" transform="translate(-15.292 -3.141)" fill="#73e6b9"></path><path id="Path_56722" data-name="Path 56722" d="M17.275,12.255h0l-5.755,0v5.18a.769.769,0,0,0,.769.769h7.579V9.03L17.759,12A.594.594,0,0,1,17.275,12.255Z" transform="translate(-3.138 -3.136)" fill="#73e6b9"></path><path id="Path_56723" data-name="Path 56723" d="M10.846,37.15H7.963a.459.459,0,0,0-.459.459v9.84a.459.459,0,0,0,.459.459h2.883a1,1,0,0,0,1-1V38.15a1,1,0,0,0-1-1Z" transform="translate(-0.887 -18.894)" fill="#73e6b9"></path><path id="Path_56724" data-name="Path 56724" d="M36.015,38.817a1.672,1.672,0,0,0-1.4-.754h-1.13a2.44,2.44,0,0,0-2.262,1.514,2.528,2.528,0,0,1-.45.712,3.684,3.684,0,0,1-2.939,1.67H24.488a.594.594,0,1,1,0-1.187h3.331a2.233,2.233,0,0,0,1.2-.385v-.02a2.294,2.294,0,0,0-2.294-2.3H24.266a3.4,3.4,0,0,0-2.417,1l-.063.062a3.185,3.185,0,0,1-1.708.885v6.556h8.956a6.784,6.784,0,0,0,6.239-4.109l.882-2.054A1.671,1.671,0,0,0,36.015,38.817Z" transform="translate(-7.934 -19.405)" fill="#73e6b9"></path></g></svg> 