<svg id="Group_187010" data-name="Group 187010" xmlns="http://www.w3.org/2000/svg" xmlns:xlink="http://www.w3.org/1999/xlink" width="336" height="421.935" viewBox="0 0 336 421.935">
  <defs>
    <clipPath id="clip-path">
      <rect id="Rectangle_186" data-name="Rectangle 186" width="336" height="421.935" fill="none"/>
    </clipPath>
  </defs>
  <g id="Group_187009" data-name="Group 187009" clip-path="url(#clip-path)">
    <path id="Path_172686" data-name="Path 172686" d="M254.486,343.788A39.074,39.074,0,1,0,293.522,382.9v-.037a39.112,39.112,0,0,0-39.036-39.074" fill="#7f6bf6"/>
    <path id="Path_172687" data-name="Path 172687" d="M323.789,156.684a15.1,15.1,0,0,0-2.837-.275H276.741c-14.895,17.367-36.773,29.478-64.982,31.1-29.5,1.928-56.464-10.695-74.784-31.1H83.045L79.277,131.2A33.912,33.912,0,0,0,45.705,102H15.072a15.072,15.072,0,1,0,0,30.144H45.743a3.768,3.768,0,0,1,3.768,3.316l23.21,159.082a41.672,41.672,0,0,0,41.033,35.192H270.538a41.447,41.447,0,0,0,40.656-33.12l24.529-122.269a15.072,15.072,0,0,0-11.934-17.661" fill="#7f6bf6"/>
    <path id="Path_172688" data-name="Path 172688" d="M176.027,167.837c1.464,4.561,6.055,4.13,10.291,3.88-4.475-4.486-7.752-9.147-5.185-15.308h-9.271c1.6,3.724,2.843,7.587,4.165,11.428" fill="#fff"/>
    <path id="Path_172689" data-name="Path 172689" d="M119.594,343.826a39.073,39.073,0,0,0,.9,78.109h.942a39.073,39.073,0,0,0-1.846-78.109" fill="#7f6bf6"/>
    <path id="Path_172690" data-name="Path 172690" d="M169.83,152.2c-.911-1.668-.324-3.606-.348-5.415-.661-7.4-8.219-12.941-6.8-20.827.551-3.95-5.083,1.69-10.916-5.5-1.944-2.306-6.468-7.88-5.686-10.769,1.6-3.981,1.765-8.782,5.451-11.545,1.571-1.221,1.714-5.027-1.215-4.289-7.524,1.259-5.916-4.4-10.322-3.321-2.984.317-5.138-.661-7.457-2.748-6.956-6.4-8.951-1.658-12.937-6.4a88.113,88.113,0,0,1,41.783-62.97c2.093,1.068,3.586,5,6.211,3.6,2.8-1.469,5.783-2.634,7.793-5.261,1.138-1.383,3.131-.325,4.618-.744,5.846-.792,7.427,5.865,9.614,9.825-.193.163-.295.318-.379.309-5.073-.573-9.724,1.056-14.322,2.827-1.51.581-2.674.631-3.619-.824-1.168-1.8-2.668-1.85-4.531-1.074-1.725,1.22-7.924,1.43-7.5,3.878.421,2.3-1.4,6.219,2.733,5.436,1.934-.673,3.6,5.043,4.779,1.756,2.537-10.277,13.23-1.308,21.475-7.875,3.034-1.8,5.529,4.129,6.707,6.217.9,1.959,1.544,4.266,4.694,3.582-1.975,1.976-3.964,3.939-5.917,5.936-.567.579-1.082.394-1.718.173-2.455-.853-4.944-1.61-7.391-2.487-1.167-.418-1.727-.459-1.7,1.106,2,10.756-7.165.382-13.528,8.448-7.94,7.98-1.795,14.677-12.708,23.066a1.269,1.269,0,0,1-1.839.2c-4.741-3.366-15.393-5.194-18.934.307a1.141,1.141,0,0,0,.155.988c1.9,3.04,2.046,8.155,5.647,3.055,1.072-.913,2.331-.606,3.429-.423,1.154.192.581,1.415.552,2.126.163,2.836,4.243,3.342,3.441,6.534-.458,2.31,2.451,1.034,3.73,1.421a5.038,5.038,0,0,0,4.96-2.007c1.005-1.224,6.773-2.056,8.1-1.269,1.053,1.062,1.5,2.72,2.251,4.015,1.256,2.52,1.31,2.571,3.158.58,4.248-3.334,10.217-.7,14.259,1.618,3.175,1.779,2.126,8.128,6.855,7.215.909-.214,1.4.56,1.9,1.121,3.435,4.2,8.982,3.7,11.014,9.463a6.987,6.987,0,0,1,.057,6.888c-.791,4.467-2.987,7.758-7.625,9.009-3.678,1.321,2.527,7.321-5.892,9.714-2.158.47-2.438,2.124-2.158,4.063.892,4.994-.32,8.763-5.813,10.079-1.625.536-1.335,2.7-2.106,3.927a15.216,15.216,0,0,0-.7,1.476h95.608C316.013,110.621,306.648,28.223,236.077,4.7a94.137,94.137,0,0,0-81.383,10.981h.007a93.833,93.833,0,0,0-40.847,64.255l-.006,0c-4.581,28.732,5.079,56.377,23.127,76.475h34.887c-.616-1.427-1.28-2.835-2.032-4.211M269.663,32.486c-2.721-1.772-8.768-3.64-8.929-8.019a87.026,87.026,0,0,1,8.929,8.019M247.4,43.237c1.3-.778,7.033.12,8.117,1.253.488.508.888,1.1,1.591,1.987a21.886,21.886,0,0,0,.323-5.442c.914-6.685,6.531-3.673,10.519-5.125,1.885-1.44,2.659-2.158,2.259-2.864a87.563,87.563,0,0,1,16.2,23.691c-3.248.427-1.064-2.658-2.74-4.273a62.741,62.741,0,0,1-4.8-4.769c-.783-.836-1.289-.97-2.194-.077-2.431,2.4-2.3,2.15.54,5.024,3.31,3.639,5.805,3.578-.184,6.107-1.363.613-2.65,2.012-4.137-.009-.9-1.222-2.126-2.044-1.98-3.927.223-2.9-1.993-5.01-3.018-7.517-.306-.748-.847-.221-1.135.147-2.157,2.773-5.415,3.845-8.366,5.386-5.1,4.457-3.935,3.971-10.7,3.777-.626.027-.81-.728-1.082-1.169-3.406-5.576-2.746-6.936.783-12.2M237.164,81.589c.144-3.993-1.158-8.208,2.618-10.814a2.481,2.481,0,0,1,2.149-.569,14.765,14.765,0,0,0,9.847-2.3c3.086-1.956,6.9-.69,10.314-1.135a4.1,4.1,0,0,1,3.839,1.631c1.972,2.49,5.057,3.221,7.649,4.734.872.508,1.34-.133,1.749-.661,2.177-2.809,5.514-3.752,8.44-5.368,1.594-.913,4.789,2.573,7.509,2.7a88.424,88.424,0,0,1-3.6,58.236,87.448,87.448,0,0,1-13.357,21.933c-.388-2.318.684-5-.914-7.167-1.734-3.381-3.341-6.83-5.148-10.171a1.964,1.964,0,0,1,.5-2.851c10.606-9.306,1.151-4.358,2.193-17.658a1.807,1.807,0,0,0-.958-1.787c-5.027-3.209-11.59-4.312-16.786-.745-6.475,3.061-15.71.72-17.8-6.712-1.852-4.94-1.625-9.929-1.674-14.974.3-2.721,4.031-3.177,3.426-6.322" fill="#97f8b7"/>
    <path id="Path_172691" data-name="Path 172691" d="M211.759,187.505c28.209-1.619,50.087-13.73,64.982-31.1H181.134c-2.567,6.16.709,10.822,5.185,15.307-4.237.25-8.827.681-10.292-3.88-1.322-3.841-2.559-7.7-4.165-11.427H136.975c18.32,20.4,45.283,33.025,74.784,31.1" fill="#4f2fde"/>
  </g>
</svg>
