<?xml version="1.0" encoding="UTF-8"?> <svg xmlns="http://www.w3.org/2000/svg" width="40" height="40" viewBox="0 0 40 40"><g id="Group_27959" data-name="Group 27959" transform="translate(-226 -232)"><g id="Group_27958" data-name="Group 27958"><rect id="Rectangle_10307" data-name="Rectangle 10307" width="40" height="40" transform="translate(226 232)" fill="#fff"></rect><g id="shiprocket_X" data-name="shiprocket X" transform="translate(38.38 192.016)"><g id="Group_27828" data-name="Group 27828" transform="translate(190.62 42.984)"><path id="Path_56587" data-name="Path 56587" d="M2173.862,1187.658v.457a8.27,8.27,0,0,1-.58.729c-.511.519-1.041,1.019-1.569,1.521a.986.986,0,0,1-1.5-.019q-1.884-1.875-3.759-3.759c-.085-.084-.152-.185-.242-.293-.112.1-.186.159-.253.226l-.415.415a13.649,13.649,0,0,0-4.336-4.338l.616-.616c-.093-.1-.169-.188-.25-.27l-3.713-3.714a1.019,1.019,0,0,1-.019-1.639c.491-.509.972-1.026,1.475-1.522a7.732,7.732,0,0,1,.707-.556h.457c.183.093.368.182.548.28,1.693.912,3.386,1.821,5.072,2.743a.319.319,0,0,0,.468-.064c.512-.533,1.032-1.06,1.571-1.566a3.06,3.06,0,0,1,4.3,4.348c-.488.526-1,1.03-1.521,1.524a.357.357,0,0,0-.074.52C2171.864,1183.925,2172.861,1185.793,2173.862,1187.658Z" transform="translate(-2140.45 -1174.28)" fill="#7f6bf6"></path><g id="Group_27828-2" data-name="Group 27828" transform="translate(0 6.508)"><path id="Path_56588" data-name="Path 56588" d="M2063.22,1273.851l.151-.031-.017,0Z" transform="translate(-2052.389 -1273.82)" fill="#abffc7"></path><path id="Path_56589" data-name="Path 56589" d="M1901.7,1329.381a3.706,3.706,0,0,1,1.122,4.367c-.336.79-.3.976.3,1.582a5.285,5.285,0,0,1-3.84,9.032c-.654-.012-.674,0-.877-.619a13.348,13.348,0,0,1,3.155-14.244C1901.6,1329.459,1901.648,1329.428,1901.7,1329.381Z" transform="translate(-1897.578 -1325.748)" fill="#abffc7"></path><path id="Path_56590" data-name="Path 56590" d="M2216.266,1596.234a2.6,2.6,0,0,1,.509-3,2.625,2.625,0,0,1,3.062-.493A13.862,13.862,0,0,1,2216.266,1596.234Z" transform="translate(-2195.174 -1571.62)" fill="#abffc7"></path><path id="Path_56591" data-name="Path 56591" d="M2088.222,1557.652a1.108,1.108,0,1,1,1.086,1.114A1.111,1.111,0,0,1,2088.222,1557.652Z" transform="translate(-2075.756 -1538.063)" fill="#abffc7"></path></g><path id="Path_56592" data-name="Path 56592" d="M2075.952,1308.479a.427.427,0,0,0-.125.486c.29,1.023.555,2.054.846,3.076a1.12,1.12,0,0,1-.316,1.213c-.686.667-1.354,1.352-2.034,2.026a.982.982,0,0,1-1.675-.225c-.876-1.525-1.743-3.056-2.625-4.578a1.154,1.154,0,0,0-.4-.4c-1.494-.866-3-1.718-4.5-2.573a1.01,1.01,0,0,1-.235-1.8c.653-.653,1.315-1.3,1.957-1.963a1.116,1.116,0,0,1,1.212-.317c1.033.3,2.072.572,3.111.844a.437.437,0,0,0,.349-.041c.927-.911,1.845-1.829,2.776-2.76a13.643,13.643,0,0,1,4.335,4.338C2077.739,1306.7,2076.849,1307.593,2075.952,1308.479Z" transform="translate(-2053.535 -1293.154)" fill="#5b3deb"></path><path id="Path_56593" data-name="Path 56593" d="M2053.905,1273.823c-.266.052-.529.11-.789.179l-.006.008q.329-.088.661-.158l.152-.031Zm15.891,16.134c-.012.058-.026.116-.039.174,0,.011,0,.021-.007.031-.014.061-.029.122-.044.182l0,0c.046-.188.087-.378.124-.569C2069.823,1289.834,2069.81,1289.9,2069.8,1289.957Zm-.109-6.1c.006.031.013.062.02.094.011.052.021.1.031.156.016.078.031.156.048.233.012.061.025.121.037.181q.106.537.169,1.068c.005.04.009.079.014.119q.047.415.067.826c0,.046,0,.093.007.14s0,.121.006.182A13.6,13.6,0,0,0,2069.688,1283.856Zm.4,3.171c0-.052,0-.1,0-.156,0-.005,0-.011,0-.017,0,.1,0,.194,0,.292C2070.089,1287.106,2070.088,1287.067,2070.088,1287.027Z" transform="translate(-2042.941 -1267.311)" fill="#abffc7"></path><path id="Path_56594" data-name="Path 56594" d="M1956.383,1283.485c0-.052,0-.1,0-.156s0-.133-.007-.2c0-.046,0-.093-.007-.14q-.02-.411-.067-.826c0-.039-.008-.078-.013-.118q-.063-.532-.169-1.068c-.012-.06-.024-.121-.036-.181-.017-.077-.032-.155-.048-.233l-.031-.155-.02-.094a4.78,4.78,0,0,0-.166-.607s0,0,0-.007a13.506,13.506,0,0,0-1.483-3.277c-.892.892-1.782,1.786-2.679,2.672a.428.428,0,0,0-.125.486c.29,1.023.555,2.054.847,3.076a1.119,1.119,0,0,1-.317,1.213c-.686.667-1.354,1.352-2.033,2.026a.982.982,0,0,1-1.675-.226c-.876-1.525-1.743-3.056-2.625-4.578a1.153,1.153,0,0,0-.4-.4c-1.494-.866-3-1.718-4.5-2.573a1.011,1.011,0,0,1-.235-1.8c.653-.653,1.315-1.3,1.957-1.963a1.115,1.115,0,0,1,1.212-.317c1.034.3,2.072.572,3.111.844a.437.437,0,0,0,.349-.041c.927-.911,1.845-1.829,2.775-2.759a13.509,13.509,0,0,0-7.186-2.056h-.049a12.7,12.7,0,0,0-2.543.247l-.152.031q-.332.071-.661.158a14.447,14.447,0,0,0-3.208,1.3c-.449.247-.871.544-1.325.828l.157.164a5.59,5.59,0,0,1,1.448,5.734.406.406,0,0,0,.106.429,7.22,7.22,0,0,1-2.636,11.309,19.585,19.585,0,0,1-2.5.717,13.489,13.489,0,0,0,17.119,4.947c-.754-2.4-.525-3.989.838-5.331a4.6,4.6,0,0,1,5.512-.9.429.429,0,0,0,.05-.056c.027-.047.052-.1.075-.144a14.028,14.028,0,0,0,.958-2.668c.015-.061.03-.121.044-.182,0-.01,0-.021.007-.032.013-.058.026-.116.039-.174s.026-.123.039-.185a13.093,13.093,0,0,0,.255-2.6C1956.384,1283.583,1956.383,1283.535,1956.383,1283.485Zm-13.6,9.454a3.066,3.066,0,1,1,2.792-4.389,3.045,3.045,0,0,1,.3,1.343A3.076,3.076,0,0,1,1942.779,1292.939Zm12.717-13.84a1.887,1.887,0,0,1,.131.2A2.071,2.071,0,0,0,1955.5,1279.1Z" transform="translate(-1929.235 -1263.769)" fill="#abffc7"></path></g></g></g></g></svg> 