<?xml version="1.0" encoding="UTF-8"?> <svg xmlns="http://www.w3.org/2000/svg" width="22" height="22" viewBox="0 0 22 22"><g id="Group_33101" data-name="Group 33101" transform="translate(-237 -54)"><path id="Subtraction_2" data-name="Subtraction 2" d="M10.846,14.465h0L5.423,12.632V7.053l.087.125c.28.4,1.132,1.614,1.532,2.195a1.327,1.327,0,0,0,2.182,0c.458-.665,1.486-2.132,1.621-2.322v7.414Zm.9,0h0V6.33l3.9-1.776a.428.428,0,0,1,.176-.037.441.441,0,0,1,.441.456v7.162a.481.481,0,0,1-.284.418l-4.233,1.909Zm-11.3,0A.453.453,0,0,1,0,14.007V6.847a.448.448,0,0,1,.284-.418l3.765-1.7a5.6,5.6,0,0,0,.47.957v6.965l-3.9,1.772A.451.451,0,0,1,.453,14.459ZM8.136,9.035a.427.427,0,0,1-.348-.18c-.457-.661-.841-1.209-1.18-1.692C5.066,4.97,4.746,4.513,4.746,3.389a3.389,3.389,0,1,1,6.779,0c0,1.122-.319,1.577-1.853,3.762-.341.486-.728,1.037-1.188,1.7A.427.427,0,0,1,8.136,9.035Zm.014-7.27A1.494,1.494,0,1,0,9.644,3.26,1.5,1.5,0,0,0,8.15,1.766Z" transform="translate(239.866 57.768)" fill="#73e6b9"></path><rect id="Rectangle_11972" data-name="Rectangle 11972" width="22" height="22" transform="translate(237 54)" fill="none"></rect></g></svg> 