<?xml version="1.0" encoding="UTF-8"?> <svg xmlns="http://www.w3.org/2000/svg" width="22" height="22" viewBox="0 0 22 22"><g id="Group_33097" data-name="Group 33097" transform="translate(-146 -382)"><g id="Group_33096" data-name="Group 33096"><path id="Path_56734" data-name="Path 56734" d="M5.476,6.952H4V17.285a1.476,1.476,0,0,0,1.476,1.476H15.809V17.285H5.476ZM17.285,4H8.428A1.476,1.476,0,0,0,6.952,5.476v8.857a1.476,1.476,0,0,0,1.476,1.476h8.857a1.476,1.476,0,0,0,1.476-1.476V5.476A1.476,1.476,0,0,0,17.285,4Zm-5.9,9.225V6.583L15.809,9.9Z" transform="translate(145.364 381.364)" fill="#73e6b9"></path><rect id="Rectangle_11968" data-name="Rectangle 11968" width="22" height="22" transform="translate(146 382)" fill="none"></rect></g></g></svg> 