<?xml version="1.0" encoding="UTF-8"?> <svg xmlns="http://www.w3.org/2000/svg" width="22" height="22" viewBox="0 0 22 22"><g id="Group_33093" data-name="Group 33093" transform="translate(-146 -347)"><g id="Group_33087" data-name="Group 33087"><path id="_9055087_bxs_book_open_icon" data-name="9055087_bxs_book_open_icon" d="M16.052,3H10.874a2.2,2.2,0,0,0-1.48.577A2.2,2.2,0,0,0,7.918,3H2.74A.74.74,0,0,0,2,3.74v11.1a.74.74,0,0,0,.74.741H7a1.487,1.487,0,0,1,1.046.433l.829.829c.006.006.015.009.022.015A.726.726,0,0,0,9.114,17h0a.737.737,0,0,0,.562,0h0a.741.741,0,0,0,.218-.145c.006-.006.015-.009.022-.015l.829-.829a1.487,1.487,0,0,1,1.046-.433h4.26a.74.74,0,0,0,.74-.74V3.74A.74.74,0,0,0,16.052,3Zm-.737,11.1H11.8a2.981,2.981,0,0,0-1.658.509V5.219a.741.741,0,0,1,.74-.74h4.438Z" transform="translate(148 348)" fill="#73e6b9"></path><rect id="Rectangle_11963" data-name="Rectangle 11963" width="22" height="22" transform="translate(146 347)" fill="none"></rect></g></g></svg> 