<?xml version="1.0" encoding="UTF-8"?> <svg xmlns="http://www.w3.org/2000/svg" xmlns:xlink="http://www.w3.org/1999/xlink" width="22" height="22" viewBox="0 0 22 22"><defs><clipPath id="clip-path"><rect id="Rectangle_11957" data-name="Rectangle 11957" width="14.382" height="14.706" fill="#73e6b9"></rect></clipPath></defs><g id="Group_33100" data-name="Group 33100" transform="translate(-184 -53)"><g id="Group_33081" data-name="Group 33081" transform="translate(188 57)"><g id="Group_33080" data-name="Group 33080" clip-path="url(#clip-path)"><path id="Path_58588" data-name="Path 58588" d="M165.872,462.65h3.452a.735.735,0,0,0,.735-.735h-4.922a.735.735,0,0,0,.735.735Z" transform="translate(-160.494 -448.927)" fill="#73e6b9"></path><path id="Path_58589" data-name="Path 58589" d="M85.973,174.844a.216.216,0,0,0,.043-.138h-1.67v6.2h9.639v-6.2H92.317a.22.22,0,0,0,.043.138l.262.377a.238.238,0,0,1-.026.305l-1.207,1.207a.239.239,0,0,1-.305.026l-.377-.26a.236.236,0,0,0-.37.153l-.081.451a.238.238,0,0,1-.234.2H88.314a.24.24,0,0,1-.236-.2L88,176.653a.239.239,0,0,0-.372-.155c-.126.091-.27.188-.377.265a.242.242,0,0,1-.305-.029l-1.207-1.207a.239.239,0,0,1-.026-.305Zm5.211,5.225H87.149a.239.239,0,0,1,0-.477h4.034a.239.239,0,1,1,0,.477Zm-5.149-1.348H92.3a.239.239,0,0,1,0,.477H86.035a.239.239,0,0,1,0-.477Z" transform="translate(-81.974 -169.794)" fill="#73e6b9"></path><path id="Path_58590" data-name="Path 58590" d="M47.069,126.06a1.16,1.16,0,0,0-1.16-1.162H44.846v.854a.219.219,0,0,1-.012.069h1.074a.238.238,0,0,1,.239.239v6.676a.238.238,0,0,1-.239.239H35.792a.239.239,0,0,1-.239-.239V126.06a.239.239,0,0,1,.239-.239h1.076a.222.222,0,0,1-.012-.069V124.9H35.792a1.16,1.16,0,0,0-1.16,1.162V133.9H47.069Z" transform="translate(-33.658 -121.386)" fill="#73e6b9"></path><path id="Path_58591" data-name="Path 58591" d="M131.976,4.729l-.568.811.923.923.814-.568a2.4,2.4,0,0,0,.387.16l.172.976h1.307l.172-.976a2.5,2.5,0,0,0,.387-.16l.814.568.923-.923-.563-.813a2.494,2.494,0,0,0,.16-.387l.976-.172V2.863l-.976-.172a2.5,2.5,0,0,0-.16-.387l.568-.814-.923-.923-.811.568a2.425,2.425,0,0,0-.389-.16L135.015,0H133.71l-.172.976a2.5,2.5,0,0,0-.387.16l-.814-.568-.923.923.568.814a2.492,2.492,0,0,0-.16.387l-.976.172V4.168l.976.172a1.934,1.934,0,0,0,.153.389m2.383-2.83a1.613,1.613,0,1,1-1.613,1.613A1.611,1.611,0,0,1,134.359,1.9" transform="translate(-127.168)" fill="#73e6b9"></path><path id="Path_58592" data-name="Path 58592" d="M10.042,461.918A1.214,1.214,0,0,1,8.83,463.13H5.378a1.214,1.214,0,0,1-1.212-1.212H0a1.717,1.717,0,0,0,1.718,1.718H12.664a1.717,1.717,0,0,0,1.718-1.718Z" transform="translate(0 -448.929)" fill="#73e6b9"></path></g></g><rect id="Rectangle_11971" data-name="Rectangle 11971" width="22" height="22" transform="translate(184 53)" fill="none"></rect></g></svg> 