<?xml version="1.0" encoding="UTF-8"?> <svg xmlns="http://www.w3.org/2000/svg" width="22" height="22" viewBox="0 0 22 22"><g id="Group_33104" data-name="Group 33104" transform="translate(-171 -95)"><g id="_104435_amazon_icon" data-name="104435_amazon_icon" transform="translate(171.665 94.23)"><path id="Path_56717" data-name="Path 56717" d="M10.669,5.157A6.947,6.947,0,1,0,17.617,12.1a6.947,6.947,0,0,0-6.947-6.947Zm.607,3.957a.744.744,0,0,0-.6-.284H10.6a.864.864,0,0,0-.812.662.241.241,0,0,1-.189.207L8.538,9.566a.178.178,0,0,1-.152-.227A2.143,2.143,0,0,1,10.6,7.677h.227a2.539,2.539,0,0,1,1.643.547c.529.494.472,1.153.472,1.87v1.7a1.412,1.412,0,0,0,.415,1,.2.2,0,0,1-.019.284c-.207.189-.6.529-.831.718a.267.267,0,0,1-.265.018,2.955,2.955,0,0,1-.623-.717,2.372,2.372,0,0,1-1.02.7,3.155,3.155,0,0,1-.774.094A1.543,1.543,0,0,1,8.2,12.209,1.817,1.817,0,0,1,9.37,10.434a4.185,4.185,0,0,1,1.228-.3c.283-.038.567-.057.812-.076V9.905A1.42,1.42,0,0,0,11.277,9.114Zm2.863,5.953a3.086,3.086,0,0,1-.344.237l0,0a6.28,6.28,0,0,1-3.061.926h-.1a5.9,5.9,0,0,1-3.873-1.816.228.228,0,0,1-.089-.177.194.194,0,0,1,.062-.143.21.21,0,0,1,.144-.056A.253.253,0,0,1,7,14.073a7.6,7.6,0,0,0,3.7,1.292h.1a7.989,7.989,0,0,0,2.778-.61h0l.085-.033.065-.027c.044-.019.091-.04.136-.059a.3.3,0,0,1,.127-.03.255.255,0,0,1,.261.247.27.27,0,0,1-.116.214Zm.525.388a.255.255,0,0,1-.157.062h0a.178.178,0,0,1-.178-.182.222.222,0,0,1,.016-.083c.041-.109.1-.273.156-.438a1.612,1.612,0,0,0,.089-.423.165.165,0,0,0,0-.048l-.007,0a.233.233,0,0,0-.057-.021.886.886,0,0,0-.193-.015c-.109,0-.233.01-.352.022-.137.021-.254.032-.335.049H13.6a.2.2,0,0,1-.127-.043.175.175,0,0,1-.062-.135.235.235,0,0,1,.108-.185,1.42,1.42,0,0,1,.3-.168v0l.093-.03h0l.165-.056v.011a2.228,2.228,0,0,1,.474-.049,1.46,1.46,0,0,1,.494.07.288.288,0,0,1,.114.074l0,.006,0,.006a.4.4,0,0,1,.062.214v.053a1.934,1.934,0,0,1-.568,1.318Z" transform="translate(0 0)" fill="#73e6b9"></path><path id="Path_56718" data-name="Path 56718" d="M26.833,25.612a3.693,3.693,0,0,0-.812.075,1,1,0,0,0-.812,1.02c0,.472.247.793.661.793.057,0,.114-.019.151-.019a.912.912,0,0,0,.6-.494,2,2,0,0,0,.207-1.152Z" transform="translate(-15.424 -14.684)" fill="#73e6b9"></path></g><rect id="Rectangle_11977" data-name="Rectangle 11977" width="22" height="22" transform="translate(171 95)" fill="none"></rect></g></svg> 