<?xml version="1.0" encoding="UTF-8"?> <svg xmlns="http://www.w3.org/2000/svg" width="22" height="22" viewBox="0 0 22 22"><g id="Group_33103" data-name="Group 33103" transform="translate(-37 -94)"><path id="_1608799_print_icon" data-name="1608799_print_icon" d="M67.265,139.971h7.618v-2.177H67.265Zm0-5.442h7.618v-3.265h-1.36a.813.813,0,0,1-.819-.819v-1.361H67.265Zm9.795.544a.552.552,0,1,0-.161.382.523.523,0,0,0,.161-.382Zm1.088,0v3.537a.276.276,0,0,1-.272.272h-1.9v1.361a.813.813,0,0,1-.819.819h-8.16a.813.813,0,0,1-.819-.819v-1.361h-1.9a.276.276,0,0,1-.272-.272v-3.536a1.64,1.64,0,0,1,1.632-1.632h.544v-4.624A.813.813,0,0,1,67,128h5.714a2.265,2.265,0,0,1,1.394.578L75.4,129.87a2.265,2.265,0,0,1,.578,1.394v2.177h.544a1.64,1.64,0,0,1,1.631,1.633Z" transform="translate(-23 -30)" fill="#73e6b9"></path><rect id="Rectangle_11973" data-name="Rectangle 11973" width="22" height="22" transform="translate(37 94)" fill="none"></rect></g></svg> 