<?xml version="1.0" encoding="UTF-8"?> <svg xmlns="http://www.w3.org/2000/svg" width="22" height="22" viewBox="0 0 22 22"><g id="Group_33092" data-name="Group 33092" transform="translate(-146 -271)"><g id="Group_33083" data-name="Group 33083" transform="translate(-1)"><path id="_8665753_pen_nib_icon" data-name="8665753_pen_nib_icon" d="M3.967,4.033A1.864,1.864,0,0,0,2.7,5.235L0,13.362l.428.428L4.759,9.431a1.9,1.9,0,0,1-.138-.6,1.4,1.4,0,1,1,.795,1.257L1.056,14.419l.454.454,8.127-2.7a1.814,1.814,0,0,0,1.2-1.26l1.243-4.4L8.39,2.819ZM14.461,2.157,12.715.411a1.4,1.4,0,0,0-1.974,0L9.1,2.055l3.692,3.692,1.644-1.641a1.342,1.342,0,0,0,.026-1.95Z" transform="translate(150.566 274.564)" fill="#73e6b9"></path><rect id="Rectangle_11959" data-name="Rectangle 11959" width="22" height="22" transform="translate(147 271)" fill="none"></rect></g></g></svg> 