<?xml version="1.0" encoding="UTF-8"?> <svg xmlns="http://www.w3.org/2000/svg" width="22" height="22" viewBox="0 0 22 22"><g id="Group_33082" data-name="Group 33082" transform="translate(-41 -271)"><rect id="Rectangle_11958" data-name="Rectangle 11958" width="22" height="22" transform="translate(41 271)" fill="none"></rect><g id="Group_27930" data-name="Group 27930" transform="translate(-16626.689 767.083)"><path id="_8725529_calculator_alt_icon" data-name="8725529_calculator_alt_icon" d="M2.646,3.56h.183v.183a.366.366,0,0,0,.731,0V3.56h.183a.366.366,0,0,0,0-.731H3.56V2.646a.366.366,0,1,0-.731,0v.183H2.646a.366.366,0,0,0,0,.731ZM2.422,7.626a.366.366,0,0,0,.516,0l.26-.26.26.26a.365.365,0,1,0,.516-.516l-.26-.26.26-.26a.366.366,0,0,0-.516-.516l-.26.26-.26-.26a.366.366,0,0,0-.516.516l.26.26-.26.26a.366.366,0,0,0,0,.516ZM7.948,1H2.1A1.1,1.1,0,0,0,1,2.1V7.948a1.1,1.1,0,0,0,1.1,1.1H7.948a1.1,1.1,0,0,0,1.1-1.1V2.1A1.1,1.1,0,0,0,7.948,1ZM4.655,8.314H2.1a.366.366,0,0,1-.366-.366V5.388H4.657Zm0-3.657H1.731V2.1A.366.366,0,0,1,2.1,1.731h2.56ZM8.312,7.949a.366.366,0,0,1-.366.366H5.388V5.388H8.313Zm0-3.292H5.388V1.731h2.56a.366.366,0,0,1,.366.366ZM6.3,6.668H7.4a.366.366,0,1,0,0-.731H6.3a.366.366,0,0,0,0,.731Zm1.1-3.84H6.3a.366.366,0,0,0,0,.731H7.4a.366.366,0,1,0,0-.731ZM6.3,7.767H7.4a.366.366,0,0,0,0-.731H6.3a.366.366,0,0,0,0,.731Z" transform="translate(16669.5 -494.191)" fill="#73e6b9"></path><path id="_8686555_ic_fluent_vehicle_truck_cube_icon" data-name="8686555_ic_fluent_vehicle_truck_cube_icon" d="M2.19,10.042v4.047a1.666,1.666,0,0,0,1.666,1.666H4.1a2.382,2.382,0,0,0,4.666,0H9.816a2.382,2.382,0,0,0,4.666,0h1.476a1.428,1.428,0,0,0,1.429-1.428V10.743a1.428,1.428,0,0,0-.15-.639L15.7,7.022a1.428,1.428,0,0,0-1.278-.789h-.84V5.039a1.666,1.666,0,0,0-1.666-1.666H10.245v6.666H2.19ZM13.578,7.185h.84a.476.476,0,0,1,.426.263l1.3,2.594H13.578ZM6.436,13.851a1.428,1.428,0,1,1-1.428,1.428,1.428,1.428,0,0,1,1.428-1.428Zm4.285,1.428a1.428,1.428,0,1,1,1.428,1.428,1.428,1.428,0,0,1-1.428-1.428Z" transform="translate(16669.014 -494.633)" fill="#73e6b9"></path></g></g></svg> 