<?xml version="1.0" encoding="UTF-8"?> <svg xmlns="http://www.w3.org/2000/svg" width="22" height="22" viewBox="0 0 22 22"><g id="Group_33099" data-name="Group 33099" transform="translate(-117 -55)"><path id="Path_56714" data-name="Path 56714" d="M36.071,25.6a5.59,5.59,0,1,0-11.172,0,5.668,5.668,0,0,0,4.192,5.428l.474,1.265c-1.318.079-3.531.4-3.531,1.5,0,1.5,4,1.555,4.479,1.555s4.479-.052,4.479-1.555c0-1.133-2.24-1.423-3.557-1.5l.448-1.239A5.676,5.676,0,0,0,36.071,25.6Zm-3.768,0a1.817,1.817,0,1,1-1.817-1.817A1.817,1.817,0,0,1,32.3,25.6ZM34.042,33.8a6.814,6.814,0,0,1-3.557.659,6.98,6.98,0,0,1-3.557-.659,5.832,5.832,0,0,1,2.951-.632l.29.764a.318.318,0,0,0,.317.21h0a.342.342,0,0,0,.316-.21l.263-.764a5.934,5.934,0,0,1,2.976.629Z" transform="translate(97.985 38.351)" fill="#73e6b9"></path><rect id="Rectangle_11970" data-name="Rectangle 11970" width="22" height="22" transform="translate(117 55)" fill="none"></rect></g></svg> 