<?xml version="1.0" encoding="UTF-8"?> <svg xmlns="http://www.w3.org/2000/svg" width="22" height="22" viewBox="0 0 22 22"><g id="Group_33084" data-name="Group 33084" transform="translate(-41 -313)"><g id="noun-calculator-1476540" transform="translate(-62.287 279.72)"><path id="Path_58593" data-name="Path 58593" d="M107.474,36.39a.951.951,0,0,0-1.077,1.077v5.815h6.889V36.39Zm6.538,0v6.762a5.24,5.24,0,0,1,6.9.317V37.456a.958.958,0,0,0-1.083-1.066Zm3.266,1.8a.377.377,0,0,1,.363.374v1.088h1.089a.363.363,0,1,1,0,.725h-1.089v1.088a.363.363,0,1,1-.726,0V40.381h-1.089a.363.363,0,1,1-.04-.725h1.128V38.567a.356.356,0,0,1,.363-.374Zm-8.783,1.462h2.977a.363.363,0,1,1,0,.725h-2.9a.381.381,0,0,1-.417-.309c0-.238.126-.406.343-.417Zm8.783,2.721a4.9,4.9,0,1,0,4.9,4.9A4.9,4.9,0,0,0,117.278,42.376ZM106.4,44.008v5.81a.956.956,0,0,0,1.089,1.083h5.993a5.245,5.245,0,0,1-.318-6.892Zm4.915,1.974a.389.389,0,0,1-.011.52l-.771.771.771.765a.365.365,0,0,1-.516.516l-.765-.771-.771.771a.365.365,0,0,1-.516-.516l.765-.765-.765-.771a.378.378,0,0,1,0-.524.39.39,0,0,1,.514.008l.771.765.765-.765a.374.374,0,0,1,.527,0Zm4.474.2h2.943a.363.363,0,1,1,0,.725h-2.9a.363.363,0,1,1-.04-.725Zm.011,1.451h2.937a.363.363,0,1,1,0,.725h-2.9a.363.363,0,1,1-.034-.726Z" transform="translate(0 0)" fill="#73e6b9"></path></g><rect id="Rectangle_11960" data-name="Rectangle 11960" width="22" height="22" transform="translate(41 313)" fill="none"></rect></g></svg> 