<?xml version="1.0" encoding="UTF-8"?> <svg xmlns="http://www.w3.org/2000/svg" width="22" height="22" viewBox="0 0 22 22"><g id="Group_33102" data-name="Group 33102" transform="translate(-104 -94)"><g id="_2639922_sms_icon" data-name="2639922_sms_icon" transform="translate(106.359 94.408)"><path id="Path_56715" data-name="Path 56715" d="M7.534,22.4a2.326,2.326,0,0,1-1.212,2.454l.094.506A4.285,4.285,0,0,0,10.3,22.63Z" transform="translate(-2.035 -8.663)" fill="#73e6b9"></path><ellipse id="Ellipse_2418" data-name="Ellipse 2418" cx="0.347" rx="0.347" transform="translate(4.087 16.376)" fill="#73e6b9"></ellipse><path id="Path_56716" data-name="Path 56716" d="M13.641,4H4.117A2.117,2.117,0,0,0,2,6.117v6.35a2.117,2.117,0,0,0,2.117,2.117h9.525a2.117,2.117,0,0,0,2.113-2.117V6.117A2.117,2.117,0,0,0,13.641,4ZM8.877,10.35A1.058,1.058,0,1,1,9.935,9.292,1.058,1.058,0,0,1,8.877,10.35Zm3.175,0a1.058,1.058,0,1,1,.752-.309,1.058,1.058,0,0,1-.752.309Zm-6.35,0A1.058,1.058,0,1,1,6.76,9.292,1.058,1.058,0,0,1,5.7,10.35Z" fill="#73e6b9"></path></g><rect id="Rectangle_11974" data-name="Rectangle 11974" width="22" height="22" transform="translate(104 94)" fill="none"></rect><rect id="Rectangle_11976" data-name="Rectangle 11976" width="22" height="22" transform="translate(104 94)" fill="none"></rect></g></svg> 