<?xml version="1.0" encoding="UTF-8"?> <svg xmlns="http://www.w3.org/2000/svg" width="22" height="22" viewBox="0 0 22 22"><g id="Group_33088" data-name="Group 33088" transform="translate(-40 -384)"><g id="Page-1" transform="translate(44 386.5)"><g id="Icons-Communication" transform="translate(0 0.5)"><g id="live-help"><path id="Shape" d="M12.658,0H1.582A1.587,1.587,0,0,0,0,1.582V12.658A1.587,1.587,0,0,0,1.582,14.24H4.747L7.12,16.614,9.493,14.24h3.164a1.587,1.587,0,0,0,1.582-1.582V1.582A1.587,1.587,0,0,0,12.658,0ZM7.911,12.658H6.329V11.076H7.911ZM9.573,6.566l-.712.712a2.464,2.464,0,0,0-.949,2.215H6.329V9.1a2.873,2.873,0,0,1,.949-2.215l.949-1.028A1.328,1.328,0,0,0,8.7,4.747a1.582,1.582,0,0,0-3.164,0H3.956a3.164,3.164,0,1,1,6.329,0,2.88,2.88,0,0,1-.712,1.82Z" fill="#73e6b9" fill-rule="evenodd"></path></g></g></g><rect id="Rectangle_11964" data-name="Rectangle 11964" width="22" height="22" transform="translate(40 384)" fill="none"></rect></g></svg> 