<?xml version="1.0" encoding="UTF-8"?> <svg xmlns="http://www.w3.org/2000/svg" width="22" height="22" viewBox="0 0 22 22"><g id="Group_33098" data-name="Group 33098" transform="translate(-37 -55)"><g id="Group_33079" data-name="Group 33079" transform="translate(-7068.211 -406.408)"><path id="Subtraction_1" data-name="Subtraction 1" d="M3.088,6.177A3.089,3.089,0,0,1,1.907.235,3.089,3.089,0,1,1,4.27,5.942,3.073,3.073,0,0,1,3.088,6.177ZM1.817,3.143v.569L3.053,4.985H4.236l-1.3-1.291h0a1.279,1.279,0,0,0,.832-.262.987.987,0,0,0,.345-.7H4.6V2.511H4.114a.9.9,0,0,0-.422-.717H4.6V1.533H1.817V2.1H2.6c.386,0,.6.137.649.407H1.817v.222H3.25c-.045.272-.264.409-.649.409Z" transform="translate(7117.315 472.014)" fill="#73e6b9"></path><g id="noun-cash-on-delivery-3856334" transform="translate(7108.211 466)"><path id="Path_58586" data-name="Path 58586" d="M227.171,122.858a3.745,3.745,0,0,1,3.251-3.706v-3.24l.975-1.084v4.324q.166.022.327.058a.012.012,0,0,1,.008,0c.107.024.211.052.315.084v-4.891a.65.65,0,0,0-.65-.65h-9.841a1.43,1.43,0,0,0-.782.267l-1.929,1.492a.462.462,0,0,0-.127.354v9.266a.976.976,0,0,0,.975.975h9.373a3.681,3.681,0,0,1-.442-.3,3.734,3.734,0,0,1-1.453-2.955Zm-6-8.321a.8.8,0,0,1,.384-.132H230.9l-1.024,1.138H219.87Zm1.122,9.947h-1.626a.326.326,0,0,1-.325-.325v-1.626a.325.325,0,0,1,.65,0v1.3h1.3a.325.325,0,1,1,0,.65Z" transform="translate(-218.717 -113.756)" fill="#73e6b9"></path></g></g><rect id="Rectangle_11969" data-name="Rectangle 11969" width="22" height="22" transform="translate(37 55)" fill="none"></rect></g></svg> 