<?xml version="1.0" encoding="UTF-8"?> <svg xmlns="http://www.w3.org/2000/svg" width="22" height="22" viewBox="0 0 22 22"><g id="Group_33091" data-name="Group 33091" transform="translate(-146 -309)"><g id="Group_33085" data-name="Group 33085"><path id="_5310254_book_bookmark_education_read_study_icon" data-name="5310254_book_bookmark_education_read_study_icon" d="M65.162,17.765a.59.59,0,0,0,.594.558h.335a.232.232,0,0,1,.232.232v3.98a.232.232,0,0,0,.361.194l.775-.517a.464.464,0,0,1,.516,0l.775.517a.232.232,0,0,0,.361-.194V18.558a.232.232,0,0,1,.232-.232h5.344a.464.464,0,0,1,.465.462V29.476a.464.464,0,0,1-.464.464H65.742A1.742,1.742,0,0,1,64,28.2V17.735a1.715,1.715,0,0,1,.506-1.206A1.792,1.792,0,0,1,65.771,16h8.917a.464.464,0,0,1,.464.464V16.7a.464.464,0,0,1-.464.464H65.742a.581.581,0,0,0-.581.6Z" transform="translate(87.634 297.042)" fill="#73e6b9"></path><rect id="Rectangle_11961" data-name="Rectangle 11961" width="22" height="22" transform="translate(146 309)" fill="none"></rect></g></g></svg> 