<?xml version="1.0" encoding="UTF-8"?> <svg xmlns="http://www.w3.org/2000/svg" width="22" height="22" viewBox="0 0 22 22"><g id="Group_33089" data-name="Group 33089" transform="translate(-41 -420)"><g id="_3994346_code_coding_css_html_programming_icon" data-name="3994346_code_coding_css_html_programming_icon" transform="translate(43.487 412.602)"><path id="Path_56730" data-name="Path 56730" d="M4.31,24.249a1.043,1.043,0,0,0-1.465.132L.242,27.5a1.038,1.038,0,0,0,0,1.334l2.6,3.122a1.041,1.041,0,1,0,1.6-1.334L2.393,28.168,4.442,25.71a1.041,1.041,0,0,0-.132-1.461Z" transform="translate(0 -9.915)" fill="#73e6b9"></path><path id="Path_56731" data-name="Path 56731" d="M39.325,12.031a1.05,1.05,0,0,0-1.224.819l-2.081,10.4a1.038,1.038,0,0,0,.819,1.224.99.99,0,0,0,.2.02,1.04,1.04,0,0,0,1.018-.837l2.081-10.407a1.038,1.038,0,0,0-.819-1.224Z" transform="translate(-29.755)" fill="#73e6b9"></path><path id="Path_56732" data-name="Path 56732" d="M73.438,27.5l-2.6-3.122a1.041,1.041,0,1,0-1.6,1.334l2.048,2.458-2.048,2.458a1.041,1.041,0,1,0,1.6,1.334l2.6-3.128A1.038,1.038,0,0,0,73.438,27.5Z" transform="translate(-57.031 -9.91)" fill="#73e6b9"></path></g><rect id="Rectangle_11966" data-name="Rectangle 11966" width="22" height="22" transform="translate(41 420)" fill="none"></rect></g></svg> 