<?xml version="1.0" encoding="UTF-8"?> <svg xmlns="http://www.w3.org/2000/svg" version="1.2" viewBox="0 0 482 577" width="482" height="577"><title>promise-02-svg</title><defs><linearGradient id="g1" x2="1" gradientUnits="userSpaceOnUse" gradientTransform="matrix(134.093,288.501,-277.616,129.033,184.915,149.308)"><stop offset="0" stop-color="#76eb8f"></stop><stop offset="1" stop-color="#7a4ef2"></stop></linearGradient><linearGradient id="g2" x2="1" gradientUnits="userSpaceOnUse" gradientTransform="matrix(-51.244,-97.335,78.359,-41.254,462.028,283.106)"><stop offset="0" stop-color="#ffffff"></stop><stop offset=".12" stop-color="#e6edec"></stop><stop offset=".37" stop-color="#a5c1bb"></stop><stop offset=".73" stop-color="#407b6f"></stop><stop offset=".93" stop-color="#045242"></stop></linearGradient><linearGradient id="g3" x2="1" gradientUnits="userSpaceOnUse" gradientTransform="matrix(-156.327,114.122,-52.432,-71.823,348.056,233.152)"><stop offset="0" stop-color="#76eb8f"></stop><stop offset="1" stop-color="#7a4ef2"></stop></linearGradient></defs><style> .s0 { fill: #ffffff } .s1 { fill: url(#g1) } .s2 { opacity: .5;mix-blend-mode: multiply;fill: url(#g2) } .s3 { fill: url(#g3) } </style><g id="Group_186558"><g id="Group_186545"><path id="Rectangle_61666" class="s0" d="m-297-147c0-55.2 44.8-100 100-100h880c55.2 0 100 44.8 100 100v880c0 55.2-44.8 100-100 100h-880c-55.2 0-100-44.8-100-100z"></path></g></g><g id="_66"><g id="Layer_2"><g id="Layer_1-2"><path id="Path_151419" class="s1" d="m411.9 148.4v186.3c0 44.9-24.1 86.2-63 108.4l-105.9 60.2-105.9-60.2c-38.9-22.2-62.9-63.5-63-108.4v-187.7l168.9-68.8 106 43.9 47.2-47.2-153.2-61.9-229.8 92v229.7c0 66.8 35.8 128.3 93.8 161.4l136 77.3 136-77.3c58-33.1 93.8-94.6 93.9-161.4v-161z"></path><path id="Rectangle_52280" class="s2" d="m411.9 173.7h61v126.1h-61z"></path><path id="Path_151420" class="s3" d="m411.9 148.4l61 25.3-230.6 230.5-106.9-106.8 43.1-43.1 63.8 63.7c0 0 169.6-169.6 169.6-169.6z"></path></g></g></g></svg> 