<svg width="18" height="12" viewBox="0 0 18 12" fill="none" xmlns="http://www.w3.org/2000/svg">
<path d="M11.2748 0.22184C11.2002 0.293478 11.141 0.378708 11.1006 0.472613C11.0603 0.566519 11.0395 0.667241 11.0395 0.76897C11.0395 0.870699 11.0603 0.971422 11.1006 1.06533C11.141 1.15923 11.2002 1.24446 11.2748 1.3161L14.934 4.86089H0.98127C0.770296 4.86089 0.567963 4.94207 0.418782 5.08659C0.2696 5.23111 0.185791 5.42711 0.185791 5.63149C0.185791 5.83587 0.2696 6.03187 0.418782 6.17639C0.567963 6.32091 0.770296 6.4021 0.98127 6.4021H14.9181L11.2748 9.92376C11.1266 10.0681 11.0434 10.2635 11.0434 10.467C11.0434 10.6706 11.1266 10.8659 11.2748 11.0103C11.4238 11.1538 11.6254 11.2344 11.8356 11.2344C12.0457 11.2344 12.2474 11.1538 12.3964 11.0103L17.4556 6.10927C17.5237 6.04598 17.5779 5.97 17.6149 5.88591C17.6519 5.80182 17.671 5.71135 17.671 5.61993C17.671 5.52851 17.6519 5.43804 17.6149 5.35395C17.5779 5.26986 17.5237 5.19389 17.4556 5.1306L12.4043 0.22184C12.3304 0.149613 12.2424 0.0922842 12.1455 0.0531616C12.0485 0.0140389 11.9446 -0.00610352 11.8396 -0.00610352C11.7345 -0.00610352 11.6306 0.0140389 11.5336 0.0531616C11.4367 0.0922842 11.3487 0.149613 11.2748 0.22184Z" fill="#735AE5"/>
</svg>
