<svg width="55" height="49" viewBox="0 0 55 49" fill="none" xmlns="http://www.w3.org/2000/svg">
<rect width="55" height="48.7903" rx="13" fill="white"/>
<path d="M27.5 38.375C35.163 38.375 41.375 32.163 41.375 24.5C41.375 16.837 35.163 10.625 27.5 10.625C19.837 10.625 13.625 16.837 13.625 24.5C13.625 32.163 19.837 38.375 27.5 38.375Z" stroke="black" stroke-width="1.2" stroke-linecap="round" stroke-linejoin="round"/>
<path d="M14.4199 19.875H40.5801" stroke="black" stroke-width="1.2" stroke-linecap="round" stroke-linejoin="round"/>
<path d="M14.4199 29.125H40.5801" stroke="black" stroke-width="1.2" stroke-linecap="round" stroke-linejoin="round"/>
<path d="M27.5 37.9992C30.6929 37.9992 33.2812 31.9554 33.2812 24.5C33.2812 17.0445 30.6929 11.0007 27.5 11.0007C24.3071 11.0007 21.7188 17.0445 21.7188 24.5C21.7188 31.9554 24.3071 37.9992 27.5 37.9992Z" stroke="black" stroke-width="1.2" stroke-linecap="round" stroke-linejoin="round"/>
</svg>
