<svg width="55" height="49" viewBox="0 0 55 49" fill="none" xmlns="http://www.w3.org/2000/svg">
<rect width="55" height="48.7903" rx="13" fill="white"/>
<g clip-path="url(#clip0_298_7597)">
<path d="M31 17V19H37.5859L29 27.5859L24.707 23.293C24.6142 23.2001 24.504 23.1264 24.3827 23.0761C24.2613 23.0258 24.1313 23 24 23C23.8687 23 23.7387 23.0258 23.6173 23.0761C23.496 23.1264 23.3858 23.2001 23.293 23.293L13 33.5859L14.4141 35L24 25.4141L28.293 29.707C28.3858 29.7999 28.496 29.8736 28.6173 29.9239C28.7386 29.9742 28.8687 30 29 30C29.1313 30 29.2614 29.9742 29.3827 29.9239C29.504 29.8736 29.6142 29.7999 29.707 29.707L39 20.4141V27H41V17H31Z" fill="black"/>
</g>
<defs>
<clipPath id="clip0_298_7597">
<rect width="32" height="32" fill="white" transform="translate(11 9)"/>
</clipPath>
</defs>
</svg>
