<svg width="55" height="49" viewBox="0 0 55 49" fill="none" xmlns="http://www.w3.org/2000/svg">
<rect width="55" height="48.7903" rx="13" fill="white"/>
<path d="M18.8637 28.8526V27.9789C18.5023 27.9789 18.1791 28.2065 18.0537 28.5494C17.9283 28.8923 18.0272 29.278 18.3016 29.5159L18.8637 28.8526ZM18 15.7474H37V14H18V15.7474ZM18.8637 29.7262H24.0455V27.9789H18.8637V29.7262ZM24.0455 14H18.8637V15.7474H24.0455V14ZM18.3016 29.5159L30.3925 40L31.5166 38.6734L19.4257 28.1892L18.3016 29.5159ZM31.8182 21.8631C31.8182 17.5204 28.3382 14 24.0455 14V15.7474C27.3843 15.7474 30.0909 18.4855 30.0909 21.8631H31.8182ZM24.0455 29.7262C28.3382 29.7262 31.8182 26.2058 31.8182 21.8631H30.0909C30.0909 25.2408 27.3843 27.9789 24.0455 27.9789V29.7262ZM18 22.7368H37V20.9894H18V22.7368Z" fill="black"/>
</svg>
