<svg width="67" height="60" viewBox="0 0 67 60" fill="none" xmlns="http://www.w3.org/2000/svg">
<rect y="0.89917" width="66.2274" height="58.7501" rx="13" fill="white"/>
<g clip-path="url(#clip0_808_308)">
<path d="M33.4636 17.4428C33.239 17.3528 32.9884 17.3528 32.7637 17.4428L21.5352 21.9339L33.1137 26.5641L44.6922 21.9339L33.4636 17.4428ZM46.2839 23.3243L34.0544 28.2161V43.121L46.2839 38.2292V23.3243ZM32.173 43.1229V28.2142L19.9435 23.3243V38.2311L32.173 43.1229ZM32.0657 15.695C32.7385 15.4259 33.4889 15.4259 34.1617 15.695L47.5746 21.0609C47.749 21.1308 47.8984 21.2513 48.0037 21.4069C48.109 21.5624 48.1653 21.746 48.1654 21.9339V38.2311C48.1651 38.607 48.0523 38.9743 47.8413 39.2855C47.6304 39.5967 47.3311 39.8376 46.9819 39.9771L33.4636 45.3844C33.239 45.4744 32.9884 45.4744 32.7637 45.3844L19.2473 39.9771C18.8979 39.8379 18.5981 39.5971 18.3868 39.2859C18.1755 38.9747 18.0624 38.6073 18.062 38.2311V21.9339C18.0621 21.746 18.1183 21.5624 18.2236 21.4069C18.3289 21.2513 18.4784 21.1308 18.6528 21.0609L32.0657 15.695Z" fill="black"/>
</g>
<defs>
<clipPath id="clip0_808_308">
<rect width="30.1034" height="30.1034" fill="white" transform="translate(18.062 15.3489)"/>
</clipPath>
</defs>
</svg>
