<svg id="Group_187006" data-name="Group 187006" xmlns="http://www.w3.org/2000/svg" xmlns:xlink="http://www.w3.org/1999/xlink" width="479.99" height="453.055" viewBox="0 0 479.99 453.055">
  <defs>
    <clipPath id="clip-path">
      <rect id="Rectangle_184" data-name="Rectangle 184" width="479.99" height="453.055" fill="none"/>
    </clipPath>
  </defs>
  <g id="Group_187005" data-name="Group 187005" clip-path="url(#clip-path)">
    <path id="Path_172679" data-name="Path 172679" d="M391.73,197.025c-.512,0-1.349,0-2.394.009l-34.389,62.193a5.46,5.46,0,0,1-9.553,0l-40.117-72.555L190.25,46.855a25,25,0,0,0-19.35-9.8H143.99a16,16,0,0,0-14.55,22.61l64.44,142L96.56,203.1l-34.57-42.05c-5.84-7.41-15.77-12-26-12H17.07a16.83,16.83,0,0,0-13.6,6.7c-2.36,3.13-4.71,8.45-2.56,16.06l19.84,71.45a15.041,15.041,0,0,0,.53,1.59.379.379,0,0,1,0,.15c-.2.52-.38,1.05-.53,1.58l-19.82,71c-2.28,7.76.06,13.2,2.44,16.41a17.662,17.662,0,0,0,14.7,7.06H35.99c13.7,0,19.07-3.77,25.8-12.23l35.3-42.77,96.79,2.15-64.46,142.25a16,16,0,0,0,14.57,22.6h26.62a25,25,0,0,0,19.32-9.75l125.36-152,57.76,1.54c4.29.23,15.98.31,18.66.31,24.36,0,44.28-3.34,59.21-9.94,25.29-11.16,29.07-28.7,29.07-38.16,0-30.06-33-48-88.26-48.03" fill="#7f6bf6"/>
    <path id="Path_172680" data-name="Path 172680" d="M373.07,197.335c3.43-.186,11.783-.274,16.265-.3l37.722-68.22a87.348,87.348,0,1,0-153.748.043l31.967,57.815L315.3,198.855ZM350.17,43.674A43.673,43.673,0,1,1,306.5,87.347,43.724,43.724,0,0,1,350.17,43.674" fill="#97f8b7"/>
    <path id="Path_172681" data-name="Path 172681" d="M350.17,262.042a5.454,5.454,0,0,0,4.777-2.815l34.388-62.193c-4.482.027-12.835.115-16.265.3l-57.77,1.52-10.024-12.183,40.117,72.555a5.454,5.454,0,0,0,4.777,2.815" fill="#4f2fde"/>
  </g>
</svg>
