<?xml version="1.0" encoding="UTF-8"?>
<svg xmlns="http://www.w3.org/2000/svg" xmlns:xlink="http://www.w3.org/1999/xlink" version="1.1" viewBox="0 0 877.4 1043.7">
  <defs>
    <style>
      .cls-1 {
        fill: none;
      }

      .cls-2 {
        fill: #abffc7;
      }

      .cls-2, .cls-3, .cls-4 {
        fill-rule: evenodd;
      }

      .cls-3 {
        fill: #5737e8;
      }

      .cls-4 {
        fill: #7f6bf6;
      }

      .cls-5 {
        clip-path: url(#clippath);
      }
    </style>
    <clipPath id="clippath">
      <rect class="cls-1" x="28.6" y="26.9" width="820.1" height="990"/>
    </clipPath>
  </defs>
  <!-- Generator: Adobe Illustrator 28.7.2, SVG Export Plug-In . SVG Version: 1.2.0 Build 154)  -->
  <g>
    <g id="Layer_1">
      <g id="Group_186591">
        <g class="cls-5">
          <g id="Group_186590">
            <path id="Path_172410" class="cls-4" d="M728.6,726.9c160.1-160.1,160.1-419.8,0-579.9-160.1-160.1-419.8-160.1-579.9,0-160.1,160.1-160.1,419.8,0,579.9,0,0,0,0,0,0l24.4,24.4c69.2-72.4,165-113.3,265.2-113.3h0c-111-.2-200.8-90.4-200.6-201.5.2-111,90.4-200.8,201.5-200.6,111,.2,200.8,90.4,200.6,201.5-.2,110.7-89.9,200.4-200.6,200.6,100.2,0,196,40.9,265.2,113.3l24.4-24.4Z"/>
            <path id="Path_172411" class="cls-3" d="M704.3,751.2c-69.2-72.4-165-113.3-265.2-113.3h-.8c-100.1,0-195.9,40.9-265.1,113.3l265.6,265.6,265.6-265.6Z"/>
            <path id="Path_172412" class="cls-2" d="M438.7,1016.8l-265.6-265.6c-65.7,68.4-102.4,159.6-102.3,254.5,0,3.7,0,7.4.2,11.1h735.4c.1-3.7.2-7.4.2-11.1.1-94.9-36.5-186.1-102.3-254.5l-265.6,265.6Z"/>
          </g>
        </g>
      </g>
    </g>
  </g>
</svg>