<?xml version="1.0" encoding="UTF-8"?>
<svg xmlns="http://www.w3.org/2000/svg" xmlns:xlink="http://www.w3.org/1999/xlink" version="1.1" viewBox="0 0 155.9 199.7">
  <defs>
    <style>
      .cls-1 {
        fill: none;
      }

      .cls-2 {
        fill: #7f6bf6;
      }

      .cls-3 {
        fill: #abffc7;
      }

      .cls-4 {
        fill: #5a3ce8;
      }

      .cls-5 {
        clip-path: url(#clippath);
      }
    </style>
    <clipPath id="clippath">
      <rect class="cls-1" y="2.9" width="155.9" height="194.9"/>
    </clipPath>
  </defs>
  <!-- Generator: Adobe Illustrator 28.7.2, SVG Export Plug-In . SVG Version: 1.2.0 Build 154)  -->
  <g>
    <g id="Layer_1">
      <g id="Group_186364">
        <g class="cls-5">
          <g id="Group_186363">
            <path id="Path_172280" class="cls-3" d="M109.7,53h0l13.1,15.2h-6.5c-1.6,0-2.9,1.3-2.9,2.9h0v121.3c0,1.6,1.3,2.9,3,2.9.8,0,1.5-.3,2-.8l36.5-34.6c.6-.6.9-1.3.9-2.1V7.3c0-2.4-2-4.4-4.4-4.4-1.3,0-2.6.6-3.5,1.7l-38.3,48.5Z"/>
            <path id="Path_172281" class="cls-4" d="M100.6,51.5h0c-.8.1-1.5-.4-1.6-1.1,0,0,0-.2,0-.3v-14.2c0-2.1-1.7-3.8-3.8-3.8-1.2,0-2.3.5-3,1.4l-40.3,50.8c-.4.5-.4,1.3,0,1.8l14.3,16.5h-8.2c-.8,0-1.4.6-1.4,1.4v91.3c0,1.3,1.1,2.4,2.4,2.4.6,0,1.2-.2,1.6-.6l38-36c.3-.3.4-.6.4-1v-90.4c0-.8-.6-1.4-1.4-1.4h-8.1l12.5-14.4c.5-.6.4-1.5-.1-2-.3-.3-.8-.4-1.2-.3"/>
            <path id="Path_172282" class="cls-2" d="M47.9,85.2h0s-1.9.4-1.9.4c-1.6.3-3.2-.8-3.5-2.4,0-.2,0-.4,0-.6v-8.1c0-2.1-1.7-3.7-3.7-3.7-1.1,0-2.2.5-2.9,1.4L.7,116.5c-.4.5-.7,1.2-.7,1.9v71.7c0,2.2,1.8,4,4,4,1,0,2-.4,2.7-1.1l34.8-33c.6-.6.9-1.4.9-2.2v-52.1c0-1.7-1.4-3-3-3h-6.6l15.1-17.4Z"/>
          </g>
        </g>
      </g>
    </g>
  </g>
</svg>