<?xml version="1.0" encoding="UTF-8"?> <svg xmlns="http://www.w3.org/2000/svg" id="Layer_1" data-name="Layer 1" viewBox="0 0 22 22"><defs><style> .cls-1 { fill: #73e6b9; stroke-width: 0px; } </style></defs><path class="cls-1" d="M3.85,6.84c.03-.14.05-.27.08-.41.04-.18.12-.33.32-.39.19-.05.35,0,.48.14.37.37.73.74,1.1,1.1.38.37.93.34,1.25-.04.25-.3.27-.75.01-1.05-.31-.37-.67-.69-1.01-1.03-.07-.07-.14-.13-.2-.2-.24-.27-.13-.66.22-.74,1.01-.25,1.94-.06,2.72.64.93.83,1.22,1.87.93,3.08-.04.15-.01.24.1.35,1.48,1.48,2.97,2.96,4.44,4.45.14.14.26.17.45.13.57-.14,1.15-.14,1.72.05,1.41.47,2.31,1.98,1.96,3.49-.08.33-.24.48-.51.45-.14-.01-.24-.1-.34-.2-.36-.36-.71-.72-1.07-1.07-.42-.41-1.1-.29-1.35.23-.16.33-.1.69.18.97.35.36.71.72,1.07,1.07.09.09.16.18.18.3.04.24-.1.45-.35.51-.13.03-.27.06-.4.09h-.74c-.07-.02-.14-.03-.21-.05-1.06-.24-1.8-.87-2.2-1.87-.25-.63-.23-1.28-.07-1.92.03-.12,0-.2-.08-.28-1.52-1.51-3.03-3.03-4.54-4.55-.08-.08-.16-.11-.28-.08-.36.08-.73.13-1.1.1-1.08-.09-1.86-.64-2.39-1.56-.2-.34-.29-.72-.35-1.11,0-.2,0-.4,0-.6Z"></path><path class="cls-1" d="M3.85,16.75c.09-.45.34-.8.67-1.12,1.27-1.26,2.53-2.52,3.79-3.78q.13-.13.26,0c.73.73,1.46,1.46,2.19,2.19.1.1.1.15,0,.25-1.31,1.31-2.62,2.62-3.93,3.93-.28.28-.61.45-.99.54h-.57c-.26-.06-.51-.15-.73-.31-.39-.28-.6-.66-.7-1.12v-.57ZM8.66,13.61c-.12,0-.22.05-.31.14-.85.85-1.7,1.7-2.55,2.56-.18.18-.19.43-.03.6.17.17.42.16.61-.02.02-.02.03-.03.05-.05.81-.81,1.63-1.63,2.44-2.44.04-.04.09-.09.12-.14.09-.13.1-.28.03-.42-.07-.14-.19-.22-.37-.22Z"></path><path class="cls-1" d="M18.49,5.28c0,.13-.05.22-.1.31-.43.71-.85,1.42-1.28,2.13-.2.34-.51.38-.79.1q-.19-.19-.38,0c-.86.86-1.72,1.71-2.58,2.57-.09.09-.14.09-.23,0-.33-.34-.67-.68-1.01-1.01-.09-.09-.08-.14,0-.23.89-.88,1.77-1.76,2.65-2.64.09-.09.11-.14,0-.24-.29-.27-.25-.58.09-.78.71-.43,1.42-.85,2.13-1.28.27-.16.45-.14.68.09.21.21.42.42.64.64.1.1.17.21.17.34Z"></path></svg> 