<?xml version="1.0" encoding="UTF-8"?> <svg xmlns="http://www.w3.org/2000/svg" width="45.114" height="50" viewBox="0 0 45.114 50"><g id="Group_223771" data-name="Group 223771" transform="translate(9765.462 16833.295)"><g id="Group_222662" data-name="Group 222662" transform="translate(-9765.462 -16833.295)"><g id="Group_152342" data-name="Group 152342" transform="translate(0 0)"><g id="Group_222728" data-name="Group 222728"><path id="Path_144580" data-name="Path 144580" d="M87.052,9.4l-7.6-7.6c-.086-.078-.172-.138-.258-.207V9.655h8.069C87.19,9.569,87.129,9.483,87.052,9.4Z" transform="translate(-51.604 -1.034)" fill="#abffc7"></path><path id="Path_144581" data-name="Path 144581" d="M36.208,30V10.346H26.726a.863.863,0,0,1-.864-.86V0H2.588A2.593,2.593,0,0,0,0,2.588V47.415A2.587,2.587,0,0,0,2.588,50H32.62a3.587,3.587,0,0,0,3.588-3.588v-.543H29.265a.993.993,0,0,1-.993-.993V30.99A.992.992,0,0,1,29.265,30H32.24v4.961a.989.989,0,0,0,.993.989h2.975V33.965H34.222V30ZM18.1,36.208H7.758a.862.862,0,0,1,0-1.724H18.1a.862.862,0,0,1,0,1.724m0-5.173H7.758a.862.862,0,0,1,0-1.724H18.1a.862.862,0,0,1,0,1.724M28.45,25.862H7.758a.862.862,0,0,1,0-1.724H28.45a.862.862,0,0,1,0,1.724m0-5.17H7.758a.862.862,0,0,1,0-1.724H28.45a.862.862,0,0,1,0,1.724m0-5.173H7.758a.862.862,0,0,1,0-1.724H28.45a.862.862,0,0,1,0,1.724" fill="#7f6bf6"></path><rect id="Rectangle_51256" data-name="Rectangle 51256" width="2.229" height="4.454" transform="translate(33.981 28.407)" fill="#5033d8"></rect><rect id="Rectangle_51257" data-name="Rectangle 51257" width="2.225" height="4.454" transform="translate(36.21 28.407)" fill="#abffc7"></rect><path id="Path_144582" data-name="Path 144582" d="M90.068,92.789v11.137H82.274a1.115,1.115,0,0,1-1.114-1.115V87.225a1.114,1.114,0,0,1,1.114-1.115h3.34v5.569a1.111,1.111,0,0,0,1.115,1.111Z" transform="translate(-53.858 -57.702)" fill="#5033d8"></path><path id="Path_144583" data-name="Path 144583" d="M112.844,87.225v15.588a1.116,1.116,0,0,1-.325.786,1.1,1.1,0,0,1-.786.328H103.94V92.789h3.34a1.116,1.116,0,0,0,.786-.325,1.1,1.1,0,0,0,.328-.786V86.11h3.34a1.115,1.115,0,0,1,1.111,1.115" transform="translate(-67.73 -57.702)" fill="#abffc7"></path></g></g></g></g></svg> 