<?xml version="1.0" encoding="UTF-8"?> <svg xmlns="http://www.w3.org/2000/svg" width="55.577" height="50" viewBox="0 0 55.577 50"><g id="Group_223774" data-name="Group 223774" transform="translate(10669.794 16617.613)"><g id="Group_152349" data-name="Group 152349" transform="translate(-10669.794 -16617.613)"><path id="Path_144586" data-name="Path 144586" d="M40.239,42.23a.84.84,0,1,1-.84-.84.839.839,0,0,1,.84.84" transform="translate(-33.564 -36.026)"></path><path id="Path_144587" data-name="Path 144587" d="M1.675,2.529A1.655,1.655,0,0,0,0,4.164v8.424a1.647,1.647,0,0,0,1.622,1.647H11.7V2.536ZM5.86,10.908A2.517,2.517,0,0,1,3.334,8.4V8.385A2.518,2.518,0,1,1,5.86,10.908" transform="translate(0 -2.201)" fill="#7f6bf6"></path><path id="Path_144588" data-name="Path 144588" d="M130.772,2.52h-.047l-27.586.005v11.7h27.591a1.652,1.652,0,0,0,1.674-1.632.265.265,0,0,0,0-.045V4.2a1.655,1.655,0,0,0-1.632-1.678m-2.494,6.69a.364.364,0,0,1-.053,0l-20.892.01a.841.841,0,1,1-.054-1.68h20.946a.835.835,0,1,1,.053,1.669" transform="translate(-89.777 -2.193)" fill="#7f6bf6"></path><path id="Path_144590" data-name="Path 144590" d="M40.239,42.23a.84.84,0,1,1-.84-.84.839.839,0,0,1,.84.84" transform="translate(-33.564 -36.026)"></path><path id="Path_144591" data-name="Path 144591" d="M40.239,42.23a.84.84,0,1,1-.84-.84.839.839,0,0,1,.84.84" transform="translate(-33.564 -36.026)" fill="#5033d8"></path><path id="Path_144592" data-name="Path 144592" d="M40.249,145.45a.84.84,0,1,1-.84-.84.839.839,0,0,1,.84.84" transform="translate(-33.572 -125.875)"></path><path id="Path_144593" data-name="Path 144593" d="M1.675,105.739A1.655,1.655,0,0,0,0,107.374V115.8a1.649,1.649,0,0,0,1.622,1.648H11.7v-11.7Zm4.185,8.379a2.516,2.516,0,0,1-2.526-2.51V111.6a2.518,2.518,0,1,1,2.526,2.523" transform="translate(0 -92.042)" fill="#7f6bf6"></path><path id="Path_144594" data-name="Path 144594" d="M40.249,145.45a.84.84,0,1,1-.84-.84.839.839,0,0,1,.84.84" transform="translate(-33.572 -125.875)"></path><path id="Path_144595" data-name="Path 144595" d="M40.249,145.45a.84.84,0,1,1-.84-.84.839.839,0,0,1,.84.84" transform="translate(-33.572 -125.875)" fill="#5033d8"></path><path id="Path_144596" data-name="Path 144596" d="M40.259,248.641a.84.84,0,1,1-.841-.841h0a.839.839,0,0,1,.838.841" transform="translate(-33.582 -215.695)"></path><path id="Path_144597" data-name="Path 144597" d="M1.675,208.919A1.657,1.657,0,0,0,0,210.554v8.428a1.645,1.645,0,0,0,1.617,1.644H11.7v-11.7ZM5.86,217.3a2.516,2.516,0,0,1-2.526-2.51v-.013A2.518,2.518,0,1,1,5.86,217.3" transform="translate(0 -181.852)" fill="#7f6bf6"></path><path id="Path_144598" data-name="Path 144598" d="M40.259,248.641a.84.84,0,1,1-.841-.841h0a.839.839,0,0,1,.838.841" transform="translate(-33.582 -215.695)"></path><path id="Path_144599" data-name="Path 144599" d="M40.259,248.641a.84.84,0,1,1-.841-.841h0a.839.839,0,0,1,.838.841" transform="translate(-33.582 -215.695)" fill="#5033d8"></path><path id="Path_144600" data-name="Path 144600" d="M132.406,107.52V114.4L132,112.223a.827.827,0,0,0-.846-.684l-4.365.126a.9.9,0,0,0-.806.735L125.655,115a12.05,12.05,0,0,0-2.854,1.252l-2.353-1.542a.98.98,0,0,0-1.315.369l-2.736,2.744a.835.835,0,0,0-.052,1.122l.155.187,1.161,1.393.385.464a10.291,10.291,0,0,0-1.04,2.722c-.945.158-1.889.321-2.826.486a.834.834,0,0,0-.7.847l.123,4.125a.835.835,0,0,0,.745.806l2.881.321c.06.18.123.36.193.536H103.14v-25.1h27.486a1.78,1.78,0,0,1,1.78,1.78" transform="translate(-89.777 -92.042)" fill="#7f6bf6"></path><path id="Path_144601" data-name="Path 144601" d="M236.036,179.836a.858.858,0,0,0-.887-.818c-.556-.065-1.928-.218-2.741-.308a11.8,11.8,0,0,0-1.219-2.582c.459-.618,1.227-1.658,1.54-2.09a.854.854,0,0,0-.005-1.207.353.353,0,0,0-.032-.03l-2.109-1.88-1.061-.946a.845.845,0,0,0-1.11-.005l-2.21,1.653a13.228,13.228,0,0,0-2.9-1.025l-.088-.468v7.2a5.851,5.851,0,1,1-7.058,9.232h-7.923a11.684,11.684,0,0,0,1.024,2.044q-.81,1.1-1.625,2.2c-.46.65.144,1.176.367,1.342l2.923,2.6a.838.838,0,0,0,1.059.041l2.227-1.658c.045.021.1.051.145.071a13.424,13.424,0,0,0,2.792.934l.5,2.639a.836.836,0,0,0,.849.679l4.365-.13a.837.837,0,0,0,.806-.733l.334-2.633a13.8,13.8,0,0,0,1.467-.488,13.327,13.327,0,0,0,1.4-.72l2.335,1.534a.832.832,0,0,0,1.053-.1l.336-.337,2.668-2.673a.834.834,0,0,0,.047-1.123l-1.759-2.112a11.791,11.791,0,0,0,1.074-2.649c.907-.152,2.127-.359,2.71-.466a.862.862,0,0,0,.838-.865Z" transform="translate(-180.582 -147.771)" fill="#abffc7"></path><path id="Path_144602" data-name="Path 144602" d="M201.891,153.358v7.2h0a5.851,5.851,0,0,0-7.057,9.234H186.91c-.07-.176-.133-.356-.193-.536l-2.881-.321a.835.835,0,0,1-.745-.806l-.123-4.125a.834.834,0,0,1,.7-.847c.937-.165,1.881-.328,2.826-.486a10.291,10.291,0,0,1,1.04-2.722l-.385-.464-1.161-1.393-.155-.187a.835.835,0,0,1,.052-1.122l2.736-2.744a.98.98,0,0,1,1.315-.369l2.353,1.542a12.051,12.051,0,0,1,2.854-1.252l.324-2.605a.9.9,0,0,1,.806-.735l4.365-.126a.827.827,0,0,1,.846.684Z" transform="translate(-159.262 -130.995)" fill="#5033d8"></path><rect id="Rectangle_51261" data-name="Rectangle 51261" width="55.577" height="50" transform="translate(0)" fill="none"></rect></g></g></svg> 