<?xml version="1.0" encoding="UTF-8"?> <svg xmlns="http://www.w3.org/2000/svg" width="45.821" height="49.998" viewBox="0 0 45.821 49.998"><g id="Group_223769" data-name="Group 223769" transform="translate(10665 16835)"><g id="Group_152343" data-name="Group 152343" transform="translate(-10665 -16835)"><g id="Group_152344" data-name="Group 152344"><path id="Path_144571" data-name="Path 144571" d="M46.227,28.64l-.636-.4A42.128,42.128,0,0,1,43.01,31.9s-3.691-4.571-4.9-8.3L27.826,17.21a3.859,3.859,0,0,0-4.069,0l-9.9,6.148a37.045,37.045,0,0,1-4.451,7.124S8.386,29.213,7.241,27.47L5.353,28.643A3.236,3.236,0,0,0,3.822,31.39V58.354a2.4,2.4,0,0,0,2.4,2.4h4.963a.576.576,0,0,0,.573-.576V38.7a1.951,1.951,0,0,1,1.877-2.019H37.944A1.95,1.95,0,0,1,39.821,38.7V60.174a.57.57,0,0,0,.573.573h4.967a2.393,2.393,0,0,0,2.393-2.393V31.39a3.234,3.234,0,0,0-1.527-2.75M30.34,32.773h-9.1a1.7,1.7,0,0,1-1.474-1.867,1.707,1.707,0,0,1,1.474-1.87h9.1a1.707,1.707,0,0,1,1.474,1.87,1.7,1.7,0,0,1-1.474,1.867" transform="translate(-2.471 -10.751)" fill="#7f6bf6"></path><path id="Path_144572" data-name="Path 144572" d="M36.45,113.219a1.585,1.585,0,0,0-1.589,1.58v6.8a1.585,1.585,0,0,0,1.58,1.589h6.8a1.585,1.585,0,0,0,1.589-1.58v-6.8a1.585,1.585,0,0,0-1.58-1.589H40.863v2.409c0,.185-.2.334-.46.334H39.3c-.257,0-.466-.149-.466-.334v-2.409Z" transform="translate(-22.537 -73.193)" fill="#7f6bf6"></path><path id="Path_144573" data-name="Path 144573" d="M70.449,113.219a1.586,1.586,0,0,0-1.591,1.582v6.8a1.586,1.586,0,0,0,1.584,1.589h6.8a1.585,1.585,0,0,0,1.591-1.58v-6.8a1.585,1.585,0,0,0-1.581-1.589H74.861v2.409c0,.185-.205.334-.463.334H73.29c-.257,0-.463-.149-.463-.334v-2.409Z" transform="translate(-44.515 -73.193)" fill="#7f6bf6"></path><path id="Path_144574" data-name="Path 144574" d="M36.45,79.222A1.585,1.585,0,0,0,34.861,80.8v6.8a1.587,1.587,0,0,0,1.583,1.591h6.8a1.586,1.586,0,0,0,1.589-1.584v-6.8a1.585,1.585,0,0,0-1.58-1.591H40.863v2.4c0,.188-.2.338-.46.338H39.3c-.257,0-.466-.15-.466-.338v-2.4Z" transform="translate(-22.537 -51.215)" fill="#5033d8"></path><path id="Path_144575" data-name="Path 144575" d="M70.449,79.222a1.587,1.587,0,0,0-1.591,1.584v6.8a1.591,1.591,0,0,0,1.591,1.591h6.79a1.587,1.587,0,0,0,1.591-1.584v-6.8a1.586,1.586,0,0,0-1.58-1.591H74.861v2.4c0,.188-.205.338-.463.338H73.29c-.257,0-.463-.15-.463-.338v-2.4Z" transform="translate(-44.515 -51.215)" fill="#5033d8"></path><path id="Path_144576" data-name="Path 144576" d="M105.007,16.631a5.109,5.109,0,0,0-5.285,4.907A6.748,6.748,0,0,0,100.1,23.6l7.484,4.649c1.34-2.132,2.7-4.769,2.7-6.706a5.1,5.1,0,0,0-5.282-4.907m0,7a1.72,1.72,0,1,1,1.722-1.718,1.721,1.721,0,0,1-1.722,1.718" transform="translate(-64.468 -10.752)" fill="#abffc7"></path><path id="Path_144577" data-name="Path 144577" d="M108.286,40.98a42.123,42.123,0,0,1-2.581,3.652s-3.691-4.571-4.9-8.3Z" transform="translate(-65.166 -23.487)" fill="#5033d8"></path><path id="Path_144578" data-name="Path 144578" d="M7.332,0A7.088,7.088,0,0,0,0,6.807C0,9.77,2.3,13.919,4.321,17l9.186-5.7A11.952,11.952,0,0,0,14.66,6.807,7.084,7.084,0,0,0,7.332,0m0,9.716A2.386,2.386,0,1,1,9.716,7.332,2.387,2.387,0,0,1,7.332,9.716" fill="#abffc7"></path><path id="Path_144579" data-name="Path 144579" d="M21.408,31.95a51.389,51.389,0,0,1-6.175,9.883s-1.422-1.761-3.011-4.179Z" transform="translate(-7.901 -20.655)" fill="#5033d8"></path></g></g></g></svg> 