<?xml version="1.0" encoding="UTF-8"?> <svg xmlns="http://www.w3.org/2000/svg" width="39.043" height="50.002" viewBox="0 0 39.043 50.002"><g id="Group_223772" data-name="Group 223772" transform="translate(9765.635 16620.533)"><g id="Group_152351" data-name="Group 152351" transform="translate(-9765.635 -16620.533)"><path id="Path_144614" data-name="Path 144614" d="M61.615,229.124v5.856a1.952,1.952,0,0,1-1.951,1.953H40.143a1.953,1.953,0,0,1-1.953-1.953v-5.856Z" transform="translate(-30.381 -186.932)" fill="#7f6bf6"></path><path id="Path_144615" data-name="Path 144615" d="M61.615,173.8v9.76H38.19V173.8a1.951,1.951,0,0,1,1.953-1.953H47.95v7.809a1.953,1.953,0,0,0,3.906,0v-7.809h7.809a1.951,1.951,0,0,1,1.951,1.953" transform="translate(-30.381 -141.364)" fill="#5b3deb"></path><path id="Path_144616" data-name="Path 144616" d="M39.043,143.634a1.951,1.951,0,0,1-1.953,1.953H31.234v-9.76a1.951,1.951,0,0,0-1.951-1.953H21.474v7.809a1.953,1.953,0,0,1-3.906,0v-7.809H9.762a1.951,1.951,0,0,0-1.953,1.953v9.76H1.953A1.953,1.953,0,0,1,0,143.634a19.522,19.522,0,0,1,39.043,0" transform="translate(0 -103.394)" fill="#abffc7"></path><path id="Path_144617" data-name="Path 144617" d="M56.956,9.384A9.384,9.384,0,1,1,47.573,0a9.384,9.384,0,0,1,9.384,9.384" transform="translate(-28.051 0)" fill="#7f6bf6"></path></g></g></svg> 