<?xml version="1.0" encoding="UTF-8"?> <svg xmlns="http://www.w3.org/2000/svg" width="52.127" height="50" viewBox="0 0 52.127 50"><g id="Group_223773" data-name="Group 223773" transform="translate(10230.554 16617.488)"><g id="Group_152350" data-name="Group 152350" transform="translate(-10230.554 -16617.488)"><g id="Group_152356" data-name="Group 152356" transform="translate(0 0)"><path id="Path_144603" data-name="Path 144603" d="M51.064,40.063H43.451a1.207,1.207,0,0,0-.943,1.96L46.566,47.1a1.206,1.206,0,0,0,.943.454h3.41a1.206,1.206,0,0,0,1.194-1.386m-2.3-14.861H33.974l.755.952.47.591L38.59,37.1a1.208,1.208,0,0,0,.943.454h9.879a1.207,1.207,0,0,0,1.194-1.385M2.9,26.983.013,46.172a1.207,1.207,0,0,0,1.194,1.386H19.36A1.207,1.207,0,0,0,20.3,45.6L5.033,26.411a1.207,1.207,0,0,0-2.138.572" transform="translate(0 2.442)" fill="#7f6bf6"></path><path id="Path_144604" data-name="Path 144604" d="M34.223,22.85H47.184a.869.869,0,0,1,.859.741l.671,4.511a.868.868,0,0,1-.858,1H32.708a.868.868,0,0,1-.79-1.229l2.174-4.756-3.8,7.857a.869.869,0,0,0,.1.918l3.7,4.639.47.591,7.423,9.324a.868.868,0,0,1-.679,1.409H24.827a.867.867,0,0,1-.678-.327l-7.015-8.809-.5-.624L15.7,36.92l.93-.788.142-.12L20.447,32.9a1.238,1.238,0,0,0-1.6-1.892l-2.077,1.752-.142.12-1.8,1.523a.868.868,0,0,1-1.24-.123L7.233,26.291a2.121,2.121,0,0,1,1.66-3.441H16.63" transform="translate(0.637 2.15)" fill="#abffc7"></path><path id="Path_144605" data-name="Path 144605" d="M30.369,22.853l-5.012,10.4a1.128,1.128,0,0,1-2.033,0l-5.012-10.4Z" transform="translate(1.724 2.15)" fill="#5b3deb"></path><path id="Path_144606" data-name="Path 144606" d="M24.768,0A11.045,11.045,0,0,0,13.532,11.105a16.552,16.552,0,0,0,.9,4.912L18.762,25H30.819l4.322-8.983a16.552,16.552,0,0,0,.9-4.912A11.073,11.073,0,0,0,24.768,0m.022,17.495a6.247,6.247,0,1,1,6.247-6.247,6.248,6.248,0,0,1-6.247,6.247" transform="translate(1.274)" fill="#7f6bf6"></path><path id="Path_144607" data-name="Path 144607" d="M32.469,22.85V29.1H29.021l2.942-5.985.129-.263Z" transform="translate(2.731 2.15)" fill="#abffc7"></path><path id="Path_144608" data-name="Path 144608" d="M31.052,30.85h1.225v1.543l-.47-.591Z" transform="translate(2.922 2.903)" fill="#abffc7"></path><path id="Path_144609" data-name="Path 144609" d="M33.223,35.61l.462.57v1.543H16.106V35.23l.14-.117,4.322-3.6,1.952,4a2.547,2.547,0,0,0,2.21,1.362,2.516,2.516,0,0,0,2.2-1.362l2.338-4.794Z" transform="translate(1.516 2.891)" fill="#abffc7"></path><path id="Path_144610" data-name="Path 144610" d="M27.4,9.926a3.939,3.939,0,1,1-3.94-3.94,3.94,3.94,0,0,1,3.94,3.94" transform="translate(2.596 1.322)" fill="#7f6bf6"></path></g></g></g></svg> 