<?xml version="1.0" encoding="UTF-8"?> <svg xmlns="http://www.w3.org/2000/svg" width="65.091" height="44.998" viewBox="0 0 65.091 44.998"><g id="Group_223770" data-name="Group 223770" transform="translate(10238.654 16832.996)"><g id="Group_27859" data-name="Group 27859" transform="translate(-10238.654 -16832.996)"><g id="_1_2_delivery" data-name="1/2 delivery" transform="translate(0 0)"><g id="Group_27843" data-name="Group 27843" transform="translate(0 0)"><path id="Path_56639" data-name="Path 56639" d="M1695.116-766.326c-.856,0-1.713-.016-2.568.008a.551.551,0,0,1-.651-.459,7.418,7.418,0,0,0-7.819-5.326,7.437,7.437,0,0,0-6.493,5.172c-.153.481-.338.649-.849.625-1.021-.048-2.045-.028-3.068-.007-.356.008-.5-.045-.5-.462q.022-11.743,0-23.486c0-.4.123-.486.5-.477,1.043.025,2.089.033,3.131,0,.456-.016.543.142.541.564-.017,3.236-.01,6.472-.009,9.708,0,1.511.607,2.114,2.126,2.114h15.659Z" transform="translate(-1630.025 805.49)" fill="#7f6bf6"></path><path id="Path_56640" data-name="Path 56640" d="M1494.72-810.211q0,7.265.01,14.531a2.017,2.017,0,0,1-.01.218c-.032.275-.154.37-.539.37h-.017q-6.232-.035-12.465,0a.587.587,0,0,1-.681-.5,7.453,7.453,0,0,0-7.172-5.311,7.46,7.46,0,0,0-7.2,5.359c-.091.28-.186.441-.479.459-.033,0-.07,0-.109,0-.918-.039-1.837-.022-2.757-.009-.185,0-.308-.012-.375-.11a.508.508,0,0,1-.06-.285c.015-3.78.01-7.558.014-11.338a1.151,1.151,0,0,1,.043-.2l0,0c5.629,1.543,10.76.625,15.059-3.413s5.587-9.079,4.382-14.851h.56c3.736,0,7.475.008,11.212-.01h.025c.358,0,.511.062.551.36a1.479,1.479,0,0,1,.012.208Q1494.719-817.477,1494.72-810.211Z" transform="translate(-1454.946 834.269)" fill="#abffc7"></path><path id="Path_56642" data-name="Path 56642" d="M1730.464-781.725c-4.032,0-7.972-.005-11.914.008-.358,0-.4-.139-.4-.438q.015-4.037,0-8.073c0-.365.066-.512.474-.5,1.209.028,2.42.016,3.629.005a.7.7,0,0,1,.59.264q3.728,4.261,7.47,8.512A2.687,2.687,0,0,1,1730.464-781.725Z" transform="translate(-1667.476 805.482)" fill="#7f6bf6"></path><path id="Path_56643" data-name="Path 56643" d="M1717.417-655.345a4.131,4.131,0,0,1,4.127-4.136,4.131,4.131,0,0,1,4.142,4.124,4.142,4.142,0,0,1-4.126,4.144A4.155,4.155,0,0,1,1717.417-655.345Z" transform="translate(-1666.863 696.212)" fill="#7f6bf6"></path><path id="Path_56644" data-name="Path 56644" d="M1511.888-655.346a4.121,4.121,0,0,1-4.125,4.133,4.172,4.172,0,0,1-4.142-4.142,4.151,4.151,0,0,1,4.147-4.126A4.109,4.109,0,0,1,1511.888-655.346Z" transform="translate(-1488.872 696.211)" fill="#7f6bf6"></path><path id="Path_56645" data-name="Path 56645" d="M1494.444-825.31c-3.738.018-7.476.01-11.212.01h-.559c1.2,5.773-.087,10.818-4.382,14.851s-9.431,4.956-15.06,3.413v-3.649a11.545,11.545,0,0,0,4.681.99,11.8,11.8,0,0,0,11.82-11.68,12.067,12.067,0,0,0-.645-3.935Z" transform="translate(-1455.246 834.269)" fill="#abffc7"></path><g id="Group_27845" data-name="Group 27845"><path id="Path_56641" data-name="Path 56641" d="M1446.74-863.849a13.172,13.172,0,0,0-12.557-8.892,13.193,13.193,0,0,0-13.093,13.2,13.239,13.239,0,0,0,7.9,12.062v-6.38a1.755,1.755,0,0,1-1.457-1,1.9,1.9,0,0,1,.958-2.638c.167-.09.332-.182.5-.272.958-.521,1.918-1.04,2.9-1.524a.813.813,0,0,0,.512-.862q-.017-1.85-.015-3.7,0-1.443.012-2.885a1.865,1.865,0,0,1,1.69-2.036,1.825,1.825,0,0,1,2.061,1.865c.029,1.018.022,2.036.017,3.056Z" transform="translate(-1421.09 872.74)" fill="#7f6bf6"></path><path id="Path_56646" data-name="Path 56646" d="M1481.7-820.9a13.206,13.206,0,0,1-13.231,13.075,12.93,12.93,0,0,1-5.24-1.108v-6.38a2.432,2.432,0,0,0,1.313-.307c1.545-.815,3.07-1.667,4.625-2.463a2.1,2.1,0,0,0,1.241-2.079c-.019-1.309,0-2.617,0-3.924h-.007c0-.407,0-.812,0-1.218h10.577A13.5,13.5,0,0,1,1481.7-820.9Z" transform="translate(-1455.33 834.202)" fill="#5033d8"></path></g></g></g></g></g></svg> 