<?xml version="1.0" encoding="UTF-8"?> <svg xmlns="http://www.w3.org/2000/svg" xmlns:xlink="http://www.w3.org/1999/xlink" width="202.88" height="152.547" viewBox="0 0 202.88 152.547"><defs><clipPath id="clip-path"><rect id="Rectangle_68043" data-name="Rectangle 68043" width="72.022" height="53.26" fill="none"></rect></clipPath><clipPath id="clip-path-3"><rect id="Rectangle_68032" data-name="Rectangle 68032" width="7.381" height="3.542" fill="none"></rect></clipPath><clipPath id="clip-path-4"><path id="Path_195212" data-name="Path 195212" d="M158.769,166.524c.161-.006.327-.011.5-.011a15.46,15.46,0,0,1,6.245,1.2c.575.332.629.632.253.85a1.752,1.752,0,0,1-.381.151c.1.045.187.091.268.137.575.332.629.632.253.85a5.386,5.386,0,0,1-2.334.352,19.053,19.053,0,0,1-4.808-.646Z" transform="translate(-158.769 -166.513)" fill="none"></path></clipPath><linearGradient id="linear-gradient" x1="6.194" y1="3.434" x2="6.161" y2="3.434" gradientUnits="objectBoundingBox"><stop offset="0" stop-color="#c2c8e7"></stop><stop offset="1" stop-color="#fff"></stop></linearGradient><clipPath id="clip-path-6"><path id="Path_195213" data-name="Path 195213" d="M137.069,153.7c.16-.006.327-.01.5-.01a15.466,15.466,0,0,1,6.245,1.2c.575.332.629.632.253.85a1.753,1.753,0,0,1-.38.151c.1.045.187.091.268.137.575.332.629.632.253.85a5.393,5.393,0,0,1-2.334.352,19.051,19.051,0,0,1-4.808-.646Z" transform="translate(-137.069 -153.691)" fill="none"></path></clipPath><linearGradient id="linear-gradient-2" x1="5.482" y1="4.328" x2="5.449" y2="4.328" xlink:href="#linear-gradient"></linearGradient><clipPath id="clip-path-8"><path id="Path_195214" data-name="Path 195214" d="M42.768,99.235c.16-.006.327-.01.5-.01a15.463,15.463,0,0,1,6.245,1.2c.575.332.629.632.253.85a1.748,1.748,0,0,1-.38.151c.1.045.187.091.268.137.575.332.629.632.253.85a5.394,5.394,0,0,1-2.334.352,19.051,19.051,0,0,1-4.808-.646Z" transform="translate(-42.768 -99.225)" fill="none"></path></clipPath><linearGradient id="linear-gradient-3" x1="2.386" y1="8.123" x2="2.353" y2="8.123" xlink:href="#linear-gradient"></linearGradient><clipPath id="clip-path-10"><path id="Path_195226" data-name="Path 195226" d="M36.728,51.8l-6.193,3.576v-5.5l4.436-2.561Z" transform="translate(-30.535 -47.315)" fill="none"></path></clipPath><linearGradient id="linear-gradient-4" x1="2.217" y1="5.16" x2="2.177" y2="5.16" gradientUnits="objectBoundingBox"><stop offset="0" stop-color="#362e92"></stop><stop offset="0.504" stop-color="#25206e"></stop><stop offset="1" stop-color="#131147"></stop></linearGradient><clipPath id="clip-path-12"><rect id="Rectangle_68041" data-name="Rectangle 68041" width="14.095" height="8.138" fill="none"></rect></clipPath><clipPath id="clip-path-13"><path id="Path_195235" data-name="Path 195235" d="M60.878,30.456l-9.813-5.665,4.283-2.473,9.812,5.665Z" transform="translate(-51.065 -22.318)" fill="none"></path></clipPath><linearGradient id="linear-gradient-5" x1="1.894" y1="5.868" x2="1.877" y2="5.868" gradientUnits="objectBoundingBox"><stop offset="0" stop-color="#c2c8e7"></stop><stop offset="0.25" stop-color="#c6cbe8"></stop><stop offset="0.512" stop-color="#d2d7ed"></stop><stop offset="0.777" stop-color="#e7e9f5"></stop><stop offset="1" stop-color="#fff"></stop></linearGradient><clipPath id="clip-path-14"><rect id="Rectangle_68020" data-name="Rectangle 68020" width="202.88" height="117.134" fill="none"></rect></clipPath><clipPath id="clip-path-16"><rect id="Rectangle_67997" data-name="Rectangle 67997" width="113.087" height="66.92" fill="none"></rect></clipPath><clipPath id="clip-path-17"><path id="Path_195168" data-name="Path 195168" d="M.341,39.175l-.086.049.086-.049m.535-.309h0M62.006,0c-8.2.02-19.118,2.945-28.332,8.265C22.263,14.854,8.233,28.138,0,39.371L89.794,91.213,157.14,52.332,67.347.489s-1.392.8,0,0A25.694,25.694,0,0,0,62.183,0Z" transform="translate(-0.002)" fill="none"></path></clipPath><clipPath id="clip-path-19"><rect id="Rectangle_68000" data-name="Rectangle 68000" width="44.914" height="26.235" fill="none"></rect></clipPath><clipPath id="clip-path-20"><rect id="Rectangle_68001" data-name="Rectangle 68001" width="44.914" height="26.236" fill="none"></rect></clipPath><clipPath id="clip-path-38"><rect id="Rectangle_68026" data-name="Rectangle 68026" width="49.297" height="31.666" fill="none"></rect></clipPath><clipPath id="clip-path-39"><rect id="Rectangle_68025" data-name="Rectangle 68025" width="14.932" height="10.425" fill="none"></rect></clipPath><clipPath id="clip-path-40"><path id="Path_195205" data-name="Path 195205" d="M103,24.824h0l-9.346-5.151H88.067L97.2,24.946l.213-.122L88.28,30.1h5.586Z" transform="translate(-88.067 -19.673)" fill="none"></path></clipPath><linearGradient id="linear-gradient-6" x1="-0.921" y1="2.743" x2="-0.91" y2="2.743" gradientUnits="objectBoundingBox"><stop offset="0" stop-color="#c4c9e5"></stop><stop offset="0.637" stop-color="#eceef6"></stop><stop offset="1" stop-color="#fff"></stop></linearGradient></defs><g id="Group_222070" data-name="Group 222070" style="isolation: isolate"><g id="Group_221933" data-name="Group 221933" transform="translate(90.265 99.288)" clip-path="url(#clip-path)"><g id="Group_221921" data-name="Group 221921"><g id="Group_221920" data-name="Group 221920" clip-path="url(#clip-path)"><g id="Group_221909" data-name="Group 221909" transform="translate(25.455 41.097)" style="mix-blend-mode: multiply;isolation: isolate"><g id="Group_221908" data-name="Group 221908" transform="translate(0)"><g id="Group_221907" data-name="Group 221907" clip-path="url(#clip-path-3)"><g id="Group_221906" data-name="Group 221906" transform="translate(0 0)"><g id="Group_221905" data-name="Group 221905" clip-path="url(#clip-path-4)"><rect id="Rectangle_68031" data-name="Rectangle 68031" width="7.518" height="3.542" transform="translate(0)" fill="url(#linear-gradient)"></rect></g></g></g></g></g><g id="Group_221914" data-name="Group 221914" transform="translate(30.811 37.932)" style="mix-blend-mode: multiply;isolation: isolate"><g id="Group_221913" data-name="Group 221913" transform="translate(0)"><g id="Group_221912" data-name="Group 221912" clip-path="url(#clip-path-3)"><g id="Group_221911" data-name="Group 221911" transform="translate(0 0)"><g id="Group_221910" data-name="Group 221910" clip-path="url(#clip-path-6)"><rect id="Rectangle_68033" data-name="Rectangle 68033" width="7.518" height="3.542" transform="translate(0)" fill="url(#linear-gradient-2)"></rect></g></g></g></g></g><g id="Group_221919" data-name="Group 221919" transform="translate(54.085 24.49)" style="mix-blend-mode: multiply;isolation: isolate"><g id="Group_221918" data-name="Group 221918" transform="translate(0)"><g id="Group_221917" data-name="Group 221917" clip-path="url(#clip-path-3)"><g id="Group_221916" data-name="Group 221916" transform="translate(0)"><g id="Group_221915" data-name="Group 221915" clip-path="url(#clip-path-8)"><rect id="Rectangle_68035" data-name="Rectangle 68035" width="7.518" height="3.542" transform="translate(0)" fill="url(#linear-gradient-3)"></rect></g></g></g></g></g></g></g><path id="Path_195215" data-name="Path 195215" d="M31.732,82.455l2.116,1.222V81.322L31.732,80.1Z" transform="translate(30.341 -60.331)" fill="#362e92"></path><g id="Group_221923" data-name="Group 221923"><g id="Group_221922" data-name="Group 221922" clip-path="url(#clip-path)"><path id="Path_195216" data-name="Path 195216" d="M127.735,148.747a1.636,1.636,0,0,1-.682-1.506,5.143,5.143,0,0,1,2.327-4.03,1.417,1.417,0,0,1,2.326,1.343,5.142,5.142,0,0,1-2.326,4.03,1.636,1.636,0,0,1-1.645.163" transform="translate(-91.042 -107.625)" fill="#0e1c70"></path><path id="Path_195217" data-name="Path 195217" d="M131.288,150.756a2.834,2.834,0,0,1,1.281-2.22c.708-.408,1.281-.077,1.281.739a2.833,2.833,0,0,1-1.281,2.22c-.708.408-1.281.078-1.281-.74" transform="translate(-94.231 -111.745)" fill="#b9bee4"></path><path id="Path_195218" data-name="Path 195218" d="M131.594,144.1a5.141,5.141,0,0,1,2.327-4.03,1.632,1.632,0,0,1,1.645-.163l-1.781-1.028a1.636,1.636,0,0,0-1.645.163,5.142,5.142,0,0,0-2.326,4.031,1.634,1.634,0,0,0,.681,1.506l1.78,1.029a1.637,1.637,0,0,1-.681-1.506" transform="translate(-95.583 -104.488)" fill="#110d60"></path><path id="Path_195219" data-name="Path 195219" d="M149.946,161.569a1.636,1.636,0,0,1-.682-1.506,5.143,5.143,0,0,1,2.327-4.03,1.417,1.417,0,0,1,2.326,1.343,5.141,5.141,0,0,1-2.326,4.03,1.636,1.636,0,0,1-1.645.163" transform="translate(-118.735 -117.283)" fill="#0e1c70"></path><path id="Path_195220" data-name="Path 195220" d="M153.5,163.579a2.834,2.834,0,0,1,1.281-2.22c.708-.408,1.281-.077,1.281.739a2.833,2.833,0,0,1-1.281,2.22c-.708.409-1.281.078-1.281-.739" transform="translate(-121.924 -121.403)" fill="#b9bee4"></path><path id="Path_195221" data-name="Path 195221" d="M153.8,156.926a5.141,5.141,0,0,1,2.327-4.03,1.633,1.633,0,0,1,1.645-.164l-1.781-1.028a1.636,1.636,0,0,0-1.645.163,5.141,5.141,0,0,0-2.326,4.031,1.634,1.634,0,0,0,.681,1.506l1.78,1.028a1.636,1.636,0,0,1-.681-1.506" transform="translate(-123.274 -114.146)" fill="#110d60"></path><path id="Path_195222" data-name="Path 195222" d="M34.024,94.642a1.636,1.636,0,0,1-.682-1.506,5.143,5.143,0,0,1,2.327-4.03,1.417,1.417,0,0,1,2.326,1.343,5.142,5.142,0,0,1-2.326,4.03,1.636,1.636,0,0,1-1.645.163" transform="translate(25.798 -66.874)" fill="#0e1c70"></path><path id="Path_195223" data-name="Path 195223" d="M37.576,96.651a2.834,2.834,0,0,1,1.281-2.22c.708-.408,1.281-.077,1.281.739a2.833,2.833,0,0,1-1.281,2.22c-.708.408-1.281.078-1.281-.739" transform="translate(22.61 -70.993)" fill="#b9bee4"></path><path id="Path_195224" data-name="Path 195224" d="M37.881,90a5.141,5.141,0,0,1,2.327-4.03,1.632,1.632,0,0,1,1.645-.164l-1.781-1.028a1.636,1.636,0,0,0-1.645.163A5.141,5.141,0,0,0,36.1,88.97a1.634,1.634,0,0,0,.681,1.506l1.78,1.028A1.636,1.636,0,0,1,37.881,90" transform="translate(21.259 -63.736)" fill="#110d60"></path><path id="Path_195225" data-name="Path 195225" d="M24.164,46.821l7.563-4.367,2.019,5.15.65-.375v7.015l-1.868,1.079c0-1.737-1.219-2.441-2.724-1.572a6.02,6.02,0,0,0-2.724,4.717l-2.918,1.684Z" transform="translate(31.662 -31.976)" fill="#d9deff"></path></g></g><g id="Group_221925" data-name="Group 221925" transform="translate(58.292 11.678)"><g id="Group_221924" data-name="Group 221924" transform="translate(0)" clip-path="url(#clip-path-10)"><rect id="Rectangle_68039" data-name="Rectangle 68039" width="6.193" height="8.058" transform="translate(0)" fill="url(#linear-gradient-4)"></rect></g></g><g id="Group_221932" data-name="Group 221932"><g id="Group_221931" data-name="Group 221931" clip-path="url(#clip-path)"><path id="Path_195227" data-name="Path 195227" d="M49.041,80.373a.567.567,0,0,1,.236-.452l.926-.535a.187.187,0,0,1,.1-.027.265.265,0,0,1,.247.218.407.407,0,0,1-.174.437c-.453.271-.791.467-.938.552a.248.248,0,0,1-.392-.192" transform="translate(9.362 -59.773)" fill="#6b67e7"></path><path id="Path_195228" data-name="Path 195228" d="M50.56,80.511a.4.4,0,0,1-.185.37c-.453.271-.791.467-.938.552-.291.168-.4-.07-.392-.192a.716.716,0,0,1,.034-.181.254.254,0,0,0,.362.212c.077-.039.73-.391.863-.48a.6.6,0,0,0,.256-.281" transform="translate(9.358 -60.64)" fill="#5652ca"></path><path id="Path_195229" data-name="Path 195229" d="M23.656,84.567l-1.429.825V83.538l1.429-.825Z" transform="translate(42.881 -62.299)" fill="#ccd1f6"></path><path id="Path_195230" data-name="Path 195230" d="M28.254,87.487l-.239-.138V85.5l.239.138Z" transform="translate(36.854 -64.395)" fill="#b9bee4"></path><path id="Path_195231" data-name="Path 195231" d="M22.227,82.558l1.189-.687V81.6l.478.276-1.429.825Z" transform="translate(42.641 -61.457)" fill="#f4f4f9"></path><path id="Path_195232" data-name="Path 195232" d="M48.626,22.776,34.979,14.9l7.563-4.367L56.19,18.41Z" transform="translate(7.199 -7.931)" fill="#ced3f8"></path><path id="Path_195233" data-name="Path 195233" d="M79.27,49.433,65.623,41.554V28.224L79.27,36.1Z" transform="translate(-23.445 -21.258)" fill="#423ead"></path><path id="Path_195234" data-name="Path 195234" d="M24.544,60.358l-.38-.97,1.03.595Z" transform="translate(40.864 -44.73)" fill="#807df9"></path><g id="Group_221930" data-name="Group 221930" transform="translate(45.323 5.508)" style="mix-blend-mode: multiply;isolation: isolate"><g id="Group_221929" data-name="Group 221929"><g id="Group_221928" data-name="Group 221928" clip-path="url(#clip-path-12)"><g id="Group_221927" data-name="Group 221927" transform="translate(0)"><g id="Group_221926" data-name="Group 221926" clip-path="url(#clip-path-13)"><rect id="Rectangle_68040" data-name="Rectangle 68040" width="14.095" height="8.138" fill="url(#linear-gradient-5)"></rect></g></g></g></g></g><path id="Path_195236" data-name="Path 195236" d="M66.183,27.441l-9.812-5.665L60.654,19.3l9.813,5.665Z" transform="translate(-12.357 -14.539)" fill="#807df9"></path><path id="Path_195237" data-name="Path 195237" d="M83.536,35.776,73.724,30.11v-.789l9.812,5.665Z" transform="translate(-29.71 -22.085)" fill="#b9bee4"></path><path id="Path_195238" data-name="Path 195238" d="M60.654,43.046l-4.283,2.473V44.73l4.283-2.473Z" transform="translate(-2.545 -31.828)" fill="#5652ca"></path><path id="Path_195239" data-name="Path 195239" d="M78.343,28.581l-14.549-8.4L98.75,0,113.3,8.4Z" transform="translate(-57.022 0.001)" fill="#bbc0e6"></path><path id="Path_195240" data-name="Path 195240" d="M63.794,71.817v-17.6L98.75,34.033v17.6Z" transform="translate(-42.473 -25.633)" fill="#6b67e9"></path><path id="Path_195241" data-name="Path 195241" d="M205.426,99.374v-17.6l14.549,8.4v17.6Z" transform="translate(-198.654 -61.589)" fill="#edefff"></path><path id="Path_195242" data-name="Path 195242" d="M228.889,146.2l-.658-.38v-2.135l.658.38Z" transform="translate(-213.196 -108.226)" fill="#362e92"></path><path id="Path_195243" data-name="Path 195243" d="M239.56,140.043l-.658-.38v-2.135l.658.38Z" transform="translate(-226.501 -103.585)" fill="#362e92"></path><path id="Path_195244" data-name="Path 195244" d="M214,158.915V157.58l10.317,5.957v1.335Z" transform="translate(-205.111 -118.688)" fill="#362e92"></path><path id="Path_195245" data-name="Path 195245" d="M212.34,181.777v-1.335l-.544.314v1.335Z" transform="translate(-192.591 -135.907)" fill="#423ead"></path><path id="Path_195246" data-name="Path 195246" d="M250.113,162.751l-1.048-.605v-.6l1.048.605Z" transform="translate(-239.563 -121.674)" fill="#fda2b3"></path><path id="Path_195247" data-name="Path 195247" d="M248.336,164.039l-.239.138v-.6l.239-.138Z" transform="translate(-237.546 -123.099)" fill="#e13d5c"></path><path id="Path_195248" data-name="Path 195248" d="M249.384,161.59l-.239.138-1.048-.605.239-.138Z" transform="translate(-238.595 -121.252)" fill="#fd5a72"></path><path id="Path_195249" data-name="Path 195249" d="M219.472,180.442l-1.048-.605v-.6l1.048.605Z" transform="translate(-201.359 -134.998)" fill="#fda2b3"></path><path id="Path_195250" data-name="Path 195250" d="M217.694,181.73l-.239.138v-.6l.239-.138Z" transform="translate(-199.342 -136.424)" fill="#e13d5c"></path><path id="Path_195251" data-name="Path 195251" d="M218.742,179.281l-.239.138-1.048-.605.239-.138Z" transform="translate(-200.39 -134.577)" fill="#fd5a72"></path></g></g></g><g id="Group_221880" data-name="Group 221880"><g id="Group_221879" data-name="Group 221879" clip-path="url(#clip-path-14)"><g id="Group_221819" data-name="Group 221819" transform="translate(0.001)"><g id="Group_221818" data-name="Group 221818" clip-path="url(#clip-path-17)"><rect id="Rectangle_67999" data-name="Rectangle 67999" width="157.562" height="181.692" transform="translate(-39.497 68.41) rotate(-60)" fill="#edefff"></rect></g></g><g id="Group_221878" data-name="Group 221878"><g id="Group_221877" data-name="Group 221877" clip-path="url(#clip-path-14)"><path id="Path_195169" data-name="Path 195169" d="M89.793,173.046,0,121.2V95.282l89.792,51.842Z" transform="translate(0 -55.912)" fill="#ced3f8"></path><path id="Path_195170" data-name="Path 195170" d="M284.657,125.956c-8.232-1.728-22.261,1.188-33.673,7.777s-25.442,19.873-33.673,31.106h0v25.92l67.346-38.882v-25.92Z" transform="translate(-127.518 -73.625)" fill="#bbc0e6"></path><path id="Path_195171" data-name="Path 195171" d="M291.008,153.761v21.493l-1.054.608V155.586l-45.626,26.342v20.277l-1.054.608V181.32Z" transform="translate(-142.753 -90.227)" fill="#d1d7f3"></path><path id="Path_195172" data-name="Path 195172" d="M241.25,180.151l47.734-27.559-1.426-.823-47.734,27.559Z" transform="translate(-140.729 -89.058)" fill="#f6f6fb"></path><path id="Path_195173" data-name="Path 195173" d="M241.25,240.782l-1.426-.823V218.466l1.426.823Z" transform="translate(-140.729 -128.196)" fill="#e8ecf7"></path><path id="Path_195174" data-name="Path 195174" d="M355.234,178.454l-.713-.412V158.588l.713-.412Z" transform="translate(-208.033 -92.818)" fill="#a5abcc"></path><path id="Path_195175" data-name="Path 195175" d="M245.824,204.557l44.914-25.931V159.172L245.824,185.1Z" transform="translate(-144.249 -93.402)" fill="#6b67e9"></path><g id="Group_221822" data-name="Group 221822" transform="translate(101.574 66.434)" style="mix-blend-mode: multiply;isolation: isolate"><g id="Group_221821" data-name="Group 221821"><g id="Group_221820" data-name="Group 221820" clip-path="url(#clip-path-19)"><path id="Path_195176" data-name="Path 195176" d="M245.824,186.711v.3l44.914-25.931v-.3Z" transform="translate(-245.824 -160.78)" fill="#dfe4f4"></path></g></g></g><g id="Group_221825" data-name="Group 221825" transform="translate(101.574 67.361)" style="mix-blend-mode: multiply;isolation: isolate"><g id="Group_221824" data-name="Group 221824"><g id="Group_221823" data-name="Group 221823" clip-path="url(#clip-path-20)"><path id="Path_195177" data-name="Path 195177" d="M245.824,188.953v.3l44.914-25.931v-.3Z" transform="translate(-245.824 -163.022)" fill="#dfe4f4"></path></g></g></g><g id="Group_221828" data-name="Group 221828" transform="translate(101.574 68.287)" style="mix-blend-mode: multiply;isolation: isolate"><g id="Group_221827" data-name="Group 221827"><g id="Group_221826" data-name="Group 221826" clip-path="url(#clip-path-19)"><path id="Path_195178" data-name="Path 195178" d="M245.824,191.2v.3l44.914-25.931v-.3Z" transform="translate(-245.824 -165.265)" fill="#dfe4f4"></path></g></g></g><g id="Group_221831" data-name="Group 221831" transform="translate(101.574 69.214)" style="mix-blend-mode: multiply;isolation: isolate"><g id="Group_221830" data-name="Group 221830"><g id="Group_221829" data-name="Group 221829" clip-path="url(#clip-path-19)"><path id="Path_195179" data-name="Path 195179" d="M245.824,193.438v.3l44.914-25.931v-.3Z" transform="translate(-245.824 -167.508)" fill="#dfe4f4"></path></g></g></g><g id="Group_221834" data-name="Group 221834" transform="translate(101.574 70.141)" style="mix-blend-mode: multiply;isolation: isolate"><g id="Group_221833" data-name="Group 221833"><g id="Group_221832" data-name="Group 221832" clip-path="url(#clip-path-20)"><path id="Path_195180" data-name="Path 195180" d="M245.824,195.681v.3l44.914-25.931v-.3Z" transform="translate(-245.824 -169.75)" fill="#dfe4f4"></path></g></g></g><g id="Group_221837" data-name="Group 221837" transform="translate(101.574 71.067)" style="mix-blend-mode: multiply;isolation: isolate"><g id="Group_221836" data-name="Group 221836"><g id="Group_221835" data-name="Group 221835" clip-path="url(#clip-path-19)"><path id="Path_195181" data-name="Path 195181" d="M245.824,197.924v.3L290.738,172.3v-.3Z" transform="translate(-245.824 -171.993)" fill="#dfe4f4"></path></g></g></g><g id="Group_221840" data-name="Group 221840" transform="translate(101.574 71.994)" style="mix-blend-mode: multiply;isolation: isolate"><g id="Group_221839" data-name="Group 221839"><g id="Group_221838" data-name="Group 221838" clip-path="url(#clip-path-19)"><path id="Path_195182" data-name="Path 195182" d="M245.824,200.166v.3l44.914-25.931v-.3Z" transform="translate(-245.824 -174.236)" fill="#dfe4f4"></path></g></g></g><g id="Group_221843" data-name="Group 221843" transform="translate(101.574 72.921)" style="mix-blend-mode: multiply;isolation: isolate"><g id="Group_221842" data-name="Group 221842"><g id="Group_221841" data-name="Group 221841" clip-path="url(#clip-path-19)"><path id="Path_195183" data-name="Path 195183" d="M245.824,202.409v.3l44.914-25.931v-.3Z" transform="translate(-245.824 -176.478)" fill="#dfe4f4"></path></g></g></g><g id="Group_221846" data-name="Group 221846" transform="translate(101.574 73.847)" style="mix-blend-mode: multiply;isolation: isolate"><g id="Group_221845" data-name="Group 221845"><g id="Group_221844" data-name="Group 221844" clip-path="url(#clip-path-19)"><path id="Path_195184" data-name="Path 195184" d="M245.824,204.652v.3l44.914-25.931v-.3Z" transform="translate(-245.824 -178.721)" fill="#dfe4f4"></path></g></g></g><g id="Group_221849" data-name="Group 221849" transform="translate(101.574 74.774)" style="mix-blend-mode: multiply;isolation: isolate"><g id="Group_221848" data-name="Group 221848"><g id="Group_221847" data-name="Group 221847" clip-path="url(#clip-path-19)"><path id="Path_195185" data-name="Path 195185" d="M245.824,206.895v.3l44.914-25.931v-.3Z" transform="translate(-245.824 -180.964)" fill="#dfe4f4"></path></g></g></g><g id="Group_221852" data-name="Group 221852" transform="translate(101.574 75.701)" style="mix-blend-mode: multiply;isolation: isolate"><g id="Group_221851" data-name="Group 221851"><g id="Group_221850" data-name="Group 221850" clip-path="url(#clip-path-20)"><path id="Path_195186" data-name="Path 195186" d="M245.824,209.138v.3l44.914-25.931v-.3Z" transform="translate(-245.824 -183.206)" fill="#dfe4f4"></path></g></g></g><g id="Group_221855" data-name="Group 221855" transform="translate(101.574 76.627)" style="mix-blend-mode: multiply;isolation: isolate"><g id="Group_221854" data-name="Group 221854"><g id="Group_221853" data-name="Group 221853" clip-path="url(#clip-path-19)"><path id="Path_195187" data-name="Path 195187" d="M245.824,211.38v.3l44.914-25.931v-.3Z" transform="translate(-245.824 -185.449)" fill="#dfe4f4"></path></g></g></g><g id="Group_221858" data-name="Group 221858" transform="translate(101.574 77.554)" style="mix-blend-mode: multiply;isolation: isolate"><g id="Group_221857" data-name="Group 221857"><g id="Group_221856" data-name="Group 221856" clip-path="url(#clip-path-19)"><path id="Path_195188" data-name="Path 195188" d="M245.824,213.623v.3L290.738,188v-.3Z" transform="translate(-245.824 -187.692)" fill="#dfe4f4"></path></g></g></g><g id="Group_221861" data-name="Group 221861" transform="translate(101.574 78.481)" style="mix-blend-mode: multiply;isolation: isolate"><g id="Group_221860" data-name="Group 221860"><g id="Group_221859" data-name="Group 221859" clip-path="url(#clip-path-19)"><path id="Path_195189" data-name="Path 195189" d="M245.824,215.865v.3l44.914-25.931v-.3Z" transform="translate(-245.824 -189.934)" fill="#dfe4f4"></path></g></g></g><g id="Group_221864" data-name="Group 221864" transform="translate(101.574 79.407)" style="mix-blend-mode: multiply;isolation: isolate"><g id="Group_221863" data-name="Group 221863"><g id="Group_221862" data-name="Group 221862" clip-path="url(#clip-path-19)"><path id="Path_195190" data-name="Path 195190" d="M245.824,218.108v.3l44.914-25.931v-.3Z" transform="translate(-245.824 -192.177)" fill="#dfe4f4"></path></g></g></g><g id="Group_221867" data-name="Group 221867" transform="translate(101.574 80.334)" style="mix-blend-mode: multiply;isolation: isolate"><g id="Group_221866" data-name="Group 221866"><g id="Group_221865" data-name="Group 221865" clip-path="url(#clip-path-19)"><path id="Path_195191" data-name="Path 195191" d="M245.824,220.351v.3l44.914-25.931v-.3Z" transform="translate(-245.824 -194.42)" fill="#dfe4f4"></path></g></g></g><g id="Group_221870" data-name="Group 221870" transform="translate(101.574 81.261)" style="mix-blend-mode: multiply;isolation: isolate"><g id="Group_221869" data-name="Group 221869"><g id="Group_221868" data-name="Group 221868" clip-path="url(#clip-path-19)"><path id="Path_195192" data-name="Path 195192" d="M245.824,222.593v.3l44.914-25.931v-.3Z" transform="translate(-245.824 -196.662)" fill="#dfe4f4"></path></g></g></g><g id="Group_221873" data-name="Group 221873" transform="translate(101.574 82.187)" style="mix-blend-mode: multiply;isolation: isolate"><g id="Group_221872" data-name="Group 221872"><g id="Group_221871" data-name="Group 221871" clip-path="url(#clip-path-19)"><path id="Path_195193" data-name="Path 195193" d="M245.824,224.836v.3l44.914-25.931v-.3Z" transform="translate(-245.824 -198.905)" fill="#dfe4f4"></path></g></g></g><g id="Group_221876" data-name="Group 221876" transform="translate(101.574 83.114)" style="mix-blend-mode: multiply;isolation: isolate"><g id="Group_221875" data-name="Group 221875"><g id="Group_221874" data-name="Group 221874" clip-path="url(#clip-path-19)"><path id="Path_195194" data-name="Path 195194" d="M245.824,227.079v.3l44.914-25.931v-.3Z" transform="translate(-245.824 -201.148)" fill="#dfe4f4"></path></g></g></g></g></g></g></g><g id="Group_223745" data-name="Group 223745" transform="translate(150.704 81.721)"><path id="Path_195196" data-name="Path 195196" d="M0,10.832l15.131,8.735,16.485-9.518L16.484,1.314Z" transform="translate(0 -1.108)" fill="#f1f1f6"></path><path id="Path_195197" data-name="Path 195197" d="M0,75.486l15.131,8.735V71.015L0,62.279Z" transform="translate(0 -52.555)" fill="#ced3f8"></path><path id="Path_195198" data-name="Path 195198" d="M96.908,66.783V79.989l16.484-9.518V57.265Z" transform="translate(-81.777 -48.324)" fill="#bbc0e6"></path><path id="Path_195199" data-name="Path 195199" d="M45.722,28.523l15.131,8.737L58.5,38.619,43.366,29.883Z" transform="translate(-36.595 -24.069)" fill="#fff"></path><path id="Path_195200" data-name="Path 195200" d="M142.627,84.477v1.751l-2.356,1.36V85.837Z" transform="translate(-118.369 -71.287)" fill="#dfe4f4"></path><path id="Path_195201" data-name="Path 195201" d="M177.454,128.386l-.74-.428-.74,1.282.2.115.4-.692v1.977l.282-.163V128.5l.4.231Z" transform="translate(-148.498 -107.979)" fill="#abb2da"></path><path id="Path_195202" data-name="Path 195202" d="M190.1,121.091l-.74-.427-.74,1.282.2.115.4-.693v1.977l.282-.163v-1.977l.4.231Z" transform="translate(-159.166 -101.823)" fill="#abb2da"></path><path id="Path_195203" data-name="Path 195203" d="M110.053,109.754l-4.116,2.376v-2.953l4.116-2.377Z" transform="translate(-89.397 -90.125)" fill="#5652cc"></path><path id="Path_195204" data-name="Path 195204" d="M108.877,136.03l-2.94,1.7v-.749l2.94-1.7Z" transform="translate(-89.396 -114.159)" fill="#5652cc"></path><g id="Group_221894" data-name="Group 221894"><g id="Group_221893" data-name="Group 221893" clip-path="url(#clip-path-38)"><g id="Group_221892" data-name="Group 221892" transform="translate(13.751 3.072)" style="mix-blend-mode: multiply;isolation: isolate"><g id="Group_221891" data-name="Group 221891"><g id="Group_221890" data-name="Group 221890" clip-path="url(#clip-path-39)"><g id="Group_221889" data-name="Group 221889" transform="translate(0)"><g id="Group_221888" data-name="Group 221888" clip-path="url(#clip-path-40)"><rect id="Rectangle_68024" data-name="Rectangle 68024" width="14.932" height="10.425" fill="url(#linear-gradient-6)"></rect></g></g></g></g></g></g></g><path id="Path_195206" data-name="Path 195206" d="M89.429,38.263l9.134-5.274v3.072l-9.134,5.273Z" transform="translate(-75.466 -27.838)" fill="#bbc0e6"></path><path id="Path_195207" data-name="Path 195207" d="M41.428,0,32.294,5.272l8.921,5.151L50.349,5.15Z" transform="translate(-27.252 0.001)" fill="#f1f1f6"></path><path id="Path_195208" data-name="Path 195208" d="M32.294,33.771l8.921,5.151v3.072l-8.921-5.152Z" transform="translate(-27.252 -28.498)" fill="#ced3f8"></path><path id="Path_195209" data-name="Path 195209" d="M63.938,12.992,65.69,14l-9.134,5.274-1.751-1.011Z" transform="translate(-46.248 -10.964)" fill="#fff"></path><path id="Path_195210" data-name="Path 195210" d="M54.8,46.77l1.752,1.011v1.977L54.8,48.746Z" transform="translate(-46.248 -39.467)" fill="#dfe4f4"></path></g></g></svg> 