<?xml version="1.0" encoding="UTF-8"?> <svg xmlns="http://www.w3.org/2000/svg" xmlns:xlink="http://www.w3.org/1999/xlink" width="193.124" height="151.956" viewBox="0 0 193.124 151.956"><defs><clipPath id="clip-path"><rect id="Rectangle_68038" data-name="Rectangle 68038" width="122.418" height="90.526" fill="none"></rect></clipPath><clipPath id="clip-path-2"><path id="Path_195226" data-name="Path 195226" d="M30.535,54.934l10.527,6.078V51.668l-7.539-4.353Z" transform="translate(-30.535 -47.315)" fill="none"></path></clipPath><linearGradient id="linear-gradient" x1="-1.217" y1="5.16" x2="-1.177" y2="5.16" gradientUnits="objectBoundingBox"><stop offset="0" stop-color="#362e92"></stop><stop offset="0.504" stop-color="#25206e"></stop><stop offset="1" stop-color="#131147"></stop></linearGradient><clipPath id="clip-path-4"><rect id="Rectangle_68041" data-name="Rectangle 68041" width="23.958" height="13.832" fill="none"></rect></clipPath><clipPath id="clip-path-5"><path id="Path_195235" data-name="Path 195235" d="M58.344,36.15l16.679-9.629-7.28-4.2L51.065,31.947Z" transform="translate(-51.065 -22.318)" fill="none"></path></clipPath><linearGradient id="linear-gradient-2" x1="-0.894" y1="5.868" x2="-0.877" y2="5.868" gradientUnits="objectBoundingBox"><stop offset="0" stop-color="#c2c8e7"></stop><stop offset="0.25" stop-color="#c6cbe8"></stop><stop offset="0.512" stop-color="#d2d7ed"></stop><stop offset="0.777" stop-color="#e7e9f5"></stop><stop offset="1" stop-color="#fff"></stop></linearGradient><clipPath id="clip-path-8"><rect id="Rectangle_68032" data-name="Rectangle 68032" width="12.546" height="6.02" fill="none"></rect></clipPath><clipPath id="clip-path-9"><path id="Path_195212" data-name="Path 195212" d="M158.769,166.531c.273-.01.555-.018.856-.018,3.91,0,8.66.914,10.614,2.042.977.565,1.069,1.074.43,1.444a2.979,2.979,0,0,1-.647.257c.164.077.318.154.455.234.977.565,1.069,1.074.43,1.444a9.155,9.155,0,0,1-3.967.6,32.385,32.385,0,0,1-8.172-1.1Z" transform="translate(-158.769 -166.513)" fill="none"></path></clipPath><linearGradient id="linear-gradient-3" x1="6.194" y1="3.434" x2="6.161" y2="3.434" gradientUnits="objectBoundingBox"><stop offset="0" stop-color="#c2c8e7"></stop><stop offset="1" stop-color="#fff"></stop></linearGradient><clipPath id="clip-path-11"><path id="Path_195213" data-name="Path 195213" d="M137.069,153.709c.273-.01.555-.018.856-.018,3.909,0,8.66.914,10.614,2.042.977.564,1.069,1.074.43,1.444a2.979,2.979,0,0,1-.646.257c.163.077.318.155.455.234.977.565,1.069,1.074.43,1.444a9.168,9.168,0,0,1-3.967.6,32.383,32.383,0,0,1-8.172-1.1Z" transform="translate(-137.069 -153.691)" fill="none"></path></clipPath><linearGradient id="linear-gradient-4" x1="5.482" y1="4.328" x2="5.449" y2="4.328" xlink:href="#linear-gradient-3"></linearGradient><clipPath id="clip-path-13"><path id="Path_195214" data-name="Path 195214" d="M42.768,99.243c.273-.01.555-.018.856-.018,3.91,0,8.66.914,10.615,2.042.977.564,1.069,1.074.43,1.444a2.972,2.972,0,0,1-.646.257c.164.077.318.154.455.234.977.564,1.069,1.074.43,1.444a9.168,9.168,0,0,1-3.967.6,32.381,32.381,0,0,1-8.172-1.1Z" transform="translate(-42.768 -99.225)" fill="none"></path></clipPath><linearGradient id="linear-gradient-5" x1="2.386" y1="8.123" x2="2.353" y2="8.123" xlink:href="#linear-gradient-3"></linearGradient><clipPath id="clip-path-15"><path id="Path_195226-2" data-name="Path 195226" d="M41.062,54.934,30.535,61.012V51.668l7.539-4.353Z" transform="translate(-30.535 -47.315)" fill="none"></path></clipPath><linearGradient id="linear-gradient-6" x1="2.217" y1="5.16" x2="2.177" y2="5.16" xlink:href="#linear-gradient"></linearGradient><clipPath id="clip-path-18"><path id="Path_195235-2" data-name="Path 195235" d="M67.744,36.15,51.065,26.521l7.28-4.2,16.678,9.629Z" transform="translate(-51.065 -22.318)" fill="none"></path></clipPath><linearGradient id="linear-gradient-7" x1="1.894" y1="5.868" x2="1.877" y2="5.868" xlink:href="#linear-gradient-2"></linearGradient><clipPath id="clip-path-19"><rect id="Rectangle_68044" data-name="Rectangle 68044" width="32.763" height="35.883" transform="translate(0)" fill="none"></rect></clipPath><clipPath id="clip-path-20"><rect id="Rectangle_68044-2" data-name="Rectangle 68044" width="32.763" height="35.883" transform="translate(0 0)" fill="none"></rect></clipPath></defs><g id="Group_221940" data-name="Group 221940" style="isolation: isolate"><g id="Group_221934" data-name="Group 221934" transform="translate(70.706)"><g id="Group_223747" data-name="Group 223747" transform="translate(0)"><path id="Path_195215" data-name="Path 195215" d="M35.33,84.1l-3.6,2.077v-4l3.6-2.077Z" transform="translate(-18.42 -46.498)" fill="#362e92"></path><g id="Group_221923" data-name="Group 221923"><g id="Group_221922" data-name="Group 221922" clip-path="url(#clip-path)"><path id="Path_195216" data-name="Path 195216" d="M133.8,152.844a2.78,2.78,0,0,0,1.16-2.56,8.741,8.741,0,0,0-3.956-6.85,2.409,2.409,0,0,0-3.953,2.283,8.74,8.74,0,0,0,3.953,6.85,2.781,2.781,0,0,0,2.8.278" transform="translate(-73.753 -82.948)" fill="#0e1c70"></path><path id="Path_195217" data-name="Path 195217" d="M135.643,152.432a4.816,4.816,0,0,0-2.178-3.773c-1.2-.694-2.177-.131-2.177,1.257a4.816,4.816,0,0,0,2.177,3.773c1.2.694,2.178.132,2.178-1.257" transform="translate(-76.212 -86.123)" fill="#b9bee4"></path><path id="Path_195218" data-name="Path 195218" d="M136.564,147.866a8.739,8.739,0,0,0-3.955-6.85,2.774,2.774,0,0,0-2.8-.278l3.027-1.748a2.781,2.781,0,0,1,2.8.277,8.74,8.74,0,0,1,3.954,6.851,2.777,2.777,0,0,1-1.158,2.559l-3.026,1.749a2.783,2.783,0,0,0,1.157-2.56" transform="translate(-75.355 -80.53)" fill="#110d60"></path><path id="Path_195219" data-name="Path 195219" d="M156.013,165.666a2.781,2.781,0,0,0,1.159-2.56,8.742,8.742,0,0,0-3.955-6.851,2.409,2.409,0,0,0-3.953,2.283,8.739,8.739,0,0,0,3.953,6.85,2.781,2.781,0,0,0,2.8.278" transform="translate(-86.647 -90.392)" fill="#0e1c70"></path><path id="Path_195220" data-name="Path 195220" d="M157.854,165.255a4.816,4.816,0,0,0-2.178-3.773c-1.2-.694-2.177-.131-2.177,1.257a4.815,4.815,0,0,0,2.177,3.773c1.2.694,2.178.132,2.178-1.257" transform="translate(-89.105 -93.567)" fill="#b9bee4"></path><path id="Path_195221" data-name="Path 195221" d="M158.774,160.688a8.738,8.738,0,0,0-3.955-6.85,2.776,2.776,0,0,0-2.8-.278l3.027-1.748a2.781,2.781,0,0,1,2.8.277,8.738,8.738,0,0,1,3.954,6.851,2.777,2.777,0,0,1-1.158,2.559l-3.026,1.748a2.781,2.781,0,0,0,1.157-2.56" transform="translate(-88.248 -87.974)" fill="#110d60"></path><path id="Path_195222" data-name="Path 195222" d="M40.091,98.739a2.781,2.781,0,0,0,1.16-2.56,8.742,8.742,0,0,0-3.956-6.85,2.777,2.777,0,0,0-2.8-.278,2.777,2.777,0,0,0-1.157,2.56,8.74,8.74,0,0,0,3.953,6.85,2.781,2.781,0,0,0,2.8.278" transform="translate(-19.355 -51.541)" fill="#0e1c70"></path><path id="Path_195223" data-name="Path 195223" d="M41.931,98.327a4.816,4.816,0,0,0-2.178-3.773c-1.2-.694-2.177-.131-2.177,1.257a4.815,4.815,0,0,0,2.177,3.773c1.2.694,2.178.132,2.178-1.257" transform="translate(-21.813 -54.716)" fill="#b9bee4"></path><path id="Path_195224" data-name="Path 195224" d="M42.852,93.76A8.738,8.738,0,0,0,38.9,86.91a2.775,2.775,0,0,0-2.8-.278l3.027-1.748a2.781,2.781,0,0,1,2.8.277,8.738,8.738,0,0,1,3.955,6.851,2.778,2.778,0,0,1-1.158,2.559L41.694,96.32a2.781,2.781,0,0,0,1.157-2.56" transform="translate(-20.956 -49.123)" fill="#110d60"></path><path id="Path_195225" data-name="Path 195225" d="M41.556,49.877,28.7,42.454l-3.432,8.753-1.1-.638V62.493l3.175,1.833c0-2.952,2.073-4.148,4.629-2.673A10.232,10.232,0,0,1,36.6,69.671l4.959,2.863Z" transform="translate(-14.027 -24.644)" fill="#bbc0e6"></path></g></g><g id="Group_221925" data-name="Group 221925" transform="translate(12.81 19.849)"><g id="Group_221924" data-name="Group 221924" transform="translate(0)" clip-path="url(#clip-path-2)"><rect id="Rectangle_68039" data-name="Rectangle 68039" width="10.527" height="13.697" transform="translate(0)" fill="url(#linear-gradient)"></rect></g></g><g id="Group_221932" data-name="Group 221932"><g id="Group_221931" data-name="Group 221931" clip-path="url(#clip-path)"><path id="Path_195227" data-name="Path 195227" d="M51.617,81.083a.964.964,0,0,0-.4-.768l-1.574-.909a.317.317,0,0,0-.162-.047.45.45,0,0,0-.42.37.692.692,0,0,0,.3.742c.771.46,1.345.793,1.595.938a.421.421,0,0,0,.666-.327" transform="translate(-28.468 -46.068)" fill="#6b67e7"></path><path id="Path_195228" data-name="Path 195228" d="M49.044,80.511a.68.68,0,0,0,.314.63c.77.46,1.345.793,1.594.938.5.286.687-.119.666-.327a1.217,1.217,0,0,0-.057-.308.431.431,0,0,1-.615.361c-.131-.067-1.24-.665-1.467-.816a1.022,1.022,0,0,1-.436-.477" transform="translate(-28.47 -46.736)" fill="#5652ca"></path><path id="Path_195229" data-name="Path 195229" d="M22.227,85.863l2.428,1.4V84.115l-2.428-1.4Z" transform="translate(-12.903 -48.015)" fill="#ccd1f6"></path><path id="Path_195230" data-name="Path 195230" d="M28.015,88.88l.406-.235V85.5l-.406.235Z" transform="translate(-16.262 -49.63)" fill="#b9bee4"></path><path id="Path_195231" data-name="Path 195231" d="M25.061,83.232,23.04,82.065V81.6l-.813.469,2.428,1.4Z" transform="translate(-12.903 -47.365)" fill="#f4f4f9"></path><path id="Path_195232" data-name="Path 195232" d="M47.835,31.345l23.2-13.392L58.176,10.531l-23.2,13.392Z" transform="translate(-20.305 -6.113)" fill="#ced3f8"></path><path id="Path_195233" data-name="Path 195233" d="M65.623,64.273l23.2-13.392V28.224l-23.2,13.392Z" transform="translate(-38.094 -16.384)" fill="#423ead"></path><path id="Path_195234" data-name="Path 195234" d="M25.269,61.037l.646-1.649L24.164,60.4Z" transform="translate(-14.027 -34.474)" fill="#807df9"></path><g id="Group_221930" data-name="Group 221930" transform="translate(21.422 9.363)" style="mix-blend-mode: multiply;isolation: isolate"><g id="Group_221929" data-name="Group 221929"><g id="Group_221928" data-name="Group 221928" clip-path="url(#clip-path-4)"><g id="Group_221927" data-name="Group 221927" transform="translate(0)"><g id="Group_221926" data-name="Group 221926" clip-path="url(#clip-path-5)"><rect id="Rectangle_68040" data-name="Rectangle 68040" width="23.958" height="13.832" transform="translate(0)" fill="url(#linear-gradient-2)"></rect></g></g></g></g></g><path id="Path_195236" data-name="Path 195236" d="M63.651,33.135l16.678-9.629L73.05,19.3,56.371,28.932Z" transform="translate(-32.723 -11.205)" fill="#807df9"></path><path id="Path_195237" data-name="Path 195237" d="M73.724,40.291,90.4,30.662v-1.34L73.724,38.951Z" transform="translate(-42.796 -17.021)" fill="#b9bee4"></path><path id="Path_195238" data-name="Path 195238" d="M56.371,43.6l7.28,4.2V46.46l-7.28-4.2Z" transform="translate(-32.723 -24.53)" fill="#5652ca"></path><path id="Path_195239" data-name="Path 195239" d="M123.21,48.58,147.939,34.3,88.523,0,63.794,14.277Z" transform="translate(-37.032 0)" fill="#bbc0e6"></path><path id="Path_195240" data-name="Path 195240" d="M123.21,98.256V68.336l-59.416-34.3v29.92Z" transform="translate(-37.032 -19.756)" fill="#edefff"></path><path id="Path_195241" data-name="Path 195241" d="M230.155,111.69V81.771L205.426,96.048v29.92Z" transform="translate(-119.248 -47.468)" fill="#807dfb"></path><path id="Path_195242" data-name="Path 195242" d="M228.23,147.964l1.119-.646v-3.628l-1.119.646Z" transform="translate(-132.486 -83.411)" fill="#362e92"></path><path id="Path_195243" data-name="Path 195243" d="M238.9,141.8l1.119-.646v-3.629l-1.119.646Z" transform="translate(-138.68 -79.834)" fill="#362e92"></path><path id="Path_195244" data-name="Path 195244" d="M231.535,159.85v-2.27L214,167.7v2.27Z" transform="translate(-124.225 -91.474)" fill="#362e92"></path><path id="Path_195245" data-name="Path 195245" d="M211.8,182.712v-2.27l.924.534v2.27Z" transform="translate(-122.946 -104.745)" fill="#423ead"></path><path id="Path_195246" data-name="Path 195246" d="M249.065,163.6l1.782-1.029v-1.023l-1.782,1.029Z" transform="translate(-144.58 -93.775)" fill="#fda2b3"></path><path id="Path_195247" data-name="Path 195247" d="M248.1,164.46l.406.235v-1.023l-.406-.235Z" transform="translate(-144.018 -94.874)" fill="#e13d5c"></path><path id="Path_195248" data-name="Path 195248" d="M248.1,162.013l.406.235,1.782-1.029-.406-.235Z" transform="translate(-144.018 -93.45)" fill="#fd5a72"></path><path id="Path_195249" data-name="Path 195249" d="M218.423,181.287l1.782-1.029v-1.023l-1.782,1.029Z" transform="translate(-126.793 -104.045)" fill="#fda2b3"></path><path id="Path_195250" data-name="Path 195250" d="M217.455,182.151l.407.234v-1.023l-.407-.235Z" transform="translate(-126.231 -105.144)" fill="#e13d5c"></path><path id="Path_195251" data-name="Path 195251" d="M217.455,179.7l.407.234,1.782-1.029-.406-.235Z" transform="translate(-126.231 -103.72)" fill="#fd5a72"></path></g></g></g></g><g id="Group_221936" data-name="Group 221936" transform="translate(0 61.429)"><g id="Group_221933" data-name="Group 221933" transform="translate(0)" clip-path="url(#clip-path)"><g id="Group_221921" data-name="Group 221921"><g id="Group_221920" data-name="Group 221920" clip-path="url(#clip-path)"><g id="Group_221909" data-name="Group 221909" transform="translate(43.266 69.853)" style="mix-blend-mode: multiply;isolation: isolate"><g id="Group_221908" data-name="Group 221908" transform="translate(0)"><g id="Group_221907" data-name="Group 221907" clip-path="url(#clip-path-8)"><g id="Group_221906" data-name="Group 221906" transform="translate(0 0)"><g id="Group_221905" data-name="Group 221905" clip-path="url(#clip-path-9)"><rect id="Rectangle_68031" data-name="Rectangle 68031" width="12.778" height="6.02" transform="translate(0)" fill="url(#linear-gradient-3)"></rect></g></g></g></g></g><g id="Group_221914" data-name="Group 221914" transform="translate(52.37 64.474)" style="mix-blend-mode: multiply;isolation: isolate"><g id="Group_221913" data-name="Group 221913" transform="translate(0)"><g id="Group_221912" data-name="Group 221912" clip-path="url(#clip-path-8)"><g id="Group_221911" data-name="Group 221911" transform="translate(0 0)"><g id="Group_221910" data-name="Group 221910" clip-path="url(#clip-path-11)"><rect id="Rectangle_68033" data-name="Rectangle 68033" width="12.778" height="6.02" transform="translate(0)" fill="url(#linear-gradient-4)"></rect></g></g></g></g></g><g id="Group_221919" data-name="Group 221919" transform="translate(91.93 41.625)" style="mix-blend-mode: multiply;isolation: isolate"><g id="Group_221918" data-name="Group 221918" transform="translate(0)"><g id="Group_221917" data-name="Group 221917" clip-path="url(#clip-path-8)"><g id="Group_221916" data-name="Group 221916" transform="translate(0)"><g id="Group_221915" data-name="Group 221915" clip-path="url(#clip-path-13)"><rect id="Rectangle_68035" data-name="Rectangle 68035" width="12.778" height="6.02" transform="translate(0)" fill="url(#linear-gradient-5)"></rect></g></g></g></g></g></g></g><path id="Path_195215-2" data-name="Path 195215" d="M31.732,84.1l3.6,2.077v-4l-3.6-2.077Z" transform="translate(73.776 -46.498)" fill="#362e92"></path><g id="Group_221923-2" data-name="Group 221923"><g id="Group_221922-2" data-name="Group 221922" clip-path="url(#clip-path)"><path id="Path_195216-2" data-name="Path 195216" d="M128.213,152.844a2.78,2.78,0,0,1-1.16-2.56,8.741,8.741,0,0,1,3.956-6.85,2.409,2.409,0,0,1,3.953,2.283,8.74,8.74,0,0,1-3.953,6.85,2.781,2.781,0,0,1-2.8.278" transform="translate(-65.844 -82.948)" fill="#0e1c70"></path><path id="Path_195217-2" data-name="Path 195217" d="M131.288,152.432a4.816,4.816,0,0,1,2.178-3.773c1.2-.694,2.177-.131,2.177,1.257a4.816,4.816,0,0,1-2.177,3.773c-1.2.694-2.178.132-2.178-1.257" transform="translate(-68.301 -86.123)" fill="#b9bee4"></path><path id="Path_195218-2" data-name="Path 195218" d="M132.84,147.866a8.739,8.739,0,0,1,3.955-6.85,2.774,2.774,0,0,1,2.8-.278l-3.027-1.748a2.781,2.781,0,0,0-2.8.277,8.74,8.74,0,0,0-3.954,6.851,2.777,2.777,0,0,0,1.158,2.559L134,150.426a2.782,2.782,0,0,1-1.157-2.56" transform="translate(-71.631 -80.53)" fill="#110d60"></path><path id="Path_195219-2" data-name="Path 195219" d="M150.423,165.666a2.781,2.781,0,0,1-1.159-2.56,8.742,8.742,0,0,1,3.955-6.851,2.409,2.409,0,0,1,3.953,2.283,8.739,8.739,0,0,1-3.953,6.85,2.781,2.781,0,0,1-2.8.278" transform="translate(-97.373 -90.392)" fill="#0e1c70"></path><path id="Path_195220-2" data-name="Path 195220" d="M153.5,165.255a4.816,4.816,0,0,1,2.178-3.773c1.2-.694,2.177-.131,2.177,1.257a4.815,4.815,0,0,1-2.177,3.773c-1.2.694-2.178.132-2.178-1.257" transform="translate(-99.83 -93.567)" fill="#b9bee4"></path><path id="Path_195221-2" data-name="Path 195221" d="M155.05,160.688a8.738,8.738,0,0,1,3.955-6.85,2.776,2.776,0,0,1,2.8-.278l-3.027-1.748a2.781,2.781,0,0,0-2.8.277,8.738,8.738,0,0,0-3.954,6.851,2.777,2.777,0,0,0,1.158,2.559l3.026,1.748a2.781,2.781,0,0,1-1.157-2.56" transform="translate(-103.158 -87.974)" fill="#110d60"></path><path id="Path_195222-2" data-name="Path 195222" d="M34.5,98.739a2.781,2.781,0,0,1-1.16-2.56,8.742,8.742,0,0,1,3.956-6.85,2.777,2.777,0,0,1,2.8-.278,2.777,2.777,0,0,1,1.157,2.56,8.74,8.74,0,0,1-3.953,6.85,2.781,2.781,0,0,1-2.8.278" transform="translate(67.18 -51.541)" fill="#0e1c70"></path><path id="Path_195223-2" data-name="Path 195223" d="M37.576,98.327a4.816,4.816,0,0,1,2.178-3.773c1.2-.694,2.177-.131,2.177,1.257a4.815,4.815,0,0,1-2.177,3.773c-1.2.694-2.178.132-2.178-1.257" transform="translate(64.724 -54.716)" fill="#b9bee4"></path><path id="Path_195224-2" data-name="Path 195224" d="M39.127,93.76a8.738,8.738,0,0,1,3.955-6.85,2.775,2.775,0,0,1,2.8-.278l-3.027-1.748a2.781,2.781,0,0,0-2.8.277A8.738,8.738,0,0,0,36.1,92.013a2.778,2.778,0,0,0,1.158,2.559l3.026,1.748a2.781,2.781,0,0,1-1.157-2.56" transform="translate(61.395 -49.123)" fill="#110d60"></path><path id="Path_195225-2" data-name="Path 195225" d="M24.164,49.877l12.855-7.423,3.432,8.753,1.1-.638V62.493l-3.175,1.833c0-2.952-2.073-4.148-4.629-2.673a10.232,10.232,0,0,0-4.629,8.018l-4.959,2.863Z" transform="translate(70.724 -24.644)" fill="#bbc0e6"></path></g></g><g id="Group_221925-2" data-name="Group 221925" transform="translate(99.081 19.849)"><g id="Group_221924-2" data-name="Group 221924" clip-path="url(#clip-path-15)"><rect id="Rectangle_68039-2" data-name="Rectangle 68039" width="10.527" height="13.697" transform="translate(0)" fill="url(#linear-gradient-6)"></rect></g></g><g id="Group_221932-2" data-name="Group 221932"><g id="Group_221931-2" data-name="Group 221931" clip-path="url(#clip-path)"><path id="Path_195227-2" data-name="Path 195227" d="M49.041,81.083a.964.964,0,0,1,.4-.768l1.574-.909a.317.317,0,0,1,.162-.047.45.45,0,0,1,.42.37.692.692,0,0,1-.3.742c-.771.46-1.345.793-1.595.938a.421.421,0,0,1-.666-.327" transform="translate(50.227 -46.068)" fill="#6b67e7"></path><path id="Path_195228-2" data-name="Path 195228" d="M51.62,80.511a.68.68,0,0,1-.314.63c-.77.46-1.345.793-1.594.938-.5.286-.687-.119-.666-.327a1.217,1.217,0,0,1,.057-.308.431.431,0,0,0,.615.361c.131-.067,1.24-.665,1.467-.816a1.022,1.022,0,0,0,.436-.477" transform="translate(50.223 -46.736)" fill="#5652ca"></path><path id="Path_195229-2" data-name="Path 195229" d="M24.655,85.863l-2.428,1.4V84.115l2.428-1.4Z" transform="translate(88.438 -48.015)" fill="#ccd1f6"></path><path id="Path_195230-2" data-name="Path 195230" d="M28.421,88.88l-.406-.235V85.5l.406.235Z" transform="translate(82.244 -49.63)" fill="#b9bee4"></path><path id="Path_195231-2" data-name="Path 195231" d="M22.227,83.232l2.022-1.167V81.6l.813.469-2.428,1.4Z" transform="translate(88.032 -47.365)" fill="#f4f4f9"></path><path id="Path_195232-2" data-name="Path 195232" d="M58.176,31.345l-23.2-13.392,12.855-7.422,23.2,13.392Z" transform="translate(36.712 -6.113)" fill="#ced3f8"></path><path id="Path_195233-2" data-name="Path 195233" d="M88.82,64.273l-23.2-13.392V28.224l23.2,13.392Z" transform="translate(6.068 -16.384)" fill="#423ead"></path><path id="Path_195234-2" data-name="Path 195234" d="M24.81,61.037l-.646-1.649L25.915,60.4Z" transform="translate(86.365 -34.474)" fill="#807df9"></path><g id="Group_221930-2" data-name="Group 221930" transform="translate(77.037 9.363)" style="mix-blend-mode: multiply;isolation: isolate"><g id="Group_221929-2" data-name="Group 221929"><g id="Group_221928-2" data-name="Group 221928" clip-path="url(#clip-path-4)"><g id="Group_221927-2" data-name="Group 221927" transform="translate(0)"><g id="Group_221926-2" data-name="Group 221926" clip-path="url(#clip-path-18)"><rect id="Rectangle_68040-2" data-name="Rectangle 68040" width="23.958" height="13.832" transform="translate(0)" fill="url(#linear-gradient-7)"></rect></g></g></g></g></g><path id="Path_195236-2" data-name="Path 195236" d="M73.049,33.135,56.371,23.506l7.279-4.2,16.679,9.629Z" transform="translate(18.44 -11.205)" fill="#807df9"></path><path id="Path_195237-2" data-name="Path 195237" d="M90.4,40.291,73.724,30.662v-1.34L90.4,38.951Z" transform="translate(1.087 -17.021)" fill="#b9bee4"></path><path id="Path_195238-2" data-name="Path 195238" d="M63.651,43.6l-7.28,4.2V46.46l7.28-4.2Z" transform="translate(35.118 -24.53)" fill="#5652ca"></path><path id="Path_195239-2" data-name="Path 195239" d="M88.523,48.58,63.794,34.3,123.21,0l24.729,14.277Z" transform="translate(-52.283 0)" fill="#bbc0e6"></path><path id="Path_195240-2" data-name="Path 195240" d="M63.794,98.256V68.336l59.416-34.3v29.92Z" transform="translate(-27.554 -19.756)" fill="#edefff"></path><path id="Path_195241-2" data-name="Path 195241" d="M205.426,111.69V81.771l24.729,14.277v29.92Z" transform="translate(-193.915 -47.468)" fill="#807dfb"></path><path id="Path_195242-2" data-name="Path 195242" d="M229.349,147.964l-1.119-.646v-3.628l1.119.646Z" transform="translate(-202.676 -83.411)" fill="#362e92"></path><path id="Path_195243-2" data-name="Path 195243" d="M240.021,141.8l-1.119-.646v-3.629l1.119.646Z" transform="translate(-217.824 -79.834)" fill="#362e92"></path><path id="Path_195244-2" data-name="Path 195244" d="M214,159.85v-2.27L231.535,167.7v2.27Z" transform="translate(-198.892 -91.474)" fill="#362e92"></path><path id="Path_195245-2" data-name="Path 195245" d="M212.72,182.712v-2.27l-.924.534v2.27Z" transform="translate(-179.153 -104.745)" fill="#423ead"></path><path id="Path_195246-2" data-name="Path 195246" d="M250.847,163.6l-1.782-1.029v-1.023l1.782,1.029Z" transform="translate(-232.914 -93.775)" fill="#fda2b3"></path><path id="Path_195247-2" data-name="Path 195247" d="M248.5,164.46l-.406.235v-1.023l.406-.235Z" transform="translate(-230.164 -94.874)" fill="#e13d5c"></path><path id="Path_195248-2" data-name="Path 195248" d="M250.285,162.013l-.406.235-1.782-1.029.406-.235Z" transform="translate(-231.946 -93.45)" fill="#fd5a72"></path><path id="Path_195249-2" data-name="Path 195249" d="M220.205,181.287l-1.782-1.029v-1.023l1.782,1.029Z" transform="translate(-189.418 -104.045)" fill="#fda2b3"></path><path id="Path_195250-2" data-name="Path 195250" d="M217.861,182.151l-.407.234v-1.023l.407-.235Z" transform="translate(-186.668 -105.144)" fill="#e13d5c"></path><path id="Path_195251-2" data-name="Path 195251" d="M219.643,179.7l-.407.234-1.782-1.029.406-.235Z" transform="translate(-188.449 -103.72)" fill="#fd5a72"></path></g></g></g></g><g id="Group_221938" data-name="Group 221938" transform="translate(61.459 56.008) rotate(180)" opacity="0.154"><g id="Group_221937" data-name="Group 221937" transform="translate(0)" clip-path="url(#clip-path-19)"><path id="Path_195252" data-name="Path 195252" d="M4.662,27.335H9.575a20.845,20.845,0,0,0,14.918-6.482,20.764,20.764,0,0,0,5.58-14.086V1.359a1.645,1.645,0,0,1,.342-.908,1.387,1.387,0,0,1,.54-.373A1.4,1.4,0,0,1,31.6,0c.107.022.213.048.32.075a2.312,2.312,0,0,1,.288.154,1.37,1.37,0,0,1,.556.8c.021.107.021.213.037.325V6.773A23.63,23.63,0,0,1,22.731,25.952a23.613,23.613,0,0,1-13.22,4.117H4.662L7.8,33.2a1.53,1.53,0,0,1,.193.241,1.41,1.41,0,0,1-1.084,2.087,1.358,1.358,0,0,1-.929-.294c-.048-.042-.064-.053-.112-.1L.4,29.669A1.247,1.247,0,0,1,.13,29.3,1.4,1.4,0,0,1,.3,27.848a.985.985,0,0,1,.1-.112l5.467-5.473a1.462,1.462,0,0,1,1.042-.4,1.479,1.479,0,0,1,.154.016,1.41,1.41,0,0,1,1.084,1.724,1.33,1.33,0,0,1-.2.417A2.222,2.222,0,0,1,7.8,24.2Z" transform="translate(-0.001 0.002)" fill="#1a1818"></path></g></g><g id="Group_221939" data-name="Group 221939" transform="matrix(0.966, 0.259, -0.259, 0.966, 132.186, 95.282)" opacity="0.154"><g id="Group_221937-2" data-name="Group 221937" transform="translate(0 0)" clip-path="url(#clip-path-20)"><path id="Path_195252-2" data-name="Path 195252" d="M4.662,27.335H9.575a20.845,20.845,0,0,0,14.918-6.482,20.764,20.764,0,0,0,5.58-14.086V1.359a1.645,1.645,0,0,1,.342-.908,1.387,1.387,0,0,1,.54-.373A1.4,1.4,0,0,1,31.6,0c.107.022.213.048.32.075a2.312,2.312,0,0,1,.288.154,1.37,1.37,0,0,1,.556.8c.021.107.021.213.037.325V6.773A23.63,23.63,0,0,1,22.731,25.952a23.613,23.613,0,0,1-13.22,4.117H4.662L7.8,33.2a1.53,1.53,0,0,1,.193.241,1.41,1.41,0,0,1-1.084,2.087,1.358,1.358,0,0,1-.929-.294c-.048-.042-.064-.053-.112-.1L.4,29.669A1.247,1.247,0,0,1,.13,29.3,1.4,1.4,0,0,1,.3,27.848a.985.985,0,0,1,.1-.112l5.467-5.473a1.462,1.462,0,0,1,1.042-.4,1.479,1.479,0,0,1,.154.016,1.41,1.41,0,0,1,1.084,1.724,1.33,1.33,0,0,1-.2.417A2.222,2.222,0,0,1,7.8,24.2Z" transform="translate(-0.001 0.002)" fill="#1a1818"></path></g></g></g></svg> 