<?xml version="1.0" encoding="UTF-8"?> <svg xmlns="http://www.w3.org/2000/svg" xmlns:xlink="http://www.w3.org/1999/xlink" width="195.107" height="174.115" viewBox="0 0 195.107 174.115"><defs><clipPath id="clip-path"><rect id="Rectangle_68094" data-name="Rectangle 68094" width="157.563" height="139.735" fill="none"></rect></clipPath><clipPath id="clip-path-3"><path id="Path_195386" data-name="Path 195386" d="M108.832,31.318l-2.186,1.263a2.4,2.4,0,0,1,2.268.271l79.9,46.129a7.415,7.415,0,0,1,3.341,5.788v63.338a2.4,2.4,0,0,1-.889,2.094l2.162-1.249a2.272,2.272,0,0,0,1.089-2.208V83.406a7.416,7.416,0,0,0-3.341-5.788l-79.9-46.128a3,3,0,0,0-1.478-.45,1.718,1.718,0,0,0-.965.278" transform="translate(-106.646 -31.04)" fill="none"></path></clipPath><linearGradient id="linear-gradient" x1="-0.337" y1="0.906" x2="-0.333" y2="0.906" gradientUnits="objectBoundingBox"><stop offset="0" stop-color="#4141aa"></stop><stop offset="0.382" stop-color="#4141aa"></stop><stop offset="0.438" stop-color="#7f7ff4"></stop><stop offset="1" stop-color="#7f7ff4"></stop></linearGradient><clipPath id="clip-path-5"><rect id="Rectangle_68091" data-name="Rectangle 68091" width="43.068" height="81.185" fill="none"></rect></clipPath><clipPath id="clip-path-6"><path id="Path_195387" data-name="Path 195387" d="M144.729,76.344,105,53.409v52.462a7.412,7.412,0,0,0,3.341,5.788l39.726,22.935V82.132a7.413,7.413,0,0,0-3.342-5.788" transform="translate(-105.004 -53.409)" fill="none"></path></clipPath><linearGradient id="linear-gradient-2" x1="-1.593" y1="1.291" x2="-1.578" y2="1.291" gradientUnits="objectBoundingBox"><stop offset="0" stop-color="#dce1f4"></stop><stop offset="0.068" stop-color="#dfe3f5"></stop><stop offset="0.736" stop-color="#fff"></stop><stop offset="1" stop-color="#fff"></stop></linearGradient><clipPath id="clip-path-7"><path id="Path_195403" data-name="Path 195403" d="M4.787,0a1.71,1.71,0,0,0-.959.278L1.642,1.541a2.4,2.4,0,0,1,2.268.272l79.9,46.129a7.416,7.416,0,0,1,3.341,5.788v63.338a2.4,2.4,0,0,1-.889,2.094l2.162-1.249A2.272,2.272,0,0,0,89.51,115.7V52.366a7.418,7.418,0,0,0-3.341-5.788L6.271.45A3,3,0,0,0,4.8,0Z" transform="translate(-1.642)" fill="none"></path></clipPath><linearGradient id="linear-gradient-3" x1="0.168" y1="1.044" x2="0.173" y2="1.044" xlink:href="#linear-gradient"></linearGradient><clipPath id="clip-path-8"><rect id="Rectangle_68048" data-name="Rectangle 68048" width="29.659" height="2.374" fill="none"></rect></clipPath><clipPath id="clip-path-9"><path id="Path_195254" data-name="Path 195254" d="M287.782,388.247h29.659l-2.056,1.187,2.056,1.187H287.782Z" transform="translate(-287.782 -388.247)" fill="none"></path></clipPath><linearGradient id="linear-gradient-4" x1="2.912" y1="18.673" x2="2.905" y2="18.673" gradientUnits="objectBoundingBox"><stop offset="0" stop-color="#c4cae9"></stop><stop offset="0.379" stop-color="#e0e3f3"></stop><stop offset="0.758" stop-color="#f6f7fb"></stop><stop offset="1" stop-color="#fff"></stop></linearGradient><clipPath id="clip-path-10"><rect id="Rectangle_68059" data-name="Rectangle 68059" width="153.37" height="120.824" fill="none"></rect></clipPath><clipPath id="clip-path-11"><rect id="Rectangle_68055" data-name="Rectangle 68055" width="14.098" height="2.375" fill="none"></rect></clipPath><clipPath id="clip-path-12"><path id="Path_195269" data-name="Path 195269" d="M287.785,354.688h12.042v1.187l2.056,1.187h-14.1Z" transform="translate(-287.785 -354.688)" fill="none"></path></clipPath><linearGradient id="linear-gradient-5" x1="5.022" y1="21.453" x2="5.008" y2="21.453" gradientUnits="objectBoundingBox"><stop offset="0" stop-color="#d1d7f3"></stop><stop offset="0.035" stop-color="#d3d9f3"></stop><stop offset="0.391" stop-color="#ebeef9"></stop><stop offset="0.722" stop-color="#fafafd"></stop><stop offset="1" stop-color="#fff"></stop></linearGradient><clipPath id="clip-path-13"><rect id="Rectangle_68057" data-name="Rectangle 68057" width="4.112" height="1.187" fill="none"></rect></clipPath><clipPath id="clip-path-14"><path id="Path_195270" data-name="Path 195270" d="M540.492,218.378H536.38l2.056-1.187Z" transform="translate(-536.38 -217.191)" fill="none"></path></clipPath><linearGradient id="linear-gradient-6" x1="26.7" y1="65.743" x2="26.652" y2="65.743" xlink:href="#linear-gradient-5"></linearGradient><clipPath id="clip-path-15"><rect id="Rectangle_68058" data-name="Rectangle 68058" width="45.08" height="28.657" fill="none"></rect></clipPath><clipPath id="clip-path-18"><path id="Path_195293" data-name="Path 195293" d="M287.782,184.87h12.042v1.187l2.056,1.188h-14.1Z" transform="translate(-287.782 -184.87)" fill="none"></path></clipPath><linearGradient id="linear-gradient-7" x1="5.022" y1="35.545" x2="5.008" y2="35.545" xlink:href="#linear-gradient-5"></linearGradient><clipPath id="clip-path-20"><path id="Path_195294" data-name="Path 195294" d="M540.492,48.557H536.38l2.056-1.187Z" transform="translate(-536.38 -47.37)" fill="none"></path></clipPath><linearGradient id="linear-gradient-8" x1="26.7" y1="93.944" x2="26.652" y2="93.944" xlink:href="#linear-gradient-5"></linearGradient><clipPath id="clip-path-24"><path id="Path_195314" data-name="Path 195314" d="M10.436,548.373H40.095l-2.056,1.187,2.056,1.187H10.436Z" transform="translate(-10.436 -548.373)" fill="none"></path></clipPath><linearGradient id="linear-gradient-9" x1="1.069" y1="5.386" x2="1.063" y2="5.386" xlink:href="#linear-gradient-4"></linearGradient><clipPath id="clip-path-26"><path id="Path_195316" data-name="Path 195316" d="M259.03,404.846h29.659l-2.057,1.187,2.057,1.187H259.03Z" transform="translate(-259.03 -404.846)" fill="none"></path></clipPath><linearGradient id="linear-gradient-10" x1="2.721" y1="17.295" x2="2.714" y2="17.295" xlink:href="#linear-gradient-4"></linearGradient><clipPath id="clip-path-29"><path id="Path_195329" data-name="Path 195329" d="M10.439,514.814H22.481V516l2.056,1.187h-14.1Z" transform="translate(-10.439 -514.814)" fill="none"></path></clipPath><linearGradient id="linear-gradient-11" x1="1.146" y1="8.169" x2="1.132" y2="8.169" xlink:href="#linear-gradient-5"></linearGradient><clipPath id="clip-path-31"><path id="Path_195330" data-name="Path 195330" d="M263.146,378.5h-4.112l2.056-1.187Z" transform="translate(-259.034 -377.317)" fill="none"></path></clipPath><linearGradient id="linear-gradient-12" x1="13.411" y1="39.166" x2="13.363" y2="39.166" xlink:href="#linear-gradient-5"></linearGradient><clipPath id="clip-path-35"><path id="Path_195353" data-name="Path 195353" d="M10.436,345H22.478v1.187l2.056,1.188h-14.1Z" transform="translate(-10.436 -344.996)" fill="none"></path></clipPath><linearGradient id="linear-gradient-13" x1="1.146" y1="22.259" x2="1.132" y2="22.259" xlink:href="#linear-gradient-5"></linearGradient><clipPath id="clip-path-37"><path id="Path_195354" data-name="Path 195354" d="M263.146,208.683h-4.112l2.056-1.187Z" transform="translate(-259.034 -207.496)" fill="none"></path></clipPath><linearGradient id="linear-gradient-14" x1="13.411" y1="67.363" x2="13.363" y2="67.363" xlink:href="#linear-gradient-5"></linearGradient></defs><g id="Group_222734" data-name="Group 222734" style="isolation: isolate"><g id="Group_222061" data-name="Group 222061" transform="translate(37.544)"><g id="Group_222060" data-name="Group 222060" clip-path="url(#clip-path)"><g id="Group_222048" data-name="Group 222048"><g id="Group_222047" data-name="Group 222047" clip-path="url(#clip-path)"><path id="Path_195373" data-name="Path 195373" d="M191.585,148.829c0,2.123-1.5,2.991-3.342,1.929l-79.9-46.129a7.41,7.41,0,0,1-3.34-5.788V35.5c0-2.122,1.5-2.991,3.341-1.93l79.9,46.129a7.414,7.414,0,0,1,3.342,5.788Z" transform="translate(-36.382 -11.476)" fill="#f2f2f7"></path><path id="Path_195374" data-name="Path 195374" d="M191.585,85.492a7.414,7.414,0,0,0-3.342-5.788l-79.9-46.129C106.508,32.514,105,33.383,105,35.5v4.4l86.581,49.988Z" transform="translate(-36.382 -11.476)" fill="#d0d4f6"></path><path id="Path_195375" data-name="Path 195375" d="M112.988,38.751l-3.439-1.986v3.973l3.439,1.985Z" transform="translate(-37.956 -12.738)" fill="#7f7ff3"></path><path id="Path_195376" data-name="Path 195376" d="M121.3,43.549l-3.441-1.986v3.973l3.441,1.987Z" transform="translate(-40.835 -14.401)" fill="#fff"></path><path id="Path_195377" data-name="Path 195377" d="M129.606,48.346l-3.441-1.987v3.973l3.441,1.986Z" transform="translate(-43.714 -16.063)" fill="#fff"></path><path id="Path_195378" data-name="Path 195378" d="M217.158,175.715a12.364,12.364,0,0,1,5.593,9.688c0,3.567-2.5,5.012-5.593,3.228a12.359,12.359,0,0,1-5.593-9.687c0-3.566,2.5-5.013,5.593-3.229" transform="translate(-73.303 -60.617)" fill="#d0d4f6"></path><path id="Path_195379" data-name="Path 195379" d="M221.311,185.1l-1.972-1.138v-2.276l-1.114-.643v2.276l-1.972-1.139v1.287l1.972,1.138v2.276l1.114.644V185.25l1.972,1.138Z" transform="translate(-74.927 -62.728)" fill="#5555c6"></path><path id="Path_195380" data-name="Path 195380" d="M204.7,108.249l15.673,9.049v2.57L204.7,110.819Z" transform="translate(-70.924 -37.506)" fill="#7f7ff4"></path><path id="Path_195381" data-name="Path 195381" d="M198.449,113.5,218.207,124.9v2.57l-19.757-11.407Z" transform="translate(-68.759 -39.325)" fill="#7f7ff4"></path><path id="Path_195382" data-name="Path 195382" d="M198.449,122.354l19.757,11.407v2.57l-19.758-11.407Z" transform="translate(-68.759 -42.393)" fill="#7f7ff4"></path><path id="Path_195383" data-name="Path 195383" d="M166.959,99.144c3.216,1.857,5.824.279,5.824-3.522V93.7c0,3.8-2.607,4.577-5.824,2.719s-5.824-5.642-5.824-9.444V88.9a13.029,13.029,0,0,0,5.824,10.247" transform="translate(-55.831 -30.137)" fill="#5555c6"></path><path id="Path_195384" data-name="Path 195384" d="M169.858,115.616c-.071-3.56,2.393-11.379,2.393-11.379a27.851,27.851,0,0,1-2.108-10.106l-1.568-.906v1.917c0,3.8-2.608,5.38-5.824,3.522a13.029,13.029,0,0,1-5.824-10.247V86.5l-1.568-.905a12.846,12.846,0,0,1-2.107,7.672s2.462,10.662,2.391,14.141c0,4.028-4,16.181-6.655,21.7l13.763,7.947L176.514,145c-2.658-8.587-6.656-25.358-6.656-29.385" transform="translate(-51.621 -29.657)" fill="#7f7ff4"></path><path id="Path_195385" data-name="Path 195385" d="M173.471,126.027l-14.576-8.416v1.573l14.576,8.415Z" transform="translate(-55.054 -40.75)" fill="#4141aa"></path></g></g><g id="Group_222050" data-name="Group 222050" transform="translate(69.695 20.285)"><g id="Group_222049" data-name="Group 222049" clip-path="url(#clip-path-3)"><rect id="Rectangle_68089" data-name="Rectangle 68089" width="135.677" height="147.131" transform="translate(-51.598 29.79) rotate(-30)" fill="url(#linear-gradient)"></rect></g></g><g id="Group_222057" data-name="Group 222057"><g id="Group_222056" data-name="Group 222056" clip-path="url(#clip-path)"><g id="Group_222055" data-name="Group 222055" transform="translate(68.622 34.904)" style="mix-blend-mode: multiply;isolation: isolate"><g id="Group_222054" data-name="Group 222054"><g id="Group_222053" data-name="Group 222053" clip-path="url(#clip-path-5)"><g id="Group_222052" data-name="Group 222052" transform="translate(0 0)"><g id="Group_222051" data-name="Group 222051" clip-path="url(#clip-path-6)"><rect id="Rectangle_68090" data-name="Rectangle 68090" width="43.068" height="81.185" transform="translate(0 0)" fill="url(#linear-gradient-2)"></rect></g></g></g></g></g><path id="Path_195388" data-name="Path 195388" d="M86.581,117.789c0,2.122-1.5,2.991-3.342,1.929L3.342,73.589A7.412,7.412,0,0,1,0,67.8V4.463C0,2.342,1.5,1.474,3.342,2.535l79.9,46.129a7.413,7.413,0,0,1,3.342,5.788Z" transform="translate(0 -0.721)" fill="#f7f7fc"></path><path id="Path_195389" data-name="Path 195389" d="M86.581,54.45a7.415,7.415,0,0,0-3.342-5.788L3.341,2.535C1.5,1.473,0,2.341,0,4.463v4.4L86.581,58.852Z" transform="translate(0 -0.721)" fill="#d0d4f6"></path><path id="Path_195390" data-name="Path 195390" d="M7.984,7.711,4.544,5.725V9.7l3.44,1.986Z" transform="translate(-1.574 -1.984)" fill="#7f7ff3"></path><path id="Path_195391" data-name="Path 195391" d="M16.293,12.508l-3.441-1.987v3.973l3.441,1.986Z" transform="translate(-4.453 -3.645)" fill="#fff"></path><path id="Path_195392" data-name="Path 195392" d="M24.6,17.306l-3.441-1.987v3.973L24.6,21.278Z" transform="translate(-7.332 -5.308)" fill="#fff"></path><path id="Path_195393" data-name="Path 195393" d="M112.154,144.674a12.363,12.363,0,0,1,5.592,9.688c0,3.566-2.5,5.012-5.592,3.228a12.361,12.361,0,0,1-5.592-9.686c0-3.568,2.5-5.013,5.592-3.23" transform="translate(-36.922 -49.862)" fill="#d0d4f6"></path><path id="Path_195394" data-name="Path 195394" d="M116.307,154.061l-1.972-1.138v-2.276L113.221,150v2.276l-1.972-1.138v1.286l1.972,1.139v2.276l1.114.642v-2.275l1.972,1.138Z" transform="translate(-38.545 -51.973)" fill="#5555c6"></path><path id="Path_195395" data-name="Path 195395" d="M99.695,77.208l15.673,9.049v2.568L99.695,79.778Z" transform="translate(-34.542 -26.751)" fill="#7f7ff4"></path><path id="Path_195396" data-name="Path 195396" d="M93.445,82.457,113.2,93.863v2.571L93.445,85.028Z" transform="translate(-32.377 -28.57)" fill="#7f7ff4"></path><path id="Path_195397" data-name="Path 195397" d="M93.445,91.314,113.2,102.72v2.57L93.445,93.883Z" transform="translate(-32.377 -31.639)" fill="#7f7ff4"></path><path id="Path_195398" data-name="Path 195398" d="M34.118,61.114l10.763,6.214V59.385L34.118,53.171Z" transform="translate(-11.821 -18.423)" fill="#d0d4f6"></path><path id="Path_195399" data-name="Path 195399" d="M22.8,48.343l4.865,2.809v1.729A11.892,11.892,0,0,0,33.044,62.2c2.972,1.715,5.381.325,5.38-3.107V57.366l4.865,2.808A16.168,16.168,0,0,1,50.6,72.844v5.918l-7.3-4.215V93.891L22.78,82.041V62.7l-7.3-4.214V52.566c0-4.665,3.275-6.555,7.315-4.224" transform="translate(-5.364 -16.404)" fill="#6b67e9"></path><path id="Path_195400" data-name="Path 195400" d="M58.058,85.217V78.14l1.964,8.212Z" transform="translate(-20.116 -27.074)" fill="#7f7ff3"></path><path id="Path_195401" data-name="Path 195401" d="M25.608,67.083V60.005L23.643,65.95Z" transform="translate(-8.192 -20.791)" fill="#7f7ff3"></path><path id="Path_195402" data-name="Path 195402" d="M36.06,75.785l-2.144-1.237V72.073l2.144,1.238Z" transform="translate(-11.751 -24.972)" fill="#fff"></path></g></g><g id="Group_222059" data-name="Group 222059" transform="translate(1.073)"><g id="Group_222058" data-name="Group 222058" clip-path="url(#clip-path-7)"><rect id="Rectangle_68093" data-name="Rectangle 68093" width="135.677" height="147.131" transform="translate(-51.598 29.79) rotate(-30)" fill="url(#linear-gradient-3)"></rect></g></g></g></g><g id="Group_222046" data-name="Group 222046" transform="translate(0 53.291)"><g id="Group_223748" data-name="Group 223748" transform="translate(0 0)"><g id="Group_221962" data-name="Group 221962"><g id="Group_223749" data-name="Group 223749"><g id="Group_221950" data-name="Group 221950" transform="translate(67.015 76.489)" style="mix-blend-mode: multiply;isolation: isolate"><g id="Group_221949" data-name="Group 221949" transform="translate(0)"><g id="Group_221948" data-name="Group 221948" clip-path="url(#clip-path-8)"><g id="Group_221947" data-name="Group 221947" transform="translate(0)"><g id="Group_221946" data-name="Group 221946" clip-path="url(#clip-path-9)"><rect id="Rectangle_68047" data-name="Rectangle 68047" width="29.659" height="2.374" transform="translate(0)" fill="url(#linear-gradient-4)"></rect></g></g></g></g></g></g></g><path id="Path_195257" data-name="Path 195257" d="M289.839,156.615l-2.056-1.187v47.055l2.056,1.187Z" transform="translate(-193.165 -124.807)" fill="#bbc0e6"></path><path id="Path_195258" data-name="Path 195258" d="M277.346,156.615l2.056-1.187v47.055l-2.056,1.187Z" transform="translate(-180.673 -124.807)" fill="#ced3f8"></path><path id="Path_195259" data-name="Path 195259" d="M279.4,149.4l2.056,1.187-2.056,1.187-2.056-1.187Z" transform="translate(-182.729 -119.968)" fill="#f6f6fb"></path><path id="Path_195260" data-name="Path 195260" d="M538.435,13.089,536.379,11.9V58.956l2.056,1.188Z" transform="translate(-490.738 -9.557)" fill="#bbc0e6"></path><path id="Path_195261" data-name="Path 195261" d="M525.942,13.089,528,11.9V58.956l-2.056,1.188Z" transform="translate(-478.245 -9.557)" fill="#ced3f8"></path><path id="Path_195262" data-name="Path 195262" d="M528,5.875l2.056,1.187L528,8.25l-2.056-1.187Z" transform="translate(-480.301 -4.718)" fill="#f6f6fb"></path><path id="Path_195263" data-name="Path 195263" d="M630,65.953l-2.056-1.187V111.82L630,113.007Z" transform="translate(-600.339 -52.006)" fill="#bbc0e6"></path><path id="Path_195264" data-name="Path 195264" d="M617.5,65.953l2.057-1.187V111.82l-2.057,1.188Z" transform="translate(-587.844 -52.006)" fill="#ced3f8"></path><path id="Path_195265" data-name="Path 195265" d="M619.558,58.738l2.057,1.187-2.057,1.187L617.5,59.926Z" transform="translate(-589.9 -47.166)" fill="#f6f6fb"></path><path id="Path_195266" data-name="Path 195266" d="M303.768,217.191l2.056,1.187,2.056-1.187,44.864,25.9v2.374l2.056,1.188-15.983,9.228-2.056-1.188-2.056,1.188-46.92-27.09,2.056-1.187v-2.374Z" transform="translate(-258.127 -174.402)" fill="#f6f6fb"></path><path id="Path_195267" data-name="Path 195267" d="M303.765,366.742l-15.983,9.228v1.511l15.983-9.229Z" transform="translate(-207.092 -294.49)" fill="#807dfb"></path><path id="Path_195268" data-name="Path 195268" d="M389.786,276.08l46.92,27.09v1.511l-46.92-27.09Z" transform="translate(-360.128 -221.689)" fill="#5652cc"></path><g id="Group_221977" data-name="Group 221977"><g id="Group_221976" data-name="Group 221976" clip-path="url(#clip-path-10)"><g id="Group_221967" data-name="Group 221967" transform="translate(82.575 69.877)" style="mix-blend-mode: multiply;isolation: isolate"><g id="Group_221966" data-name="Group 221966"><g id="Group_221965" data-name="Group 221965" clip-path="url(#clip-path-11)"><g id="Group_221964" data-name="Group 221964" transform="translate(0)"><g id="Group_221963" data-name="Group 221963" clip-path="url(#clip-path-12)"><rect id="Rectangle_68054" data-name="Rectangle 68054" width="14.098" height="2.375" transform="translate(0 0)" fill="url(#linear-gradient-5)"></rect></g></g></g></g></g><g id="Group_221972" data-name="Group 221972" transform="translate(43.585 42.789)" style="mix-blend-mode: multiply;isolation: isolate"><g id="Group_221971" data-name="Group 221971" transform="translate(0)"><g id="Group_221970" data-name="Group 221970" clip-path="url(#clip-path-13)"><g id="Group_221969" data-name="Group 221969" transform="translate(0)"><g id="Group_221968" data-name="Group 221968" clip-path="url(#clip-path-14)"><rect id="Rectangle_68056" data-name="Rectangle 68056" width="4.112" height="1.187" transform="translate(0)" fill="url(#linear-gradient-6)"></rect></g></g></g></g></g><g id="Group_221975" data-name="Group 221975" transform="translate(29.658 48.775)" style="mix-blend-mode: multiply;isolation: isolate"><g id="Group_221974" data-name="Group 221974"><g id="Group_221973" data-name="Group 221973" clip-path="url(#clip-path-15)"><path id="Path_195271" data-name="Path 195271" d="M399.122,253.192l2.056-1.187v-2.374l3.558-2.054H416.51l-10.972,6.333,13.675,7.9,2.246-1.3h17.449l-10.972,6.333,16.266,9.392h-5.171l-22.4-12.932Z" transform="translate(-399.122 -247.577)" fill="#f1f1f6"></path></g></g></g></g></g><path id="Path_195272" data-name="Path 195272" d="M451.962,169.822l-14.931,8.619,16.266,9.392,14.93-8.619Z" transform="translate(-400.957 -136.365)" fill="#f1f1f6"></path><path id="Path_195273" data-name="Path 195273" d="M451.962,217.5l-14.93,8.62v13.031l14.93-8.619Z" transform="translate(-384.692 -174.649)" fill="#ced3f8"></path><path id="Path_195274" data-name="Path 195274" d="M529.082,222.969l-16.265-9.392v13.031L529.082,236Z" transform="translate(-476.742 -171.5)" fill="#bbc0e6"></path><path id="Path_195275" data-name="Path 195275" d="M485.874,191.1l-14.93,8.621,2.324,1.342,14.93-8.621Z" transform="translate(-427.61 -153.452)" fill="#fff"></path><path id="Path_195276" data-name="Path 195276" d="M546.728,234.858v1.728l2.324,1.342V236.2Z" transform="translate(-503.393 -188.588)" fill="#dfe4f4"></path><path id="Path_195277" data-name="Path 195277" d="M574.646,269.283l.73-.422.731,1.265-.2.114-.394-.683v1.951l-.279-.161V269.4l-.395.228Z" transform="translate(-535.948 -215.893)" fill="#807dfb"></path><path id="Path_195278" data-name="Path 195278" d="M584.534,263.578l.73-.422.73,1.265-.2.114-.394-.683V265.8l-.278-.161v-1.951l-.395.228Z" transform="translate(-547.783 -211.312)" fill="#807dfb"></path><path id="Path_195279" data-name="Path 195279" d="M338.269,235.465l-14.931,8.619,16.266,9.392,14.93-8.619Z" transform="translate(-264.865 -189.076)" fill="#f1f1f6"></path><path id="Path_195280" data-name="Path 195280" d="M338.268,283.141l-14.93,8.62v13.031l14.93-8.619Z" transform="translate(-248.599 -227.359)" fill="#ced3f8"></path><path id="Path_195281" data-name="Path 195281" d="M415.388,288.613l-16.265-9.392v13.031l16.265,9.392Z" transform="translate(-340.649 -224.211)" fill="#bbc0e6"></path><path id="Path_195282" data-name="Path 195282" d="M372.181,256.744l-14.93,8.621,2.324,1.342,14.93-8.621Z" transform="translate(-291.518 -206.163)" fill="#fff"></path><path id="Path_195283" data-name="Path 195283" d="M433.034,300.5v1.728l2.324,1.342v-1.727Z" transform="translate(-367.3 -241.299)" fill="#dfe4f4"></path><path id="Path_195284" data-name="Path 195284" d="M460.952,334.926l.73-.422.73,1.265-.2.114-.394-.683v1.951l-.279-.161v-1.951l-.395.228Z" transform="translate(-399.855 -268.604)" fill="#807dfb"></path><path id="Path_195285" data-name="Path 195285" d="M470.84,329.221l.73-.422.73,1.265-.2.114-.394-.683v1.951l-.278-.161v-1.951l-.395.228Z" transform="translate(-411.69 -264.022)" fill="#807dfb"></path><path id="Path_195286" data-name="Path 195286" d="M540.924,96.989l13.928-38.716,1.158.033L541.2,99.464l-.271.157Z" transform="translate(-509.209 -46.792)" fill="#807dfb"></path><path id="Path_195287" data-name="Path 195287" d="M548.422,93.55v4.145l13.609-37.83-1.235-.713Z" transform="translate(-516.707 -47.498)" fill="#5652cc"></path><path id="Path_195288" data-name="Path 195288" d="M287.785,245.629l14.824-41.207,1.158.033-14.815,41.158Z" transform="translate(-207.095 -164.149)" fill="#807dfb"></path><path id="Path_195289" data-name="Path 195289" d="M295.283,245.622l1.235.713,14.505-40.321-1.235-.713Z" transform="translate(-215.828 -164.855)" fill="#5652cc"></path><path id="Path_195290" data-name="Path 195290" d="M303.768,47.37l2.056,1.187,2.056-1.187,44.864,25.9v2.374l2.056,1.188-15.983,9.228-2.056-1.187L334.7,86.061l-46.92-27.09,2.056-1.187V55.41Z" transform="translate(-258.127 -38.037)" fill="#f6f6fb"></path><path id="Path_195291" data-name="Path 195291" d="M303.765,196.923l-15.983,9.228v1.511l15.983-9.228Z" transform="translate(-207.092 -158.127)" fill="#807dfb"></path><path id="Path_195292" data-name="Path 195292" d="M389.785,106.259l46.92,27.089v1.511l-46.92-27.09Z" transform="translate(-360.128 -85.325)" fill="#5652cc"></path><g id="Group_221992" data-name="Group 221992"><g id="Group_221991" data-name="Group 221991" clip-path="url(#clip-path-10)"><g id="Group_221982" data-name="Group 221982" transform="translate(82.576 36.421)" style="mix-blend-mode: multiply;isolation: isolate"><g id="Group_221981" data-name="Group 221981"><g id="Group_221980" data-name="Group 221980" clip-path="url(#clip-path-11)"><g id="Group_221979" data-name="Group 221979" transform="translate(0)"><g id="Group_221978" data-name="Group 221978" clip-path="url(#clip-path-18)"><rect id="Rectangle_68060" data-name="Rectangle 68060" width="14.098" height="2.375" transform="translate(0)" fill="url(#linear-gradient-7)"></rect></g></g></g></g></g><g id="Group_221987" data-name="Group 221987" transform="translate(43.585 9.332)" style="mix-blend-mode: multiply;isolation: isolate"><g id="Group_221986" data-name="Group 221986" transform="translate(0)"><g id="Group_221985" data-name="Group 221985" clip-path="url(#clip-path-13)"><g id="Group_221984" data-name="Group 221984" transform="translate(0)"><g id="Group_221983" data-name="Group 221983" clip-path="url(#clip-path-20)"><rect id="Rectangle_68062" data-name="Rectangle 68062" width="4.112" height="1.187" transform="translate(0)" fill="url(#linear-gradient-8)"></rect></g></g></g></g></g><g id="Group_221990" data-name="Group 221990" transform="translate(29.658 15.319)" style="mix-blend-mode: multiply;isolation: isolate"><g id="Group_221989" data-name="Group 221989"><g id="Group_221988" data-name="Group 221988" clip-path="url(#clip-path-15)"><path id="Path_195295" data-name="Path 195295" d="M399.122,83.37l2.056-1.187V79.809l3.558-2.054H416.51l-10.972,6.333,13.675,7.9,2.246-1.3h17.449L427.937,97.02l16.266,9.392h-5.171l-22.4-12.932Z" transform="translate(-399.122 -77.755)" fill="#f1f1f6"></path></g></g></g></g></g><path id="Path_195296" data-name="Path 195296" d="M451.961,0l16.265,9.392L453.3,18.012,437.031,8.62Z" transform="translate(-400.956 0)" fill="#f1f1f6"></path><path id="Path_195297" data-name="Path 195297" d="M451.962,47.677l-14.93,8.62V69.327l14.93-8.619Z" transform="translate(-384.692 -38.284)" fill="#ced3f8"></path><path id="Path_195298" data-name="Path 195298" d="M529.082,53.148l-16.265-9.392V56.787l16.265,9.392Z" transform="translate(-476.742 -35.135)" fill="#bbc0e6"></path><path id="Path_195299" data-name="Path 195299" d="M485.874,21.279,470.945,29.9l2.324,1.342,14.93-8.621Z" transform="translate(-427.61 -17.087)" fill="#fff"></path><path id="Path_195300" data-name="Path 195300" d="M546.728,65.036v1.728l2.324,1.342V66.378Z" transform="translate(-503.393 -52.223)" fill="#dfe4f4"></path><path id="Path_195301" data-name="Path 195301" d="M574.646,99.462l.73-.422.731,1.265-.2.114-.394-.683v1.951l-.279-.161V99.574l-.395.228Z" transform="translate(-535.948 -79.528)" fill="#807dfb"></path><path id="Path_195302" data-name="Path 195302" d="M584.534,93.756l.73-.422.73,1.265-.2.113-.394-.683v1.951l-.278-.161V93.869l-.395.228Z" transform="translate(-547.783 -74.947)" fill="#807dfb"></path><path id="Path_195303" data-name="Path 195303" d="M338.269,65.643l-14.931,8.619L339.6,83.655l14.93-8.619Z" transform="translate(-264.865 -52.711)" fill="#f1f1f6"></path><path id="Path_195304" data-name="Path 195304" d="M338.268,113.32l-14.93,8.62V134.97l14.93-8.619Z" transform="translate(-248.599 -90.994)" fill="#ced3f8"></path><path id="Path_195305" data-name="Path 195305" d="M415.388,118.791,399.122,109.4V122.43l16.265,9.392Z" transform="translate(-340.649 -87.846)" fill="#bbc0e6"></path><path id="Path_195306" data-name="Path 195306" d="M372.181,86.922l-14.93,8.621,2.324,1.342,14.93-8.621Z" transform="translate(-291.518 -69.797)" fill="#fff"></path><path id="Path_195307" data-name="Path 195307" d="M433.034,130.679v1.728l2.324,1.342v-1.728Z" transform="translate(-367.3 -104.934)" fill="#dfe4f4"></path><path id="Path_195308" data-name="Path 195308" d="M460.952,165.1l.73-.422.73,1.265-.2.114-.394-.683v1.951l-.279-.161v-1.951l-.395.228Z" transform="translate(-399.855 -132.239)" fill="#807dfb"></path><path id="Path_195309" data-name="Path 195309" d="M470.84,159.4l.73-.422.73,1.265-.2.114-.394-.683v1.951l-.278-.161v-1.951l-.395.228Z" transform="translate(-411.69 -127.657)" fill="#807dfb"></path><path id="Path_195310" data-name="Path 195310" d="M381.4,209.48l-2.056-1.187v47.055l2.056,1.187Z" transform="translate(-302.77 -167.257)" fill="#bbc0e6"></path><path id="Path_195311" data-name="Path 195311" d="M368.911,209.48l2.056-1.187v47.055l-2.056,1.187Z" transform="translate(-290.277 -167.257)" fill="#ced3f8"></path><path id="Path_195312" data-name="Path 195312" d="M370.968,202.264l2.056,1.188-2.056,1.187-2.056-1.187Z" transform="translate(-292.333 -162.416)" fill="#f6f6fb"></path><g id="Group_222014" data-name="Group 222014"><g id="Group_222013" data-name="Group 222013" clip-path="url(#clip-path-10)"><g id="Group_222002" data-name="Group 222002" transform="translate(121.655 108.035)" style="mix-blend-mode: multiply;isolation: isolate"><g id="Group_222001" data-name="Group 222001" transform="translate(0)"><g id="Group_222000" data-name="Group 222000" clip-path="url(#clip-path-8)"><g id="Group_221999" data-name="Group 221999" transform="translate(0)"><g id="Group_221998" data-name="Group 221998" clip-path="url(#clip-path-24)"><rect id="Rectangle_68068" data-name="Rectangle 68068" width="29.659" height="2.374" fill="url(#linear-gradient-9)"></rect></g></g></g></g></g><g id="Group_222012" data-name="Group 222012" transform="translate(72.679 79.759)" style="mix-blend-mode: multiply;isolation: isolate"><g id="Group_222011" data-name="Group 222011"><g id="Group_222010" data-name="Group 222010" clip-path="url(#clip-path-8)"><g id="Group_222009" data-name="Group 222009" transform="translate(0)"><g id="Group_222008" data-name="Group 222008" clip-path="url(#clip-path-26)"><rect id="Rectangle_68072" data-name="Rectangle 68072" width="29.659" height="2.374" transform="translate(0)" fill="url(#linear-gradient-10)"></rect></g></g></g></g></g></g></g><path id="Path_195317" data-name="Path 195317" d="M12.493,316.742l-2.056-1.187v47.055l2.056,1.187Z" transform="translate(138.821 -253.387)" fill="#bbc0e6"></path><path id="Path_195318" data-name="Path 195318" d="M2.056,362.609,0,363.8V316.742l2.056-1.187Z" transform="translate(151.314 -253.387)" fill="#ced3f8"></path><path id="Path_195319" data-name="Path 195319" d="M4.112,310.715,2.056,311.9,0,310.715l2.056-1.187Z" transform="translate(149.257 -248.547)" fill="#f6f6fb"></path><path id="Path_195320" data-name="Path 195320" d="M261.089,173.215l-2.056-1.187v47.055l2.056,1.188Z" transform="translate(-158.752 -138.136)" fill="#bbc0e6"></path><path id="Path_195321" data-name="Path 195321" d="M248.6,173.215l2.056-1.187v47.055L248.6,220.27Z" transform="translate(-146.259 -138.136)" fill="#ced3f8"></path><path id="Path_195322" data-name="Path 195322" d="M250.652,166l2.056,1.187-2.056,1.187-2.056-1.187Z" transform="translate(-148.315 -133.297)" fill="#f6f6fb"></path><path id="Path_195323" data-name="Path 195323" d="M352.651,226.079l-2.056-1.187v47.055l2.056,1.188Z" transform="translate(-268.353 -180.585)" fill="#bbc0e6"></path><path id="Path_195324" data-name="Path 195324" d="M340.156,226.079l2.057-1.187v47.055l-2.057,1.188Z" transform="translate(-255.858 -180.585)" fill="#ced3f8"></path><path id="Path_195325" data-name="Path 195325" d="M342.212,218.865l2.057,1.187-2.057,1.187-2.056-1.187Z" transform="translate(-257.914 -175.746)" fill="#f6f6fb"></path><path id="Path_195326" data-name="Path 195326" d="M26.422,377.317l2.056,1.187,2.056-1.187,44.864,25.9v2.374l2.056,1.188-15.983,9.228-2.056-1.188-2.056,1.188-46.92-27.09,2.056-1.187v-2.374Z" transform="translate(73.859 -302.981)" fill="#f6f6fb"></path><path id="Path_195327" data-name="Path 195327" d="M26.419,526.868,10.436,536.1v1.511l15.983-9.229Z" transform="translate(124.894 -423.069)" fill="#807dfb"></path><path id="Path_195328" data-name="Path 195328" d="M112.44,436.206l46.92,27.09v1.511l-46.92-27.09Z" transform="translate(-28.142 -350.269)" fill="#5652cc"></path><g id="Group_222029" data-name="Group 222029"><g id="Group_222028" data-name="Group 222028" clip-path="url(#clip-path-10)"><g id="Group_222019" data-name="Group 222019" transform="translate(137.215 101.424)" style="mix-blend-mode: multiply;isolation: isolate"><g id="Group_222018" data-name="Group 222018" transform="translate(0)"><g id="Group_222017" data-name="Group 222017" clip-path="url(#clip-path-11)"><g id="Group_222016" data-name="Group 222016" transform="translate(0)"><g id="Group_222015" data-name="Group 222015" clip-path="url(#clip-path-29)"><rect id="Rectangle_68075" data-name="Rectangle 68075" width="14.098" height="2.375" transform="translate(0 0)" fill="url(#linear-gradient-11)"></rect></g></g></g></g></g><g id="Group_222024" data-name="Group 222024" transform="translate(98.225 74.335)" style="mix-blend-mode: multiply;isolation: isolate"><g id="Group_222023" data-name="Group 222023" transform="translate(0)"><g id="Group_222022" data-name="Group 222022" clip-path="url(#clip-path-13)"><g id="Group_222021" data-name="Group 222021" transform="translate(0)"><g id="Group_222020" data-name="Group 222020" clip-path="url(#clip-path-31)"><rect id="Rectangle_68077" data-name="Rectangle 68077" width="4.112" height="1.187" transform="translate(0)" fill="url(#linear-gradient-12)"></rect></g></g></g></g></g><g id="Group_222027" data-name="Group 222027" transform="translate(84.298 80.322)" style="mix-blend-mode: multiply;isolation: isolate"><g id="Group_222026" data-name="Group 222026"><g id="Group_222025" data-name="Group 222025" clip-path="url(#clip-path-15)"><path id="Path_195331" data-name="Path 195331" d="M121.776,413.318l2.056-1.187v-2.374l3.557-2.054h11.773l-10.972,6.333,13.675,7.9,2.246-1.3h17.449l-10.972,6.333,16.266,9.392h-5.171l-22.4-12.932Z" transform="translate(-121.776 -407.703)" fill="#f1f1f6"></path></g></g></g></g></g><path id="Path_195332" data-name="Path 195332" d="M174.616,329.948l-14.931,8.619,16.266,9.392,14.93-8.619Z" transform="translate(-68.972 -264.945)" fill="#f1f1f6"></path><path id="Path_195333" data-name="Path 195333" d="M174.616,377.625l-14.93,8.62v13.031l14.93-8.619Z" transform="translate(-52.706 -303.229)" fill="#ced3f8"></path><path id="Path_195334" data-name="Path 195334" d="M251.736,383.1,235.47,373.7v13.031l16.265,9.392Z" transform="translate(-144.756 -300.08)" fill="#bbc0e6"></path><path id="Path_195335" data-name="Path 195335" d="M208.528,351.227l-14.93,8.621,2.324,1.342,14.93-8.621Z" transform="translate(-95.624 -282.032)" fill="#fff"></path><path id="Path_195336" data-name="Path 195336" d="M269.382,394.984v1.728l2.324,1.342v-1.728Z" transform="translate(-171.407 -317.168)" fill="#dfe4f4"></path><path id="Path_195337" data-name="Path 195337" d="M297.3,429.41l.73-.422.731,1.265-.2.114-.394-.683v1.951l-.279-.161v-1.951l-.395.228Z" transform="translate(-203.962 -344.473)" fill="#807dfb"></path><path id="Path_195338" data-name="Path 195338" d="M307.188,423.7l.73-.422.73,1.265-.2.113-.394-.683v1.951l-.278-.161v-1.951l-.395.228Z" transform="translate(-215.797 -339.892)" fill="#807dfb"></path><path id="Path_195339" data-name="Path 195339" d="M60.923,395.591l-14.931,8.619L62.258,413.6l14.93-8.619Z" transform="translate(67.121 -317.656)" fill="#f1f1f6"></path><path id="Path_195340" data-name="Path 195340" d="M60.922,443.268l-14.93,8.62v13.031l14.93-8.619Z" transform="translate(83.387 -355.939)" fill="#ced3f8"></path><path id="Path_195341" data-name="Path 195341" d="M138.042,448.739l-16.265-9.392v13.031l16.265,9.392Z" transform="translate(-8.663 -352.791)" fill="#bbc0e6"></path><path id="Path_195342" data-name="Path 195342" d="M94.835,416.87l-14.93,8.621,2.324,1.342,14.93-8.621Z" transform="translate(40.468 -334.742)" fill="#fff"></path><path id="Path_195343" data-name="Path 195343" d="M155.688,460.627v1.728l2.324,1.342v-1.728Z" transform="translate(-35.314 -369.879)" fill="#dfe4f4"></path><path id="Path_195344" data-name="Path 195344" d="M183.606,495.053l.73-.422.731,1.265-.2.114-.394-.684v1.951l-.279-.161v-1.951l-.395.228Z" transform="translate(-67.869 -397.183)" fill="#807dfb"></path><path id="Path_195345" data-name="Path 195345" d="M193.494,489.347l.73-.422.73,1.265-.2.113-.394-.683v1.951l-.278-.161V489.46l-.395.228Z" transform="translate(-79.705 -392.602)" fill="#807dfb"></path><path id="Path_195346" data-name="Path 195346" d="M263.578,257.115,277.507,218.4l1.158.033L263.85,259.591l-.271.157Z" transform="translate(-177.223 -175.372)" fill="#807dfb"></path><path id="Path_195347" data-name="Path 195347" d="M271.076,253.676v4.145l13.609-37.83-1.235-.713Z" transform="translate(-184.721 -176.078)" fill="#5652cc"></path><path id="Path_195348" data-name="Path 195348" d="M10.439,405.756l14.824-41.207,1.158.033L11.607,405.74Z" transform="translate(124.891 -292.729)" fill="#807dfb"></path><path id="Path_195349" data-name="Path 195349" d="M17.937,405.748l1.235.713,14.505-40.321-1.235-.713Z" transform="translate(116.158 -293.435)" fill="#5652cc"></path><path id="Path_195350" data-name="Path 195350" d="M26.422,207.5l2.056,1.187,2.056-1.187L75.4,233.4v2.374l2.056,1.188-15.983,9.228L59.415,245l-2.056,1.187L10.439,219.1l2.056-1.187v-2.375Z" transform="translate(73.859 -166.617)" fill="#f6f6fb"></path><path id="Path_195351" data-name="Path 195351" d="M26.419,357.049l-15.983,9.228v1.511l15.983-9.228Z" transform="translate(124.894 -286.707)" fill="#807dfb"></path><path id="Path_195352" data-name="Path 195352" d="M112.439,266.386l46.92,27.089v1.511L112.44,267.9Z" transform="translate(-28.142 -213.905)" fill="#5652cc"></path><g id="Group_222044" data-name="Group 222044"><g id="Group_222043" data-name="Group 222043" clip-path="url(#clip-path-10)"><g id="Group_222034" data-name="Group 222034" transform="translate(137.216 67.968)" style="mix-blend-mode: multiply;isolation: isolate"><g id="Group_222033" data-name="Group 222033" transform="translate(0)"><g id="Group_222032" data-name="Group 222032" clip-path="url(#clip-path-11)"><g id="Group_222031" data-name="Group 222031" transform="translate(0)"><g id="Group_222030" data-name="Group 222030" clip-path="url(#clip-path-35)"><rect id="Rectangle_68081" data-name="Rectangle 68081" width="14.098" height="2.375" transform="translate(0 0)" fill="url(#linear-gradient-13)"></rect></g></g></g></g></g><g id="Group_222039" data-name="Group 222039" transform="translate(98.225 40.879)" style="mix-blend-mode: multiply;isolation: isolate"><g id="Group_222038" data-name="Group 222038" transform="translate(0)"><g id="Group_222037" data-name="Group 222037" clip-path="url(#clip-path-13)"><g id="Group_222036" data-name="Group 222036" transform="translate(0)"><g id="Group_222035" data-name="Group 222035" clip-path="url(#clip-path-37)"><rect id="Rectangle_68083" data-name="Rectangle 68083" width="4.112" height="1.187" transform="translate(0)" fill="url(#linear-gradient-14)"></rect></g></g></g></g></g><g id="Group_222042" data-name="Group 222042" transform="translate(84.298 46.865)" style="mix-blend-mode: multiply;isolation: isolate"><g id="Group_222041" data-name="Group 222041"><g id="Group_222040" data-name="Group 222040" clip-path="url(#clip-path-15)"><path id="Path_195355" data-name="Path 195355" d="M121.776,243.5l2.056-1.187v-2.374l3.557-2.054h11.773l-10.972,6.333,13.675,7.9,2.246-1.3h17.449l-10.972,6.333,16.266,9.392h-5.171l-22.4-12.932Z" transform="translate(-121.776 -237.881)" fill="#f1f1f6"></path></g></g></g></g></g><path id="Path_195356" data-name="Path 195356" d="M174.616,160.127l-14.931,8.619,16.266,9.392,14.93-8.619Z" transform="translate(-68.972 -128.58)" fill="#f1f1f6"></path><path id="Path_195357" data-name="Path 195357" d="M174.616,207.8l-14.93,8.62v13.031l14.93-8.619Z" transform="translate(-52.706 -166.863)" fill="#ced3f8"></path><path id="Path_195358" data-name="Path 195358" d="M251.736,213.274l-16.265-9.392v13.031l16.265,9.392Z" transform="translate(-144.756 -163.715)" fill="#bbc0e6"></path><path id="Path_195359" data-name="Path 195359" d="M208.528,181.405l-14.93,8.621,2.324,1.342,14.93-8.621Z" transform="translate(-95.624 -145.666)" fill="#fff"></path><path id="Path_195360" data-name="Path 195360" d="M269.382,225.162v1.728l2.324,1.342V226.5Z" transform="translate(-171.407 -180.803)" fill="#dfe4f4"></path><path id="Path_195361" data-name="Path 195361" d="M297.3,259.588l.73-.422.731,1.265-.2.114-.394-.683v1.951l-.279-.161V259.7l-.395.228Z" transform="translate(-203.962 -208.108)" fill="#807dfb"></path><path id="Path_195362" data-name="Path 195362" d="M307.188,253.882l.73-.422.73,1.265-.2.113-.394-.683v1.951l-.278-.161V254l-.395.228Z" transform="translate(-215.797 -203.526)" fill="#807dfb"></path><path id="Path_195363" data-name="Path 195363" d="M60.923,225.77l-14.931,8.619,16.266,9.392,14.93-8.619Z" transform="translate(67.121 -181.291)" fill="#f1f1f6"></path><path id="Path_195364" data-name="Path 195364" d="M60.922,273.446l-14.93,8.62V295.1l14.93-8.619Z" transform="translate(83.387 -219.574)" fill="#ced3f8"></path><path id="Path_195365" data-name="Path 195365" d="M138.042,278.917l-16.265-9.392v13.031l16.265,9.392Z" transform="translate(-8.663 -216.426)" fill="#bbc0e6"></path><path id="Path_195366" data-name="Path 195366" d="M94.835,247.048l-14.93,8.621,2.324,1.342,14.93-8.621Z" transform="translate(40.468 -198.377)" fill="#fff"></path><path id="Path_195367" data-name="Path 195367" d="M155.688,290.805v1.728l2.324,1.342v-1.728Z" transform="translate(-35.314 -233.514)" fill="#dfe4f4"></path><path id="Path_195368" data-name="Path 195368" d="M183.606,325.231l.73-.422.731,1.265-.2.114-.394-.683v1.951l-.279-.161v-1.951l-.395.228Z" transform="translate(-67.869 -260.818)" fill="#807dfb"></path><path id="Path_195369" data-name="Path 195369" d="M193.494,319.525l.73-.422.73,1.265-.2.114-.394-.683v1.951l-.278-.161v-1.951l-.395.228Z" transform="translate(-79.705 -256.237)" fill="#807dfb"></path><path id="Path_195370" data-name="Path 195370" d="M104.058,369.605v47.055L102,415.474V368.418Z" transform="translate(29.217 -295.836)" fill="#bbc0e6"></path><path id="Path_195371" data-name="Path 195371" d="M93.621,415.474l-2.056,1.187V369.605l2.056-1.187Z" transform="translate(41.709 -295.836)" fill="#ced3f8"></path><path id="Path_195372" data-name="Path 195372" d="M93.622,362.391l2.056,1.188-2.056,1.187-2.056-1.187Z" transform="translate(39.653 -290.996)" fill="#f6f6fb"></path></g></g></g></svg> 