<?xml version="1.0" encoding="UTF-8"?> <svg xmlns="http://www.w3.org/2000/svg" xmlns:xlink="http://www.w3.org/1999/xlink" width="198" height="163" viewBox="0 0 198 163"><defs><clipPath id="clip-path"><rect id="Rectangle_68331" data-name="Rectangle 68331" width="198" height="163" transform="translate(1087 2547)" fill="#fff" stroke="#707070" stroke-width="1"></rect></clipPath><clipPath id="clip-path-2"><rect id="Rectangle_68151" data-name="Rectangle 68151" width="219.572" height="141.044" fill="none"></rect></clipPath><clipPath id="clip-path-4"><rect id="Rectangle_68153" data-name="Rectangle 68153" width="66.509" height="46.432" fill="none"></rect></clipPath><clipPath id="clip-path-5"><path id="Path_195489" data-name="Path 195489" d="M88.068,42.616h0l41.626-22.943h24.882L113.894,43.159l-.947-.543,40.683,23.489H128.748Z" transform="translate(-88.067 -19.673)" fill="none"></path></clipPath><linearGradient id="linear-gradient" x1="1.921" y1="2.743" x2="1.91" y2="2.743" gradientUnits="objectBoundingBox"><stop offset="0" stop-color="#c4c9e5"></stop><stop offset="0.637" stop-color="#eceef6"></stop><stop offset="1" stop-color="#fff"></stop></linearGradient><clipPath id="clip-path-6"><rect id="Rectangle_68330" data-name="Rectangle 68330" width="60.455" height="71.188" fill="none"></rect></clipPath></defs><g id="Mask_Group_21786" data-name="Mask Group 21786" transform="translate(-1087 -2547)" clip-path="url(#clip-path)" style="isolation: isolate"><g id="Group_222769" data-name="Group 222769" transform="translate(97.729 8.906)"><g id="Group_222768" data-name="Group 222768" transform="translate(930.19 2550.863)"><path id="Path_195480" data-name="Path 195480" d="M140.818,43.711,73.425,82.617,0,40.221,67.4,1.314Z" transform="translate(78.754 -0.399)" fill="#f1f1f6"></path><path id="Path_195481" data-name="Path 195481" d="M67.395,121.1,0,160.01l0-58.822L67.395,62.279Z" transform="translate(152.177 -18.966)" fill="#ced3f8"></path><path id="Path_195482" data-name="Path 195482" d="M170.331,99.661v58.822l-73.423-42.4V57.265Z" transform="translate(-18.153 -17.439)" fill="#bbc0e6"></path><path id="Path_195483" data-name="Path 195483" d="M110.759,28.523,43.366,67.436l10.492,6.058L121.251,34.58Z" transform="translate(68.162 -8.686)" fill="#fff"></path><path id="Path_195484" data-name="Path 195484" d="M140.271,84.477v7.8l10.492,6.057v-7.8Z" transform="translate(-28.744 -25.726)" fill="#dfe4f4"></path><path id="Path_195485" data-name="Path 195485" d="M175.974,129.863l3.3-1.9,3.3,5.71-.889.513L179.9,131.1V139.9l-1.257-.725v-8.807l-1.782,1.029Z" transform="translate(-85.376 -38.968)" fill="#abb2da"></path><path id="Path_195486" data-name="Path 195486" d="M188.616,122.566l3.3-1.9,3.3,5.709-.887.513-1.779-3.085v8.807l-1.256-.725v-8.807L189.5,124.1Z" transform="translate(-106.809 -36.747)" fill="#abb2da"></path><path id="Path_195487" data-name="Path 195487" d="M105.937,119.953l18.333,10.585V117.387L105.937,106.8Z" transform="translate(21.627 -32.525)" fill="#5652cc"></path><path id="Path_195488" data-name="Path 195488" d="M105.937,138.617l13.095,7.56v-3.335l-13.095-7.56Z" transform="translate(26.866 -41.199)" fill="#5652cc"></path><g id="Group_222243" data-name="Group 222243" transform="translate(0 0.001)"><g id="Group_222242" data-name="Group 222242" clip-path="url(#clip-path-2)"><g id="Group_222241" data-name="Group 222241" transform="translate(91.816 13.682)" style="mix-blend-mode: multiply;isolation: isolate"><g id="Group_222240" data-name="Group 222240"><g id="Group_222239" data-name="Group 222239" clip-path="url(#clip-path-4)"><g id="Group_222238" data-name="Group 222238" transform="translate(0)"><g id="Group_222237" data-name="Group 222237" clip-path="url(#clip-path-5)"><rect id="Rectangle_68152" data-name="Rectangle 68152" width="66.51" height="46.432" transform="translate(0)" fill="url(#linear-gradient)"></rect></g></g></g></g></g></g></g><path id="Path_195490" data-name="Path 195490" d="M130.114,56.478,89.429,32.989l0,13.682L130.114,70.16Z" transform="translate(27.264 -10.046)" fill="#bbc0e6"></path><path id="Path_195491" data-name="Path 195491" d="M72.03,0l40.683,23.487L72.978,46.431,32.294,22.942Z" transform="translate(84.4 0.001)" fill="#f1f1f6"></path><path id="Path_195492" data-name="Path 195492" d="M72.029,33.771,32.294,56.717V70.4L72.029,47.452Z" transform="translate(125.084 -10.284)" fill="#ced3f8"></path><path id="Path_195493" data-name="Path 195493" d="M62.609,12.992l-7.8,4.505,40.683,23.49,7.8-4.505Z" transform="translate(78.171 -3.956)" fill="#fff"></path><path id="Path_195494" data-name="Path 195494" d="M62.608,46.77l-7.8,4.505,0,8.8,7.8-4.505Z" transform="translate(118.85 -14.243)" fill="#dfe4f4"></path></g><g id="Group_222767" data-name="Group 222767" transform="translate(1119.534 2603.761)"><g id="Group_222766" data-name="Group 222766" clip-path="url(#clip-path-6)"><path id="Path_195637" data-name="Path 195637" d="M60.493,23.649c.04,16.195-11.352,35.922-25.483,44.1-7.224,4.168-13.734,4.485-18.378,1.628-.04-.04-.079-.04-.119-.079L7.5,64.057C2.858,61.4.04,55.761.04,47.7,0,31.468,11.353,11.7,25.444,3.6,32.549-.525,39.019-.922,43.623,1.778l9.407,5.438c-.318-.159-.635-.357-.953-.476,5.12,2.421,8.375,8.3,8.415,16.909" transform="translate(-0.038 -0.059)" fill="#497bfe"></path><path id="Path_195638" data-name="Path 195638" d="M53,7.176C48.344,4.47,41.913,4.869,34.817,8.994c-14.1,8.117-25.5,27.854-25.459,44.087.044,8.028,2.883,13.7,7.451,16.366L7.451,63.992C2.838,61.331,0,55.7,0,47.626-.045,31.392,11.31,11.655,25.414,3.539,32.51-.586,38.986-.985,43.6,1.72Z" transform="translate(0.001 0)" fill="#5652cc"></path><path id="Path_195639" data-name="Path 195639" d="M208.526,110.328c14.131-8.158,25.608-1.618,25.654,14.62.046,16.172-11.357,35.923-25.488,44.082-14.1,8.142-25.552,1.585-25.6-14.587-.046-16.237,11.329-35.972,25.431-44.114" transform="translate(-173.73 -101.354)" fill="#ced3f8"></path><path id="Path_195640" data-name="Path 195640" d="M248.884,216.85c-.043-15.126,10.61-33.6,23.748-41.189,11.657-6.729,20.567-2.168,20.61,11.715.041,15.091-10.639,33.555-23.807,41.158-11.614,6.7-20.51,2.153-20.55-11.684" transform="translate(-236.155 -163.772)" fill="#5652cc"></path><path id="Path_195641" data-name="Path 195641" d="M426.007,428.15c.022,6.558-4.595,14.54-10.29,17.841l-3.8,2.179.021,6.256L402,451.1l9.88-14.8.022,6.6,3.8-2.2a12.558,12.558,0,0,0,5.717-9.9c0-3.646-2.589-5.113-5.76-3.279l-18.876,10.894v-5.285l18.854-10.894c5.717-3.279,10.355-.626,10.376,5.911" transform="translate(-376.484 -399.31)" fill="#f1f1f6"></path></g></g></g></g></svg> 