<?xml version="1.0" encoding="UTF-8"?> <svg xmlns="http://www.w3.org/2000/svg" xmlns:xlink="http://www.w3.org/1999/xlink" width="214.391" height="191.077" viewBox="0 0 214.391 191.077"><defs><clipPath id="clip-path"><rect id="Rectangle_51056" data-name="Rectangle 51056" width="214.391" height="173.776" fill="none"></rect></clipPath><clipPath id="clip-path-4"><rect id="Rectangle_51027" data-name="Rectangle 51027" width="166.938" height="60.763" fill="none"></rect></clipPath><clipPath id="clip-path-5"><path id="Path_144424" data-name="Path 144424" d="M240.259,262.755h0l-2.5,1.445L226.2,270.87v0c3.723-1.843,8.7-1.416,14.185,1.752,11.048,6.378,20.067,21.491,20.819,34.462l15.15-8.747c-.752-12.971-9.772-28.084-20.82-34.462a18.865,18.865,0,0,0-9.3-2.844,10.642,10.642,0,0,0-5.979,1.722" transform="translate(-226.201 -261.033)" fill="none"></path></clipPath><linearGradient id="linear-gradient" x1="-0.55" y1="2.026" x2="-0.547" y2="2.026" gradientUnits="objectBoundingBox"><stop offset="0" stop-color="#bbc0e6"></stop><stop offset="0.257" stop-color="#c8ccea"></stop><stop offset="0.74" stop-color="#edeef7"></stop><stop offset="0.843" stop-color="#f6f6fb"></stop><stop offset="1" stop-color="#f6f6fb"></stop></linearGradient><clipPath id="clip-path-6"><path id="Path_144425" data-name="Path 144425" d="M38.753,291.217l0,0-15,8.661c2.865-1.625,6.807-1.376,11.159,1.137.636.367,1.259.782,1.875,1.222.151-5.541,2.217-9.422,5.471-11.215h0l1.527-.883q-.407-.032-.8-.032a8.134,8.134,0,0,0-4.228,1.113" transform="translate(-23.751 -290.104)" fill="none"></path></clipPath><linearGradient id="linear-gradient-2" x1="-0.234" y1="9.599" x2="-0.224" y2="9.599" gradientUnits="objectBoundingBox"><stop offset="0" stop-color="#f6f6fb"></stop><stop offset="0.157" stop-color="#f6f6fb"></stop><stop offset="1" stop-color="#f1f1f6"></stop></linearGradient><clipPath id="clip-path-7"><path id="Path_144426" data-name="Path 144426" d="M403.33,458.553a20.232,20.232,0,0,1,5.98,2.368c10.8,6.236,19.556,21.4,19.556,33.872,0,.6-.032,1.178-.078,1.741-.369,5.211-2.394,8.926-5.492,10.809h0l15.021-8.672.11-.063.02-.011h0c3.1-1.883,5.123-5.6,5.492-10.809.046-.563.078-1.138.078-1.741,0-12.471-8.756-27.637-19.556-33.872a20.233,20.233,0,0,0-5.98-2.368Z" transform="translate(-403.33 -449.806)" fill="none"></path></clipPath><linearGradient id="linear-gradient-3" x1="-1.063" y1="1.3" x2="-1.06" y2="1.3" xlink:href="#linear-gradient"></linearGradient><clipPath id="clip-path-8"><path id="Path_144427" data-name="Path 144427" d="M132.384,246.013l0,0-13.466,7.775-1.527.883h0c3.272-1.8,7.746-1.5,12.687,1.354a30.06,30.06,0,0,1,5.641,4.288,10.2,10.2,0,0,1,3.176-2.464v0l11.554-6.671a29.63,29.63,0,0,0-5.221-3.9,16.438,16.438,0,0,0-8.1-2.476,9.357,9.357,0,0,0-4.742,1.214" transform="translate(-117.387 -244.799)" fill="none"></path></clipPath><linearGradient id="linear-gradient-4" x1="-0.592" y1="4.426" x2="-0.586" y2="4.426" xlink:href="#linear-gradient-2"></linearGradient><clipPath id="clip-path-9"><path id="Path_144428" data-name="Path 144428" d="M661.537,445.734a2.994,2.994,0,0,0-1.355,2.346.93.93,0,0,0,.43.893v0l3.852,2.224,1.844-3.358-3.812-2.2h0l-.039-.022,0,0a.713.713,0,0,0-.315-.069,1.222,1.222,0,0,0-.6.184" transform="translate(-660.182 -445.55)" fill="none"></path></clipPath><linearGradient id="linear-gradient-5" x1="-16.288" y1="10.697" x2="-16.263" y2="10.697" gradientUnits="objectBoundingBox"><stop offset="0" stop-color="#5652cc"></stop><stop offset="0.259" stop-color="#423dab"></stop><stop offset="0.568" stop-color="#2f298a"></stop><stop offset="0.826" stop-color="#241d76"></stop><stop offset="1" stop-color="#20196f"></stop></linearGradient><clipPath id="clip-path-11"><path id="Path_144430" data-name="Path 144430" d="M602.513,483.65A2.994,2.994,0,0,0,601.158,486a.929.929,0,0,0,.43.893h0l3.852,2.224,1.844-3.358-3.811-2.2h0l-.039-.022,0,0a.711.711,0,0,0-.315-.069,1.219,1.219,0,0,0-.6.184" transform="translate(-601.158 -483.466)" fill="none"></path></clipPath><linearGradient id="linear-gradient-6" x1="-14.822" y1="9.775" x2="-14.797" y2="9.775" xlink:href="#linear-gradient-5"></linearGradient><clipPath id="clip-path-13"><rect id="Rectangle_51036" data-name="Rectangle 51036" width="2.709" height="3.498" fill="none"></rect></clipPath><clipPath id="clip-path-14"><path id="Path_144433" data-name="Path 144433" d="M377.584,664.557l0,0-.039.022h0l-1.723,1.057,1.844,3.358,1.763-1.08h0a.929.929,0,0,0,.43-.893,3,3,0,0,0-1.354-2.346,1.223,1.223,0,0,0-.6-.184.715.715,0,0,0-.315.07" transform="translate(-375.82 -664.488)" fill="none"></path></clipPath><linearGradient id="linear-gradient-7" x1="-12.774" y1="7.29" x2="-12.739" y2="7.29" xlink:href="#linear-gradient-5"></linearGradient><clipPath id="clip-path-16"><rect id="Rectangle_51040" data-name="Rectangle 51040" width="9.224" height="3.551" fill="none"></rect></clipPath><clipPath id="clip-path-17"><path id="Path_144440" data-name="Path 144440" d="M896.838,617.583a4.423,4.423,0,0,0-2.206-.519h-3.041a4.443,4.443,0,0,0-2.183.52,1.327,1.327,0,0,0-.014,2.512,4.421,4.421,0,0,0,2.2.519h3.041a4.443,4.443,0,0,0,2.19-.52,1.327,1.327,0,0,0,.015-2.511" transform="translate(-888.504 -617.063)" fill="none"></path></clipPath><linearGradient id="linear-gradient-8" x1="-17.833" y1="14.56" x2="-17.813" y2="14.56" gradientUnits="objectBoundingBox"><stop offset="0" stop-color="#c2c8e7"></stop><stop offset="0.421" stop-color="#c2c8e7"></stop><stop offset="0.72" stop-color="#e3e6f4"></stop><stop offset="1" stop-color="#fff"></stop></linearGradient><clipPath id="clip-path-18"><path id="Path_144441" data-name="Path 144441" d="M893.716,615.066a4.775,4.775,0,0,1-4.334,0,1.521,1.521,0,0,1-.891-1.247l0,2.411a1.522,1.522,0,0,0,.891,1.247,4.776,4.776,0,0,0,4.334,0,1.533,1.533,0,0,0,.905-1.264l0-2.411a1.533,1.533,0,0,1-.905,1.264" transform="translate(-888.491 -613.802)" fill="none"></path></clipPath><linearGradient id="linear-gradient-9" x1="-28.622" y1="12.012" x2="-28.59" y2="12.012" gradientUnits="objectBoundingBox"><stop offset="0" stop-color="#e19100"></stop><stop offset="1" stop-color="#fcba06"></stop></linearGradient><clipPath id="clip-path-21"><path id="Path_144444" data-name="Path 144444" d="M834.49,653.58a4.421,4.421,0,0,0-2.206-.519h-3.041a4.445,4.445,0,0,0-2.183.519,1.327,1.327,0,0,0-.014,2.512,4.42,4.42,0,0,0,2.2.519h3.041a4.445,4.445,0,0,0,2.19-.52,1.327,1.327,0,0,0,.015-2.511" transform="translate(-826.156 -653.06)" fill="none"></path></clipPath><linearGradient id="linear-gradient-10" x1="-16.58" y1="12.562" x2="-16.56" y2="12.562" xlink:href="#linear-gradient-8"></linearGradient><clipPath id="clip-path-22"><path id="Path_144445" data-name="Path 144445" d="M831.367,651.063a4.774,4.774,0,0,1-4.334,0,1.523,1.523,0,0,1-.891-1.246l0,2.41a1.521,1.521,0,0,0,.891,1.247,4.776,4.776,0,0,0,4.334,0,1.533,1.533,0,0,0,.905-1.264l0-2.411a1.533,1.533,0,0,1-.905,1.264" transform="translate(-826.142 -649.799)" fill="none"></path></clipPath><linearGradient id="linear-gradient-11" x1="-26.614" y1="10.383" x2="-26.581" y2="10.383" gradientUnits="objectBoundingBox"><stop offset="0" stop-color="#362e94"></stop><stop offset="0.887" stop-color="#524dc5"></stop><stop offset="1" stop-color="#5652cc"></stop></linearGradient><clipPath id="clip-path-25"><path id="Path_144448" data-name="Path 144448" d="M473.714,861.877a4.423,4.423,0,0,0-2.205-.519h-3.041a4.443,4.443,0,0,0-2.183.519,1.327,1.327,0,0,0-.014,2.512,4.42,4.42,0,0,0,2.2.519h3.041a4.446,4.446,0,0,0,2.19-.52,1.327,1.327,0,0,0,.015-2.511" transform="translate(-465.38 -861.357)" fill="none"></path></clipPath><linearGradient id="linear-gradient-12" x1="-9.326" y1="0.999" x2="-9.306" y2="0.999" xlink:href="#linear-gradient-8"></linearGradient><clipPath id="clip-path-26"><path id="Path_144449" data-name="Path 144449" d="M470.593,859.36a4.776,4.776,0,0,1-4.335,0,1.521,1.521,0,0,1-.891-1.246l0,2.41a1.522,1.522,0,0,0,.891,1.247,4.4,4.4,0,0,0,2.151.52h.026a4.43,4.43,0,0,0,2.158-.52,1.533,1.533,0,0,0,.905-1.264l0-2.411a1.533,1.533,0,0,1-.9,1.264" transform="translate(-465.367 -858.096)" fill="none"></path></clipPath><linearGradient id="linear-gradient-13" x1="-14.992" y1="1" x2="-14.96" y2="1" xlink:href="#linear-gradient-11"></linearGradient><clipPath id="clip-path-29"><path id="Path_144452" data-name="Path 144452" d="M288.227,754.783a4.422,4.422,0,0,0-2.206-.519h-3.041a4.444,4.444,0,0,0-2.183.52,1.327,1.327,0,0,0-.014,2.512,4.417,4.417,0,0,0,2.2.519h3.041a4.441,4.441,0,0,0,2.191-.52,1.327,1.327,0,0,0,.015-2.511" transform="translate(-279.893 -754.263)" fill="none"></path></clipPath><linearGradient id="linear-gradient-14" x1="-5.597" y1="6.943" x2="-5.577" y2="6.943" xlink:href="#linear-gradient-8"></linearGradient><clipPath id="clip-path-30"><path id="Path_144453" data-name="Path 144453" d="M285.106,752.266a4.776,4.776,0,0,1-4.335,0,1.522,1.522,0,0,1-.891-1.247l0,2.411a1.52,1.52,0,0,0,.891,1.247,4.777,4.777,0,0,0,4.334,0,1.534,1.534,0,0,0,.905-1.265l0-2.411a1.533,1.533,0,0,1-.9,1.264" transform="translate(-279.88 -751.002)" fill="none"></path></clipPath><linearGradient id="linear-gradient-15" x1="-9.016" y1="5.805" x2="-8.984" y2="5.805" xlink:href="#linear-gradient-11"></linearGradient><clipPath id="clip-path-32"><rect id="Rectangle_50733" data-name="Rectangle 50733" width="39.562" height="43.935" fill="none"></rect></clipPath><clipPath id="clip-path-33"><rect id="Rectangle_50736" data-name="Rectangle 50736" width="35.042" height="34.871" fill="none"></rect></clipPath><clipPath id="clip-path-35"><rect id="Rectangle_50734" data-name="Rectangle 50734" width="7.805" height="10.824" fill="none"></rect></clipPath></defs><g id="Group_166117" data-name="Group 166117" transform="translate(-84.485 -4915.672)" style="isolation: isolate"><g id="Group_152353" data-name="Group 152353" transform="translate(84.485 4915.672)"><g id="Group_151418" data-name="Group 151418" transform="translate(0 17.301)"><g id="Group_151417" data-name="Group 151417" clip-path="url(#clip-path)"><path id="Path_144386" data-name="Path 144386" d="M576.578,201.659l39-22.518V113.9l-39,22.515Z" transform="translate(-462.633 -91.394)" fill="#ced3f8"></path><path id="Path_144387" data-name="Path 144387" d="M418.248,201.659l-39-22.518V113.9l39,22.515Z" transform="translate(-304.302 -91.394)" fill="#a9b0e0"></path><path id="Path_144388" data-name="Path 144388" d="M418.247,0l-39,22.51,39,22.515,39-22.515Z" transform="translate(-304.302 0)" fill="#e9e8ff"></path><path id="Path_144389" data-name="Path 144389" d="M514.554,86.917,499.275,78.1l15.279-8.82,15.282,8.82Z" transform="translate(-400.606 -55.585)" fill="#dad9ed"></path><path id="Path_144390" data-name="Path 144390" d="M431.754,190.793l-30.17-17.421v-2.528l30.17,17.419Z" transform="translate(-322.222 -137.081)" fill="#423eaf"></path><path id="Path_144391" data-name="Path 144391" d="M431.754,222.533l-30.17-17.421v-2.528L431.754,220Z" transform="translate(-322.222 -162.549)" fill="#423eaf"></path><path id="Path_144392" data-name="Path 144392" d="M431.754,254.274l-30.17-17.421v-2.528l30.17,17.419Z" transform="translate(-322.222 -188.016)" fill="#423eaf"></path><path id="Path_144393" data-name="Path 144393" d="M431.754,286.014l-30.17-17.421v-2.528l30.17,17.419Z" transform="translate(-322.222 -213.484)" fill="#423eaf"></path><path id="Path_144394" data-name="Path 144394" d="M431.754,317.754l-30.17-17.421V297.8l30.17,17.419Z" transform="translate(-322.222 -238.951)" fill="#423eaf"></path><path id="Path_144395" data-name="Path 144395" d="M630.447,186.755l-29.289,16.91V192.5l29.289-16.91Z" transform="translate(-482.355 -140.892)" fill="#362e94"></path><path id="Path_144396" data-name="Path 144396" d="M611.73,237.985l12.555-7.249v2.316L611.73,240.3Z" transform="translate(-490.838 -185.138)" fill="#5652cc"></path><path id="Path_144397" data-name="Path 144397" d="M618.564,252.09l9.854-5.689v.97l-9.854,5.689Z" transform="translate(-496.321 -197.706)" fill="#20196f"></path><g id="Group_151357" data-name="Group 151357"><g id="Group_151356" data-name="Group 151356" clip-path="url(#clip-path)"><path id="Path_144398" data-name="Path 144398" d="M686.569,222.824a1.754,1.754,0,0,1,.793-1.374c.438-.253.793-.048.793.458a1.754,1.754,0,0,1-.793,1.374c-.438.253-.793.048-.793-.458" transform="translate(-550.886 -177.599)" fill="#5652cc"></path><path id="Path_144399" data-name="Path 144399" d="M703.6,212.989a1.754,1.754,0,0,1,.794-1.374c.438-.253.793-.048.793.458a1.754,1.754,0,0,1-.793,1.374c-.438.253-.794.048-.794-.458" transform="translate(-564.553 -169.708)" fill="#ffd03e"></path><path id="Path_144400" data-name="Path 144400" d="M720.636,203.155a1.753,1.753,0,0,1,.793-1.374c.438-.253.793-.048.793.458a1.754,1.754,0,0,1-.793,1.374c-.438.253-.793.048-.793-.458" transform="translate(-578.221 -161.817)" fill="#5652cc"></path><path id="Path_144401" data-name="Path 144401" d="M687.362,243.351l-.793.458v-5.581l.793-.458Z" transform="translate(-550.886 -190.781)" fill="#20196f"></path><path id="Path_144402" data-name="Path 144402" d="M704.4,233.517l-.794.458v-5.581l.794-.458Z" transform="translate(-564.553 -182.891)" fill="#20196f"></path><path id="Path_144403" data-name="Path 144403" d="M721.429,223.683l-.793.458V218.56l.793-.458Z" transform="translate(-578.22 -175)" fill="#20196f"></path><path id="Path_144404" data-name="Path 144404" d="M630.447,260.134l-29.289,16.91V265.882l29.289-16.91Z" transform="translate(-482.355 -199.769)" fill="#362e94"></path><path id="Path_144405" data-name="Path 144405" d="M611.73,311.364l12.555-7.249v2.316L611.73,313.68Z" transform="translate(-490.838 -244.014)" fill="#5652cc"></path><path id="Path_144406" data-name="Path 144406" d="M618.564,325.468l9.854-5.689v.97l-9.854,5.689Z" transform="translate(-496.321 -256.583)" fill="#20196f"></path><path id="Path_144407" data-name="Path 144407" d="M686.569,296.2a1.753,1.753,0,0,1,.793-1.374c.438-.253.793-.048.793.458a1.754,1.754,0,0,1-.793,1.374c-.438.253-.793.048-.793-.458" transform="translate(-550.886 -236.476)" fill="#ffd03e"></path><path id="Path_144408" data-name="Path 144408" d="M703.6,286.368a1.754,1.754,0,0,1,.794-1.374c.438-.253.793-.048.793.458a1.754,1.754,0,0,1-.793,1.374c-.438.253-.794.048-.794-.458" transform="translate(-564.553 -228.585)" fill="#5652cc"></path><path id="Path_144409" data-name="Path 144409" d="M720.636,276.533a1.753,1.753,0,0,1,.793-1.374c.438-.253.793-.048.793.458a1.754,1.754,0,0,1-.793,1.374c-.438.253-.793.048-.793-.458" transform="translate(-578.221 -220.694)" fill="#ffd03e"></path><path id="Path_144410" data-name="Path 144410" d="M687.362,316.73l-.793.458v-5.581l.793-.458Z" transform="translate(-550.886 -249.658)" fill="#20196f"></path><path id="Path_144411" data-name="Path 144411" d="M704.4,306.9l-.794.458v-5.581l.794-.458Z" transform="translate(-564.553 -241.768)" fill="#20196f"></path><path id="Path_144412" data-name="Path 144412" d="M721.429,297.061l-.793.458v-5.581l.793-.458Z" transform="translate(-578.22 -233.877)" fill="#20196f"></path><path id="Path_144413" data-name="Path 144413" d="M630.447,333.512l-29.289,16.91V339.26l29.289-16.91Z" transform="translate(-482.355 -258.646)" fill="#362e94"></path><path id="Path_144414" data-name="Path 144414" d="M611.73,384.741l12.555-7.249v2.316l-12.555,7.249Z" transform="translate(-490.838 -302.891)" fill="#5652cc"></path><path id="Path_144415" data-name="Path 144415" d="M618.564,398.846l9.854-5.689v.97l-9.854,5.689Z" transform="translate(-496.321 -315.46)" fill="#20196f"></path><path id="Path_144416" data-name="Path 144416" d="M686.569,369.58a1.753,1.753,0,0,1,.793-1.374c.438-.253.793-.048.793.458a1.754,1.754,0,0,1-.793,1.374c-.438.253-.793.048-.793-.458" transform="translate(-550.886 -295.353)" fill="#5652cc"></path><path id="Path_144417" data-name="Path 144417" d="M703.6,359.746a1.753,1.753,0,0,1,.794-1.374c.438-.253.793-.048.793.458a1.754,1.754,0,0,1-.793,1.374c-.438.253-.794.048-.794-.458" transform="translate(-564.553 -287.462)" fill="#5652cc"></path><path id="Path_144418" data-name="Path 144418" d="M720.636,349.912a1.754,1.754,0,0,1,.793-1.374c.438-.253.793-.048.793.458a1.754,1.754,0,0,1-.793,1.374c-.438.253-.793.048-.793-.458" transform="translate(-578.221 -279.572)" fill="#ffd03e"></path><path id="Path_144419" data-name="Path 144419" d="M687.362,390.108l-.793.458v-5.581l.793-.458Z" transform="translate(-550.886 -308.535)" fill="#20196f"></path><path id="Path_144420" data-name="Path 144420" d="M704.4,380.274l-.794.458v-5.581l.794-.458Z" transform="translate(-564.553 -300.644)" fill="#20196f"></path><path id="Path_144421" data-name="Path 144421" d="M721.429,370.439l-.793.458v-5.581l.793-.458Z" transform="translate(-578.22 -292.754)" fill="#20196f"></path><path id="Path_144423" data-name="Path 144423" d="M15.853,300.161c.636.367,1.259.782,1.875,1.222.3-11.114,8.3-15.55,18.157-9.861a30.061,30.061,0,0,1,5.641,4.288c3.749-4.3,10.115-4.9,17.361-.712,11.048,6.378,20.067,21.491,20.819,34.462a20.226,20.226,0,0,1,5.98,2.368c10.8,6.236,19.556,21.4,19.556,33.872,0,.6-.032,1.178-.078,1.741-.791,11.177-9.2,15.484-19.478,9.55L15.853,336.772C7.1,331.717,0,319.423,0,309.314s7.1-14.208,15.853-9.153" transform="translate(0 -231.921)" fill="#ced3f8"></path></g></g><g id="Group_151359" data-name="Group 151359" transform="translate(44.703 51.586)"><g id="Group_151358" data-name="Group 151358" clip-path="url(#clip-path-5)"><rect id="Rectangle_51029" data-name="Rectangle 51029" width="66.462" height="64.961" transform="matrix(0.866, -0.5, 0.5, 0.866, -19.942, 11.513)" fill="url(#linear-gradient)"></rect></g></g><g id="Group_151361" data-name="Group 151361" transform="translate(4.694 57.332)"><g id="Group_151360" data-name="Group 151360" clip-path="url(#clip-path-6)"><rect id="Rectangle_51030" data-name="Rectangle 51030" width="20.032" height="12.131" fill="url(#linear-gradient-2)"></rect></g></g><g id="Group_151363" data-name="Group 151363" transform="translate(79.708 88.893)"><g id="Group_151362" data-name="Group 151362" clip-path="url(#clip-path-7)"><rect id="Rectangle_51031" data-name="Rectangle 51031" width="64.004" height="70.172" transform="matrix(0.866, -0.5, 0.5, 0.866, -24.915, 14.385)" fill="url(#linear-gradient-3)"></rect></g></g><g id="Group_151365" data-name="Group 151365" transform="translate(23.199 48.378)"><g id="Group_151364" data-name="Group 151364" clip-path="url(#clip-path-8)"><rect id="Rectangle_51032" data-name="Rectangle 51032" width="36.385" height="29.962" transform="translate(-6.717 3.878) rotate(-30)" fill="url(#linear-gradient-4)"></rect></g></g><g id="Group_151367" data-name="Group 151367" transform="translate(130.468 88.051)"><g id="Group_151366" data-name="Group 151366" clip-path="url(#clip-path-9)"><rect id="Rectangle_51033" data-name="Rectangle 51033" width="7.954" height="8.128" transform="matrix(0.5, -0.866, 0.866, 0.5, -2.446, 4.236)" fill="url(#linear-gradient-5)"></rect></g></g><g id="Group_151369" data-name="Group 151369"><g id="Group_151368" data-name="Group 151368" clip-path="url(#clip-path)"><path id="Path_144429" data-name="Path 144429" d="M682.381,457.762c0-.864-.607-1.214-1.355-.782a2.994,2.994,0,0,0-1.354,2.346c0,.864.606,1.214,1.354.782a2.994,2.994,0,0,0,1.355-2.346" transform="translate(-545.352 -366.521)" fill="#362e94"></path></g></g><g id="Group_151371" data-name="Group 151371" transform="translate(118.803 95.545)"><g id="Group_151370" data-name="Group 151370" clip-path="url(#clip-path-11)"><rect id="Rectangle_51035" data-name="Rectangle 51035" width="7.954" height="8.128" transform="matrix(0.5, -0.866, 0.866, 0.5, -2.446, 4.236)" fill="url(#linear-gradient-6)"></rect></g></g><g id="Group_151376" data-name="Group 151376"><g id="Group_151375" data-name="Group 151375" clip-path="url(#clip-path)"><path id="Path_144431" data-name="Path 144431" d="M623.356,495.678c0-.864-.607-1.214-1.355-.782a3,3,0,0,0-1.354,2.346c0,.864.606,1.214,1.354.782a2.994,2.994,0,0,0,1.355-2.346" transform="translate(-497.992 -396.944)" fill="#362e94"></path><g id="Group_151374" data-name="Group 151374" transform="translate(76.289 132.325)" style="mix-blend-mode: multiply;isolation: isolate"><g id="Group_151373" data-name="Group 151373"><g id="Group_151372" data-name="Group 151372" clip-path="url(#clip-path-13)"><path id="Path_144432" data-name="Path 144432" d="M386.031,670.547c0-.864.607-1.214,1.355-.782a2.994,2.994,0,0,1,1.355,2.346c0,.864-.606,1.214-1.355.782a2.994,2.994,0,0,1-1.355-2.346" transform="translate(-386.031 -669.58)" fill="#dfe4f4"></path></g></g></g></g></g><g id="Group_151378" data-name="Group 151378" transform="translate(74.271 131.319)"><g id="Group_151377" data-name="Group 151377" clip-path="url(#clip-path-14)"><rect id="Rectangle_51038" data-name="Rectangle 51038" width="5.747" height="5.919" transform="matrix(0.866, -0.5, 0.5, 0.866, -1.951, 1.126)" fill="url(#linear-gradient-7)"></rect></g></g><g id="Group_151385" data-name="Group 151385"><g id="Group_151384" data-name="Group 151384" clip-path="url(#clip-path)"><path id="Path_144434" data-name="Path 144434" d="M373.613,670.916c0-.864.607-1.214,1.355-.782a2.994,2.994,0,0,1,1.355,2.346c0,.864-.607,1.214-1.355.782a2.994,2.994,0,0,1-1.355-2.346" transform="translate(-299.778 -537.551)" fill="#362e94"></path><path id="Path_144435" data-name="Path 144435" d="M331.533,783.763a.393.393,0,0,1-.2-.053l-37.623-21.722a.4.4,0,1,1,.4-.685l37.623,21.722a.4.4,0,0,1-.2.738" transform="translate(-235.51 -610.809)" fill="#807dfb"></path><path id="Path_144436" data-name="Path 144436" d="M479.4,673.344a.4.4,0,0,1-.2-.737l83.524-48.222a.4.4,0,0,1,.4.685l-83.524,48.222a.393.393,0,0,1-.2.053" transform="translate(-384.339 -500.948)" fill="#807dfb"></path><path id="Path_144437" data-name="Path 144437" d="M668.242,533.673a.393.393,0,0,1-.2-.053l-30.012-17.328a4.456,4.456,0,0,1-2.222-3.849v-2.329a3.434,3.434,0,0,0-1.712-2.966l-8.4-4.85a.4.4,0,1,1,.4-.685l8.4,4.85a4.227,4.227,0,0,1,2.107,3.651v2.329a3.663,3.663,0,0,0,1.827,3.164l30.012,17.328a.4.4,0,0,1-.2.738" transform="translate(-501.887 -402.441)" fill="#807dfb"></path><path id="Path_144438" data-name="Path 144438" d="M293.911,694.279a.4.4,0,0,1-.2-.736l9.3-5.47a3.667,3.667,0,0,0,1.8-3.149v-2.351a4.226,4.226,0,0,1,2.107-3.65l3.587-2.071a.4.4,0,1,1,.4.685l-3.586,2.071a3.434,3.434,0,0,0-1.712,2.965v2.351a4.46,4.46,0,0,1-2.19,3.83l-9.3,5.47a.4.4,0,0,1-.2.055" transform="translate(-235.51 -543.047)" fill="#807dfb"></path><path id="Path_144439" data-name="Path 144439" d="M727.266,495.758a.392.392,0,0,1-.2-.053l-30.012-17.327a4.457,4.457,0,0,1-2.222-3.849V472.2a3.434,3.434,0,0,0-1.712-2.966l-8.4-4.85a.4.4,0,1,1,.4-.685l8.4,4.849a4.227,4.227,0,0,1,2.108,3.65v2.329a3.664,3.664,0,0,0,1.827,3.164l30.012,17.328a.4.4,0,0,1-.2.738" transform="translate(-549.246 -372.019)" fill="#807dfb"></path><g id="Group_151383" data-name="Group 151383" transform="translate(175.59 121.947)" style="mix-blend-mode: multiply;isolation: isolate"><g id="Group_151382" data-name="Group 151382"><g id="Group_151381" data-name="Group 151381" clip-path="url(#clip-path-16)"><g id="Group_151380" data-name="Group 151380" transform="translate(0 0)"><g id="Group_151379" data-name="Group 151379" clip-path="url(#clip-path-17)"><rect id="Rectangle_51039" data-name="Rectangle 51039" width="9.829" height="3.56" transform="translate(-0.303 -0.005)" fill="url(#linear-gradient-8)"></rect></g></g></g></g></g></g></g><g id="Group_151387" data-name="Group 151387" transform="translate(175.587 121.302)"><g id="Group_151386" data-name="Group 151386" clip-path="url(#clip-path-18)"><rect id="Rectangle_51042" data-name="Rectangle 51042" width="6.135" height="4.369" transform="translate(0 0)" fill="url(#linear-gradient-9)"></rect></g></g><g id="Group_151394" data-name="Group 151394"><g id="Group_151393" data-name="Group 151393" clip-path="url(#clip-path)"><path id="Path_144442" data-name="Path 144442" d="M893.717,607.908a1.327,1.327,0,0,0,.015-2.511,4.778,4.778,0,0,0-4.336,0,1.327,1.327,0,0,0-.014,2.511,4.776,4.776,0,0,0,4.335,0" transform="translate(-712.904 -485.339)" fill="#ffd03e"></path><path id="Path_144443" data-name="Path 144443" d="M900.678,611.938a.429.429,0,0,0,.005-.812,1.545,1.545,0,0,0-1.4,0,.429.429,0,0,0,0,.812,1.544,1.544,0,0,0,1.4,0" transform="translate(-721.327 -490.218)" fill="#ffe950"></path><g id="Group_151392" data-name="Group 151392" transform="translate(163.268 129.06)" style="mix-blend-mode: multiply;isolation: isolate"><g id="Group_151391" data-name="Group 151391"><g id="Group_151390" data-name="Group 151390" clip-path="url(#clip-path-16)"><g id="Group_151389" data-name="Group 151389" transform="translate(0)"><g id="Group_151388" data-name="Group 151388" clip-path="url(#clip-path-21)"><rect id="Rectangle_51043" data-name="Rectangle 51043" width="9.829" height="3.56" transform="translate(-0.303 -0.005)" fill="url(#linear-gradient-10)"></rect></g></g></g></g></g></g></g><g id="Group_151396" data-name="Group 151396" transform="translate(163.266 128.416)"><g id="Group_151395" data-name="Group 151395" clip-path="url(#clip-path-22)"><rect id="Rectangle_51046" data-name="Rectangle 51046" width="6.135" height="4.369" transform="translate(0 0)" fill="url(#linear-gradient-11)"></rect></g></g><g id="Group_151403" data-name="Group 151403"><g id="Group_151402" data-name="Group 151402" clip-path="url(#clip-path)"><path id="Path_144446" data-name="Path 144446" d="M831.369,643.905a1.327,1.327,0,0,0,.015-2.511,4.778,4.778,0,0,0-4.336,0,1.327,1.327,0,0,0-.014,2.511,4.776,4.776,0,0,0,4.335,0" transform="translate(-662.878 -514.222)" fill="#807dfb"></path><path id="Path_144447" data-name="Path 144447" d="M838.33,647.935a.429.429,0,0,0,0-.811,1.545,1.545,0,0,0-1.4,0,.429.429,0,0,0,0,.812,1.543,1.543,0,0,0,1.4,0" transform="translate(-671.301 -519.101)" fill="#6b67e9"></path><g id="Group_151401" data-name="Group 151401" transform="translate(91.97 170.225)" style="mix-blend-mode: multiply;isolation: isolate"><g id="Group_151400" data-name="Group 151400"><g id="Group_151399" data-name="Group 151399" clip-path="url(#clip-path-16)"><g id="Group_151398" data-name="Group 151398" transform="translate(0 0)"><g id="Group_151397" data-name="Group 151397" clip-path="url(#clip-path-25)"><rect id="Rectangle_51047" data-name="Rectangle 51047" width="9.829" height="3.56" transform="translate(-0.303 -0.005)" fill="url(#linear-gradient-12)"></rect></g></g></g></g></g></g></g><g id="Group_151405" data-name="Group 151405" transform="translate(91.968 169.581)"><g id="Group_151404" data-name="Group 151404" clip-path="url(#clip-path-26)"><rect id="Rectangle_51050" data-name="Rectangle 51050" width="6.135" height="4.195" transform="translate(0 0)" fill="url(#linear-gradient-13)"></rect></g></g><g id="Group_151412" data-name="Group 151412"><g id="Group_151411" data-name="Group 151411" clip-path="url(#clip-path)"><path id="Path_144450" data-name="Path 144450" d="M470.592,852.2a1.327,1.327,0,0,0,.015-2.511,4.778,4.778,0,0,0-4.336,0,1.327,1.327,0,0,0-.014,2.511,4.776,4.776,0,0,0,4.335,0" transform="translate(-373.399 -681.354)" fill="#807dfb"></path><path id="Path_144451" data-name="Path 144451" d="M477.554,856.232a.429.429,0,0,0,0-.811,1.544,1.544,0,0,0-1.4,0,.429.429,0,0,0,0,.812,1.544,1.544,0,0,0,1.4,0" transform="translate(-381.823 -686.233)" fill="#6b67e9"></path><g id="Group_151410" data-name="Group 151410" transform="translate(55.314 149.061)" style="mix-blend-mode: multiply;isolation: isolate"><g id="Group_151409" data-name="Group 151409"><g id="Group_151408" data-name="Group 151408" clip-path="url(#clip-path-16)"><g id="Group_151407" data-name="Group 151407" transform="translate(0 0)"><g id="Group_151406" data-name="Group 151406" clip-path="url(#clip-path-29)"><rect id="Rectangle_51051" data-name="Rectangle 51051" width="9.829" height="3.56" transform="translate(-0.303 -0.005)" fill="url(#linear-gradient-14)"></rect></g></g></g></g></g></g></g><g id="Group_151414" data-name="Group 151414" transform="translate(55.311 148.416)"><g id="Group_151413" data-name="Group 151413" clip-path="url(#clip-path-30)"><rect id="Rectangle_51054" data-name="Rectangle 51054" width="6.135" height="4.369" transform="translate(0 0)" fill="url(#linear-gradient-15)"></rect></g></g><g id="Group_151416" data-name="Group 151416"><g id="Group_151415" data-name="Group 151415" clip-path="url(#clip-path)"><path id="Path_144454" data-name="Path 144454" d="M285.106,745.109a1.327,1.327,0,0,0,.015-2.511,4.777,4.777,0,0,0-4.336,0,1.327,1.327,0,0,0-.014,2.511,4.776,4.776,0,0,0,4.334,0" transform="translate(-224.569 -595.425)" fill="#807dfb"></path><path id="Path_144455" data-name="Path 144455" d="M292.067,749.139a.429.429,0,0,0,0-.811,1.544,1.544,0,0,0-1.4,0,.429.429,0,0,0,0,.812,1.544,1.544,0,0,0,1.4,0" transform="translate(-232.993 -600.305)" fill="#6b67e9"></path></g></g></g></g><g id="Group_150839" data-name="Group 150839" transform="translate(101.082)"><g id="Group_150838" data-name="Group 150838" clip-path="url(#clip-path-32)"><path id="Path_144092" data-name="Path 144092" d="M15.1,30.655l11.6-6.7a2.3,2.3,0,0,0,0-3.983L15.354,13.424a2.3,2.3,0,0,0-3.642,1.88V28.629A2.3,2.3,0,0,0,15.1,30.655m1.968-20.076,14.887,8.595a3.032,3.032,0,0,0,3.032,0l.1-.059a2.3,2.3,0,0,0,0-3.983L15.354,3.735a2.3,2.3,0,0,0-3.642,1.88v.222a.534.534,0,0,1-.8.463L8.757,5.057A.536.536,0,0,1,8.5,4.491a5.636,5.636,0,0,1,8.573-3.6L36.754,12.255a5.623,5.623,0,0,1,.04,9.712h0L13.331,35.514a3.237,3.237,0,0,0-1.619,2.8A2.3,2.3,0,0,0,15.354,40.2L35.093,28.8a2.3,2.3,0,0,0,0-3.983l-.192-.111a.534.534,0,0,1,0-.925l2.15-1.242a.535.535,0,0,1,.62.06,5.627,5.627,0,0,1-.917,9.078L17.071,43.043a5.625,5.625,0,0,1-8.68-4.676l0,0V11.051A2.854,2.854,0,0,0,6.963,8.58a2.3,2.3,0,0,0-3.642,1.881V33.473a2.3,2.3,0,0,0,3.642,1.882.534.534,0,0,1,.8.463v2.474A.535.535,0,0,1,7.4,38.8,5.6,5.6,0,0,1,0,33.473V10.461a5.619,5.619,0,0,1,8.39-4.9l8.681,5.014" transform="translate(0 0)" fill="#46237a" fill-rule="evenodd"></path><path id="Path_144093" data-name="Path 144093" d="M181.97,216.634a.848.848,0,0,0,1.341.694l7.276-4.2a.848.848,0,0,0,0-1.469l-7.276-4.2a.848.848,0,0,0-1.341.694Z" transform="translate(-167.207 -190.483)" fill="#18f040"></path></g></g></g><g id="Group_150847" data-name="Group 150847" transform="translate(98.311 5033.196)"><g id="Group_150845" data-name="Group 150845" clip-path="url(#clip-path-33)"><path id="Path_144094" data-name="Path 144094" d="M18.271,0,0,10.55l16.771,9.682L35.042,9.682Z" transform="translate(0)" fill="#f1f1f6"></path><path id="Path_144095" data-name="Path 144095" d="M0,78.768,16.771,88.45V73.812L0,64.13Z" transform="translate(0 -53.579)" fill="#ced3f8"></path><path id="Path_144096" data-name="Path 144096" d="M101.938,69.4V84.042l18.271-10.55V58.854Z" transform="translate(-85.166 -49.171)" fill="#bbc0e6"></path><path id="Path_144097" data-name="Path 144097" d="M48.228,28.622,65,38.305l-2.611,1.508L45.617,30.129Z" transform="translate(-38.112 -23.913)" fill="#fff"></path><path id="Path_144098" data-name="Path 144098" d="M150.163,87.479V89.42l-2.611,1.507v-1.94Z" transform="translate(-123.276 -73.087)" fill="#dfe4f4"></path><g id="Group_150844" data-name="Group 150844"><g id="Group_150843" data-name="Group 150843" clip-path="url(#clip-path-33)"><g id="Group_150842" data-name="Group 150842" transform="translate(1.737 14.114)" style="mix-blend-mode: multiply;isolation: isolate"><g id="Group_150841" data-name="Group 150841"><g id="Group_150840" data-name="Group 150840" clip-path="url(#clip-path-35)"><path id="Path_144099" data-name="Path 144099" d="M10.556,92.107l7.805,4.506V90.3l-7.8-4.506Z" transform="translate(-10.556 -85.789)" fill="#e8ecf7"></path></g></g></g></g></g></g></g><g id="Group_150848" data-name="Group 150848" transform="translate(237.247 5037.933)"><g id="Group_150845-2" data-name="Group 150845" clip-path="url(#clip-path-33)"><path id="Path_144094-2" data-name="Path 144094" d="M18.271,0,0,10.55l16.771,9.682L35.042,9.682Z" transform="translate(0)" fill="#f1f1f6"></path><path id="Path_144095-2" data-name="Path 144095" d="M0,78.768,16.771,88.45V73.812L0,64.13Z" transform="translate(0 -53.579)" fill="#ced3f8"></path><path id="Path_144096-2" data-name="Path 144096" d="M101.938,69.4V84.042l18.271-10.55V58.854Z" transform="translate(-85.166 -49.171)" fill="#bbc0e6"></path><path id="Path_144097-2" data-name="Path 144097" d="M48.228,28.622,65,38.305l-2.611,1.508L45.617,30.129Z" transform="translate(-38.112 -23.913)" fill="#fff"></path><path id="Path_144098-2" data-name="Path 144098" d="M150.163,87.479V89.42l-2.611,1.507v-1.94Z" transform="translate(-123.276 -73.087)" fill="#dfe4f4"></path><g id="Group_150844-2" data-name="Group 150844"><g id="Group_150843-2" data-name="Group 150843" clip-path="url(#clip-path-33)"><g id="Group_150842-2" data-name="Group 150842" transform="translate(1.737 14.114)" style="mix-blend-mode: multiply;isolation: isolate"><g id="Group_150841-2" data-name="Group 150841"><g id="Group_150840-2" data-name="Group 150840" clip-path="url(#clip-path-35)"><path id="Path_144099-2" data-name="Path 144099" d="M10.556,92.107l7.805,4.506V90.3l-7.8-4.506Z" transform="translate(-10.556 -85.789)" fill="#e8ecf7"></path></g></g></g></g></g></g></g></g></svg> 