<?xml version="1.0" encoding="UTF-8"?> <svg xmlns="http://www.w3.org/2000/svg" xmlns:xlink="http://www.w3.org/1999/xlink" width="219.011" height="194.844" viewBox="0 0 219.011 194.844"><defs><clipPath id="clip-path"><rect id="Rectangle_50778" data-name="Rectangle 50778" width="219.011" height="190.844" fill="none"></rect></clipPath><clipPath id="clip-path-2"><rect id="Rectangle_50775" data-name="Rectangle 50775" width="22.355" height="10.727" fill="none"></rect></clipPath><clipPath id="clip-path-4"><path id="Path_144251" data-name="Path 144251" d="M275.164,648.569c-.486-.019-.99-.031-1.526-.031-6.966,0-15.431,1.629-18.913,3.638-1.741,1.006-1.9,1.914-.767,2.574a5.289,5.289,0,0,0,1.152.458c-.291.137-.566.276-.811.417-1.74,1.006-1.9,1.914-.767,2.573s3.59,1.067,7.069,1.067a57.732,57.732,0,0,0,14.562-1.957Z" transform="translate(-252.809 -648.538)" fill="none"></path></clipPath><linearGradient id="linear-gradient" x1="-2.77" y1="2.61" x2="-2.759" y2="2.61" gradientUnits="objectBoundingBox"><stop offset="0" stop-color="#c4cae9"></stop><stop offset="1" stop-color="#fff"></stop></linearGradient><clipPath id="clip-path-6"><path id="Path_144270" data-name="Path 144270" d="M244.437,487.35l-5.323,19.723,18.758-10.83V479.594Z" transform="translate(-239.114 -479.594)" fill="none"></path></clipPath><linearGradient id="linear-gradient-2" x1="-3.201" y1="1.301" x2="-3.187" y2="1.301" gradientUnits="objectBoundingBox"><stop offset="0" stop-color="#131147"></stop><stop offset="0.503" stop-color="#25206f"></stop><stop offset="1" stop-color="#362e94"></stop></linearGradient><clipPath id="clip-path-8"><path id="Path_144277" data-name="Path 144277" d="M71.556,443.918l37.319,21.547,5.54-20.526L77.1,423.392Z" transform="translate(-71.556 -423.392)" fill="none"></path></clipPath><linearGradient id="linear-gradient-3" x1="-0.419" y1="2.009" x2="-0.413" y2="2.009" gradientUnits="objectBoundingBox"><stop offset="0" stop-color="#423eaf"></stop><stop offset="0.013" stop-color="#423eaf"></stop><stop offset="0.082" stop-color="#3a379f"></stop><stop offset="0.245" stop-color="#2c297f"></stop><stop offset="0.414" stop-color="#211e66"></stop><stop offset="0.591" stop-color="#191754"></stop><stop offset="0.78" stop-color="#14124a"></stop><stop offset="1" stop-color="#131147"></stop></linearGradient><clipPath id="clip-path-10"><rect id="Rectangle_50783" data-name="Rectangle 50783" width="39.892" height="28.591" fill="none"></rect></clipPath><clipPath id="clip-path-11"><path id="Path_144278" data-name="Path 144278" d="M111.448,495.442l-2.572,10.232L71.556,484.128l.759-2.81,7.336-4.235Z" transform="translate(-71.556 -477.083)" fill="none"></path></clipPath><linearGradient id="linear-gradient-4" x1="-0.348" y1="1.662" x2="-0.342" y2="1.662" gradientUnits="objectBoundingBox"><stop offset="0"></stop><stop offset="0.159" stop-color="#010105"></stop><stop offset="0.368" stop-color="#060516"></stop><stop offset="0.606" stop-color="#0e0b31"></stop><stop offset="0.864" stop-color="#191357"></stop><stop offset="1" stop-color="#20196f"></stop></linearGradient><clipPath id="clip-path-12"><rect id="Rectangle_50785" data-name="Rectangle 50785" width="40.59" height="23.569" fill="none"></rect></clipPath><clipPath id="clip-path-13"><path id="Path_144279" data-name="Path 144279" d="M196.44,398.875l-3.967.134-25.752-17.293,10.872-6.277L207.311,392.6Z" transform="translate(-166.721 -375.44)" fill="none"></path></clipPath><linearGradient id="linear-gradient-5" x1="-1.031" y1="4.097" x2="-1.025" y2="4.097" gradientUnits="objectBoundingBox"><stop offset="0" stop-color="#c4cae9"></stop><stop offset="0.278" stop-color="#c8cdea"></stop><stop offset="0.567" stop-color="#d4d8ef"></stop><stop offset="0.861" stop-color="#e9eaf6"></stop><stop offset="1" stop-color="#f6f6fb"></stop></linearGradient><clipPath id="clip-path-14"><rect id="Rectangle_50786" data-name="Rectangle 50786" width="1.867" height="3.466" fill="none"></rect></clipPath><clipPath id="clip-path-15"><rect id="Rectangle_50787" data-name="Rectangle 50787" width="1.448" height="5.194" fill="none"></rect></clipPath><clipPath id="clip-path-16"><rect id="Rectangle_50788" data-name="Rectangle 50788" width="2.92" height="3.771" fill="none"></rect></clipPath><clipPath id="clip-path-17"><path id="Path_144289" data-name="Path 144289" d="M190.242,622.062h0l0,0h0l-.509.294.356.617a3.235,3.235,0,0,0,1.348,2.339l.358.621.512-.3h0a1.027,1.027,0,0,0,.426-.943,3.228,3.228,0,0,0-1.46-2.529,1.323,1.323,0,0,0-.65-.2.756.756,0,0,0-.377.1" transform="translate(-189.726 -621.967)" fill="none"></path></clipPath><linearGradient id="linear-gradient-6" x1="-10.218" y1="7.117" x2="-10.163" y2="7.117" gradientUnits="objectBoundingBox"><stop offset="0" stop-color="#fff"></stop><stop offset="0.177" stop-color="#eceef8"></stop><stop offset="0.499" stop-color="#d1d4ee"></stop><stop offset="0.784" stop-color="#c0c5e8"></stop><stop offset="1" stop-color="#bbc0e6"></stop></linearGradient><clipPath id="clip-path-19"><rect id="Rectangle_50791" data-name="Rectangle 50791" width="1.448" height="5.195" fill="none"></rect></clipPath><clipPath id="clip-path-21"><path id="Path_144296" data-name="Path 144296" d="M73.143,554.456h0l0,0h0l-.509.294.356.617a3.234,3.234,0,0,0,1.348,2.339l.358.621.512-.3h0a1.026,1.026,0,0,0,.426-.943,3.227,3.227,0,0,0-1.46-2.529,1.32,1.32,0,0,0-.65-.2.755.755,0,0,0-.377.095" transform="translate(-72.628 -554.361)" fill="none"></path></clipPath><linearGradient id="linear-gradient-7" x1="-3.805" y1="10.555" x2="-3.75" y2="10.555" xlink:href="#linear-gradient-6"></linearGradient><clipPath id="clip-path-23"><rect id="Rectangle_50795" data-name="Rectangle 50795" width="0.887" height="11.48" fill="none"></rect></clipPath><clipPath id="clip-path-24"><path id="Path_144311" data-name="Path 144311" d="M260.072,37.213l.008-.015c-.063-.032-.13-.057-.194-.091Zm19.47-34.34,0,0-.047-.027c.016.01.029.022.044.031m-.044-.031-.008,0ZM272.5,0a12.671,12.671,0,0,0-6.2,1.9c-7.71,4.453-13.962,15.28-13.962,24.185,0,4.645,1.71,7.831,4.434,9.2l-.009.015L259.6,36.94c-2.444-1.493-3.954-4.577-3.954-8.944,0-8.905,6.252-19.733,13.961-24.185,3.854-2.223,7.34-2.436,9.866-.982L276.24.962l0,0A7.172,7.172,0,0,0,272.567,0Z" transform="translate(-252.344)" fill="none"></path></clipPath><linearGradient id="linear-gradient-8" x1="-1.179" y1="4.585" x2="-1.174" y2="4.585" gradientUnits="objectBoundingBox"><stop offset="0" stop-color="#362e94"></stop><stop offset="0.006" stop-color="#362e94"></stop><stop offset="1" stop-color="#807dfb"></stop></linearGradient><clipPath id="clip-path-25"><rect id="Rectangle_50801" data-name="Rectangle 50801" width="24.013" height="16.764" fill="none"></rect></clipPath><clipPath id="clip-path-26"><path id="Path_144325" data-name="Path 144325" d="M528.78,585.206h0l-15.029-8.284h-8.984l14.688,8.48.342-.2-14.688,8.481h8.983Z" transform="translate(-504.767 -576.922)" fill="none"></path></clipPath><linearGradient id="linear-gradient-9" x1="-5.278" y1="2.743" x2="-5.268" y2="2.743" gradientUnits="objectBoundingBox"><stop offset="0" stop-color="#c4c9e5"></stop><stop offset="0.637" stop-color="#eceef6"></stop><stop offset="1" stop-color="#fff"></stop></linearGradient><clipPath id="clip-path-27"><path id="Path_144333" data-name="Path 144333" d="M14.885,607.7l-2.717,1.569c4.073-2.353,10.677,1.463,14.749,8.515s4.071,14.667.008,17.023l2.709-1.563c4.074-2.351,4.072-9.976,0-17.031-3.256-5.64-8.131-9.21-12.037-9.21a5.348,5.348,0,0,0-2.711.7" transform="translate(-12.168 -607.009)" fill="#5652cc"></path></clipPath></defs><g id="Group_166118" data-name="Group 166118" style="isolation: isolate"><g id="Group_223753" data-name="Group 223753"><path id="Path_144246" data-name="Path 144246" d="M54.235,660.011l33-19.051,2.3,1.325-33,19.051Z" transform="translate(-40.617 -480.021)" fill="#dfe4f4"></path><g id="Group_150953" data-name="Group 150953"><g id="Group_150952" data-name="Group 150952" clip-path="url(#clip-path)"><g id="Group_150951" data-name="Group 150951" transform="translate(63.478 162.842)" style="mix-blend-mode: multiply;isolation: isolate"><g id="Group_150950" data-name="Group 150950"><g id="Group_150949" data-name="Group 150949" clip-path="url(#clip-path-2)"><g id="Group_150948" data-name="Group 150948" transform="translate(0)"><g id="Group_150947" data-name="Group 150947" clip-path="url(#clip-path-4)"><rect id="Rectangle_50776" data-name="Rectangle 50776" width="22.769" height="10.727" transform="translate(-0.414)" fill="url(#linear-gradient)"></rect></g></g></g></g></g></g></g><path id="Path_144252" data-name="Path 144252" d="M282.855,597.648l6.41,3.7v-7.132l-6.41-3.7Z" transform="translate(-211.833 -442.243)" fill="#362e94"></path><g id="Group_150955" data-name="Group 150955"><g id="Group_150954" data-name="Group 150954" clip-path="url(#clip-path)"><path id="Path_144253" data-name="Path 144253" d="M608.262,426.966c-1.276-.739-2.066-2.317-2.066-4.562a15.576,15.576,0,0,1,7.048-12.206c1.944-1.124,3.7-1.233,4.982-.5s2.063,2.315,2.063,4.563a15.574,15.574,0,0,1-7.045,12.206c-1.947,1.123-3.706,1.229-4.982.495" transform="translate(-453.985 -306.479)" fill="#0e1c70"></path><path id="Path_144254" data-name="Path 144254" d="M618.811,432.77a8.582,8.582,0,0,1,3.88-6.723c2.143-1.237,3.879-.233,3.879,2.239a8.58,8.58,0,0,1-3.879,6.723c-2.143,1.237-3.88.235-3.88-2.24" transform="translate(-463.433 -318.674)" fill="#bbc0e6"></path><path id="Path_144255" data-name="Path 144255" d="M590.109,413.118a15.572,15.572,0,0,1,7.048-12.206c1.944-1.125,3.7-1.233,4.982-.5l-5.393-3.114c-1.276-.735-3.038-.629-4.984.494A15.571,15.571,0,0,0,584.716,410c0,2.245.788,3.824,2.064,4.56l5.392,3.115c-1.274-.739-2.062-2.317-2.062-4.562" transform="translate(-437.899 -297.192)" fill="#110d60"></path><path id="Path_144256" data-name="Path 144256" d="M542.142,465.139c-1.277-.739-2.066-2.317-2.066-4.562a15.576,15.576,0,0,1,7.048-12.206c1.943-1.124,3.7-1.233,4.982-.5s2.062,2.315,2.062,4.562a15.574,15.574,0,0,1-7.044,12.206c-1.947,1.123-3.706,1.229-4.982.495" transform="translate(-404.467 -335.067)" fill="#0e1c70"></path><path id="Path_144257" data-name="Path 144257" d="M552.692,470.944a8.581,8.581,0,0,1,3.88-6.723c2.143-1.237,3.879-.234,3.879,2.239a8.579,8.579,0,0,1-3.879,6.723c-2.143,1.237-3.88.235-3.88-2.24" transform="translate(-413.916 -347.262)" fill="#bbc0e6"></path><path id="Path_144258" data-name="Path 144258" d="M523.991,451.291a15.571,15.571,0,0,1,7.048-12.206c1.943-1.125,3.7-1.233,4.982-.5l-5.393-3.114c-1.276-.735-3.038-.629-4.984.494a15.572,15.572,0,0,0-7.046,12.208c0,2.245.787,3.824,2.064,4.56l5.391,3.115c-1.274-.739-2.062-2.317-2.062-4.562" transform="translate(-388.382 -325.78)" fill="#110d60"></path><path id="Path_144259" data-name="Path 144259" d="M249.532,634.121c-1.277-.739-2.066-2.317-2.066-4.562a15.574,15.574,0,0,1,7.048-12.206c1.944-1.124,3.7-1.233,4.982-.5s2.063,2.315,2.063,4.562a15.574,15.574,0,0,1-7.044,12.206c-1.947,1.123-3.706,1.229-4.982.495" transform="translate(-185.329 -461.619)" fill="#0e1c70"></path><path id="Path_144260" data-name="Path 144260" d="M260.081,639.926a8.581,8.581,0,0,1,3.88-6.723c2.143-1.237,3.879-.233,3.879,2.24a8.579,8.579,0,0,1-3.879,6.723c-2.143,1.237-3.88.235-3.88-2.24" transform="translate(-194.777 -473.815)" fill="#bbc0e6"></path><path id="Path_144261" data-name="Path 144261" d="M231.381,620.273a15.57,15.57,0,0,1,7.048-12.206c1.943-1.126,3.7-1.233,4.982-.5l-5.393-3.114c-1.276-.735-3.038-.63-4.984.494a15.571,15.571,0,0,0-7.046,12.208c0,2.245.788,3.824,2.064,4.56l5.391,3.115c-1.274-.739-2.062-2.317-2.062-4.562" transform="translate(-169.244 -452.332)" fill="#110d60"></path><path id="Path_144262" data-name="Path 144262" d="M217.592,143.923l-44.064-25.44,90.015-51.97,44.064,25.44Z" transform="translate(-129.956 -49.812)" fill="#c3c9f5"></path><path id="Path_144263" data-name="Path 144263" d="M349.017,273.113V219.8l90.015-51.97v53.313Z" transform="translate(-261.382 -125.69)" fill="#ced3f8"></path><path id="Path_144264" data-name="Path 144264" d="M173.527,326.8V273.491l44.064,25.44v53.313Z" transform="translate(-129.956 -204.819)" fill="#e5e8fd"></path><path id="Path_144265" data-name="Path 144265" d="M96.869,550.053,55.537,526.189V504.943l41.332,23.864Z" transform="translate(-41.592 -378.156)" fill="#5652cc"></path><path id="Path_144266" data-name="Path 144266" d="M129.066,394.6,87.733,370.735,110.64,357.51l41.333,23.863Z" transform="translate(-65.704 -267.742)" fill="#807dfb"></path><path id="Path_144267" data-name="Path 144267" d="M96.869,525.416,55.537,501.553l1.969-1.136L98.838,524.28Z" transform="translate(-41.592 -374.766)" fill="#807dfb"></path><path id="Path_144268" data-name="Path 144268" d="M251.139,452.548l-22.907,13.225-6.116,22.658-1.969,1.137v21.246l5.658-3.266c0-5.261,3.693-11.657,8.248-14.287s8.249-.5,8.249,4.762l8.836-5.1Z" transform="translate(-164.871 -338.917)" fill="#423eaf"></path></g></g><g id="Group_150957" data-name="Group 150957" transform="translate(60.04 120.422)"><g id="Group_150956" data-name="Group 150956" clip-path="url(#clip-path-6)"><path id="Path_144269" data-name="Path 144269" d="M257.872,393.331l-18.758,21.66V464.13l18.758-21.66Z" transform="translate(-239.114 -414.991)" fill="url(#linear-gradient-2)"></path></g></g><g id="Group_150959" data-name="Group 150959"><g id="Group_150958" data-name="Group 150958" clip-path="url(#clip-path)"><path id="Path_144271" data-name="Path 144271" d="M297.687,557.423a1.716,1.716,0,0,1,.716-1.369l2.8-1.619a.561.561,0,0,1,.288-.083.8.8,0,0,1,.748.66,1.233,1.233,0,0,1-.529,1.322c-1.372.82-2.4,1.414-2.841,1.67a.751.751,0,0,1-1.187-.582" transform="translate(-222.94 -415.159)" fill="#6b67e9"></path><path id="Path_144272" data-name="Path 144272" d="M302.267,557.78a1.212,1.212,0,0,1-.559,1.122c-1.373.82-2.4,1.414-2.841,1.671-.882.509-1.224-.211-1.187-.582a2.229,2.229,0,0,1,.1-.549.769.769,0,0,0,1.1.643c.233-.119,2.209-1.185,2.613-1.455a1.822,1.822,0,0,0,.776-.85" transform="translate(-222.932 -417.726)" fill="#5652cc"></path><path id="Path_144273" data-name="Path 144273" d="M91.688,594.34l-43.07-24.867v-6.734l43.07,24.867Z" transform="translate(-36.41 -421.44)" fill="#ced3f8"></path><path id="Path_144274" data-name="Path 144274" d="M225.34,656.57l-5.191,3v-6.734l5.191-3Z" transform="translate(-164.871 -486.668)" fill="#bbc0e6"></path><path id="Path_144275" data-name="Path 144275" d="M96.01,581.115l-4.323,2.5L50.355,559.747v-1l-1.737,1,43.07,24.867,5.191-3Z" transform="translate(-36.41 -418.448)" fill="#f6f6fb"></path><path id="Path_144276" data-name="Path 144276" d="M104.709,456.7,63.377,432.838l6.116-22.658,41.333,23.863Z" transform="translate(-47.463 -307.187)" fill="#5652cc"></path></g></g><g id="Group_150961" data-name="Group 150961" transform="translate(17.967 106.31)"><g id="Group_150960" data-name="Group 150960" clip-path="url(#clip-path-8)"><rect id="Rectangle_50781" data-name="Rectangle 50781" width="42.86" height="42.073" transform="translate(0 0)" fill="url(#linear-gradient-3)"></rect></g></g><g id="Group_150982" data-name="Group 150982"><g id="Group_150981" data-name="Group 150981" clip-path="url(#clip-path)"><g id="Group_150966" data-name="Group 150966" transform="translate(17.967 119.792)" style="mix-blend-mode: screen;isolation: isolate"><g id="Group_150965" data-name="Group 150965"><g id="Group_150964" data-name="Group 150964" clip-path="url(#clip-path-10)"><g id="Group_150963" data-name="Group 150963" transform="translate(0)"><g id="Group_150962" data-name="Group 150962" clip-path="url(#clip-path-11)"><rect id="Rectangle_50782" data-name="Rectangle 50782" width="44.707" height="48.843" transform="translate(-12.38 21.443) rotate(-60)" fill="url(#linear-gradient-4)"></rect></g></g></g></g></g><g id="Group_150971" data-name="Group 150971" transform="translate(41.862 94.27)" style="mix-blend-mode: multiply;isolation: isolate"><g id="Group_150970" data-name="Group 150970"><g id="Group_150969" data-name="Group 150969" clip-path="url(#clip-path-12)"><g id="Group_150968" data-name="Group 150968"><g id="Group_150967" data-name="Group 150967" clip-path="url(#clip-path-13)"><rect id="Rectangle_50784" data-name="Rectangle 50784" width="40.59" height="23.569" transform="translate(0 0)" fill="url(#linear-gradient-5)"></rect></g></g></g></g></g><path id="Path_144280" data-name="Path 144280" d="M180.643,386.284l-29.719-17.158,12.971-7.489L193.614,378.8Z" transform="translate(-113.028 -270.833)" fill="#807dfb"></path><path id="Path_144281" data-name="Path 144281" d="M180.643,411.008,150.924,393.85v-2.388l29.719,17.158Z" transform="translate(-113.028 -293.169)" fill="#5652cc"></path><path id="Path_144282" data-name="Path 144282" d="M282.253,432.359l-12.971,7.489V437.46l12.971-7.489Z" transform="translate(-201.668 -322.009)" fill="#423eaf"></path><g id="Group_150974" data-name="Group 150974" transform="translate(80.586 107.962)" style="mix-blend-mode: multiply;isolation: isolate"><g id="Group_150973" data-name="Group 150973"><g id="Group_150972" data-name="Group 150972" clip-path="url(#clip-path-14)"><path id="Path_144283" data-name="Path 144283" d="M322.809,433.437l-1.867-3.466v2.388Z" transform="translate(-320.941 -429.971)" fill="#dae0f5"></path></g></g></g><g id="Group_150977" data-name="Group 150977" transform="translate(51.927 152.678)" style="mix-blend-mode: multiply;isolation: isolate"><g id="Group_150976" data-name="Group 150976"><g id="Group_150975" data-name="Group 150975" clip-path="url(#clip-path-15)"><path id="Path_144284" data-name="Path 144284" d="M207.532,608.057l.724,1.226v3.968l-1.448-.712Z" transform="translate(-206.808 -608.058)" fill="#dfe4f4"></path></g></g></g><path id="Path_144285" data-name="Path 144285" d="M187.867,602.85l-6.35-3.666V595.12l6.35,3.667Z" transform="translate(-135.939 -445.69)" fill="#f1f1f6"></path><path id="Path_144286" data-name="Path 144286" d="M207.532,612.121l-.724.418v-4.064l.724-.418Z" transform="translate(-154.88 -455.379)" fill="#ced3f8"></path><path id="Path_144287" data-name="Path 144287" d="M188.59,597.121l-.724.418-6.351-3.666.724-.418Z" transform="translate(-135.939 -444.443)" fill="#f6f6fb"></path><g id="Group_150980" data-name="Group 150980" transform="translate(48.128 156.798)" style="mix-blend-mode: multiply;isolation: isolate"><g id="Group_150979" data-name="Group 150979"><g id="Group_150978" data-name="Group 150978" clip-path="url(#clip-path-16)"><path id="Path_144288" data-name="Path 144288" d="M194.6,627.193a3.227,3.227,0,0,0-1.46-2.528c-.807-.466-1.46-.088-1.46.843a3.227,3.227,0,0,0,1.46,2.529c.806.465,1.46.088,1.46-.843" transform="translate(-191.676 -624.465)" fill="#dfe4f4"></path></g></g></g></g></g><g id="Group_150984" data-name="Group 150984" transform="translate(47.639 156.171)"><g id="Group_150983" data-name="Group 150983" clip-path="url(#clip-path-17)"><rect id="Rectangle_50790" data-name="Rectangle 50790" width="4.585" height="4.938" transform="translate(-1.718 0.992) rotate(-30)" fill="url(#linear-gradient-6)"></rect></g></g><g id="Group_150992" data-name="Group 150992"><g id="Group_150991" data-name="Group 150991" clip-path="url(#clip-path)"><path id="Path_144290" data-name="Path 144290" d="M190.926,625.875a3.226,3.226,0,0,0-1.46-2.529c-.806-.466-1.46-.088-1.46.843a3.227,3.227,0,0,0,1.46,2.529c.807.465,1.46.088,1.46-.843" transform="translate(-140.799 -466.68)" fill="#f6f6fb"></path><g id="Group_150987" data-name="Group 150987" transform="translate(22.525 135.702)" style="mix-blend-mode: multiply;isolation: isolate"><g id="Group_150986" data-name="Group 150986"><g id="Group_150985" data-name="Group 150985" clip-path="url(#clip-path-19)"><path id="Path_144291" data-name="Path 144291" d="M90.433,540.45l.724,1.226v3.968l-1.448-.713Z" transform="translate(-89.709 -540.45)" fill="#dfe4f4"></path></g></g></g><path id="Path_144292" data-name="Path 144292" d="M70.769,535.243l-6.35-3.666v-4.064l6.35,3.666Z" transform="translate(-48.243 -395.059)" fill="#f1f1f6"></path><path id="Path_144293" data-name="Path 144293" d="M90.433,544.514l-.724.418v-4.064l.724-.418Z" transform="translate(-67.184 -404.748)" fill="#ced3f8"></path><path id="Path_144294" data-name="Path 144294" d="M71.492,529.515l-.724.418-6.351-3.666.724-.418Z" transform="translate(-48.243 -393.812)" fill="#f6f6fb"></path><g id="Group_150990" data-name="Group 150990" transform="translate(18.726 139.822)" style="mix-blend-mode: multiply;isolation: isolate"><g id="Group_150989" data-name="Group 150989"><g id="Group_150988" data-name="Group 150988" clip-path="url(#clip-path-16)"><path id="Path_144295" data-name="Path 144295" d="M77.5,559.587a3.228,3.228,0,0,0-1.46-2.529c-.807-.466-1.46-.088-1.46.843a3.227,3.227,0,0,0,1.46,2.529c.806.466,1.46.088,1.46-.843" transform="translate(-74.578 -556.858)" fill="#dfe4f4"></path></g></g></g></g></g><g id="Group_150994" data-name="Group 150994" transform="translate(18.236 139.195)"><g id="Group_150993" data-name="Group 150993" clip-path="url(#clip-path-21)"><rect id="Rectangle_50794" data-name="Rectangle 50794" width="4.585" height="4.938" transform="translate(-1.718 0.992) rotate(-30)" fill="url(#linear-gradient-7)"></rect></g></g><g id="Group_150999" data-name="Group 150999"><g id="Group_150998" data-name="Group 150998" clip-path="url(#clip-path)"><path id="Path_144297" data-name="Path 144297" d="M73.827,558.268a3.226,3.226,0,0,0-1.46-2.528c-.807-.466-1.46-.088-1.46.843a3.227,3.227,0,0,0,1.46,2.529c.806.465,1.46.088,1.46-.843" transform="translate(-53.103 -416.049)" fill="#f6f6fb"></path><path id="Path_144298" data-name="Path 144298" d="M220.148,650.334h1.737l3.454-1.994-.869-.5Z" transform="translate(-164.871 -485.171)" fill="#dfe4f4"></path><path id="Path_144299" data-name="Path 144299" d="M114.4,568,94.24,556.365V545.4L114.4,557.035Z" transform="translate(-70.577 -408.452)" fill="#5652cc"></path><path id="Path_144300" data-name="Path 144300" d="M117.721,577.746l-16.808-9.7v-7.05c0-1.158.812-1.626,1.814-1.048l13.178,7.609a4.011,4.011,0,0,1,1.815,3.143Z" transform="translate(-75.575 -419.162)" fill="#423eaf"></path><path id="Path_144301" data-name="Path 144301" d="M174.525,601.222l.869-.5V589.753l-.869.5Z" transform="translate(-130.703 -441.671)" fill="#423eaf"></path><path id="Path_144302" data-name="Path 144302" d="M114.4,555.539l.869-.5L95.109,543.4l-.869.5Z" transform="translate(-70.577 -406.956)" fill="#807dfb"></path><path id="Path_144303" data-name="Path 144303" d="M174.525,633.937l1.755.01-.887-.512Z" transform="translate(-130.703 -474.385)" fill="#dfe4f4"></path><g id="Group_150997" data-name="Group 150997" transform="translate(44.69 148.082)" style="mix-blend-mode: multiply;isolation: isolate"><g id="Group_150996" data-name="Group 150996"><g id="Group_150995" data-name="Group 150995" clip-path="url(#clip-path-23)"><path id="Path_144304" data-name="Path 144304" d="M178.871,601.233v-9.2l-.887-2.279v10.968Z" transform="translate(-177.984 -589.752)" fill="#e8ecf7"></path></g></g></g><path id="Path_144305" data-name="Path 144305" d="M468.652,256.669,397.04,298.014,388.568,294l8.472-13.794,71.612-41.345Z" transform="translate(-291.002 -178.887)" fill="#807dfb"></path><path id="Path_144306" data-name="Path 144306" d="M508.509,365.865a3.3,3.3,0,0,0,.348-1.3.765.765,0,0,0-.3-.713.747.747,0,0,0-.775.091,4.811,4.811,0,0,0-1.644,2.376l-1.643-.175a12.345,12.345,0,0,1,1.413-2.562,6.356,6.356,0,0,1,1.959-1.723,2.382,2.382,0,0,1,2.091-.333q.9.353.9,1.856a5.082,5.082,0,0,1-.362,1.779,21.423,21.423,0,0,1-1.334,2.691l-1.657,2.945,3.629-2.095v2.126l-6.482,3.742v-1.761l2.7-4.744q.815-1.428,1.164-2.2" transform="translate(-377.819 -270.658)" fill="#fff"></path><path id="Path_144307" data-name="Path 144307" d="M539.34,348.352V346.5l1.972-1.139v1.853l1.039-.6v2.049l-1.039.6V351.8l-1.972,1.138V350.4l-3.695,2.133v-1.806l3.274-8.16,2.236-1.29-3.116,7.827Z" transform="translate(-401.149 -255.585)" fill="#fff"></path><path id="Path_144308" data-name="Path 144308" d="M571.473,314.15l1.867-1.078-5.522,17.109-1.854,1.07Z" transform="translate(-423.856 -234.462)" fill="#fff"></path><path id="Path_144309" data-name="Path 144309" d="M599.159,309.243v-3.4l6.639-3.833V303.8l-3.721,10.968-2.235,1.29,3.549-10.627-2.314,1.336v1.366Z" transform="translate(-448.715 -226.177)" fill="#fff"></path><path id="Path_144310" data-name="Path 144310" d="M265.5,33.671c0-8.905,6.252-19.733,13.962-24.186s13.965-.843,13.965,8.062-6.252,19.733-13.965,24.185-13.962.843-13.962-8.061" transform="translate(-198.833 -5.676)" fill="#5652cc"></path></g></g><g id="Group_151001" data-name="Group 151001" transform="translate(63.361)"><g id="Group_151000" data-name="Group 151000" clip-path="url(#clip-path-24)"><rect id="Rectangle_50797" data-name="Rectangle 50797" width="45.827" height="42.162" transform="matrix(0.5, -0.866, 0.866, 0.5, -16.113, 27.909)" fill="url(#linear-gradient-8)"></rect></g></g><g id="Group_151018" data-name="Group 151018"><g id="Group_223754" data-name="Group 223754" transform="translate(8 42)"><path id="Path_144312" data-name="Path 144312" d="M298.914,30.94c0-3.267-1.092-5.6-2.865-6.811-1.933-.934-4.5-.712-7.336.923-6,3.463-10.858,11.885-10.858,18.81,0,3.268,1.092,5.6,2.867,6.813,1.931.933,4.5.71,7.333-.924,6-3.463,10.859-11.884,10.859-18.811" transform="translate(-208.088 -17.658)" fill="#fff"></path><path id="Path_144313" data-name="Path 144313" d="M304.6,25.769c1.773,1.207,2.865,3.544,2.865,6.811,0,6.926-4.862,15.348-10.86,18.811-2.831,1.634-5.4,1.857-7.333.924,1.985,1.351,4.826,1.286,7.992-.543,6-3.463,10.86-11.884,10.86-18.81,0-3.657-1.363-6.15-3.525-7.193" transform="translate(-216.638 -19.299)" fill="#362e94"></path><path id="Path_144314" data-name="Path 144314" d="M321.584,54.4l-6.095-3.52V43.288c0-.482-.339-.677-.756-.437a1.669,1.669,0,0,0-.754,1.308v7.953a.746.746,0,0,0,.057.3.407.407,0,0,0,.164.189l6.315,3.647c.294.17.773-.106,1.068-.616s.294-1.062,0-1.232" transform="translate(-235.142 -32.015)" fill="#ced3f8"></path><g id="Group_223755" data-name="Group 223755" transform="translate(-5 -38)"><path id="Path_144316" data-name="Path 144316" d="M443.208,558.562l24.334,14.047-26.51,15.307L416.7,573.87Z" transform="translate(-312.069 -418.313)" fill="#f1f1f6"></path><path id="Path_144317" data-name="Path 144317" d="M416.7,619.528l24.333,14.048v21.237L416.7,640.766Z" transform="translate(-312.07 -463.97)" fill="#ced3f8"></path><path id="Path_144318" data-name="Path 144318" d="M513.608,629.82l26.509-15.307v21.238l-26.509,15.307Z" transform="translate(-384.645 -460.214)" fill="#bbc0e6"></path><path id="Path_144319" data-name="Path 144319" d="M463.854,585.772l24.332,14.05-3.788,2.187-24.332-14.05Z" transform="translate(-344.547 -438.689)" fill="#fff"></path><path id="Path_144320" data-name="Path 144320" d="M560.759,641.726v2.815l-3.788,2.187v-2.815Z" transform="translate(-417.12 -480.594)" fill="#dfe4f4"></path><path id="Path_144321" data-name="Path 144321" d="M595.054,685.895l-1.19-.688-1.19,2.061.321.185.642-1.114v3.18l.454-.262v-3.18l.643.371Z" transform="translate(-443.858 -513.158)" fill="#abb2da"></path><path id="Path_144322" data-name="Path 144322" d="M607.7,678.6l-1.19-.687-1.19,2.061.32.185.642-1.114v3.18l.453-.262v-3.18l.643.371Z" transform="translate(-453.326 -507.694)" fill="#abb2da"></path><path id="Path_144323" data-name="Path 144323" d="M529.256,668.8l-6.619,3.822v-4.748l6.619-3.822Z" transform="translate(-391.407 -497.313)" fill="#5652cc"></path><path id="Path_144324" data-name="Path 144324" d="M527.365,693.735l-4.728,2.729v-1.2l4.728-2.73Z" transform="translate(-391.407 -518.643)" fill="#5652cc"></path><g id="Group_151011" data-name="Group 151011" transform="translate(126.742 144.86)" style="mix-blend-mode: multiply;isolation: isolate"><g id="Group_151010" data-name="Group 151010"><g id="Group_151009" data-name="Group 151009" clip-path="url(#clip-path-25)"><g id="Group_151008" data-name="Group 151008"><g id="Group_151007" data-name="Group 151007" clip-path="url(#clip-path-26)"><rect id="Rectangle_50800" data-name="Rectangle 50800" width="24.013" height="16.764" fill="url(#linear-gradient-9)"></rect></g></g></g></g></g><path id="Path_144326" data-name="Path 144326" d="M506.129,598.719l14.689-8.481v4.94l-14.688,8.48Z" transform="translate(-379.045 -442.034)" fill="#bbc0e6"></path><path id="Path_144327" data-name="Path 144327" d="M463.682,557.249l14.347,8.284-14.689,8.481-14.346-8.284Z" transform="translate(-336.255 -417.328)" fill="#f1f1f6"></path><path id="Path_144328" data-name="Path 144328" d="M448.994,591.02,463.34,599.3v4.94l-14.346-8.285Z" transform="translate(-336.255 -442.62)" fill="#ced3f8"></path><path id="Path_144329" data-name="Path 144329" d="M486.192,570.241l2.818,1.627-14.688,8.481-2.816-1.627Z" transform="translate(-353.114 -427.059)" fill="#fff"></path><path id="Path_144330" data-name="Path 144330" d="M471.5,604.019l2.817,1.627v3.179L471.5,607.2Z" transform="translate(-353.113 -452.354)" fill="#dfe4f4"></path></g></g></g><g id="Group_151020" data-name="Group 151020" transform="translate(3.055 152.415)"><g id="Group_151019" data-name="Group 151019" clip-path="url(#clip-path-27)"><rect id="Rectangle_50805" data-name="Rectangle 50805" width="32.6" height="34.925" transform="matrix(0.866, -0.5, 0.5, 0.866, -12.078, 6.884)" fill="#5652cc"></rect></g></g><g id="Group_151022" data-name="Group 151022"><g id="Group_151021" data-name="Group 151021" clip-path="url(#clip-path)"><path id="Path_144334" data-name="Path 144334" d="M17.8,622.47c-4.072-7.052-10.675-10.869-14.749-8.516s-4.074,9.975,0,17.03l7.374,12.772L17.8,639.5c4.072-2.35,4.071-9.975,0-17.03m-7.375,9.939a10.878,10.878,0,0,1-4.92-8.522c0-3.139,2.2-4.41,4.92-2.842a10.875,10.875,0,0,1,4.919,8.524c0,3.136-2.2,4.408-4.919,2.84" transform="translate(0 -459.275)" fill="#807dfb"></path></g></g></g></g></svg> 