<?xml version="1.0" encoding="UTF-8"?> <svg xmlns="http://www.w3.org/2000/svg" xmlns:xlink="http://www.w3.org/1999/xlink" width="229" height="163" viewBox="0 0 229 163"><defs><clipPath id="clip-path"><rect id="Rectangle_68800" data-name="Rectangle 68800" width="229" height="163" transform="translate(605 4682)" fill="#fff" stroke="#707070" stroke-width="1"></rect></clipPath><clipPath id="clip-path-2"><rect id="Rectangle_50744" data-name="Rectangle 50744" width="247.811" height="144.762" fill="none"></rect></clipPath><clipPath id="clip-path-3"><rect id="Rectangle_50741" data-name="Rectangle 50741" width="19.513" height="11.265" fill="none"></rect></clipPath><clipPath id="clip-path-4"><path id="Path_144109" data-name="Path 144109" d="M897.971,641.775l-2.294,1.324-1.209-.7-3.255,1.879v1.4L888.92,647l-1.209-.7-3.255,1.879v1.4l-2.294,1.324h3.7l15.808-9.127-3.7-2.138Z" transform="translate(-882.163 -639.637)" fill="none"></path></clipPath><linearGradient id="linear-gradient" x1="-7.28" y1="3.707" x2="-7.272" y2="3.707" gradientUnits="objectBoundingBox"><stop offset="0" stop-color="#d1d7f3"></stop><stop offset="1" stop-color="#f6f6fb"></stop></linearGradient><clipPath id="clip-path-5"><rect id="Rectangle_50743" data-name="Rectangle 50743" width="15.065" height="10.17" fill="none"></rect></clipPath><clipPath id="clip-path-6"><path id="Path_144110" data-name="Path 144110" d="M896.73,621.3H890.2l7.1,4.1-10.519,6.074h2.565l12.5-7.217Z" transform="translate(-886.779 -621.3)" fill="none"></path></clipPath><linearGradient id="linear-gradient-2" x1="-9.478" y1="4.397" x2="-9.468" y2="4.397" gradientUnits="objectBoundingBox"><stop offset="0" stop-color="#e8ecf7"></stop><stop offset="0.407" stop-color="#eff1f9"></stop><stop offset="1" stop-color="#f6f6fb"></stop></linearGradient><clipPath id="clip-path-8"><rect id="Rectangle_50746" data-name="Rectangle 50746" width="19.512" height="11.265" fill="none"></rect></clipPath><clipPath id="clip-path-9"><path id="Path_144133" data-name="Path 144133" d="M785.554,706.679,783.261,708l-1.209-.7-3.255,1.879v1.4l-2.294,1.324-1.209-.7-3.255,1.879v1.4l-2.294,1.324h3.7l15.808-9.127-3.7-2.138Z" transform="translate(-769.746 -704.541)" fill="none"></path></clipPath><linearGradient id="linear-gradient-3" x1="-6.352" y1="2.78" x2="-6.344" y2="2.78" xlink:href="#linear-gradient"></linearGradient><clipPath id="clip-path-11"><path id="Path_144134" data-name="Path 144134" d="M784.313,686.2h-6.527l7.1,4.1-10.519,6.074h2.565l12.5-7.217Z" transform="translate(-774.362 -686.204)" fill="none"></path></clipPath><linearGradient id="linear-gradient-4" x1="-8.277" y1="3.369" x2="-8.266" y2="3.369" xlink:href="#linear-gradient-2"></linearGradient><clipPath id="clip-path-13"><rect id="Rectangle_50750" data-name="Rectangle 50750" width="59.792" height="34.9" fill="none"></rect></clipPath><clipPath id="clip-path-14"><rect id="Rectangle_50751" data-name="Rectangle 50751" width="7.195" height="7.289" fill="none"></rect></clipPath><clipPath id="clip-path-24"><rect id="Rectangle_50763" data-name="Rectangle 50763" width="19.511" height="11.265" fill="none"></rect></clipPath><clipPath id="clip-path-25"><path id="Path_144230" data-name="Path 144230" d="M1075.927,727.5l-2.294,1.324-1.209-.7-3.255,1.879v1.4l-2.294,1.324-1.209-.7-3.255,1.879v1.4l-2.294,1.324h3.7l15.808-9.127-3.7-2.139Z" transform="translate(-1060.119 -725.364)" fill="none"></path></clipPath><linearGradient id="linear-gradient-5" x1="-8.749" y1="2.482" x2="-8.74" y2="2.482" xlink:href="#linear-gradient"></linearGradient><clipPath id="clip-path-26"><rect id="Rectangle_50765" data-name="Rectangle 50765" width="15.066" height="10.17" fill="none"></rect></clipPath><clipPath id="clip-path-27"><path id="Path_144231" data-name="Path 144231" d="M1074.686,707.027h-6.527l7.1,4.1-10.519,6.074h2.565l12.5-7.217Z" transform="translate(-1064.735 -707.027)" fill="none"></path></clipPath><linearGradient id="linear-gradient-6" x1="-11.381" y1="3.04" x2="-11.37" y2="3.04" xlink:href="#linear-gradient-2"></linearGradient></defs><g id="Mask_Group_21833" data-name="Mask Group 21833" transform="translate(-605 -4682)" clip-path="url(#clip-path)"><g id="Group_223751" data-name="Group 223751" transform="translate(0 2)" style="isolation: isolate"><g id="Group_166116" data-name="Group 166116" transform="translate(619.975 4693.401)"><g id="Group_223750" data-name="Group 223750"><path id="Path_144101" data-name="Path 144101" d="M897.971,640.38l-15.808,9.127v-.743l15.808-9.127Z" transform="translate(-740.113 -536.639)" fill="#bbc0e6"></path><path id="Path_144102" data-name="Path 144102" d="M884.457,694.1l-2.294,1.324v-1.4l2.294-1.324Z" transform="translate(-740.113 -581.162)" fill="#bbc0e6"></path><path id="Path_144103" data-name="Path 144103" d="M926.421,669.872l-2.294,1.324v-1.4l2.294-1.324Z" transform="translate(-775.32 -560.835)" fill="#bbc0e6"></path><path id="Path_144104" data-name="Path 144104" d="M968.385,645.645l-2.294,1.324v-1.4l2.294-1.324Z" transform="translate(-810.526 -540.509)" fill="#bbc0e6"></path><path id="Path_144105" data-name="Path 144105" d="M816.14,660.337l-12.672-7.316v-2.139L816.14,658.2Z" transform="translate(-674.09 -546.074)" fill="#dae0f5"></path><path id="Path_144106" data-name="Path 144106" d="M917.829,678.1l-1.209-.7,1.209-.7Z" transform="translate(-769.022 -567.736)" fill="#dae0f5"></path><path id="Path_144107" data-name="Path 144107" d="M959.793,653.869l-1.209-.7,1.209-.7Z" transform="translate(-804.229 -547.408)" fill="#dae0f5"></path><path id="Path_144108" data-name="Path 144108" d="M816.14,610.646l-12.672-7.316,15.808-9.127,12.672,7.316Z" transform="translate(-674.09 -498.521)" fill="#f6f6fb"></path><g id="Group_150867" data-name="Group 150867"><g id="Group_150866" data-name="Group 150866" clip-path="url(#clip-path-2)"><g id="Group_150860" data-name="Group 150860" transform="translate(142.05 102.998)" style="mix-blend-mode: multiply;isolation: isolate"><g id="Group_150859" data-name="Group 150859"><g id="Group_150858" data-name="Group 150858" clip-path="url(#clip-path-3)"><g id="Group_150857" data-name="Group 150857"><g id="Group_150856" data-name="Group 150856" clip-path="url(#clip-path-4)"><rect id="Rectangle_50740" data-name="Rectangle 50740" width="19.512" height="11.265" transform="translate(0)" fill="url(#linear-gradient)"></rect></g></g></g></g></g><g id="Group_150865" data-name="Group 150865" transform="translate(142.794 100.045)" style="mix-blend-mode: multiply;isolation: isolate"><g id="Group_150864" data-name="Group 150864"><g id="Group_150863" data-name="Group 150863" clip-path="url(#clip-path-5)"><g id="Group_150862" data-name="Group 150862"><g id="Group_150861" data-name="Group 150861" clip-path="url(#clip-path-6)"><rect id="Rectangle_50742" data-name="Rectangle 50742" width="15.065" height="10.17" fill="url(#linear-gradient-2)"></rect></g></g></g></g></g></g></g><path id="Path_144111" data-name="Path 144111" d="M837.333,559.776l9.656,5.574-10.52,6.074-9.656-5.574Z" transform="translate(-693.676 -469.638)" fill="#f1f1f6"></path><path id="Path_144112" data-name="Path 144112" d="M826.815,597.5l9.656,5.575V611.5l-9.656-5.574Z" transform="translate(-693.677 -501.288)" fill="#ced3f8"></path><path id="Path_144113" data-name="Path 144113" d="M886.78,600.471,897.3,594.4v8.428L886.78,608.9Z" transform="translate(-743.986 -498.684)" fill="#bbc0e6"></path><path id="Path_144114" data-name="Path 144114" d="M855.152,576.613l9.655,5.575-1.5.868-9.656-5.575Z" transform="translate(-716.19 -483.764)" fill="#fff"></path><path id="Path_144115" data-name="Path 144115" d="M915.115,611.236v1.117l-1.5.868V612.1Z" transform="translate(-766.497 -512.811)" fill="#dfe4f4"></path><path id="Path_144116" data-name="Path 144116" d="M936.648,638.414l-.472-.273-.472.818.127.073.255-.442v1.262l.18-.1v-1.262l.255.147Z" transform="translate(-785.032 -535.385)" fill="#807dfb"></path><path id="Path_144117" data-name="Path 144117" d="M944.471,633.9l-.472-.273-.472.818.127.073.255-.442v1.262l.18-.1v-1.262l.255.147Z" transform="translate(-791.595 -531.598)" fill="#807dfb"></path><path id="Path_144118" data-name="Path 144118" d="M837.333,503.831l9.656,5.574-10.52,6.074-9.656-5.574Z" transform="translate(-693.676 -422.702)" fill="#f1f1f6"></path><path id="Path_144119" data-name="Path 144119" d="M826.815,541.555l9.656,5.575v8.427l-9.656-5.574Z" transform="translate(-693.677 -454.351)" fill="#ced3f8"></path><path id="Path_144120" data-name="Path 144120" d="M886.78,544.527l10.519-6.074v8.428l-10.519,6.074Z" transform="translate(-743.986 -451.748)" fill="#bbc0e6"></path><path id="Path_144121" data-name="Path 144121" d="M855.152,520.668l9.655,5.575-1.5.868-9.656-5.575Z" transform="translate(-716.19 -436.827)" fill="#fff"></path><path id="Path_144122" data-name="Path 144122" d="M915.115,555.291v1.117l-1.5.868v-1.117Z" transform="translate(-766.497 -465.875)" fill="#dfe4f4"></path><path id="Path_144123" data-name="Path 144123" d="M936.648,582.47l-.472-.273-.472.818.127.073.255-.442v1.262l.18-.1v-1.262l.255.147Z" transform="translate(-785.032 -488.449)" fill="#807dfb"></path><path id="Path_144124" data-name="Path 144124" d="M944.471,577.955l-.472-.273-.472.818.127.073.255-.442v1.262l.18-.1v-1.262l.255.147Z" transform="translate(-791.595 -484.661)" fill="#807dfb"></path><path id="Path_144125" data-name="Path 144125" d="M785.554,705.284l-15.808,9.127v-.743l15.808-9.127Z" transform="translate(-645.798 -591.092)" fill="#bbc0e6"></path><path id="Path_144126" data-name="Path 144126" d="M772.04,759l-2.294,1.324v-1.4l2.294-1.324Z" transform="translate(-645.798 -635.615)" fill="#bbc0e6"></path><path id="Path_144127" data-name="Path 144127" d="M814,734.776,811.71,736.1v-1.4L814,733.38Z" transform="translate(-681.004 -615.288)" fill="#bbc0e6"></path><path id="Path_144128" data-name="Path 144128" d="M855.968,710.549l-2.294,1.324v-1.4l2.294-1.324Z" transform="translate(-716.211 -594.962)" fill="#bbc0e6"></path><path id="Path_144129" data-name="Path 144129" d="M703.723,725.241l-12.672-7.316v-2.139l12.672,7.316Z" transform="translate(-579.775 -600.527)" fill="#dae0f5"></path><path id="Path_144130" data-name="Path 144130" d="M805.412,743l-1.209-.7,1.209-.7Z" transform="translate(-674.706 -622.188)" fill="#dae0f5"></path><path id="Path_144131" data-name="Path 144131" d="M847.376,718.773l-1.209-.7,1.209-.7Z" transform="translate(-709.913 -601.861)" fill="#dae0f5"></path><path id="Path_144132" data-name="Path 144132" d="M703.723,675.55l-12.672-7.316,15.808-9.127,12.672,7.316Z" transform="translate(-579.775 -552.974)" fill="#f6f6fb"></path><g id="Group_150879" data-name="Group 150879"><g id="Group_150878" data-name="Group 150878" clip-path="url(#clip-path-2)"><g id="Group_150872" data-name="Group 150872" transform="translate(123.948 113.449)" style="mix-blend-mode: multiply;isolation: isolate"><g id="Group_150871" data-name="Group 150871"><g id="Group_150870" data-name="Group 150870" clip-path="url(#clip-path-8)"><g id="Group_150869" data-name="Group 150869"><g id="Group_150868" data-name="Group 150868" clip-path="url(#clip-path-9)"><rect id="Rectangle_50745" data-name="Rectangle 50745" width="19.512" height="11.265" transform="translate(0)" fill="url(#linear-gradient-3)"></rect></g></g></g></g></g><g id="Group_150877" data-name="Group 150877" transform="translate(124.692 110.496)" style="mix-blend-mode: multiply;isolation: isolate"><g id="Group_150876" data-name="Group 150876"><g id="Group_150875" data-name="Group 150875" clip-path="url(#clip-path-5)"><g id="Group_150874" data-name="Group 150874"><g id="Group_150873" data-name="Group 150873" clip-path="url(#clip-path-11)"><rect id="Rectangle_50747" data-name="Rectangle 50747" width="15.065" height="10.17" fill="url(#linear-gradient-4)"></rect></g></g></g></g></g></g></g><path id="Path_144135" data-name="Path 144135" d="M724.916,624.68l9.656,5.574-10.52,6.074-9.656-5.574Z" transform="translate(-599.361 -524.091)" fill="#f1f1f6"></path><path id="Path_144136" data-name="Path 144136" d="M714.4,662.4l9.656,5.575v8.427l-9.656-5.574Z" transform="translate(-599.361 -555.74)" fill="#ced3f8"></path><path id="Path_144137" data-name="Path 144137" d="M774.362,665.375l10.519-6.074v8.428L774.362,673.8Z" transform="translate(-649.671 -553.137)" fill="#bbc0e6"></path><path id="Path_144138" data-name="Path 144138" d="M742.735,641.517l9.655,5.575-1.5.868-9.655-5.575Z" transform="translate(-621.875 -538.217)" fill="#fff"></path><path id="Path_144139" data-name="Path 144139" d="M802.7,676.14v1.117l-1.5.868v-1.117Z" transform="translate(-672.182 -567.264)" fill="#dfe4f4"></path><path id="Path_144140" data-name="Path 144140" d="M824.231,703.318l-.472-.273-.472.818.127.073.255-.442v1.262l.18-.1v-1.262l.255.147Z" transform="translate(-690.717 -589.838)" fill="#807dfb"></path><path id="Path_144141" data-name="Path 144141" d="M832.054,698.8l-.472-.273-.472.818.127.073.255-.442v1.262l.18-.1v-1.262l.255.147Z" transform="translate(-697.28 -586.05)" fill="#807dfb"></path><path id="Path_144142" data-name="Path 144142" d="M724.916,568.735l9.656,5.574-10.52,6.074L714.4,574.81Z" transform="translate(-599.361 -477.155)" fill="#f1f1f6"></path><path id="Path_144143" data-name="Path 144143" d="M714.4,606.459l9.656,5.575v8.428l-9.656-5.574Z" transform="translate(-599.361 -508.804)" fill="#ced3f8"></path><path id="Path_144144" data-name="Path 144144" d="M774.362,609.431l10.519-6.074v8.428l-10.519,6.074Z" transform="translate(-649.671 -506.201)" fill="#bbc0e6"></path><path id="Path_144145" data-name="Path 144145" d="M742.735,585.572l9.655,5.575-1.5.868-9.655-5.575Z" transform="translate(-621.875 -491.28)" fill="#fff"></path><path id="Path_144146" data-name="Path 144146" d="M802.7,620.195v1.117l-1.5.868v-1.117Z" transform="translate(-672.182 -520.328)" fill="#dfe4f4"></path><path id="Path_144147" data-name="Path 144147" d="M824.231,647.374l-.472-.273-.472.818.127.073.255-.442v1.262l.18-.1v-1.262l.255.147Z" transform="translate(-690.717 -542.902)" fill="#807dfb"></path><path id="Path_144148" data-name="Path 144148" d="M832.054,642.859l-.472-.273-.472.818.127.073.255-.442V644.3l.18-.1v-1.262l.255.147Z" transform="translate(-697.28 -539.114)" fill="#807dfb"></path><path id="Path_144149" data-name="Path 144149" d="M16.555,79.966l52.273-30.18V20.044h51.514V46.139L16.553,106.061V79.967Z" transform="translate(-13.888 -16.816)" fill="#ced3f8"></path><path id="Path_144150" data-name="Path 144150" d="M613.723,424.744h0v26.094l23.331-13.47.041-21.553,56.2-32.444v18.452l2.665,1.539,21.554-12.445V364.821H666Z" transform="translate(-514.897 -306.076)" fill="#bbc0e6"></path><path id="Path_144151" data-name="Path 144151" d="M0,408.7l98.824,57.057V439.667L0,382.608Z" transform="translate(-0.003 -320.999)" fill="#ced3f8"></path><path id="Path_144152" data-name="Path 144152" d="M528.734,786.058l6.419,3.706V777.5l-6.419-3.706Z" transform="translate(-443.594 -649.197)" fill="#807dfb"></path><path id="Path_144153" data-name="Path 144153" d="M35.272,501.156l6.419,3.706V492.6L35.272,488.9Z" transform="translate(-29.593 -410.171)" fill="#807dfb"></path><path id="Path_144154" data-name="Path 144154" d="M895.093,440.862l-20.55,11.865v-8.093l20.55-11.865Z" transform="translate(-733.719 -363.083)" fill="#dae0f5"></path><path id="Path_144155" data-name="Path 144155" d="M934.221,460.735l-8.593,4.962v-1.4l8.593-4.961Z" transform="translate(-776.578 -385.369)" fill="#807dfb"></path><path id="Path_144156" data-name="Path 144156" d="M931.137,490.351l-5.51,3.181v-1.4l5.51-3.181Z" transform="translate(-776.578 -410.217)" fill="#807dfb"></path><g id="Group_150924" data-name="Group 150924"><g id="Group_150923" data-name="Group 150923" clip-path="url(#clip-path-2)"><path id="Path_144157" data-name="Path 144157" d="M891.475,505.58l1.194.689,1.194-2.068c.66-1.142.66-2.377,0-2.757s-1.729.237-2.388,1.379-.659,2.377,0,2.757m.4-1.608a1.761,1.761,0,0,1,.8-1.38c.44-.254.8-.048.8.46a1.761,1.761,0,0,1-.8,1.38c-.44.254-.8.048-.8-.46" transform="translate(-747.511 -420.604)" fill="#807dfb"></path><path id="Path_144158" data-name="Path 144158" d="M813.753,439.8v26.733l-1.31.756v-25.22l-60.679,35.033v25.22l-1.31.756V476.35Z" transform="translate(-629.612 -368.985)" fill="#d1d7f3"></path><path id="Path_144159" data-name="Path 144159" d="M741.216,471.016l63.3-36.546-1.773-1.024-63.3,36.546Z" transform="translate(-620.375 -363.651)" fill="#f6f6fb"></path><path id="Path_144160" data-name="Path 144160" d="M741.216,688.16l-1.773-1.024V660.4l1.773,1.024Z" transform="translate(-620.375 -554.062)" fill="#e8ecf7"></path><path id="Path_144161" data-name="Path 144161" d="M1130.8,479.117l-.887-.512v-24.2l.887-.512Z" transform="translate(-947.969 -380.808)" fill="#a5abcc"></path><path id="Path_144162" data-name="Path 144162" d="M758.59,493.239l59.792-34.521v-1.643L758.59,491.6Z" transform="translate(-636.438 -383.475)" fill="#6b67e9"></path><g id="Group_150882" data-name="Group 150882" transform="translate(122.152 74.427)" style="mix-blend-mode: multiply;isolation: isolate"><g id="Group_150881" data-name="Group 150881"><g id="Group_150880" data-name="Group 150880" clip-path="url(#clip-path-13)"><path id="Path_144163" data-name="Path 144163" d="M758.59,496.726v.379l59.792-34.521V462.2Z" transform="translate(-758.59 -462.205)" fill="#dfe4f4"></path></g></g></g><path id="Path_144164" data-name="Path 144164" d="M1124.406,489.321l.887.512V467.279l-.887.512Z" transform="translate(-943.349 -392.036)" fill="#362e94"></path><path id="Path_144165" data-name="Path 144165" d="M1107.856,490.45l2.665,1.539V470.459L1107.856,472Z" transform="translate(-929.463 -394.703)" fill="#bbc0e6"></path><g id="Group_150885" data-name="Group 150885" transform="translate(3.865 68.177)" style="mix-blend-mode: multiply;isolation: isolate"><g id="Group_150884" data-name="Group 150884"><g id="Group_150883" data-name="Group 150883" clip-path="url(#clip-path-14)"><path id="Path_144166" data-name="Path 144166" d="M31.2,427.55l-.405-.8-6.79-3.354v3.135l7.195,4.154Z" transform="translate(-24.006 -423.396)" fill="#e8ecf7"></path></g></g></g><g id="Group_150888" data-name="Group 150888" transform="translate(13.037 73.472)" style="mix-blend-mode: multiply;isolation: isolate"><g id="Group_150887" data-name="Group 150887"><g id="Group_150886" data-name="Group 150886" clip-path="url(#clip-path-14)"><path id="Path_144167" data-name="Path 144167" d="M88.157,460.434l-.405-.8-6.79-3.354v3.135l7.195,4.154Z" transform="translate(-80.963 -456.28)" fill="#e8ecf7"></path></g></g></g><g id="Group_150891" data-name="Group 150891" transform="translate(22.209 78.768)" style="mix-blend-mode: multiply;isolation: isolate"><g id="Group_150890" data-name="Group 150890"><g id="Group_150889" data-name="Group 150889" clip-path="url(#clip-path-14)"><path id="Path_144168" data-name="Path 144168" d="M145.115,493.318l-.405-.8-6.79-3.354V492.3l7.195,4.154Z" transform="translate(-137.92 -489.164)" fill="#e8ecf7"></path></g></g></g><g id="Group_150894" data-name="Group 150894" transform="translate(31.38 84.063)" style="mix-blend-mode: multiply;isolation: isolate"><g id="Group_150893" data-name="Group 150893"><g id="Group_150892" data-name="Group 150892" clip-path="url(#clip-path-14)"><path id="Path_144169" data-name="Path 144169" d="M202.072,526.2l-.405-.8-6.79-3.354v3.135l7.195,4.154Z" transform="translate(-194.877 -522.048)" fill="#e8ecf7"></path></g></g></g><g id="Group_150897" data-name="Group 150897" transform="translate(40.552 89.358)" style="mix-blend-mode: multiply;isolation: isolate"><g id="Group_150896" data-name="Group 150896"><g id="Group_150895" data-name="Group 150895" clip-path="url(#clip-path-14)"><path id="Path_144170" data-name="Path 144170" d="M259.029,559.085l-.405-.8-6.79-3.354v3.135l7.195,4.154Z" transform="translate(-251.834 -554.932)" fill="#e8ecf7"></path></g></g></g><g id="Group_150900" data-name="Group 150900" transform="translate(49.723 94.653)" style="mix-blend-mode: multiply;isolation: isolate"><g id="Group_150899" data-name="Group 150899"><g id="Group_150898" data-name="Group 150898" clip-path="url(#clip-path-14)"><path id="Path_144171" data-name="Path 144171" d="M315.986,591.969l-.405-.8-6.79-3.355v3.135l7.195,4.154Z" transform="translate(-308.791 -587.816)" fill="#e8ecf7"></path></g></g></g><g id="Group_150903" data-name="Group 150903" transform="translate(58.895 99.948)" style="mix-blend-mode: multiply;isolation: isolate"><g id="Group_150902" data-name="Group 150902"><g id="Group_150901" data-name="Group 150901" clip-path="url(#clip-path-14)"><path id="Path_144172" data-name="Path 144172" d="M372.943,624.853l-.405-.8-6.79-3.354v3.135l7.195,4.154Z" transform="translate(-365.748 -620.699)" fill="#e8ecf7"></path></g></g></g><g id="Group_150906" data-name="Group 150906" transform="translate(68.066 105.243)" style="mix-blend-mode: multiply;isolation: isolate"><g id="Group_150905" data-name="Group 150905"><g id="Group_150904" data-name="Group 150904" clip-path="url(#clip-path-14)"><path id="Path_144173" data-name="Path 144173" d="M429.9,657.738l-.405-.8-6.79-3.354v3.135l7.195,4.154Z" transform="translate(-422.705 -653.583)" fill="#e8ecf7"></path></g></g></g><g id="Group_150909" data-name="Group 150909" transform="translate(77.238 110.538)" style="mix-blend-mode: multiply;isolation: isolate"><g id="Group_150908" data-name="Group 150908"><g id="Group_150907" data-name="Group 150907" clip-path="url(#clip-path-14)"><path id="Path_144174" data-name="Path 144174" d="M486.857,690.621l-.4-.8-6.79-3.354V689.6l7.195,4.154Z" transform="translate(-479.662 -686.467)" fill="#e8ecf7"></path></g></g></g><g id="Group_150912" data-name="Group 150912" transform="translate(86.409 115.833)" style="mix-blend-mode: multiply;isolation: isolate"><g id="Group_150911" data-name="Group 150911"><g id="Group_150910" data-name="Group 150910" clip-path="url(#clip-path-14)"><path id="Path_144175" data-name="Path 144175" d="M543.814,723.506l-.405-.8-6.79-3.354v3.135l7.195,4.154Z" transform="translate(-536.62 -719.351)" fill="#e8ecf7"></path></g></g></g><path id="Path_144176" data-name="Path 144176" d="M538.179,720.342l-7.195-4.154v3.135l7.195,4.154Z" transform="translate(-445.483 -600.864)" fill="#e8ecf7"></path><path id="Path_144177" data-name="Path 144177" d="M575.666,740.473l.5-.29v3.135l-.5.29Z" transform="translate(-482.969 -620.995)" fill="#d1d7f3"></path><path id="Path_144178" data-name="Path 144178" d="M530.984,714.676l.5-.29,7.195,4.154-.5.29Z" transform="translate(-445.483 -599.352)" fill="#f6f6fb"></path><path id="Path_144179" data-name="Path 144179" d="M540.646,728.8l-6.023-3.477v.869l6.023,3.477Z" transform="translate(-448.536 -608.53)" fill="#6b67e9"></path><path id="Path_144180" data-name="Path 144180" d="M481.222,687.458l-7.195-4.154v3.135l7.195,4.154Z" transform="translate(-397.697 -573.275)" fill="#e8ecf7"></path><path id="Path_144181" data-name="Path 144181" d="M518.708,707.589l.5-.29v3.135l-.5.29Z" transform="translate(-435.183 -593.406)" fill="#d1d7f3"></path><path id="Path_144182" data-name="Path 144182" d="M474.027,681.792l.5-.29,7.195,4.154-.5.29Z" transform="translate(-397.697 -571.763)" fill="#f6f6fb"></path><path id="Path_144183" data-name="Path 144183" d="M483.69,695.919l-6.022-3.477v.869l6.022,3.477Z" transform="translate(-400.751 -580.941)" fill="#6b67e9"></path><path id="Path_144184" data-name="Path 144184" d="M424.265,654.574l-7.195-4.154v3.135l7.195,4.154Z" transform="translate(-349.911 -545.686)" fill="#e8ecf7"></path><path id="Path_144185" data-name="Path 144185" d="M461.751,674.705l.5-.29v3.135l-.5.29Z" transform="translate(-387.397 -565.817)" fill="#d1d7f3"></path><path id="Path_144186" data-name="Path 144186" d="M417.07,648.908l.5-.29,7.195,4.154-.5.29Z" transform="translate(-349.911 -544.174)" fill="#f6f6fb"></path><path id="Path_144187" data-name="Path 144187" d="M426.733,663.035l-6.022-3.477v.869l6.022,3.477Z" transform="translate(-352.965 -553.352)" fill="#6b67e9"></path><path id="Path_144188" data-name="Path 144188" d="M367.307,621.69l-7.195-4.154v3.135l7.195,4.154Z" transform="translate(-302.125 -518.097)" fill="#e8ecf7"></path><path id="Path_144189" data-name="Path 144189" d="M404.793,641.821l.5-.29v3.135l-.5.29Z" transform="translate(-339.612 -538.229)" fill="#d1d7f3"></path><path id="Path_144190" data-name="Path 144190" d="M360.112,616.024l.5-.29,7.195,4.154-.5.29Z" transform="translate(-302.125 -516.585)" fill="#f6f6fb"></path><path id="Path_144191" data-name="Path 144191" d="M369.775,630.151l-6.023-3.477v.869l6.023,3.477Z" transform="translate(-305.179 -525.764)" fill="#6b67e9"></path><path id="Path_144192" data-name="Path 144192" d="M310.35,588.806l-7.195-4.154v3.135l7.195,4.154Z" transform="translate(-254.339 -490.508)" fill="#e8ecf7"></path><path id="Path_144193" data-name="Path 144193" d="M347.836,608.937l.5-.29v3.135l-.5.29Z" transform="translate(-291.826 -510.64)" fill="#d1d7f3"></path><path id="Path_144194" data-name="Path 144194" d="M303.155,583.14l.5-.29L310.852,587l-.5.29Z" transform="translate(-254.339 -488.997)" fill="#f6f6fb"></path><path id="Path_144195" data-name="Path 144195" d="M312.818,597.267,306.8,593.79v.869l6.022,3.477Z" transform="translate(-257.394 -498.175)" fill="#6b67e9"></path><path id="Path_144196" data-name="Path 144196" d="M253.393,555.922l-7.195-4.154V554.9l7.195,4.154Z" transform="translate(-206.554 -462.919)" fill="#e8ecf7"></path><path id="Path_144197" data-name="Path 144197" d="M290.879,576.053l.5-.29V578.9l-.5.29Z" transform="translate(-244.04 -483.051)" fill="#d1d7f3"></path><path id="Path_144198" data-name="Path 144198" d="M246.2,550.256l.5-.29,7.195,4.154-.5.29Z" transform="translate(-206.554 -461.408)" fill="#f6f6fb"></path><path id="Path_144199" data-name="Path 144199" d="M255.86,564.383l-6.022-3.477v.869l6.022,3.477Z" transform="translate(-209.608 -470.586)" fill="#6b67e9"></path><path id="Path_144200" data-name="Path 144200" d="M196.435,523.038l-7.195-4.154v3.135l7.195,4.154Z" transform="translate(-158.768 -435.331)" fill="#e8ecf7"></path><path id="Path_144201" data-name="Path 144201" d="M233.922,543.169l.5-.29v3.135l-.5.29Z" transform="translate(-196.254 -455.462)" fill="#d1d7f3"></path><path id="Path_144202" data-name="Path 144202" d="M189.24,517.372l.5-.29,7.195,4.154-.5.29Z" transform="translate(-158.768 -433.819)" fill="#f6f6fb"></path><path id="Path_144203" data-name="Path 144203" d="M198.9,531.5l-6.023-3.477v.869l6.023,3.477Z" transform="translate(-161.821 -442.997)" fill="#6b67e9"></path><path id="Path_144204" data-name="Path 144204" d="M139.478,490.154,132.283,486v3.135l7.195,4.154Z" transform="translate(-110.982 -407.742)" fill="#e8ecf7"></path><path id="Path_144205" data-name="Path 144205" d="M176.964,510.285l.5-.29v3.135l-.5.29Z" transform="translate(-148.469 -427.873)" fill="#d1d7f3"></path><path id="Path_144206" data-name="Path 144206" d="M132.283,484.488l.5-.29,7.195,4.154-.5.29Z" transform="translate(-110.982 -406.23)" fill="#f6f6fb"></path><path id="Path_144207" data-name="Path 144207" d="M141.945,498.615l-6.023-3.477v.869l6.023,3.477Z" transform="translate(-114.035 -415.408)" fill="#6b67e9"></path><path id="Path_144208" data-name="Path 144208" d="M82.521,457.27l-7.195-4.154v3.135l7.195,4.154Z" transform="translate(-63.196 -380.153)" fill="#e8ecf7"></path><path id="Path_144209" data-name="Path 144209" d="M120.007,477.4l.5-.29v3.135l-.5.29Z" transform="translate(-100.683 -400.284)" fill="#d1d7f3"></path><path id="Path_144210" data-name="Path 144210" d="M75.326,451.6l.5-.29,7.195,4.154-.5.29Z" transform="translate(-63.196 -378.641)" fill="#f6f6fb"></path><path id="Path_144211" data-name="Path 144211" d="M84.988,465.731l-6.023-3.477v.869l6.023,3.477Z" transform="translate(-66.25 -387.819)" fill="#6b67e9"></path><path id="Path_144212" data-name="Path 144212" d="M25.563,424.386l-7.195-4.154v3.135l7.195,4.154Z" transform="translate(-15.411 -352.564)" fill="#e8ecf7"></path><path id="Path_144213" data-name="Path 144213" d="M63.049,444.517l.5-.29v3.135l-.5.29Z" transform="translate(-52.897 -372.696)" fill="#d1d7f3"></path><path id="Path_144214" data-name="Path 144214" d="M18.369,418.72l.5-.29,7.195,4.154-.5.29Z" transform="translate(-15.411 -351.053)" fill="#f6f6fb"></path><path id="Path_144215" data-name="Path 144215" d="M28.031,432.847l-6.022-3.477v.869l6.022,3.477Z" transform="translate(-18.465 -360.231)" fill="#6b67e9"></path><path id="Path_144216" data-name="Path 144216" d="M324.634,1.692l98.824,57.056V57.06L324.634,0Z" transform="translate(-272.36 -0.003)" fill="#423eaf"></path><rect id="Rectangle_50761" data-name="Rectangle 50761" width="51.513" height="1.688" transform="translate(151.098 57.057)" fill="#423eaf"></rect><path id="Path_144217" data-name="Path 144217" d="M613.729,415.947,666,356.025v-1.688l-52.273,59.923Z" transform="translate(-514.903 -297.279)" fill="#423eaf"></path><path id="Path_144218" data-name="Path 144218" d="M0,373.822l98.826,57.057v-1.688L0,372.134Z" transform="translate(0 -312.211)" fill="#5652cc"></path><path id="Path_144219" data-name="Path 144219" d="M324.625,0h51.514l98.825,57.057H423.451Z" transform="translate(-272.352 -0.002)" fill="#ced3f8"></path><path id="Path_144220" data-name="Path 144220" d="M448.238,50.12l-51.512,0,1.067.616h51.513Zm-12.987-7.5-51.512,0,1.067.616h51.513Zm17.316,10-51.512,0,1.067.616h51.514Zm-12.987-7.5-51.512,0,1.067.616h51.513Zm4.329,2.5-51.512,0,1.067.616h51.514Zm21.645,12.5-51.512,0,1.067.616h51.514Zm4.329,2.5-51.512,0,1.067.616h51.514Zm-12.987-7.5-51.512,0,1.067.616h51.514Zm4.329,2.5-51.512,0,1.067.616h51.513Zm-30.3-17.5-51.512,0,1.067.616H431.99Zm-4.329-2.5-51.512,0,1.067.616h51.513Zm-4.329-2.5-51.512,0,1.067.616h51.514Zm-4.329-2.5-51.512,0,1.067.616H419Zm-4.329-2.5-51.512,0,1.067.616h51.513Zm-4.329-2.5-51.512,0,1.067.616h51.513Zm-4.329-2.5-51.512,0,1.067.616h51.513Zm-4.329-2.5-51.512,0,1.067.616h51.514Zm-4.329-2.5-51.512,0,1.067.616h51.513Zm-4.329-2.5-51.512,0,1.067.616h51.513Zm-4.332-2.5H336.12l1.067.616H388.7Zm-4.326-2.5-51.512,0,1.067.616h51.514Zm-4.329-2.5-51.512,0,1.067.616h51.513Zm-54.34,29.8,2.665,1.539V11.722l-2.665-1.539Z" transform="translate(-272.36 -8.495)" fill="#5652cc"></path><path id="Path_144221" data-name="Path 144221" d="M0,59.922,52.273,0,151.1,57.056,98.826,116.979Z" transform="translate(0 0.001)" fill="#ced3f8"></path><path id="Path_144222" data-name="Path 144222" d="M139.105,50.133l-52.271,59.92,1.067.616,52.273-59.923Zm-12.987-7.5-52.271,59.92,1.067.616,52.273-59.923Zm17.316,10-52.271,59.92,1.067.616L144.5,53.246Zm-12.987-7.5-52.271,59.92,1.067.616,52.273-59.923Zm4.329,2.5-52.271,59.92,1.067.616,52.273-59.923Zm21.645,12.5-52.271,59.92,1.067.616L157.49,60.744Zm4.329,2.5-52.271,59.92,1.067.616,52.273-59.923Zm-12.987-7.5-52.271,59.92,1.067.616,52.273-59.923Zm4.329,2.5-52.271,59.92,1.067.616,52.273-59.922Zm-30.3-17.5-52.271,59.92,1.067.616,52.273-59.923Zm-4.329-2.5L65.189,97.556l1.067.616,52.273-59.922Zm-4.329-2.5L60.86,95.056l1.067.616L114.2,35.749Zm-4.329-2.5L56.531,92.556l1.067.616L109.871,33.25Zm-4.329-2.5L52.2,90.057l1.067.616L105.542,30.75Zm-4.329-2.5L47.873,87.557l1.067.616,52.273-59.923Zm-4.329-2.5L43.544,85.058l1.067.616L96.884,25.751Zm-4.329-2.5L39.215,82.559l1.067.616L92.555,23.252Zm-4.329-2.5L34.886,80.059l1.067.616L88.226,20.752Zm-4.329-2.5L30.557,77.56l1.067.616L83.9,18.253Zm-4.332-2.5L26.228,75.06l1.067.616L79.568,15.753Zm-4.326-2.5L21.9,72.561l1.067.616L75.239,13.254Zm-4.329-2.5L17.57,70.061l1.067.616L70.909,10.755Z" transform="translate(-14.741 -8.508)" fill="#6b67e9"></path><path id="Path_144223" data-name="Path 144223" d="M457.177,858.317l.5.291-.5.29v-.581Z" transform="translate(-383.56 -720.107)" fill="#f3faff"></path><path id="Path_144224" data-name="Path 144224" d="M1075.927,726.107l-15.808,9.127v-.743l15.808-9.127Z" transform="translate(-889.413 -608.562)" fill="#bbc0e6"></path><path id="Path_144225" data-name="Path 144225" d="M1062.412,779.828l-2.294,1.324v-1.4l2.294-1.324Z" transform="translate(-889.413 -653.085)" fill="#bbc0e6"></path><path id="Path_144226" data-name="Path 144226" d="M1104.376,755.6l-2.294,1.324v-1.4l2.294-1.324Z" transform="translate(-924.62 -632.758)" fill="#bbc0e6"></path><path id="Path_144227" data-name="Path 144227" d="M994.1,746.064l-12.672-7.316V736.61l12.672,7.316Z" transform="translate(-823.39 -617.997)" fill="#dae0f5"></path><path id="Path_144228" data-name="Path 144228" d="M1095.785,763.824l-1.209-.7,1.209-.7Z" transform="translate(-918.322 -639.658)" fill="#dae0f5"></path><path id="Path_144229" data-name="Path 144229" d="M994.1,696.372l-12.672-7.316,15.808-9.127,12.672,7.316Z" transform="translate(-823.39 -570.443)" fill="#f6f6fb"></path><g id="Group_150917" data-name="Group 150917" transform="translate(170.706 116.802)" style="mix-blend-mode: multiply;isolation: isolate"><g id="Group_150916" data-name="Group 150916"><g id="Group_150915" data-name="Group 150915" clip-path="url(#clip-path-24)"><g id="Group_150914" data-name="Group 150914" transform="translate(0)"><g id="Group_150913" data-name="Group 150913" clip-path="url(#clip-path-25)"><rect id="Rectangle_50762" data-name="Rectangle 50762" width="19.512" height="11.265" fill="url(#linear-gradient-5)"></rect></g></g></g></g></g><g id="Group_150922" data-name="Group 150922" transform="translate(171.448 113.849)" style="mix-blend-mode: multiply;isolation: isolate"><g id="Group_150921" data-name="Group 150921"><g id="Group_150920" data-name="Group 150920" clip-path="url(#clip-path-26)"><g id="Group_150919" data-name="Group 150919" transform="translate(0.001)"><g id="Group_150918" data-name="Group 150918" clip-path="url(#clip-path-27)"><rect id="Rectangle_50764" data-name="Rectangle 50764" width="15.065" height="10.17" fill="url(#linear-gradient-6)"></rect></g></g></g></g></g><path id="Path_144232" data-name="Path 144232" d="M1015.289,645.5l9.656,5.574-10.52,6.074-9.656-5.574Z" transform="translate(-842.977 -541.561)" fill="#f1f1f6"></path><path id="Path_144233" data-name="Path 144233" d="M1004.77,683.227l9.656,5.575v8.427l-9.656-5.574Z" transform="translate(-842.977 -573.211)" fill="#ced3f8"></path><path id="Path_144234" data-name="Path 144234" d="M1064.735,686.2l10.519-6.074v8.428l-10.519,6.074Z" transform="translate(-893.286 -570.607)" fill="#bbc0e6"></path><path id="Path_144235" data-name="Path 144235" d="M1033.107,662.34l9.656,5.575-1.5.868-9.656-5.575Z" transform="translate(-865.49 -555.686)" fill="#fff"></path><path id="Path_144236" data-name="Path 144236" d="M1093.07,696.963v1.117l-1.5.868v-1.117Z" transform="translate(-915.797 -584.734)" fill="#dfe4f4"></path><path id="Path_144237" data-name="Path 144237" d="M1114.6,724.141l-.472-.273-.473.818.128.073.255-.442v1.262l.18-.1v-1.262l.255.147Z" transform="translate(-934.331 -607.308)" fill="#807dfb"></path><path id="Path_144238" data-name="Path 144238" d="M1122.425,719.627l-.472-.273-.472.818.127.073.255-.442v1.262l.18-.1V719.7l.255.147Z" transform="translate(-940.894 -603.521)" fill="#807dfb"></path><path id="Path_144239" data-name="Path 144239" d="M1015.289,589.558l9.656,5.574-10.52,6.074-9.656-5.574Z" transform="translate(-842.977 -494.625)" fill="#807dfb"></path><path id="Path_144240" data-name="Path 144240" d="M1004.77,627.282l9.656,5.575v8.428l-9.656-5.574Z" transform="translate(-842.977 -526.274)" fill="#6b67e9"></path><path id="Path_144241" data-name="Path 144241" d="M1064.735,630.255l10.519-6.074v8.428l-10.519,6.074Z" transform="translate(-893.286 -523.672)" fill="#807dfb"></path><path id="Path_144242" data-name="Path 144242" d="M1033.107,606.4l9.656,5.575-1.5.868-9.656-5.575Z" transform="translate(-865.49 -508.75)" fill="#fff"></path><path id="Path_144243" data-name="Path 144243" d="M1093.07,641.018v1.117l-1.5.868v-1.117Z" transform="translate(-915.797 -537.798)" fill="#dfe4f4"></path><path id="Path_144244" data-name="Path 144244" d="M1114.6,668.2l-.472-.273-.473.818.128.073.255-.442v1.262l.18-.1V668.27l.255.147Z" transform="translate(-934.331 -560.372)" fill="#423eaf"></path><path id="Path_144245" data-name="Path 144245" d="M1122.425,663.682l-.472-.273-.472.818.127.073.255-.442v1.262l.18-.1v-1.262l.255.147Z" transform="translate(-940.894 -556.584)" fill="#423eaf"></path></g></g></g></g></g></g></svg> 