<?xml version="1.0" encoding="UTF-8"?> <svg xmlns="http://www.w3.org/2000/svg" width="141" height="32" viewBox="0 0 141 32" fill="none"><path fill-rule="evenodd" clip-rule="evenodd" d="M10.7721 21.8678L19.0461 17.091C19.2958 16.9473 19.5032 16.7403 19.6473 16.4909C19.7915 16.2415 19.8675 15.9585 19.8675 15.6704C19.8675 15.3823 19.7915 15.0993 19.6473 14.8499C19.5032 14.6005 19.2958 14.3935 19.0461 14.2498L10.9507 9.57609C9.49468 8.73571 8.35318 9.8402 8.35318 10.9167V20.4209C8.35194 20.7054 8.42483 20.9852 8.56465 21.2329C8.70447 21.4806 8.9064 21.6875 9.15056 21.8334C9.39472 21.9793 9.67266 22.0591 9.95702 22.0649C10.2414 22.0706 10.5224 22.0022 10.7723 21.8664L10.7721 21.8678ZM12.1757 7.54737L22.7948 13.6779C23.1236 13.8678 23.4967 13.9678 23.8763 13.9678C24.256 13.9678 24.629 13.8678 24.9578 13.6779L25.0309 13.6357C25.2805 13.4919 25.4878 13.2849 25.632 13.0355C25.7762 12.7861 25.8521 12.5031 25.8521 12.2151C25.8521 11.927 25.7762 11.644 25.632 11.3946C25.4878 11.1452 25.2805 10.9382 25.0309 10.7944L10.9505 2.66538C10.7046 2.48982 10.4151 2.38547 10.1137 2.3638C9.81238 2.34213 9.51093 2.40398 9.24244 2.54254C8.97396 2.68111 8.74888 2.89103 8.59196 3.14921C8.43504 3.4074 8.35235 3.70386 8.35298 4.00599V4.16405C8.35329 4.23106 8.33585 4.29698 8.30247 4.3551C8.2691 4.41322 8.22099 4.46149 8.16296 4.49501C8.10492 4.52852 8.03902 4.54609 7.972 4.54596C7.90498 4.54582 7.83924 4.52796 7.78134 4.4942L6.24506 3.6076C6.17608 3.56785 6.12122 3.50758 6.08815 3.43516C6.05508 3.36274 6.04542 3.28179 6.06055 3.20363C6.58478 0.516828 9.69298 -0.907206 12.1757 0.635685L26.216 8.7421C26.8226 9.09293 27.3268 9.59658 27.6782 10.2029C28.0297 10.8092 28.2161 11.497 28.2191 12.1978C28.222 12.8986 28.0412 13.5879 27.6948 14.1971C27.3485 14.8063 26.8485 15.3141 26.2448 15.67L9.5075 25.3345C9.15648 25.5372 8.86501 25.8287 8.66235 26.1797C8.45969 26.5307 8.35298 26.9289 8.35298 27.3342C8.35209 27.6365 8.4346 27.9331 8.59142 28.1915C8.74824 28.4499 8.97328 28.66 9.24181 28.7988C9.51034 28.9375 9.81191 28.9995 10.1134 28.9778C10.4149 28.9562 10.7045 28.8519 10.9505 28.6762L25.0309 20.5472C25.2805 20.4034 25.4878 20.1964 25.632 19.947C25.7762 19.6976 25.8521 19.4146 25.8521 19.1266C25.8521 18.8385 25.7762 18.5555 25.632 18.3061C25.4878 18.0567 25.2805 17.8497 25.0309 17.7059L24.8938 17.6269C24.8356 17.5936 24.7871 17.5456 24.7535 17.4876C24.7198 17.4296 24.7021 17.3638 24.7021 17.2967C24.7021 17.2297 24.7198 17.1638 24.7535 17.1059C24.7871 17.0479 24.8356 16.9998 24.8938 16.9666L26.4279 16.0808C26.4968 16.0408 26.5766 16.0234 26.6559 16.0311C26.7352 16.0387 26.8102 16.071 26.8703 16.1234C27.3454 16.5453 27.7137 17.0739 27.9447 17.6659C28.1756 18.2578 28.2628 18.8962 28.1989 19.5284C28.135 20.1606 27.9219 20.7686 27.5772 21.3024C27.2325 21.8361 26.7659 22.2804 26.216 22.5987L12.1757 30.7047C9.46688 32.3893 6.00911 30.5381 5.9843 27.3695L5.98332 27.3705V7.88373C5.98331 7.52649 5.88928 7.17553 5.71069 6.86613C5.53209 6.55674 5.27522 6.2998 4.96587 6.12112C4.71986 5.94558 4.43018 5.8413 4.12873 5.81972C3.82728 5.79814 3.52575 5.86011 3.25724 5.99883C2.98874 6.13755 2.76369 6.34764 2.60686 6.60598C2.45002 6.86433 2.3675 7.16091 2.36832 7.46313V23.8779C2.36732 24.1802 2.44973 24.4769 2.60651 24.7353C2.7633 24.9938 2.98834 25.204 3.2569 25.3428C3.52547 25.4815 3.82711 25.5435 4.12863 25.5219C4.43015 25.5002 4.71988 25.3958 4.96587 25.2201C5.02378 25.1864 5.08958 25.1685 5.15658 25.1684C5.22359 25.1683 5.28943 25.186 5.34744 25.2195C5.40545 25.253 5.45356 25.3013 5.48691 25.3594C5.52025 25.4175 5.53764 25.4834 5.53732 25.5504V27.3152C5.53749 27.3953 5.51249 27.4734 5.4658 27.5385C5.41912 27.6036 5.35311 27.6523 5.27719 27.6778C4.67479 27.8816 4.03246 27.9387 3.40355 27.8444C2.77464 27.75 2.1773 27.507 1.66122 27.1354C1.14513 26.7638 0.72518 26.2744 0.436255 25.7078C0.14733 25.1413 -0.00222078 24.514 2.49225e-05 23.8781V7.46333C2.49225e-05 4.35233 3.29974 2.49691 5.98454 3.97097C8.04853 5.1631 10.1122 6.35497 12.1757 7.54657V7.54737Z" fill="white"></path><path d="M10.5298 18.6545C10.5294 18.7659 10.5597 18.8752 10.6175 18.9704C10.6752 19.0657 10.7581 19.1431 10.857 19.1943C10.9559 19.2454 11.067 19.2683 11.1781 19.2604C11.2892 19.2524 11.396 19.214 11.4866 19.1493L16.6767 16.1534C16.7687 16.1003 16.8451 16.024 16.8983 15.932C16.9514 15.84 16.9794 15.7357 16.9794 15.6295C16.9794 15.5233 16.9514 15.4189 16.8983 15.3269C16.8451 15.235 16.7687 15.1586 16.6767 15.1055L11.4866 12.1094C11.396 12.0447 11.2892 12.0063 11.1782 11.9984C11.0671 11.9904 10.956 12.0133 10.8571 12.0644C10.7582 12.1156 10.6753 12.193 10.6175 12.2882C10.5598 12.3834 10.5294 12.4927 10.5298 12.604V18.6545Z" fill="#18F040"></path><path d="M41.5037 9.46115L39.3403 10.7431C38.9357 10.0411 38.5503 9.5832 38.1842 9.3695C37.7373 9.10829 37.2247 8.9811 36.7075 9.00313C36.0367 8.97905 35.3805 9.20317 34.8645 9.63261C34.6315 9.81888 34.4444 10.0561 34.3174 10.326C34.1904 10.5959 34.127 10.8913 34.132 11.1895C34.132 12.0519 34.773 12.7464 36.055 13.2729L37.8178 13.9932C39.2525 14.5732 40.3018 15.2809 40.9658 16.1165C41.644 16.9947 41.996 18.0811 41.9617 19.1901C41.9617 20.8156 41.4198 22.1587 40.3361 23.2193C39.8014 23.746 39.1659 24.1594 38.4677 24.4348C37.7695 24.7101 37.0228 24.8418 36.2725 24.8218C34.7385 24.8218 33.4717 24.3678 32.4722 23.4596C31.4878 22.5516 30.8735 21.2734 30.6294 19.6249L33.3306 19.0296C33.4525 20.0676 33.666 20.7849 33.9709 21.1816C34.5204 21.9447 35.3216 22.3263 36.3748 22.3263C36.7591 22.3373 37.1415 22.2688 37.498 22.125C37.8546 21.9812 38.1776 21.7653 38.4467 21.4907C38.72 21.2118 38.9339 20.8803 39.0756 20.5163C39.2172 20.1524 39.2837 19.7635 39.2709 19.3732C39.2744 19.0527 39.2261 18.7338 39.1278 18.4288C39.0305 18.1395 38.879 17.8715 38.6814 17.639C38.4542 17.377 38.19 17.1495 37.8972 16.9637C37.5335 16.7314 37.1505 16.5305 36.7525 16.3634L35.047 15.6537C32.6278 14.6311 31.4182 13.1354 31.4183 11.1665C31.4082 10.533 31.5396 9.90515 31.803 9.32886C32.0664 8.75257 32.4551 8.24235 32.9408 7.83542C33.9557 6.93502 35.2187 6.48475 36.7297 6.48462C38.7677 6.48489 40.359 7.47706 41.5037 9.46115Z" fill="white"></path><path d="M44.686 5.1687H47.2615V14.2804C48.0778 13.4963 49.163 13.0539 50.2949 13.044C51.554 13.044 52.5611 13.4523 53.3162 14.2688C53.9572 14.9784 54.2777 16.1117 54.2777 17.6685V24.5021H51.7021V17.9088C51.7021 17.016 51.5438 16.369 51.2271 15.9679C50.9104 15.5668 50.4011 15.3667 49.699 15.3677C48.7985 15.3677 48.1649 15.6462 47.7982 16.2032C47.4395 16.7681 47.2601 17.7373 47.2601 19.1107V24.5021H44.6846L44.686 5.1687Z" fill="white"></path><path d="M57.1517 8.71709C57.1497 8.49919 57.1923 8.28316 57.2769 8.08236C57.3616 7.88156 57.4865 7.70025 57.6439 7.54958C57.7964 7.39137 57.9797 7.26608 58.1824 7.18142C58.3852 7.09676 58.6032 7.05453 58.8229 7.05734C59.0444 7.05375 59.2643 7.09559 59.4691 7.18025C59.6738 7.2649 59.8591 7.39059 60.0134 7.54958C60.1728 7.7012 60.2988 7.88434 60.3836 8.08734C60.4683 8.29035 60.5099 8.50876 60.5056 8.7287C60.5092 8.95024 60.4674 9.17017 60.3828 9.37493C60.2981 9.57969 60.1724 9.76494 60.0134 9.91924C59.8618 10.0786 59.6786 10.2047 59.4756 10.2895C59.2726 10.3742 59.0542 10.4158 58.8343 10.4115C58.6127 10.4152 58.3927 10.3734 58.188 10.2887C57.9832 10.2041 57.798 10.0783 57.6437 9.91924C57.4839 9.76314 57.3578 9.57591 57.2731 9.36914C57.1885 9.16238 57.1472 8.94046 57.1517 8.71709ZM60.1164 13.3532V24.5024H57.5409V13.3532H60.1164Z" fill="white"></path><path d="M65.954 30.5692H63.3784V13.3523H65.954V14.5657C66.9688 13.5508 68.1211 13.0433 69.4109 13.0432C70.1288 13.0256 70.8415 13.1685 71.497 13.4616C72.1526 13.7547 72.7343 14.1906 73.1998 14.7374C74.2072 15.8592 74.7109 17.2748 74.7109 18.9843C74.7109 20.6555 74.2111 22.0482 73.2114 23.1623C72.7462 23.6981 72.1685 24.1248 71.5196 24.4118C70.8706 24.6989 70.1663 24.8393 69.4569 24.8231C68.1519 24.8231 66.9844 24.3003 65.9542 23.2548L65.954 30.5692ZM72.0781 18.9965C72.0781 17.9281 71.7881 17.0581 71.2081 16.3865C70.9384 16.0606 70.5986 15.7997 70.214 15.6233C69.8295 15.447 69.4101 15.3596 68.9871 15.3678C68.5548 15.3527 68.1245 15.4331 67.7267 15.6032C67.329 15.7734 66.9737 16.0291 66.6861 16.3523C66.0984 17.0087 65.8046 17.871 65.8047 18.9392C65.8047 19.9849 66.0985 20.8472 66.6861 21.5262C66.9691 21.8526 67.3216 22.1115 67.7178 22.2839C68.114 22.4562 68.5438 22.5376 68.9755 22.522C69.3958 22.5314 69.8128 22.4456 70.1954 22.2712C70.5779 22.0968 70.9161 21.8382 71.1847 21.5148C71.7895 20.8181 72.1086 19.9185 72.0781 18.9965Z" fill="white"></path><path d="M77.4355 13.3523H80.0111V14.3482C80.3717 13.9414 80.7971 13.5972 81.2703 13.3295C81.6838 13.1299 82.139 13.0319 82.5981 13.0434C83.355 13.0669 84.0911 13.2964 84.7272 13.7073L83.5481 16.0653C83.1389 15.7428 82.6379 15.5584 82.1172 15.5387C80.713 15.5387 80.011 16.5992 80.0111 18.7201V24.5007H77.4355V13.3523Z" fill="white"></path><path d="M85.4709 18.8478C85.4587 18.0804 85.606 17.3189 85.9036 16.6115C86.2012 15.9041 86.6424 15.2662 87.1995 14.7383C87.7513 14.1868 88.4089 13.7524 89.1328 13.4613C89.8567 13.1701 90.6319 13.0283 91.412 13.0442C92.1964 13.0285 92.9759 13.1716 93.7037 13.4646C94.4315 13.7577 95.0926 14.1948 95.6473 14.7497C96.2056 15.2929 96.6462 15.9451 96.9415 16.6659C97.2369 17.3866 97.3808 18.1605 97.3642 18.9392C97.3828 19.7211 97.2388 20.4984 96.9412 21.2217C96.6437 21.945 96.1991 22.5986 95.6357 23.1411C95.0722 23.6922 94.4042 24.125 93.6709 24.414C92.9376 24.703 92.1539 24.8423 91.366 24.8238C90.585 24.8428 89.8086 24.7001 89.0855 24.4046C88.3624 24.1091 87.7082 23.6673 87.1641 23.1069C86.0353 21.9769 85.4709 20.5572 85.4709 18.8478ZM88.1037 18.8936C88.1037 20.0078 88.4013 20.8892 88.9965 21.5378C89.3052 21.8652 89.6805 22.1225 90.0972 22.2924C90.5139 22.4622 90.9622 22.5406 91.4118 22.5222C92.4192 22.5222 93.2243 22.1979 93.8271 21.5492C94.4299 20.9005 94.7313 20.0344 94.7313 18.9508C94.7313 17.8673 94.4299 17.0011 93.8271 16.3522C93.5184 16.0249 93.143 15.7676 92.7263 15.5978C92.3096 15.4279 91.8614 15.3495 91.4118 15.3678C90.9657 15.351 90.5213 15.4302 90.1086 15.6C89.6958 15.7699 89.3243 16.0264 89.0193 16.3522C88.4088 17.0087 88.1036 17.8558 88.1037 18.8936Z" fill="white"></path><path d="M108.765 13.8341V17.2566C108.177 16.5394 107.651 16.0471 107.185 15.78C106.696 15.4968 106.137 15.3541 105.571 15.3678C105.12 15.3563 104.67 15.4411 104.254 15.6168C103.837 15.7924 103.463 16.0548 103.156 16.3864C102.511 17.0767 102.165 17.9946 102.194 18.9392C102.194 19.9848 102.504 20.8434 103.122 21.5147C103.425 21.8442 103.796 22.1046 104.208 22.2784C104.621 22.4522 105.066 22.5353 105.514 22.522C106.085 22.5338 106.65 22.3958 107.151 22.1218C107.609 21.8625 108.147 21.3589 108.765 20.6109V24.0106C107.801 24.5316 106.725 24.8105 105.629 24.8234C103.904 24.8234 102.462 24.2664 101.302 23.1523C100.736 22.6162 100.288 21.9674 99.9885 21.2478C99.6887 20.5281 99.5431 19.7536 99.5611 18.9742C99.5457 18.188 99.6946 17.4073 99.9981 16.682C100.302 15.9567 100.753 15.3026 101.324 14.7617C101.893 14.1999 102.57 13.7583 103.313 13.4632C104.056 13.1682 104.852 13.0257 105.651 13.0443C106.739 13.0414 107.81 13.3131 108.765 13.8341Z" fill="white"></path><path d="M114.443 5.1687V16.959L118.072 13.3532H121.529L116.687 18.0353L121.884 24.5027H118.542L114.856 19.7981L114.444 20.2102V24.5027H111.868V5.16909L114.443 5.1687Z" fill="white"></path><path d="M133.319 19.5351H125.329C125.398 20.4509 125.695 21.1796 126.222 21.7215C126.486 21.9873 126.803 22.1955 127.151 22.3333C127.5 22.471 127.873 22.5352 128.248 22.5218C128.814 22.5441 129.372 22.3836 129.839 22.064C130.251 21.759 130.721 21.1943 131.247 20.3699L133.422 21.5832C133.12 22.1095 132.763 22.6025 132.358 23.0541C132.006 23.444 131.601 23.783 131.156 24.0613C130.727 24.3251 130.26 24.5201 129.771 24.6394C129.242 24.7651 128.7 24.8266 128.157 24.8225C126.493 24.8225 125.157 24.2883 124.15 23.2199C123.143 22.144 122.639 20.7167 122.639 18.938C122.639 17.1753 123.128 15.7479 124.104 14.6561C125.089 13.5802 126.394 13.0421 128.019 13.042C129.66 13.042 130.957 13.5648 131.911 14.6103C132.857 15.6482 133.331 17.0867 133.331 18.9258L133.319 19.5351ZM130.675 17.429C130.316 16.055 129.45 15.368 128.076 15.368C127.777 15.3659 127.479 15.4143 127.195 15.5111C126.923 15.6048 126.67 15.7441 126.445 15.9231C126.218 16.1049 126.022 16.3235 125.867 16.5698C125.701 16.8351 125.577 17.1248 125.501 17.4284L130.675 17.429Z" fill="white"></path><path d="M138.997 15.7571V24.5025H136.421V15.7571H135.322V13.3533H136.421V9.26685H138.997V13.3533H141V15.7571H138.997Z" fill="white"></path></svg> 