<?xml version="1.0" encoding="UTF-8"?> <svg xmlns="http://www.w3.org/2000/svg" xmlns:xlink="http://www.w3.org/1999/xlink" id="Group_223184" data-name="Group 223184" width="48.002" height="48" viewBox="0 0 48.002 48"><defs><clipPath id="clip-path"><rect id="Rectangle_68537" data-name="Rectangle 68537" width="48.002" height="48" fill="none"></rect></clipPath></defs><g id="Group_223184-2" data-name="Group 223184" transform="translate(0 0)" clip-path="url(#clip-path)"><path id="Path_195550" data-name="Path 195550" d="M3.277,0C1.086,0-.013,1.1,0,3.277V20.966H20.956V0Z" transform="translate(0 0)" fill="#abffc7"></path><path id="Path_195551" data-name="Path 195551" d="M24.6,0V20.57a15.937,15.937,0,0,1,20.99.965V3.24C45.581,1.1,44.473,0,42.3,0Z" transform="translate(-1.44 0)" fill="#abffc7"></path><path id="Path_195552" data-name="Path 195552" d="M34.81,5.825a1.148,1.148,0,0,1,1.1,1.138v3.31h3.312a1.1,1.1,0,1,1,0,2.207H35.913v3.311a1.1,1.1,0,1,1-2.207,0V12.48H30.395a1.105,1.105,0,1,1-.121-2.207h3.433V6.963A1.084,1.084,0,0,1,34.81,5.825Z" transform="translate(-1.711 -0.341)" fill="#5b3deb"></path><path id="Path_195553" data-name="Path 195553" d="M6.715,10.549h9.054a1.1,1.1,0,1,1,0,2.207H6.938a1.16,1.16,0,0,1-1.268-.94C5.68,11.091,6.056,10.58,6.715,10.549Z" transform="translate(-0.332 -0.617)" fill="#5b3deb"></path><path id="Path_195554" data-name="Path 195554" d="M49.439,34.542A14.9,14.9,0,0,1,24.555,45.6H42.843a2.748,2.748,0,0,0,2.748-2.748v-18.3a14.836,14.836,0,0,1,3.849,9.989" transform="translate(-1.438 -1.437)" fill="#7f6bf6"></path><path id="Path_195555" data-name="Path 195555" d="M0,24.614V42.287c-.014,2.19,1.086,3.293,3.312,3.293h18.23a15.952,15.952,0,0,1-.966-20.965Z" transform="translate(0 -1.441)" fill="#abffc7"></path><path id="Path_195556" data-name="Path 195556" d="M15.374,30.971a1.183,1.183,0,0,1-.033,1.583L13,34.9l2.345,2.327A1.11,1.11,0,1,1,13.772,38.8L11.444,36.45,9.1,38.8a1.11,1.11,0,1,1-1.569-1.569L9.857,34.9,7.528,32.554a1.151,1.151,0,0,1,.008-1.594,1.186,1.186,0,0,1,1.563.025l2.345,2.327,2.329-2.327a1.139,1.139,0,0,1,1.6-.014Z" transform="translate(-0.422 -1.794)" fill="#5b3deb"></path><path id="Path_195557" data-name="Path 195557" d="M45.285,24.248v18.3A2.748,2.748,0,0,1,42.537,45.3H24.249A14.9,14.9,0,1,1,45.285,24.248" transform="translate(-1.132 -1.132)" fill="#5b3deb"></path><path id="Path_195558" data-name="Path 195558" d="M30.273,31.647h8.951a1.1,1.1,0,1,1,0,2.207H30.394a1.105,1.105,0,0,1-.121-2.207Z" transform="translate(-1.711 -1.853)" fill="#fff"></path><path id="Path_195559" data-name="Path 195559" d="M30.309,36.335h8.934a1.1,1.1,0,1,1,0,2.207H30.413a1.105,1.105,0,1,1-.1-2.208Z" transform="translate(-1.713 -2.127)" fill="#fff"></path></g></svg> 