<?xml version="1.0" encoding="UTF-8"?> <svg xmlns="http://www.w3.org/2000/svg" xmlns:xlink="http://www.w3.org/1999/xlink" width="47.788" height="48" viewBox="0 0 47.788 48"><defs><clipPath id="clip-path"><rect id="Rectangle_68536" data-name="Rectangle 68536" width="47.788" height="48" fill="none"></rect></clipPath></defs><g id="Group_223183" data-name="Group 223183" transform="translate(0 0)"><g id="Group_223183-2" data-name="Group 223183" transform="translate(0 0)" clip-path="url(#clip-path)"><path id="Path_195546" data-name="Path 195546" d="M26.124,26.06A10.832,10.832,0,0,0,36.958,36.891c.072,0,.141,0,.214,0v7.535A3.577,3.577,0,0,1,33.595,48H3.576A3.576,3.576,0,0,1,0,44.423V3.577A3.576,3.576,0,0,1,3.576,0H33.595a3.577,3.577,0,0,1,3.577,3.577V15.23c-.072,0-.141,0-.214,0A10.833,10.833,0,0,0,26.124,26.06" transform="translate(0 0)" fill="#abffc7" fill-rule="evenodd"></path><rect id="Rectangle_68530" data-name="Rectangle 68530" width="9.668" height="1.36" transform="translate(6.406 7.358)" fill="#fff"></rect><rect id="Rectangle_68531" data-name="Rectangle 68531" width="24.345" height="1.36" transform="translate(6.406 39.39)" fill="#fff"></rect><rect id="Rectangle_68532" data-name="Rectangle 68532" width="9.668" height="1.36" transform="translate(6.406 22.267)" fill="#fff"></rect><rect id="Rectangle_68533" data-name="Rectangle 68533" width="24.345" height="1.36" transform="translate(6.406 13.065)" fill="#fff"></rect><rect id="Rectangle_68534" data-name="Rectangle 68534" width="24.345" height="1.36" transform="translate(6.413 34.273)" fill="#fff"></rect><rect id="Rectangle_68535" data-name="Rectangle 68535" width="24.345" height="1.36" transform="translate(6.289 28.736)" fill="#fff"></rect><path id="Path_195547" data-name="Path 195547" d="M35.61,14.319V35.978c-.072,0-.141,0-.214,0a10.832,10.832,0,1,1,0-21.664c.072,0,.141,0,.214,0" transform="translate(1.562 0.911)" fill="#5b3deb" fill-rule="evenodd"></path><path id="Path_195548" data-name="Path 195548" d="M45.566,25.15A10.831,10.831,0,0,1,34.949,35.978V14.319A10.831,10.831,0,0,1,45.566,25.15" transform="translate(2.223 0.911)" fill="#7f6bf6" fill-rule="evenodd"></path><path id="Path_195549" data-name="Path 195549" d="M34.633,26.446l6.71-6.854,1.736,1.7-8.56,8.744L29.4,24.095l1.84-1.586Z" transform="translate(1.87 1.246)" fill="#fff" fill-rule="evenodd"></path></g></g></svg> 