<?xml version="1.0" encoding="UTF-8"?> <svg xmlns="http://www.w3.org/2000/svg" xmlns:xlink="http://www.w3.org/1999/xlink" width="42.119" height="48" viewBox="0 0 42.119 48"><defs><clipPath id="clip-path"><rect id="Rectangle_68528" data-name="Rectangle 68528" width="42.119" height="48" fill="none"></rect></clipPath></defs><g id="Group_223181" data-name="Group 223181" transform="translate(0 0)"><g id="Group_223181-2" data-name="Group 223181" transform="translate(0 0)" clip-path="url(#clip-path)"><path id="Path_195535" data-name="Path 195535" d="M38.789,17.041H27.114V5.624a16.731,16.731,0,0,1,1.986.7.573.573,0,0,0-.274.489v7.932a.577.577,0,0,0,.581.575h7.932a.57.57,0,0,0,.569-.527,17.315,17.315,0,0,1,.881,2.245" transform="translate(-1.686 -0.35)" fill="#abffc7"></path><path id="Path_195536" data-name="Path 195536" d="M37.855,22.029c0,5.086-1.826,9.221-3.3,12.545-.94,2.137-1.757,3.979-1.757,5.387v8.345H14.983V44.429H10.911c-2.239,0-4.773,0-5.391-2.368a46.892,46.892,0,0,1-.794-6.7H2.6A2.451,2.451,0,0,1,.188,33.914a2.481,2.481,0,0,1,.489-2.653C1.89,30.047,4.43,26.91,4.5,26.142a6.915,6.915,0,0,0-.37-1.7,8.853,8.853,0,0,1-.473-2.411,17.116,17.116,0,0,1,17.1-17.1c.167,0,.339,0,.5.006a.488.488,0,0,0,0,.085.648.648,0,0,0,.649.65h1.579v.988H21.9a.65.65,0,0,0,0,1.3h1.579v.988H21.9a.65.65,0,0,0,0,1.3h1.579v.988H21.9a.647.647,0,1,0,0,1.294h1.579v.988H21.9a.649.649,0,0,0,0,1.3h1.579V15.8H21.9a.65.65,0,0,0,0,1.3h1.579a1.9,1.9,0,0,0,1.837,1.836V20.52a.649.649,0,1,0,1.3,0V18.941h.988V20.52a.647.647,0,1,0,1.294,0V18.941h.988V20.52a.65.65,0,0,0,1.3,0V18.941h.988V20.52a.65.65,0,0,0,1.3,0V18.941h.988V20.52a.647.647,0,1,0,1.294,0V18.941h.993V20.52a.648.648,0,0,0,.644.65.633.633,0,0,0,.425-.161c.022.339.032.677.032,1.02" transform="translate(0 -0.306)" fill="#abffc7"></path><path id="Path_195537" data-name="Path 195537" d="M38.022,14.837v.006a.569.569,0,0,1-.569.526H29.521a.576.576,0,0,1-.58-.575V6.862a.572.572,0,0,1,.274-.489,17.163,17.163,0,0,1,8.807,8.464" transform="translate(-1.8 -0.396)" fill="#5b3deb"></path><path id="Path_195538" data-name="Path 195538" d="M38.046,6.857v7.932a.109.109,0,0,1-.006.042,17.15,17.15,0,0,0-8.807-8.463.6.6,0,0,1,.306-.086h7.932a.575.575,0,0,1,.575.575" transform="translate(-1.818 -0.39)" fill="#7f6bf6"></path><path id="Path_195539" data-name="Path 195539" d="M42.879,7.653a.65.65,0,0,0,0-1.3H41.3V5.365h1.579a.648.648,0,1,0,0-1.3H41.295a1.9,1.9,0,0,0-1.837-1.842V.65a.647.647,0,1,0-1.294,0V2.228H37.17V.65a.647.647,0,1,0-1.294,0V2.228h-.988V.65a.65.65,0,1,0-1.3,0V2.228H32.6V.65a.65.65,0,1,0-1.3,0V2.228h-.988V.65a.647.647,0,1,0-1.294,0V2.228H28.03V.65a.649.649,0,1,0-1.3,0V2.228A1.9,1.9,0,0,0,24.894,4.07H23.315a.65.65,0,0,0-.645.559,17,17,0,0,1,4.168.644v-1.1H39.351V16.691h-.838a17.118,17.118,0,0,1,.72,4.011.639.639,0,0,0,.225-.489V18.635A1.9,1.9,0,0,0,41.295,16.8h1.584a.65.65,0,0,0,0-1.3H41.3v-.988h1.579a.65.65,0,0,0,0-1.3H41.3v-.988h1.579a.647.647,0,1,0,0-1.294H41.3V9.94h1.579a.649.649,0,1,0,0-1.3H41.3V7.653Z" transform="translate(-1.41 0)" fill="#7f6bf6"></path><path id="Path_195540" data-name="Path 195540" d="M39.231,21.009a.63.63,0,0,1-.424.161.648.648,0,0,1-.645-.65V18.941h-.993v1.579a.647.647,0,1,1-1.294,0V18.941h-.988v1.579a.649.649,0,1,1-1.3,0V18.941H32.6v1.579a.65.65,0,1,1-1.3,0V18.941h-.988v1.579a.647.647,0,1,1-1.294,0V18.941h-.988v1.579a.65.65,0,1,1-1.3,0V18.941a1.9,1.9,0,0,1-1.837-1.836H23.314a.65.65,0,1,1,0-1.3h1.578v-.988H23.314a.649.649,0,1,1,0-1.3h1.578v-.988H23.314a.647.647,0,1,1,0-1.294h1.578v-.988H23.314a.65.65,0,1,1,0-1.3h1.578V7.96H23.314a.65.65,0,1,1,0-1.3h1.578V5.671H23.314a.648.648,0,0,1-.65-.65.408.408,0,0,1,.006-.085,16.95,16.95,0,0,1,4.167.644V17H38.512a17.134,17.134,0,0,1,.719,4.012" transform="translate(-1.409 -0.307)" fill="#5b3deb"></path></g></g></svg> 