<?xml version="1.0" encoding="UTF-8"?> <svg xmlns="http://www.w3.org/2000/svg" xmlns:xlink="http://www.w3.org/1999/xlink" width="40.862" height="48" viewBox="0 0 40.862 48"><defs><clipPath id="clip-path"><rect id="Rectangle_68527" data-name="Rectangle 68527" width="40.862" height="48" fill="none"></rect></clipPath></defs><g id="Group_223180" data-name="Group 223180" transform="translate(0 0)"><g id="Group_223180-2" data-name="Group 223180" transform="translate(0 0)" clip-path="url(#clip-path)"><path id="Path_195522" data-name="Path 195522" d="M40.862,46.646a17.177,17.177,0,0,1-.211,2.514,3.132,3.132,0,0,1-3.119,2.347c-2.891.011-5.781,0-8.673,0-8.217,0-16.434-.066-24.651.037C1.4,51.583-.233,50.084.027,47.293c.018-.205,0-.413,0-.647Z" transform="translate(0 -9.222)" fill="#7f6bf6"></path><path id="Path_195523" data-name="Path 195523" d="M34.132,58.069a.732.732,0,0,1-.676.749,3.674,3.674,0,0,1-.524.017h-20.5c-.747,0-1.118-.27-1.117-.8s.375-.807,1.115-.809H15.4V54.808H30.075v2.413c1,0,1.942,0,2.883,0a2.424,2.424,0,0,1,.524.018.757.757,0,0,1,.65.829" transform="translate(-2.238 -10.835)" fill="#7f6bf6"></path><path id="Path_195524" data-name="Path 195524" d="M22.2,18.5a3.523,3.523,0,0,1,.023-.382c2.056,0,4.109-.027,6.165-.042a2.731,2.731,0,0,1,.033.437A3.111,3.111,0,1,1,22.2,18.5" transform="translate(-4.389 -3.573)" fill="#abffc7"></path><path id="Path_195525" data-name="Path 195525" d="M40.828,28.59V39.254H.087C.078,39.138.055,39,.055,38.873c0-.615,0-1.233,0-1.852v-.452c0-.7.014-1.34,0-1.968V30.223q0-4.418,0-8.836A3.249,3.249,0,0,1,3,18.06c.083-.01.163,0,.3,0a1.853,1.853,0,0,1,.935-.2c2.256.108,4.508.168,6.76.2v.07c0,.372.14.567.461.6.354.023.712,0,1.085,0v-.656c.358,0,.712,0,1.069,0v1.154c.41.051.8.1,1.187.163a.344.344,0,0,1,.233.172c.251.707.484,1.419.745,2.2-.195.256-.461.6-.712.926.479.484.939.949,1.414,1.424l.879-.675c.8.316,1.531.6,2.257.893a.355.355,0,0,1,.177.228c.061.326.1.661.144.992h2c.047-.359.083-.684.144-1.005a.311.311,0,0,1,.153-.209c.735-.3,1.475-.582,2.289-.894.233.182.563.433.861.666.484-.484.944-.945,1.419-1.424-.251-.326-.517-.67-.712-.926.26-.773.493-1.475.74-2.168a.376.376,0,0,1,.251-.2c.382-.065.773-.107,1.177-.158V18.009H29.34v.758h.791c.615,0,.758-.148.758-.758v0c2.225,0,4.444-.014,6.663.019a.892.892,0,0,1,.344.07h0a3.214,3.214,0,0,1,2.922,3.228c.018,2.425,0,4.848,0,7.268" transform="translate(-0.01 -3.531)" fill="#abffc7"></path><path id="Path_195526" data-name="Path 195526" d="M30.363,15.362a.431.431,0,0,1-.293-.2c-.279-.624-.531-1.256-.819-1.946.266-.344.586-.763.879-1.144l-1.424-1.424c-.33.256-.693.526-1.037.814a.367.367,0,0,1-.47.047,11.7,11.7,0,0,0-1.433-.582c-.223-.075-.311-.163-.335-.381-.047-.457-.108-.912-.163-1.364h-2c-.056.465-.116.912-.163,1.359a.387.387,0,0,1-.326.386,11.277,11.277,0,0,0-1.433.582.373.373,0,0,1-.475-.047c-.344-.288-.707-.554-1.033-.81-.48.484-.944.954-1.424,1.428.3.387.615.8.875,1.131-.288.688-.544,1.321-.823,1.945a.425.425,0,0,1-.289.2c-.4.07-.818.112-1.228.163v.842q2.122.013,4.235-.01a3.107,3.107,0,0,1,6.165-.042q2.122-.022,4.243-.023v-.777c-.424-.051-.828-.088-1.228-.153" transform="translate(-3.351 -1.815)" fill="#7f6bf6"></path><path id="Path_195527" data-name="Path 195527" d="M31.592,18.045v1.233c-.405.051-.8.093-1.177.158a.377.377,0,0,0-.251.2c-.247.694-.48,1.4-.741,2.169.2.256.461.6.712.926-.475.479-.935.939-1.419,1.424-.3-.233-.628-.485-.861-.666-.814.312-1.554.6-2.289.894a.314.314,0,0,0-.154.209c-.06.321-.1.647-.144,1h-2c-.047-.33-.084-.665-.144-.991a.355.355,0,0,0-.177-.228c-.726-.3-1.457-.577-2.257-.893l-.879.674c-.475-.474-.935-.939-1.414-1.423.251-.321.516-.67.712-.926-.261-.782-.493-1.494-.745-2.2a.345.345,0,0,0-.233-.172c-.386-.065-.777-.112-1.187-.163V18.12q2.122.013,4.235-.01a3.32,3.32,0,0,0-.023.382,3.111,3.111,0,1,0,6.221.014,2.731,2.731,0,0,0-.033-.437q2.122-.02,4.243-.023" transform="translate(-3.351 -3.567)" fill="#5b3deb"></path><path id="Path_195528" data-name="Path 195528" d="M38.106,18.039v0c0,.61-.144.753-.758.758h-.791v-.758c.517,0,1.033,0,1.549,0" transform="translate(-7.227 -3.566)" fill="#5b3deb"></path><path id="Path_195529" data-name="Path 195529" d="M42.806,10.394a1.57,1.57,0,0,1-1.647,1.261,1.459,1.459,0,0,1-1.252-.806.41.41,0,0,0-.442-.246c-.437.018-.875,0-1.354,0v.437c0,1.7,0,3.4,0,5.109-.517,0-1.033,0-1.55,0V15.87l.512-.028V10.287c0-.573.159-.731.712-.731.577,0,1.149-.009,1.726,0a.371.371,0,0,0,.387-.228,1.545,1.545,0,0,1,1.94-.721,1.592,1.592,0,0,1,.972,1.782" transform="translate(-7.227 -1.681)" fill="#7f6bf6"></path><path id="Path_195530" data-name="Path 195530" d="M15.234,18.129v.656c-.372,0-.731.018-1.084,0-.321-.028-.461-.223-.461-.6v-.07l1.544.014" transform="translate(-2.707 -3.581)" fill="#5b3deb"></path><path id="Path_195531" data-name="Path 195531" d="M14.067,15.853v.372l-1.544-.014q-.007-1.759,0-3.518V10.581c-.545,0-1.057-.009-1.568.014-.079,0-.172.148-.228.241A1.57,1.57,0,1,1,8.433,8.794a1.549,1.549,0,0,1,2.294.521.364.364,0,0,0,.391.223c.6-.009,1.191,0,1.787,0,.475,0,.651.177.651.656V15.82c.186.014.339.023.512.033" transform="translate(-1.539 -1.678)" fill="#7f6bf6"></path><path id="Path_195532" data-name="Path 195532" d="M16.947,9.658V5.37c-.113-.01-.21-.025-.307-.025-.45,0-.9.017-1.35-.007a.691.691,0,0,0-.743.384,1.489,1.489,0,0,1-1.78.594,1.577,1.577,0,0,1,.12-3.016,1.521,1.521,0,0,1,1.731.735.459.459,0,0,0,.494.274c.731-.015,1.463-.007,2.194-.006.514,0,.679.168.68.693,0,1.15.008,2.3-.008,3.45a.814.814,0,0,1-.19.465c-.233.284-.5.538-.752.806Z" transform="translate(-2.314 -0.643)" fill="#7f6bf6"></path><path id="Path_195533" data-name="Path 195533" d="M33.664,5.425V9.772c-.356-.357-.661-.651-.949-.961a.437.437,0,0,1-.077-.278q-.007-1.811,0-3.622c0-.408.194-.589.611-.591.777,0,1.554-.006,2.331,0a.364.364,0,0,0,.392-.218,1.539,1.539,0,0,1,1.775-.779,1.574,1.574,0,0,1-.039,3.05,1.523,1.523,0,0,1-1.738-.787.362.362,0,0,0-.389-.225c-.6.012-1.194.008-1.791.013a.474.474,0,0,0-.125.05" transform="translate(-6.452 -0.646)" fill="#7f6bf6"></path><path id="Path_195534" data-name="Path 195534" d="M26.218,6.286h-1.06V5.031c0-.564-.01-1.128.006-1.691a.383.383,0,0,0-.237-.412,1.534,1.534,0,0,1-.762-1.752,1.574,1.574,0,0,1,3.046,0,1.54,1.54,0,0,1-.763,1.752.394.394,0,0,0-.234.419c.011.968,0,1.935,0,2.939" transform="translate(-4.767 0)" fill="#7f6bf6"></path></g></g></svg> 