<?xml version="1.0" encoding="UTF-8"?> <svg xmlns="http://www.w3.org/2000/svg" xmlns:xlink="http://www.w3.org/1999/xlink" id="Group_223185" data-name="Group 223185" width="43.39" height="48" viewBox="0 0 43.39 48"><defs><clipPath id="clip-path"><rect id="Rectangle_68540" data-name="Rectangle 68540" width="43.39" height="48" fill="none"></rect></clipPath><clipPath id="clip-path-3"><rect id="Rectangle_68538" data-name="Rectangle 68538" width="0.361" height="1.609" fill="none"></rect></clipPath></defs><g id="Group_223191" data-name="Group 223191" clip-path="url(#clip-path)"><g id="Group_223190" data-name="Group 223190" transform="translate(0 0)"><g id="Group_223189" data-name="Group 223189" clip-path="url(#clip-path)"><path id="Path_195560" data-name="Path 195560" d="M34.305,11.018l.667-2.541a17.182,17.182,0,0,1,4.1,4.226l-2.616.565a4.065,4.065,0,0,0-2.153-2.25" transform="translate(-4.111 -1.015)" fill="#abffc7"></path><path id="Path_195561" data-name="Path 195561" d="M37.945,21.9c0,5.1-1.835,9.243-3.31,12.574-.942,2.142-1.76,3.989-1.76,5.4v8.365H15.02V44.356H10.934c-2.244,0-4.785,0-5.4-2.374a46.89,46.89,0,0,1-.791-6.717H2.612A2.464,2.464,0,0,1,.185,33.817a2.486,2.486,0,0,1,.5-2.659c1.216-1.216,3.762-4.36,3.832-5.13a7.454,7.454,0,0,0-.371-1.707A8.68,8.68,0,0,1,3.662,21.9,17.132,17.132,0,0,1,29.736,7.285l-.775,2.961a4.056,4.056,0,0,0-3.343,1.248l-4.57-3.132a2.707,2.707,0,0,0,.081-.3,2.4,2.4,0,1,0-.8,1.346l4.565,3.138a4.28,4.28,0,0,0-.312.921,4.02,4.02,0,0,0,.038,1.776l-1.992.824a2.124,2.124,0,1,0,.452,1.792,2.13,2.13,0,0,0,.037-.613l1.992-.829a4.049,4.049,0,0,0,5.577,1.325l1.987,2.309a2.457,2.457,0,0,0-.425.98,2.612,2.612,0,1,0,1.393-1.814l-1.98-2.3a4.039,4.039,0,0,0,.878-1.809,3.971,3.971,0,0,0,.075-1.033l3.08-.662A17.011,17.011,0,0,1,37.945,21.9" transform="translate(0 -0.571)" fill="#abffc7"></path><g id="Group_223187" data-name="Group 223187" transform="translate(20.539 46.391)" opacity="0.27"><g id="Group_223186" data-name="Group 223186"><g id="Group_223185-2" data-name="Group 223185" clip-path="url(#clip-path-3)"><path id="Path_195562" data-name="Path 195562" d="M23.7,52.707a1.6,1.6,0,0,0-.247,1.61" transform="translate(-23.335 -52.707)" fill="#f26422"></path></g></g></g><path id="Path_195563" data-name="Path 195563" d="M39.6,22.145a2.616,2.616,0,1,1-5.124-1.055,2.469,2.469,0,0,1,.425-.98L32.916,17.8a4.047,4.047,0,0,1-5.576-1.325l-1.992.829a2.162,2.162,0,0,1-.038.613,2.116,2.116,0,1,1-.452-1.792L26.85,15.3a4.033,4.033,0,0,1-.038-1.776,4.329,4.329,0,0,1,.312-.921L22.56,9.469a2.391,2.391,0,1,1,.8-1.346,2.523,2.523,0,0,1-.081.3l4.571,3.132A4.054,4.054,0,0,1,31.193,10.3l.775-2.961c.382.231.759.484,1.125.748l-.667,2.541a4.065,4.065,0,0,1,2.153,2.25l2.616-.565c.259.377.5.759.727,1.152l-3.079.662a3.969,3.969,0,0,1-.076,1.033,4.039,4.039,0,0,1-.878,1.809l1.981,2.3a2.617,2.617,0,0,1,3.73,2.869" transform="translate(-2.232 -0.629)" fill="#5b3deb"></path><path id="Path_195564" data-name="Path 195564" d="M37.868,2.929A2.445,2.445,0,0,1,35.5,4.878l-.678,2.583c-.366-.263-.743-.517-1.126-.748l.571-2.163a2.437,2.437,0,1,1,3.6-1.62" transform="translate(-3.96 0)" fill="#7f6bf6"></path><path id="Path_195565" data-name="Path 195565" d="M48.088,12.889a2.976,2.976,0,0,1-5.625.635l-2.013.43c-.226-.393-.468-.775-.727-1.152l2.471-.527a2.68,2.68,0,0,1,.065-.582,2.975,2.975,0,1,1,5.829,1.2" transform="translate(-4.76 -1.115)" fill="#7f6bf6"></path></g></g></g></svg> 