<?xml version="1.0" encoding="UTF-8"?> <svg xmlns="http://www.w3.org/2000/svg" xmlns:xlink="http://www.w3.org/1999/xlink" width="44.842" height="48" viewBox="0 0 44.842 48"><defs><clipPath id="clip-path"><rect id="Rectangle_68529" data-name="Rectangle 68529" width="44.842" height="48" fill="none"></rect></clipPath></defs><g id="Group_223182" data-name="Group 223182" transform="translate(0 0)"><g id="Group_223182-2" data-name="Group 223182" transform="translate(0 0)" clip-path="url(#clip-path)"><path id="Path_195541" data-name="Path 195541" d="M41.181,18.591V40.828a1.831,1.831,0,0,1-1.058,1.578L21.653,50a1.935,1.935,0,0,1-2.124,0L1.06,42.406A1.816,1.816,0,0,1,0,40.828V18.583a.784.784,0,0,1,.423-.749l8.486-3.425,1.554-.627,3.312-1.343,2.522,4a5.587,5.587,0,0,0,.724.854c.024.024.049.057.073.081l-.016.008-4.174,1.684-2.669,1.082-.871.35a.879.879,0,0,0-.545.814v6.7a.9.9,0,0,0,.545.814l1.863.773a1.045,1.045,0,0,0,.155.033.392.392,0,0,0,.391-.4V23.31a.937.937,0,0,1,.252-.61.823.823,0,0,1,.3-.2l6.037-2.441,2.286-.919,2.97-1.2.244-.1a5.36,5.36,0,0,0,1.2-1.4l2.482-3.946,3.165,1.286,1.57.635L34,15.1a11.394,11.394,0,0,0-3.027,8.145H27.837L33.98,30.9l6.143-7.656H37.007c0-1.9.529-4.792,1.619-5.744a4.528,4.528,0,0,1,.439-.342l1.692.683a.691.691,0,0,1,.423.749" transform="translate(0 -2.318)" fill="#abffc7"></path><path id="Path_195542" data-name="Path 195542" d="M29.949,12.489l-2.482,3.946a5.36,5.36,0,0,1-1.2,1.4l-.244.1-2.97,1.2-2.286.919.179,1.88a.717.717,0,0,0,.7.627h2.7a.7.7,0,0,0,.692-.627l.2-1.985a7.756,7.756,0,0,0,1.489-.618l1.546,1.261a.68.68,0,0,0,.928-.041l1.92-1.912a.708.708,0,0,0,.041-.936l-1.269-1.546a7.932,7.932,0,0,0,.61-1.473l1.993-.2a.7.7,0,0,0,.627-.692v-.016ZM18.7,16.443l-2.522-4-3.312,1.343v.008a.709.709,0,0,0,.627.692l1.993.2a7.6,7.6,0,0,0,.618,1.481L14.832,17.7a.708.708,0,0,0,.041.936l.431.431,4.174-1.684.016-.008c-.024-.024-.049-.057-.073-.081a5.587,5.587,0,0,1-.724-.854" transform="translate(-2.397 -2.318)" fill="#5b3deb"></path><path id="Path_195543" data-name="Path 195543" d="M32.488,8.088l-1.985-.2A8.041,8.041,0,0,0,29.884,6.4l1.269-1.554a.708.708,0,0,0-.041-.936L29.193,2a.688.688,0,0,0-.928-.041L26.719,3.222a7.247,7.247,0,0,0-1.489-.61l-.2-1.985A.7.7,0,0,0,24.343,0h-2.7a.71.71,0,0,0-.7.627l-.187,1.985a7.2,7.2,0,0,0-1.489.618L17.729,1.961A.7.7,0,0,0,16.793,2l-1.92,1.912a.708.708,0,0,0-.041.936L16.1,6.4a7.3,7.3,0,0,0-.61,1.473l-2,.212a.7.7,0,0,0-.627.692v2.685l3.312-1.343,2.522,4a5.587,5.587,0,0,0,.724.854c.024.024.049.057.073.081l-.016.008L15.3,16.753l1.489,1.481a.68.68,0,0,0,.928.041l1.546-1.261a8.212,8.212,0,0,0,1.489.618l.008.106,2.286-.919,2.97-1.2.244-.1a5.36,5.36,0,0,0,1.2-1.4l2.482-3.946,3.165,1.286V8.779a.691.691,0,0,0-.627-.692m-9.5,5.6a3.563,3.563,0,0,1-.919-7.005,3.8,3.8,0,0,1,.919-.122,3.57,3.57,0,0,1,3.556,3.564,3.566,3.566,0,0,1-3.556,3.564" transform="translate(-2.397 0)" fill="#7f6bf6"></path><path id="Path_195544" data-name="Path 195544" d="M46.5,23.855l-6.143,7.656-6.143-7.656h3.141A11.394,11.394,0,0,1,40.38,15.71l5.061,2.059A4.528,4.528,0,0,0,45,18.11c-1.09.952-1.619,3.849-1.619,5.744Z" transform="translate(-6.376 -2.927)" fill="#5b3deb"></path><path id="Path_195545" data-name="Path 195545" d="M52.631,10.846v4.5c-.033,0-.057.008-.081.008a11.033,11.033,0,0,0-5.7,1.505L41.793,14.8c.2-.212.407-.415.627-.61,3.084-2.709,7.274-3.3,10.008-3.36a1.86,1.86,0,0,1,.2.016" transform="translate(-7.788 -2.018)" fill="#7f6bf6"></path></g></g></svg> 