<?xml version="1.0" encoding="UTF-8"?> <svg xmlns="http://www.w3.org/2000/svg" xmlns:xlink="http://www.w3.org/1999/xlink" width="198" height="170" viewBox="0 0 198 170"><defs><clipPath id="clip-path"><rect id="Rectangle_80908" data-name="Rectangle 80908" width="198" height="170" transform="translate(591 10282)" fill="#fff" stroke="#707070" stroke-width="1"></rect></clipPath><clipPath id="clip-path-2"><rect id="Rectangle_50799" data-name="Rectangle 50799" width="159.142" height="74.231" fill="none"></rect></clipPath><clipPath id="clip-path-3"><path id="Path_144315" data-name="Path 144315" d="M620.967,657.99H538.6l51.8,29.9-76.783,44.336h82.365l76.777-44.336Z" transform="translate(-513.608 -657.99)" fill="none"></path></clipPath><clipPath id="clip-path-4"><rect id="Rectangle_50801" data-name="Rectangle 50801" width="69.554" height="48.557" fill="none"></rect></clipPath><clipPath id="clip-path-5"><path id="Path_144325" data-name="Path 144325" d="M574.32,600.916h0l-43.532-23.994H504.767l42.545,24.561.991-.568-42.545,24.564h26.02Z" transform="translate(-504.767 -576.922)" fill="none"></path></clipPath><linearGradient id="linear-gradient" x1="-5.278" y1="2.743" x2="-5.268" y2="2.743" gradientUnits="objectBoundingBox"><stop offset="0" stop-color="#c4c9e5"></stop><stop offset="0.637" stop-color="#eceef6"></stop><stop offset="1" stop-color="#fff"></stop></linearGradient><clipPath id="clip-path-6"><rect id="Rectangle_50803" data-name="Rectangle 50803" width="87.811" height="40.97" fill="none"></rect></clipPath><clipPath id="clip-path-7"><path id="Path_144331" data-name="Path 144331" d="M122.816,724.462c-10.116-1-20.168-3.1-26.795-5.693,2.884-1.186,7.992-1.9,14.917-1.9,3.831,0,7.859.239,11.878.635V701.559c-29.17-3.609-56.756-2.623-66.452,2.978L35,716.869l14.248,2.743-9.5,5.483,64.078,12.334c6.293,1.211,12.673,2.2,18.982,2.976Z" transform="translate(-35.005 -699.435)" fill="none"></path></clipPath><linearGradient id="linear-gradient-2" x1="-0.29" y1="1.074" x2="-0.282" y2="1.074" gradientUnits="objectBoundingBox"><stop offset="0" stop-color="#dae0f5"></stop><stop offset="0.583" stop-color="#f2f4fb"></stop><stop offset="1" stop-color="#fff"></stop></linearGradient></defs><g id="Mask_Group_221829" data-name="Mask Group 221829" transform="translate(-591 -10282)" clip-path="url(#clip-path)"><g id="Group_222734" data-name="Group 222734" transform="translate(-262.965 -275.749)" style="isolation: isolate"><g id="Group_260783" data-name="Group 260783" transform="translate(570.621 10163)"><path id="Path_144316" data-name="Path 144316" d="M493.481,558.562l70.483,40.689-76.786,44.336L416.7,602.9Z" transform="translate(-113.639 -152.327)" fill="#f1f1f6"></path><path id="Path_144317" data-name="Path 144317" d="M416.7,619.528l70.48,40.69,0,61.514L416.7,681.043Z" transform="translate(-113.639 -168.953)" fill="#ced3f8"></path><path id="Path_144318" data-name="Path 144318" d="M513.608,658.851l76.784-44.338v61.515l-76.784,44.336Z" transform="translate(-140.067 -167.585)" fill="#bbc0e6"></path><path id="Path_144319" data-name="Path 144319" d="M471.039,585.772l70.478,40.695L530.544,632.8l-70.478-40.7Z" transform="translate(-125.466 -159.747)" fill="#fff"></path><path id="Path_144320" data-name="Path 144320" d="M567.943,641.726v8.155l-10.972,6.335v-8.155Z" transform="translate(-151.893 -175.007)" fill="#dfe4f4"></path><path id="Path_144321" data-name="Path 144321" d="M599.567,687.2l-3.447-1.992-3.447,5.971.929.536,1.86-3.226V697.7l1.314-.759v-9.21l1.863,1.076Z" transform="translate(-161.629 -186.865)" fill="#abb2da"></path><path id="Path_144322" data-name="Path 144322" d="M612.208,679.9l-3.447-1.99-3.446,5.971.927.536,1.861-3.226v9.21l1.313-.758v-9.211l1.863,1.076Z" transform="translate(-165.077 -184.875)" fill="#abb2da"></path><path id="Path_144323" data-name="Path 144323" d="M541.809,677.8l-19.172,11.069V675.12l19.172-11.07Z" transform="translate(-142.53 -181.095)" fill="#5652cc"></path><path id="Path_144324" data-name="Path 144324" d="M536.331,696.019l-13.694,7.906v-3.488l13.694-7.907Z" transform="translate(-142.53 -188.861)" fill="#5652cc"></path><g id="Group_151011" data-name="Group 151011" transform="translate(367.111 419.588)" style="mix-blend-mode: multiply;isolation: isolate"><g id="Group_151010" data-name="Group 151010"><g id="Group_151009" data-name="Group 151009" clip-path="url(#clip-path-4)"><g id="Group_151008" data-name="Group 151008"><g id="Group_151007" data-name="Group 151007" clip-path="url(#clip-path-5)"><rect id="Rectangle_50800" data-name="Rectangle 50800" width="69.554" height="48.557" fill="url(#linear-gradient)"></rect></g></g></g></g></g><path id="Path_144326" data-name="Path 144326" d="M506.129,614.8l42.547-24.564,0,14.309L506.129,629.11Z" transform="translate(-138.028 -160.965)" fill="#bbc0e6"></path><path id="Path_144327" data-name="Path 144327" d="M491.539,557.249l41.555,23.994-42.547,24.564-41.554-24Z" transform="translate(-122.446 -151.969)" fill="#f1f1f6"></path><path id="Path_144328" data-name="Path 144328" d="M448.994,591.02l41.554,24v14.308l-41.554-24Z" transform="translate(-122.446 -161.179)" fill="#ced3f8"></path><path id="Path_144329" data-name="Path 144329" d="M514.045,570.242l8.161,4.711-42.545,24.565-8.156-4.711Z" transform="translate(-128.585 -155.512)" fill="#fff"></path><path id="Path_144330" data-name="Path 144330" d="M471.5,604.019l8.16,4.711,0,9.208-8.157-4.711Z" transform="translate(-128.585 -164.723)" fill="#dfe4f4"></path><g id="Group_151016" data-name="Group 151016" transform="translate(25.459 508.69)" style="mix-blend-mode: multiply;isolation: isolate"><g id="Group_151015" data-name="Group 151015"><g id="Group_151014" data-name="Group 151014" clip-path="url(#clip-path-6)"><g id="Group_151013" data-name="Group 151013" transform="translate(0 0)"><g id="Group_151012" data-name="Group 151012" clip-path="url(#clip-path-7)"><rect id="Rectangle_50802" data-name="Rectangle 50802" width="87.811" height="42.454" transform="translate(0 -1.484)" fill="url(#linear-gradient-2)"></rect></g></g></g></g></g></g></g></g></svg> 