<?xml version="1.0" encoding="UTF-8"?> <svg xmlns="http://www.w3.org/2000/svg" xmlns:xlink="http://www.w3.org/1999/xlink" width="224.449" height="168.751" viewBox="0 0 224.449 168.751"><defs><clipPath id="clip-path"><rect id="Rectangle_67859" data-name="Rectangle 67859" width="224.449" height="168.751" fill="none"></rect></clipPath><clipPath id="clip-path-4"><rect id="Rectangle_67833" data-name="Rectangle 67833" width="28.538" height="13.961" fill="none"></rect></clipPath><clipPath id="clip-path-6"><rect id="Rectangle_67835" data-name="Rectangle 67835" width="12.191" height="16.906" fill="none"></rect></clipPath><clipPath id="clip-path-8"><path id="Path_192346" data-name="Path 192346" d="M265.919,510.679l-2.682,1.548c4.021-2.322,10.538,1.444,14.557,8.4s4.018,14.476.007,16.8l2.674-1.542c4.021-2.32,4.019-9.846,0-16.809-3.214-5.566-8.026-9.09-11.881-9.09a5.279,5.279,0,0,0-2.676.686" transform="translate(-263.237 -509.993)" fill="none"></path></clipPath><linearGradient id="linear-gradient" x1="-1.834" y1="1.375" x2="-1.826" y2="1.375" gradientUnits="objectBoundingBox"><stop offset="0" stop-color="#6b67e9"></stop><stop offset="0.419" stop-color="#6460e0"></stop><stop offset="1" stop-color="#5652cc"></stop></linearGradient><clipPath id="clip-path-12"><rect id="Rectangle_67846" data-name="Rectangle 67846" width="13.797" height="21.137" fill="none"></rect></clipPath><clipPath id="clip-path-13"><path id="Path_192363" data-name="Path 192363" d="M475.016,266.6l35.457,20.474,57.958-33.518-35.457-20.475Z" transform="translate(-475.016 -233.081)" fill="none"></path></clipPath><linearGradient id="linear-gradient-2" x1="-1.245" y1="2.068" x2="-1.243" y2="2.068" gradientUnits="objectBoundingBox"><stop offset="0" stop-color="#fff"></stop><stop offset="1" stop-color="#dfe4f4"></stop></linearGradient><clipPath id="clip-path-15"><path id="Path_192365" data-name="Path 192365" d="M338.861,430.032a6.98,6.98,0,0,0-3.489,6.044v13.33l35.454,20.474,5.133-20.322L340.5,429.085Z" transform="translate(-335.372 -429.085)" fill="none"></path></clipPath><linearGradient id="linear-gradient-3" x1="-1.341" y1="1.279" x2="-1.337" y2="1.279" gradientUnits="objectBoundingBox"><stop offset="0" stop-color="#ced3f8"></stop><stop offset="0.554" stop-color="#ced3f8"></stop><stop offset="1" stop-color="#fff"></stop></linearGradient><clipPath id="clip-path-17"><path id="Path_192367" data-name="Path 192367" d="M356.3,332.921l35.458,20.472c.83-11.207,4.223-24.9,15.122-31.189,0,0-31.544-18.287-35.457-20.474-10.9,6.293-14.292,19.985-15.122,31.192" transform="translate(-356.301 -301.729)" fill="none"></path></clipPath><linearGradient id="linear-gradient-4" x1="-1.107" y1="1.491" x2="-1.104" y2="1.491" gradientUnits="objectBoundingBox"><stop offset="0" stop-color="#ced3f8"></stop><stop offset="0.094" stop-color="#d5d9f8"></stop><stop offset="0.371" stop-color="#e7e9f9"></stop><stop offset="0.665" stop-color="#f2f2fa"></stop><stop offset="1" stop-color="#f6f6fb"></stop></linearGradient><clipPath id="clip-path-19"><rect id="Rectangle_67853" data-name="Rectangle 67853" width="3.316" height="4.282" fill="none"></rect></clipPath><clipPath id="clip-path-21"><path id="Path_192370" data-name="Path 192370" d="M522.877,389.98l-16.653,9.638c-3.26,6.3-4.63,13.726-5.119,20.308l21.924-12.658a2.686,2.686,0,0,0,1.344-2.327v-14.1a.994.994,0,0,0-1.5-.862" transform="translate(-501.104 -389.844)" fill="none"></path></clipPath><linearGradient id="linear-gradient-5" x1="-5.274" y1="2.436" x2="-5.264" y2="2.436" gradientUnits="objectBoundingBox"><stop offset="0" stop-color="#6b67e9"></stop><stop offset="0.445" stop-color="#524cc1"></stop><stop offset="1" stop-color="#362e94"></stop></linearGradient><clipPath id="clip-path-22"><path id="Path_192371" data-name="Path 192371" d="M356.316,366.468l35.458,20.472c.489-6.582,1.859-14.013,5.119-20.308L361.435,346.16c-3.26,6.3-4.63,13.726-5.119,20.308" transform="translate(-356.316 -346.16)" fill="none"></path></clipPath><linearGradient id="linear-gradient-6" x1="-2.15" y1="2.059" x2="-2.144" y2="2.059" gradientUnits="objectBoundingBox"><stop offset="0" stop-color="#6b67e9"></stop><stop offset="0.16" stop-color="#6e6bec"></stop><stop offset="1" stop-color="#807dfb"></stop></linearGradient></defs><g id="Group_221558" data-name="Group 221558" style="isolation: isolate"><g id="Group_221557" data-name="Group 221557" clip-path="url(#clip-path)"><path id="Path_192310" data-name="Path 192310" d="M486.971,105.387l4.5-2.6h13.182V110.4l-4.5,2.6v-7.61Z" transform="translate(-367.713 -77.616)" fill="#807dfb"></path><path id="Path_192311" data-name="Path 192311" d="M453.484,124.72l4.5-2.6h13.182v7.611l-4.5,2.6v-7.61Z" transform="translate(-342.427 -92.215)" fill="#ced3f8"></path><path id="Path_192312" data-name="Path 192312" d="M420,144.054l4.5-2.6h13.182v7.611l-4.5,2.6v-7.61Z" transform="translate(-317.142 -106.813)" fill="#dfe4f4"></path><path id="Path_192313" data-name="Path 192313" d="M386.512,163.387l4.5-2.6h13.182V168.4l-4.5,2.6v-7.61Z" transform="translate(-291.856 -121.412)" fill="#f1f1f6"></path><path id="Path_192314" data-name="Path 192314" d="M579.409,649.981v7.61h13.182l4.5-2.6H583.91v-7.61Z" transform="translate(-437.514 -488.84)" fill="#807dfb"></path><path id="Path_192315" data-name="Path 192315" d="M630.578,635.659l-4.5,2.6H612.9v-7.611l4.5-2.6v7.61Z" transform="translate(-462.799 -474.242)" fill="#ced3f8"></path><path id="Path_192316" data-name="Path 192316" d="M664.064,616.326l-4.5,2.6H646.382v-7.611l4.5-2.6v7.61Z" transform="translate(-488.085 -459.643)" fill="#dfe4f4"></path><path id="Path_192317" data-name="Path 192317" d="M697.551,596.993l-4.5,2.6H679.868v-7.611l4.5-2.6v7.61Z" transform="translate(-513.37 -445.044)" fill="#f1f1f6"></path><path id="Path_192320" data-name="Path 192320" d="M234.451,113.925l26.2,15.123-28.538,16.479L205.914,130.4Z" transform="translate(-155.486 -86.025)" fill="#f1f1f6"></path><path id="Path_192321" data-name="Path 192321" d="M205.914,181.217l26.2,15.123V219.2L205.914,204.08Z" transform="translate(-155.486 -136.838)" fill="#ced3f8"></path><path id="Path_192322" data-name="Path 192322" d="M312.879,192.161l28.538-16.479v22.863l-28.538,16.478Z" transform="translate(-236.256 -132.658)" fill="#bbc0e6"></path><path id="Path_192323" data-name="Path 192323" d="M257.858,143.958l26.194,15.125-4.078,2.355L253.78,146.313Z" transform="translate(-191.63 -108.704)" fill="#fff"></path><path id="Path_192324" data-name="Path 192324" d="M364.82,205.718v3.031l-4.078,2.354v-3.031Z" transform="translate(-272.398 -155.339)" fill="#dfe4f4"></path><path id="Path_192325" data-name="Path 192325" d="M402.711,254.453l-1.281-.74-1.281,2.219.346.2.691-1.2v3.423l.489-.282V254.65l.692.4Z" transform="translate(-302.154 -191.579)" fill="#807dfb"></path><path id="Path_192326" data-name="Path 192326" d="M416.665,246.4l-1.281-.74-1.281,2.219.344.2.692-1.2V250.3l.488-.282V246.6l.692.4Z" transform="translate(-312.691 -185.499)" fill="#807dfb"></path><g id="Group_221501" data-name="Group 221501"><g id="Group_221500" data-name="Group 221500" clip-path="url(#clip-path)"><g id="Group_221499" data-name="Group 221499" transform="translate(76.623 40.505)" style="mix-blend-mode: multiply;isolation: isolate"><g id="Group_221498" data-name="Group 221498"><g id="Group_221497" data-name="Group 221497" clip-path="url(#clip-path-4)"><path id="Path_192327" data-name="Path 192327" d="M337.056,165.4l-24.178,13.961h8.72l19.818-11.443Z" transform="translate(-312.879 -165.397)" fill="#e8ecf7"></path></g></g></g></g></g><path id="Path_192328" data-name="Path 192328" d="M234.45,0,205.913,16.479,232.108,31.6l28.539-16.479Z" transform="translate(-155.486 0)" fill="#f1f1f6"></path><path id="Path_192329" data-name="Path 192329" d="M205.914,67.292l26.2,15.123v22.863L205.914,90.155Z" transform="translate(-155.486 -50.812)" fill="#ced3f8"></path><path id="Path_192330" data-name="Path 192330" d="M312.879,78.236l28.538-16.479V84.621L312.879,101.1Z" transform="translate(-236.256 -46.633)" fill="#bbc0e6"></path><path id="Path_192331" data-name="Path 192331" d="M257.858,30.033l26.194,15.125-4.078,2.355L253.78,32.388Z" transform="translate(-191.63 -22.678)" fill="#fff"></path><path id="Path_192332" data-name="Path 192332" d="M364.82,91.793v3.031l-4.078,2.354V94.148Z" transform="translate(-272.398 -69.313)" fill="#dfe4f4"></path><path id="Path_192333" data-name="Path 192333" d="M402.711,140.527l-1.281-.74-1.281,2.219.346.2.691-1.2v3.423l.489-.282v-3.423l.692.4Z" transform="translate(-302.154 -105.554)" fill="#807dfb"></path><path id="Path_192334" data-name="Path 192334" d="M416.665,132.475l-1.281-.74-1.281,2.219.344.2.692-1.2v3.423l.488-.282v-3.423l.692.4Z" transform="translate(-312.691 -99.474)" fill="#807dfb"></path><g id="Group_221506" data-name="Group 221506"><g id="Group_221505" data-name="Group 221505" clip-path="url(#clip-path)"><g id="Group_221504" data-name="Group 221504" transform="translate(53.14 22.046)" style="mix-blend-mode: multiply;isolation: isolate"><g id="Group_221503" data-name="Group 221503"><g id="Group_221502" data-name="Group 221502" clip-path="url(#clip-path-6)"><path id="Path_192335" data-name="Path 192335" d="M216.991,99.888l12.191,7.038V97.058l-12.19-7.038Z" transform="translate(-216.991 -90.02)" fill="#e8ecf7"></path></g></g></g></g></g><path id="Path_192336" data-name="Path 192336" d="M112.656,284.762l39.615-22.874V282.9l-39.615,22.874Z" transform="translate(-85.067 -197.753)" fill="#bbc0e6"></path><path id="Path_192337" data-name="Path 192337" d="M0,219.715l27.589,15.931L67.2,212.773,39.616,196.844Z" transform="translate(0 -148.637)" fill="#f1f1f6"></path><path id="Path_192338" data-name="Path 192338" d="M0,311.249l27.589,15.932V306.169L0,290.238Z" transform="translate(0 -219.159)" fill="#ced3f8"></path><path id="Path_192339" data-name="Path 192339" d="M213.118,298.5l11.752-6.785v-4.365l-11.752,6.784Z" transform="translate(-160.926 -216.978)" fill="#6b67e9"></path><path id="Path_192340" data-name="Path 192340" d="M238.107,316.815l5.632-3.252v-1.647l-5.632,3.25Z" transform="translate(-179.796 -235.529)" fill="#6b67e9"></path><path id="Path_192341" data-name="Path 192341" d="M84,222.461l5.418,3.128L49.8,248.464l-5.415-3.128Z" transform="translate(-33.515 -167.981)" fill="#fff"></path><path id="Path_192342" data-name="Path 192342" d="M44.385,315.867l5.418,3.128,0,6.113-5.415-3.128Z" transform="translate(-33.515 -238.512)" fill="#dfe4f4"></path><path id="Path_192343" data-name="Path 192343" d="M294.695,575.423l27.832-16.069,2.811,1.623-27.832,16.069Z" transform="translate(-222.525 -422.37)" fill="#f1f1f6"></path><g id="Group_221513" data-name="Group 221513"><g id="Group_221512" data-name="Group 221512" clip-path="url(#clip-path)"><path id="Path_192345" data-name="Path 192345" d="M275.815,546.919a4.679,4.679,0,0,1,.355-1.895c-1.781-.2-3.038,1.09-3.038,3.445a10.736,10.736,0,0,0,4.856,8.411c2.039,1.177,3.781.73,4.5-.909a4.72,4.72,0,0,1-1.819-.64,10.733,10.733,0,0,1-4.854-8.411" transform="translate(-206.243 -411.535)" fill="#5652cc"></path></g></g><g id="Group_221515" data-name="Group 221515" transform="translate(64.466 124.896)"><g id="Group_221514" data-name="Group 221514" clip-path="url(#clip-path-8)"><rect id="Rectangle_67840" data-name="Rectangle 67840" width="32.176" height="34.47" transform="translate(-11.92 6.794) rotate(-30)" fill="url(#linear-gradient)"></rect></g></g><g id="Group_221517" data-name="Group 221517"><g id="Group_221516" data-name="Group 221516" clip-path="url(#clip-path)"><path id="Path_192347" data-name="Path 192347" d="M268.5,525.408c-4.019-6.961-10.536-10.727-14.557-8.4s-4.02,9.846,0,16.808l7.278,12.606,7.279-4.2c4.019-2.32,4.018-9.845,0-16.808m-7.279,9.81a10.736,10.736,0,0,1-4.856-8.411c0-3.1,2.174-4.353,4.856-2.805a10.733,10.733,0,0,1,4.855,8.413c0,3.1-2.173,4.351-4.855,2.8" transform="translate(-189.474 -389.873)" fill="#807dfb"></path></g></g><path id="Path_192349" data-name="Path 192349" d="M567.971,488.933l6.894,3.98,0,5.768-6.893-3.98Z" transform="translate(-428.877 -369.195)" fill="#131147"></path><path id="Path_192350" data-name="Path 192350" d="M804.639,352.058l6.895,3.98,0,5.768-6.893-3.98Z" transform="translate(-607.586 -265.84)" fill="#131147"></path><path id="Path_192351" data-name="Path 192351" d="M739.851,382.778l-6.894,3.98v5.768l6.893-3.98Z" transform="translate(-553.458 -289.037)" fill="#131147"></path><g id="Group_221532" data-name="Group 221532"><g id="Group_221531" data-name="Group 221531" clip-path="url(#clip-path)"><path id="Path_192352" data-name="Path 192352" d="M536,528.431c-1.278-.741-2.073-2.325-2.073-4.584a15.639,15.639,0,0,1,7.08-12.257c1.954-1.13,3.722-1.237,5-.5s2.073,2.325,2.073,4.584a15.647,15.647,0,0,1-7.077,12.258c-1.954,1.126-3.724,1.236-5.007.5" transform="translate(-403.172 -385.572)" fill="#362e94"></path><path id="Path_192353" data-name="Path 192353" d="M546.921,534.671a8.614,8.614,0,0,1,3.9-6.751c2.15-1.242,3.9-.234,3.9,2.25a8.617,8.617,0,0,1-3.9,6.75c-2.154,1.244-3.9.236-3.9-2.249" transform="translate(-412.982 -398.233)" fill="#c6cece"></path><path id="Path_192354" data-name="Path 192354" d="M517.229,514.2a15.638,15.638,0,0,1,7.08-12.257c1.954-1.13,3.722-1.237,5-.5l-5.419-3.129c-1.28-.737-3.048-.631-5,.5a15.643,15.643,0,0,0-7.078,12.259c0,2.256.795,3.843,2.075,4.582l5.414,3.13c-1.278-.741-2.073-2.325-2.073-4.584" transform="translate(-386.471 -375.928)" fill="#20196f"></path><path id="Path_192355" data-name="Path 192355" d="M772.683,391.552c-1.281-.741-2.072-2.325-2.072-4.582a15.641,15.641,0,0,1,7.078-12.259c1.954-1.129,3.721-1.235,5-.5s2.073,2.327,2.073,4.584a15.64,15.64,0,0,1-7.077,12.259c-1.956,1.129-3.724,1.235-5.006.5" transform="translate(-581.891 -282.215)" fill="#362e94"></path><path id="Path_192356" data-name="Path 192356" d="M783.594,397.8a8.611,8.611,0,0,1,3.9-6.75c2.151-1.241,3.9-.234,3.9,2.252a8.616,8.616,0,0,1-3.9,6.748c-2.154,1.243-3.9.236-3.9-2.25" transform="translate(-591.694 -294.879)" fill="#c6cece"></path><path id="Path_192357" data-name="Path 192357" d="M753.9,377.325a15.641,15.641,0,0,1,7.078-12.259c1.954-1.129,3.721-1.235,5-.5l-5.419-3.127c-1.279-.739-3.05-.631-5,.5a15.65,15.65,0,0,0-7.078,12.26c0,2.255.795,3.843,2.075,4.582l5.416,3.127c-1.281-.741-2.072-2.325-2.072-4.582" transform="translate(-565.183 -272.571)" fill="#20196f"></path><path id="Path_192358" data-name="Path 192358" d="M709.169,428.268c-1.282-.741-2.073-2.325-2.073-4.582a15.638,15.638,0,0,1,7.078-12.259c1.953-1.129,3.72-1.235,5-.5s2.073,2.327,2.073,4.584a15.643,15.643,0,0,1-7.076,12.259c-1.956,1.128-3.724,1.235-5.006.5" transform="translate(-533.93 -309.94)" fill="#362e94"></path><path id="Path_192359" data-name="Path 192359" d="M720.079,434.513a8.609,8.609,0,0,1,3.9-6.751c2.15-1.242,3.9-.235,3.9,2.251a8.617,8.617,0,0,1-3.9,6.749c-2.154,1.244-3.9.236-3.9-2.249" transform="translate(-543.734 -322.603)" fill="#c6cece"></path><path id="Path_192360" data-name="Path 192360" d="M690.389,414.042a15.639,15.639,0,0,1,7.078-12.259c1.954-1.128,3.72-1.235,5-.5l-5.419-3.128c-1.279-.739-3.049-.631-5,.5a15.649,15.649,0,0,0-7.078,12.26c0,2.255.795,3.843,2.075,4.582l5.417,3.127c-1.282-.741-2.073-2.325-2.073-4.582" transform="translate(-517.224 -300.295)" fill="#20196f"></path><g id="Group_221530" data-name="Group 221530" transform="translate(137.989 91.393)" style="mix-blend-mode: multiply;isolation: isolate"><g id="Group_221529" data-name="Group 221529"><g id="Group_221528" data-name="Group 221528" clip-path="url(#clip-path-12)"><path id="Path_192361" data-name="Path 192361" d="M577.236,386.369l-13.777,7.958.02-13.182,13.776-7.955Z" transform="translate(-563.458 -373.19)" fill="#f1f1f6"></path></g></g></g><path id="Path_192362" data-name="Path 192362" d="M559.417,476.221l-2.4,1.384v-1.038l2.4-1.384Z" transform="translate(-420.608 -358.812)" fill="#0e1c70"></path></g></g><g id="Group_221534" data-name="Group 221534" transform="translate(116.33 57.081)"><g id="Group_221533" data-name="Group 221533" clip-path="url(#clip-path-13)"><rect id="Rectangle_67848" data-name="Rectangle 67848" width="93.416" height="53.994" transform="translate(0)" fill="url(#linear-gradient-2)"></rect></g></g><g id="Group_221536" data-name="Group 221536"><g id="Group_221535" data-name="Group 221535" clip-path="url(#clip-path)"><path id="Path_192364" data-name="Path 192364" d="M453.509,297.371,418.052,276.9,432,268.843l35.457,20.475Z" transform="translate(-315.673 -203.004)" fill="#f6f6fb"></path></g></g><g id="Group_221538" data-name="Group 221538" transform="translate(82.132 105.082)"><g id="Group_221537" data-name="Group 221537" clip-path="url(#clip-path-15)"><rect id="Rectangle_67850" data-name="Rectangle 67850" width="55.622" height="55.547" transform="translate(-17.664 30.595) rotate(-60)" fill="url(#linear-gradient-3)"></rect></g></g><g id="Group_221540" data-name="Group 221540"><g id="Group_221539" data-name="Group 221539" clip-path="url(#clip-path)"><path id="Path_192366" data-name="Path 192366" d="M514.345,350.207s0-10.289,0-24.761L500.394,333.5c-10.9,6.292-14.292,19.982-15.122,31.189l-1.64.947a6.978,6.978,0,0,0-3.489,6.043v13.33l5.547-3.2c.035-.019.071-.032.105-.052l6.448-3.722v-.006a15.715,15.715,0,0,1,3.363-9.739c4-5.055,8.07-6.38,10.55-4.946,1.475.851,2.388,2.677,2.388,5.278l2.464-1.422,0-.012c3.107-1.794,17.16-9.956,17.188-9.972l6.447-3.722v-.005c0-5.173,3.666-11.523,8.146-14.11l15.56-8.984c2.25-1.3,4.287-1.424,5.761-.572S566.5,332.5,566.5,335.1l5.8-3.4V316.688Z" transform="translate(-362.557 -239.132)" fill="#bbc0e6"></path></g></g><g id="Group_221542" data-name="Group 221542" transform="translate(87.257 73.892)"><g id="Group_221541" data-name="Group 221541" clip-path="url(#clip-path-17)"><rect id="Rectangle_67852" data-name="Rectangle 67852" width="70.032" height="69.635" transform="translate(-22.371 38.748) rotate(-60)" fill="url(#linear-gradient-4)"></rect></g></g><g id="Group_221550" data-name="Group 221550"><g id="Group_221549" data-name="Group 221549" clip-path="url(#clip-path)"><g id="Group_221545" data-name="Group 221545" transform="translate(109.431 130.005)" style="mix-blend-mode: multiply;isolation: isolate"><g id="Group_221544" data-name="Group 221544"><g id="Group_221543" data-name="Group 221543" clip-path="url(#clip-path-19)"><path id="Path_192368" data-name="Path 192368" d="M446.844,532.041c0-1.057.742-1.486,1.658-.958a3.666,3.666,0,0,1,1.658,2.872c0,1.057-.742,1.486-1.658.957a3.665,3.665,0,0,1-1.658-2.872" transform="translate(-446.844 -530.857)" fill="#dfe4f4"></path></g></g></g><g id="Group_221548" data-name="Group 221548" transform="translate(86.333 116.67)" style="mix-blend-mode: multiply;isolation: isolate"><g id="Group_221547" data-name="Group 221547"><g id="Group_221546" data-name="Group 221546" clip-path="url(#clip-path-19)"><path id="Path_192369" data-name="Path 192369" d="M352.53,477.588c0-1.057.742-1.486,1.658-.958a3.665,3.665,0,0,1,1.658,2.872c0,1.057-.742,1.486-1.658.957a3.664,3.664,0,0,1-1.658-2.872" transform="translate(-352.53 -476.404)" fill="#dfe4f4"></path></g></g></g></g></g><g id="Group_221552" data-name="Group 221552" transform="translate(122.719 95.472)"><g id="Group_221551" data-name="Group 221551" clip-path="url(#clip-path-21)"><rect id="Rectangle_67856" data-name="Rectangle 67856" width="23.268" height="30.082" transform="translate(0 0)" fill="url(#linear-gradient-5)"></rect></g></g><g id="Group_221554" data-name="Group 221554" transform="translate(87.261 84.774)"><g id="Group_221553" data-name="Group 221553" clip-path="url(#clip-path-22)"><rect id="Rectangle_67857" data-name="Rectangle 67857" width="40.577" height="40.78" transform="translate(0 0)" fill="url(#linear-gradient-6)"></rect></g></g><g id="Group_221556" data-name="Group 221556"><g id="Group_221555" data-name="Group 221555" clip-path="url(#clip-path)"><path id="Path_192372" data-name="Path 192372" d="M389.382,502.165l-14.825-8.559v-1.943l14.825,8.559Z" transform="translate(-282.829 -371.257)" fill="#807dfb"></path><path id="Path_192373" data-name="Path 192373" d="M571.917,95.27,514.1,128.648l-41.257-23.823,57.816-33.378Z" transform="translate(-357.045 -53.95)" fill="#ced3f8"></path><path id="Path_192374" data-name="Path 192374" d="M699.127,205.822,641.311,239.2V202.1l57.816-33.38Z" transform="translate(-484.256 -127.398)" fill="#807dfb"></path><path id="Path_192375" data-name="Path 192375" d="M514.108,268.672l-5.268-3.042V243.18l-35.457-20.475-.528.306v-15.27l41.255,23.823Z" transform="translate(-357.053 -156.867)" fill="#e9e8ff"></path><path id="Path_192376" data-name="Path 192376" d="M687.63,223.458l-3.476,2.007-3.9,6.753,3.9,2.251,3.476-2.007-3.9-2.251Zm-6.293,3.633-2.263,1.306-3.9,6.753,3.9,2.251,2.263-1.306-3.9-2.251Zm9.353-5.4-3.9,6.753,3.9,2.251,33.919-19.583v-9Z" transform="translate(-509.828 -152.612)" fill="#f1f1f6"></path><path id="Path_192377" data-name="Path 192377" d="M829.019,250.091,816,257.606v-.85l13.017-7.515Z" transform="translate(-616.166 -188.203)" fill="#fcba06"></path><path id="Path_192378" data-name="Path 192378" d="M809.273,282.913l-.983.568v-.85l.983-.568Z" transform="translate(-610.342 -212.986)" fill="#fcba06"></path><path id="Path_192379" data-name="Path 192379" d="M801.714,287.277l-.984.568v-.85l.984-.568Z" transform="translate(-604.634 -216.282)" fill="#fcba06"></path><path id="Path_192380" data-name="Path 192380" d="M794.156,291.641l-.983.568v-.85l.983-.568Z" transform="translate(-598.927 -219.577)" fill="#fcba06"></path></g></g></g></g></svg> 